ISO-10303-21;
HEADER;
/* Generated by software containing ST-Developer
 * from STEP Tools, Inc. (www.steptools.com) 
 */

FILE_DESCRIPTION(
/* description */ (''),
/* implementation_level */ '2;1');

FILE_NAME(
/* name */ 'ESPHome-Indoor-Multi-Sensor-Corner-Speaker-Gasket.step',
/* time_stamp */ '2025-10-01T00:19:39-05:00',
/* author */ (''),
/* organization */ (''),
/* preprocessor_version */ 'ST-DEVELOPER v20.1',
/* originating_system */ 'Autodesk Translation Framework v14.17.0.0',
/* authorisation */ '');

FILE_SCHEMA (('AUTOMOTIVE_DESIGN { 1 0 10303 214 3 1 1 }'));
ENDSEC;

DATA;
#10=MECHANICAL_DESIGN_GEOMETRIC_PRESENTATION_REPRESENTATION('',(#13),#858);
#11=SHAPE_REPRESENTATION_RELATIONSHIP('SRR','None',#864,#12);
#12=ADVANCED_BREP_SHAPE_REPRESENTATION('',(#14),#857);
#13=STYLED_ITEM('',(#873),#14);
#14=MANIFOLD_SOLID_BREP('Speaker Enclosure Gasket',#510);
#15=FACE_BOUND('',#105,.T.);
#16=FACE_BOUND('',#106,.T.);
#17=FACE_BOUND('',#107,.T.);
#18=FACE_BOUND('',#108,.T.);
#19=FACE_BOUND('',#109,.T.);
#20=FACE_BOUND('',#110,.T.);
#21=FACE_BOUND('',#111,.T.);
#22=FACE_BOUND('',#126,.T.);
#23=FACE_BOUND('',#127,.T.);
#24=FACE_BOUND('',#128,.T.);
#25=FACE_BOUND('',#129,.T.);
#26=FACE_BOUND('',#130,.T.);
#27=FACE_BOUND('',#131,.T.);
#28=CONICAL_SURFACE('',#523,1.05,0.0277681883992298);
#29=CONICAL_SURFACE('',#526,1.05,0.0277681883992298);
#30=CONICAL_SURFACE('',#529,1.05,0.0277681883992298);
#31=CONICAL_SURFACE('',#532,1.05,0.0277681883992298);
#32=CIRCLE('',#518,0.875);
#33=CIRCLE('',#519,0.875);
#34=CIRCLE('',#521,0.875);
#35=CIRCLE('',#522,0.875);
#36=CIRCLE('',#524,1.05);
#37=CIRCLE('',#525,1.03888986892211);
#38=CIRCLE('',#527,1.05);
#39=CIRCLE('',#528,1.03888986892211);
#40=CIRCLE('',#530,1.05);
#41=CIRCLE('',#531,1.03888986892211);
#42=CIRCLE('',#533,1.05);
#43=CIRCLE('',#534,1.03888986892211);
#44=CIRCLE('',#536,1.99999999999999);
#45=CIRCLE('',#537,6.51500000000001);
#46=CIRCLE('',#538,1.99999999456715);
#47=CIRCLE('',#539,1.99999992315172);
#48=CIRCLE('',#540,7.24999999999998);
#49=CIRCLE('',#541,2.00775802008954);
#50=CIRCLE('',#542,2.00000000000001);
#51=CIRCLE('',#545,1.99999999456715);
#52=CIRCLE('',#548,6.51500000000001);
#53=CIRCLE('',#551,1.99999999999999);
#54=CIRCLE('',#554,2.00000000000001);
#55=CIRCLE('',#557,2.00775802008954);
#56=CIRCLE('',#559,7.24999999999998);
#57=CIRCLE('',#562,1.99999992315172);
#58=CYLINDRICAL_SURFACE('',#517,0.875);
#59=CYLINDRICAL_SURFACE('',#520,0.875);
#60=CYLINDRICAL_SURFACE('',#544,1.99999999456715);
#61=CYLINDRICAL_SURFACE('',#547,6.51500000000001);
#62=CYLINDRICAL_SURFACE('',#550,1.99999999999999);
#63=CYLINDRICAL_SURFACE('',#553,2.00000000000001);
#64=CYLINDRICAL_SURFACE('',#556,2.00775802008954);
#65=CYLINDRICAL_SURFACE('',#558,7.24999999999998);
#66=CYLINDRICAL_SURFACE('',#561,1.99999992315172);
#67=FACE_OUTER_BOUND('',#93,.T.);
#68=FACE_OUTER_BOUND('',#94,.T.);
#69=FACE_OUTER_BOUND('',#95,.T.);
#70=FACE_OUTER_BOUND('',#96,.T.);
#71=FACE_OUTER_BOUND('',#97,.T.);
#72=FACE_OUTER_BOUND('',#98,.T.);
#73=FACE_OUTER_BOUND('',#99,.T.);
#74=FACE_OUTER_BOUND('',#100,.T.);
#75=FACE_OUTER_BOUND('',#101,.T.);
#76=FACE_OUTER_BOUND('',#102,.T.);
#77=FACE_OUTER_BOUND('',#103,.T.);
#78=FACE_OUTER_BOUND('',#104,.T.);
#79=FACE_OUTER_BOUND('',#112,.T.);
#80=FACE_OUTER_BOUND('',#113,.T.);
#81=FACE_OUTER_BOUND('',#114,.T.);
#82=FACE_OUTER_BOUND('',#115,.T.);
#83=FACE_OUTER_BOUND('',#116,.T.);
#84=FACE_OUTER_BOUND('',#117,.T.);
#85=FACE_OUTER_BOUND('',#118,.T.);
#86=FACE_OUTER_BOUND('',#119,.T.);
#87=FACE_OUTER_BOUND('',#120,.T.);
#88=FACE_OUTER_BOUND('',#121,.T.);
#89=FACE_OUTER_BOUND('',#122,.T.);
#90=FACE_OUTER_BOUND('',#123,.T.);
#91=FACE_OUTER_BOUND('',#124,.T.);
#92=FACE_OUTER_BOUND('',#125,.T.);
#93=EDGE_LOOP('',(#333,#334,#335,#336));
#94=EDGE_LOOP('',(#337,#338,#339,#340));
#95=EDGE_LOOP('',(#341,#342,#343,#344));
#96=EDGE_LOOP('',(#345,#346,#347,#348));
#97=EDGE_LOOP('',(#349,#350,#351,#352));
#98=EDGE_LOOP('',(#353,#354,#355,#356));
#99=EDGE_LOOP('',(#357,#358,#359,#360));
#100=EDGE_LOOP('',(#361,#362,#363,#364));
#101=EDGE_LOOP('',(#365,#366,#367,#368));
#102=EDGE_LOOP('',(#369,#370,#371,#372));
#103=EDGE_LOOP('',(#373,#374,#375,#376));
#104=EDGE_LOOP('',(#377,#378,#379,#380,#381,#382,#383,#384,#385,#386,#387,
#388,#389));
#105=EDGE_LOOP('',(#390,#391,#392,#393));
#106=EDGE_LOOP('',(#394));
#107=EDGE_LOOP('',(#395));
#108=EDGE_LOOP('',(#396));
#109=EDGE_LOOP('',(#397));
#110=EDGE_LOOP('',(#398));
#111=EDGE_LOOP('',(#399));
#112=EDGE_LOOP('',(#400,#401,#402,#403));
#113=EDGE_LOOP('',(#404,#405,#406,#407));
#114=EDGE_LOOP('',(#408,#409,#410,#411));
#115=EDGE_LOOP('',(#412,#413,#414,#415));
#116=EDGE_LOOP('',(#416,#417,#418,#419));
#117=EDGE_LOOP('',(#420,#421,#422,#423));
#118=EDGE_LOOP('',(#424,#425,#426,#427));
#119=EDGE_LOOP('',(#428,#429,#430,#431));
#120=EDGE_LOOP('',(#432,#433,#434,#435));
#121=EDGE_LOOP('',(#436,#437,#438,#439));
#122=EDGE_LOOP('',(#440,#441,#442,#443));
#123=EDGE_LOOP('',(#444,#445,#446,#447));
#124=EDGE_LOOP('',(#448,#449,#450,#451));
#125=EDGE_LOOP('',(#452,#453,#454,#455,#456,#457,#458,#459,#460,#461,#462,
#463,#464));
#126=EDGE_LOOP('',(#465));
#127=EDGE_LOOP('',(#466));
#128=EDGE_LOOP('',(#467));
#129=EDGE_LOOP('',(#468));
#130=EDGE_LOOP('',(#469));
#131=EDGE_LOOP('',(#470));
#132=LINE('',#717,#175);
#133=LINE('',#719,#176);
#134=LINE('',#721,#177);
#135=LINE('',#722,#178);
#136=LINE('',#725,#179);
#137=LINE('',#727,#180);
#138=LINE('',#728,#181);
#139=LINE('',#731,#182);
#140=LINE('',#733,#183);
#141=LINE('',#734,#184);
#142=LINE('',#736,#185);
#143=LINE('',#737,#186);
#144=LINE('',#743,#187);
#145=LINE('',#749,#188);
#146=LINE('',#755,#189);
#147=LINE('',#761,#190);
#148=LINE('',#767,#191);
#149=LINE('',#773,#192);
#150=LINE('',#778,#193);
#151=LINE('',#782,#194);
#152=LINE('',#786,#195);
#153=LINE('',#790,#196);
#154=LINE('',#794,#197);
#155=LINE('',#800,#198);
#156=LINE('',#804,#199);
#157=LINE('',#806,#200);
#158=LINE('',#807,#201);
#159=LINE('',#810,#202);
#160=LINE('',#814,#203);
#161=LINE('',#815,#204);
#162=LINE('',#818,#205);
#163=LINE('',#822,#206);
#164=LINE('',#823,#207);
#165=LINE('',#826,#208);
#166=LINE('',#830,#209);
#167=LINE('',#831,#210);
#168=LINE('',#834,#211);
#169=LINE('',#838,#212);
#170=LINE('',#839,#213);
#171=LINE('',#842,#214);
#172=LINE('',#846,#215);
#173=LINE('',#850,#216);
#174=LINE('',#851,#217);
#175=VECTOR('',#568,10.);
#176=VECTOR('',#569,10.);
#177=VECTOR('',#570,10.);
#178=VECTOR('',#571,10.);
#179=VECTOR('',#574,10.);
#180=VECTOR('',#575,10.);
#181=VECTOR('',#576,10.);
#182=VECTOR('',#579,10.);
#183=VECTOR('',#580,10.);
#184=VECTOR('',#581,10.);
#185=VECTOR('',#584,10.);
#186=VECTOR('',#585,10.);
#187=VECTOR('',#592,0.875);
#188=VECTOR('',#599,0.875);
#189=VECTOR('',#606,1.05);
#190=VECTOR('',#613,1.05);
#191=VECTOR('',#620,1.05);
#192=VECTOR('',#627,1.05);
#193=VECTOR('',#632,10.);
#194=VECTOR('',#635,10.);
#195=VECTOR('',#638,10.);
#196=VECTOR('',#641,10.);
#197=VECTOR('',#644,10.);
#198=VECTOR('',#649,10.);
#199=VECTOR('',#654,10.);
#200=VECTOR('',#655,10.);
#201=VECTOR('',#656,10.);
#202=VECTOR('',#659,10.);
#203=VECTOR('',#664,10.);
#204=VECTOR('',#665,10.);
#205=VECTOR('',#668,10.);
#206=VECTOR('',#673,10.);
#207=VECTOR('',#674,10.);
#208=VECTOR('',#677,10.);
#209=VECTOR('',#682,10.);
#210=VECTOR('',#683,10.);
#211=VECTOR('',#686,10.);
#212=VECTOR('',#691,10.);
#213=VECTOR('',#692,10.);
#214=VECTOR('',#695,10.);
#215=VECTOR('',#700,10.);
#216=VECTOR('',#705,10.);
#217=VECTOR('',#706,10.);
#218=VERTEX_POINT('',#715);
#219=VERTEX_POINT('',#716);
#220=VERTEX_POINT('',#718);
#221=VERTEX_POINT('',#720);
#222=VERTEX_POINT('',#724);
#223=VERTEX_POINT('',#726);
#224=VERTEX_POINT('',#730);
#225=VERTEX_POINT('',#732);
#226=VERTEX_POINT('',#740);
#227=VERTEX_POINT('',#742);
#228=VERTEX_POINT('',#746);
#229=VERTEX_POINT('',#748);
#230=VERTEX_POINT('',#752);
#231=VERTEX_POINT('',#754);
#232=VERTEX_POINT('',#758);
#233=VERTEX_POINT('',#760);
#234=VERTEX_POINT('',#764);
#235=VERTEX_POINT('',#766);
#236=VERTEX_POINT('',#770);
#237=VERTEX_POINT('',#772);
#238=VERTEX_POINT('',#776);
#239=VERTEX_POINT('',#777);
#240=VERTEX_POINT('',#779);
#241=VERTEX_POINT('',#781);
#242=VERTEX_POINT('',#783);
#243=VERTEX_POINT('',#785);
#244=VERTEX_POINT('',#787);
#245=VERTEX_POINT('',#789);
#246=VERTEX_POINT('',#791);
#247=VERTEX_POINT('',#793);
#248=VERTEX_POINT('',#795);
#249=VERTEX_POINT('',#797);
#250=VERTEX_POINT('',#799);
#251=VERTEX_POINT('',#803);
#252=VERTEX_POINT('',#805);
#253=VERTEX_POINT('',#809);
#254=VERTEX_POINT('',#813);
#255=VERTEX_POINT('',#817);
#256=VERTEX_POINT('',#821);
#257=VERTEX_POINT('',#825);
#258=VERTEX_POINT('',#829);
#259=VERTEX_POINT('',#833);
#260=VERTEX_POINT('',#837);
#261=VERTEX_POINT('',#841);
#262=VERTEX_POINT('',#845);
#263=VERTEX_POINT('',#849);
#264=EDGE_CURVE('',#218,#219,#132,.T.);
#265=EDGE_CURVE('',#218,#220,#133,.T.);
#266=EDGE_CURVE('',#221,#220,#134,.T.);
#267=EDGE_CURVE('',#219,#221,#135,.T.);
#268=EDGE_CURVE('',#222,#218,#136,.T.);
#269=EDGE_CURVE('',#222,#223,#137,.T.);
#270=EDGE_CURVE('',#220,#223,#138,.T.);
#271=EDGE_CURVE('',#219,#224,#139,.T.);
#272=EDGE_CURVE('',#225,#221,#140,.T.);
#273=EDGE_CURVE('',#224,#225,#141,.T.);
#274=EDGE_CURVE('',#224,#222,#142,.T.);
#275=EDGE_CURVE('',#223,#225,#143,.T.);
#276=EDGE_CURVE('',#226,#226,#32,.T.);
#277=EDGE_CURVE('',#226,#227,#144,.T.);
#278=EDGE_CURVE('',#227,#227,#33,.T.);
#279=EDGE_CURVE('',#228,#228,#34,.T.);
#280=EDGE_CURVE('',#228,#229,#145,.T.);
#281=EDGE_CURVE('',#229,#229,#35,.T.);
#282=EDGE_CURVE('',#230,#230,#36,.T.);
#283=EDGE_CURVE('',#230,#231,#146,.T.);
#284=EDGE_CURVE('',#231,#231,#37,.T.);
#285=EDGE_CURVE('',#232,#232,#38,.T.);
#286=EDGE_CURVE('',#232,#233,#147,.T.);
#287=EDGE_CURVE('',#233,#233,#39,.T.);
#288=EDGE_CURVE('',#234,#234,#40,.T.);
#289=EDGE_CURVE('',#234,#235,#148,.T.);
#290=EDGE_CURVE('',#235,#235,#41,.T.);
#291=EDGE_CURVE('',#236,#236,#42,.T.);
#292=EDGE_CURVE('',#236,#237,#149,.T.);
#293=EDGE_CURVE('',#237,#237,#43,.T.);
#294=EDGE_CURVE('',#238,#239,#150,.T.);
#295=EDGE_CURVE('',#240,#238,#44,.T.);
#296=EDGE_CURVE('',#241,#240,#151,.T.);
#297=EDGE_CURVE('',#242,#241,#45,.T.);
#298=EDGE_CURVE('',#243,#242,#152,.T.);
#299=EDGE_CURVE('',#244,#243,#46,.T.);
#300=EDGE_CURVE('',#245,#244,#153,.T.);
#301=EDGE_CURVE('',#246,#245,#47,.T.);
#302=EDGE_CURVE('',#247,#246,#154,.T.);
#303=EDGE_CURVE('',#248,#247,#48,.T.);
#304=EDGE_CURVE('',#249,#248,#49,.T.);
#305=EDGE_CURVE('',#250,#249,#155,.T.);
#306=EDGE_CURVE('',#239,#250,#50,.T.);
#307=EDGE_CURVE('',#251,#244,#156,.T.);
#308=EDGE_CURVE('',#251,#252,#157,.T.);
#309=EDGE_CURVE('',#252,#245,#158,.T.);
#310=EDGE_CURVE('',#253,#243,#159,.T.);
#311=EDGE_CURVE('',#253,#251,#51,.T.);
#312=EDGE_CURVE('',#254,#242,#160,.T.);
#313=EDGE_CURVE('',#253,#254,#161,.T.);
#314=EDGE_CURVE('',#255,#241,#162,.T.);
#315=EDGE_CURVE('',#254,#255,#52,.T.);
#316=EDGE_CURVE('',#256,#240,#163,.T.);
#317=EDGE_CURVE('',#255,#256,#164,.T.);
#318=EDGE_CURVE('',#257,#238,#165,.T.);
#319=EDGE_CURVE('',#257,#256,#53,.T.);
#320=EDGE_CURVE('',#258,#239,#166,.T.);
#321=EDGE_CURVE('',#258,#257,#167,.T.);
#322=EDGE_CURVE('',#259,#250,#168,.T.);
#323=EDGE_CURVE('',#259,#258,#54,.T.);
#324=EDGE_CURVE('',#260,#249,#169,.T.);
#325=EDGE_CURVE('',#259,#260,#170,.T.);
#326=EDGE_CURVE('',#261,#248,#171,.T.);
#327=EDGE_CURVE('',#261,#260,#55,.T.);
#328=EDGE_CURVE('',#262,#247,#172,.T.);
#329=EDGE_CURVE('',#261,#262,#56,.T.);
#330=EDGE_CURVE('',#263,#246,#173,.T.);
#331=EDGE_CURVE('',#263,#262,#174,.T.);
#332=EDGE_CURVE('',#252,#263,#57,.T.);
#333=ORIENTED_EDGE('',*,*,#264,.F.);
#334=ORIENTED_EDGE('',*,*,#265,.T.);
#335=ORIENTED_EDGE('',*,*,#266,.F.);
#336=ORIENTED_EDGE('',*,*,#267,.F.);
#337=ORIENTED_EDGE('',*,*,#268,.F.);
#338=ORIENTED_EDGE('',*,*,#269,.T.);
#339=ORIENTED_EDGE('',*,*,#270,.F.);
#340=ORIENTED_EDGE('',*,*,#265,.F.);
#341=ORIENTED_EDGE('',*,*,#271,.F.);
#342=ORIENTED_EDGE('',*,*,#267,.T.);
#343=ORIENTED_EDGE('',*,*,#272,.F.);
#344=ORIENTED_EDGE('',*,*,#273,.F.);
#345=ORIENTED_EDGE('',*,*,#274,.F.);
#346=ORIENTED_EDGE('',*,*,#273,.T.);
#347=ORIENTED_EDGE('',*,*,#275,.F.);
#348=ORIENTED_EDGE('',*,*,#269,.F.);
#349=ORIENTED_EDGE('',*,*,#275,.T.);
#350=ORIENTED_EDGE('',*,*,#272,.T.);
#351=ORIENTED_EDGE('',*,*,#266,.T.);
#352=ORIENTED_EDGE('',*,*,#270,.T.);
#353=ORIENTED_EDGE('',*,*,#276,.F.);
#354=ORIENTED_EDGE('',*,*,#277,.T.);
#355=ORIENTED_EDGE('',*,*,#278,.F.);
#356=ORIENTED_EDGE('',*,*,#277,.F.);
#357=ORIENTED_EDGE('',*,*,#279,.F.);
#358=ORIENTED_EDGE('',*,*,#280,.T.);
#359=ORIENTED_EDGE('',*,*,#281,.F.);
#360=ORIENTED_EDGE('',*,*,#280,.F.);
#361=ORIENTED_EDGE('',*,*,#282,.F.);
#362=ORIENTED_EDGE('',*,*,#283,.T.);
#363=ORIENTED_EDGE('',*,*,#284,.F.);
#364=ORIENTED_EDGE('',*,*,#283,.F.);
#365=ORIENTED_EDGE('',*,*,#285,.F.);
#366=ORIENTED_EDGE('',*,*,#286,.T.);
#367=ORIENTED_EDGE('',*,*,#287,.F.);
#368=ORIENTED_EDGE('',*,*,#286,.F.);
#369=ORIENTED_EDGE('',*,*,#288,.F.);
#370=ORIENTED_EDGE('',*,*,#289,.T.);
#371=ORIENTED_EDGE('',*,*,#290,.F.);
#372=ORIENTED_EDGE('',*,*,#289,.F.);
#373=ORIENTED_EDGE('',*,*,#291,.F.);
#374=ORIENTED_EDGE('',*,*,#292,.T.);
#375=ORIENTED_EDGE('',*,*,#293,.F.);
#376=ORIENTED_EDGE('',*,*,#292,.F.);
#377=ORIENTED_EDGE('',*,*,#294,.F.);
#378=ORIENTED_EDGE('',*,*,#295,.F.);
#379=ORIENTED_EDGE('',*,*,#296,.F.);
#380=ORIENTED_EDGE('',*,*,#297,.F.);
#381=ORIENTED_EDGE('',*,*,#298,.F.);
#382=ORIENTED_EDGE('',*,*,#299,.F.);
#383=ORIENTED_EDGE('',*,*,#300,.F.);
#384=ORIENTED_EDGE('',*,*,#301,.F.);
#385=ORIENTED_EDGE('',*,*,#302,.F.);
#386=ORIENTED_EDGE('',*,*,#303,.F.);
#387=ORIENTED_EDGE('',*,*,#304,.F.);
#388=ORIENTED_EDGE('',*,*,#305,.F.);
#389=ORIENTED_EDGE('',*,*,#306,.F.);
#390=ORIENTED_EDGE('',*,*,#268,.T.);
#391=ORIENTED_EDGE('',*,*,#264,.T.);
#392=ORIENTED_EDGE('',*,*,#271,.T.);
#393=ORIENTED_EDGE('',*,*,#274,.T.);
#394=ORIENTED_EDGE('',*,*,#278,.T.);
#395=ORIENTED_EDGE('',*,*,#281,.T.);
#396=ORIENTED_EDGE('',*,*,#284,.T.);
#397=ORIENTED_EDGE('',*,*,#287,.T.);
#398=ORIENTED_EDGE('',*,*,#290,.T.);
#399=ORIENTED_EDGE('',*,*,#293,.T.);
#400=ORIENTED_EDGE('',*,*,#300,.T.);
#401=ORIENTED_EDGE('',*,*,#307,.F.);
#402=ORIENTED_EDGE('',*,*,#308,.T.);
#403=ORIENTED_EDGE('',*,*,#309,.T.);
#404=ORIENTED_EDGE('',*,*,#299,.T.);
#405=ORIENTED_EDGE('',*,*,#310,.F.);
#406=ORIENTED_EDGE('',*,*,#311,.T.);
#407=ORIENTED_EDGE('',*,*,#307,.T.);
#408=ORIENTED_EDGE('',*,*,#298,.T.);
#409=ORIENTED_EDGE('',*,*,#312,.F.);
#410=ORIENTED_EDGE('',*,*,#313,.F.);
#411=ORIENTED_EDGE('',*,*,#310,.T.);
#412=ORIENTED_EDGE('',*,*,#297,.T.);
#413=ORIENTED_EDGE('',*,*,#314,.F.);
#414=ORIENTED_EDGE('',*,*,#315,.F.);
#415=ORIENTED_EDGE('',*,*,#312,.T.);
#416=ORIENTED_EDGE('',*,*,#296,.T.);
#417=ORIENTED_EDGE('',*,*,#316,.F.);
#418=ORIENTED_EDGE('',*,*,#317,.F.);
#419=ORIENTED_EDGE('',*,*,#314,.T.);
#420=ORIENTED_EDGE('',*,*,#295,.T.);
#421=ORIENTED_EDGE('',*,*,#318,.F.);
#422=ORIENTED_EDGE('',*,*,#319,.T.);
#423=ORIENTED_EDGE('',*,*,#316,.T.);
#424=ORIENTED_EDGE('',*,*,#294,.T.);
#425=ORIENTED_EDGE('',*,*,#320,.F.);
#426=ORIENTED_EDGE('',*,*,#321,.T.);
#427=ORIENTED_EDGE('',*,*,#318,.T.);
#428=ORIENTED_EDGE('',*,*,#306,.T.);
#429=ORIENTED_EDGE('',*,*,#322,.F.);
#430=ORIENTED_EDGE('',*,*,#323,.T.);
#431=ORIENTED_EDGE('',*,*,#320,.T.);
#432=ORIENTED_EDGE('',*,*,#305,.T.);
#433=ORIENTED_EDGE('',*,*,#324,.F.);
#434=ORIENTED_EDGE('',*,*,#325,.F.);
#435=ORIENTED_EDGE('',*,*,#322,.T.);
#436=ORIENTED_EDGE('',*,*,#304,.T.);
#437=ORIENTED_EDGE('',*,*,#326,.F.);
#438=ORIENTED_EDGE('',*,*,#327,.T.);
#439=ORIENTED_EDGE('',*,*,#324,.T.);
#440=ORIENTED_EDGE('',*,*,#303,.T.);
#441=ORIENTED_EDGE('',*,*,#328,.F.);
#442=ORIENTED_EDGE('',*,*,#329,.F.);
#443=ORIENTED_EDGE('',*,*,#326,.T.);
#444=ORIENTED_EDGE('',*,*,#302,.T.);
#445=ORIENTED_EDGE('',*,*,#330,.F.);
#446=ORIENTED_EDGE('',*,*,#331,.T.);
#447=ORIENTED_EDGE('',*,*,#328,.T.);
#448=ORIENTED_EDGE('',*,*,#301,.T.);
#449=ORIENTED_EDGE('',*,*,#309,.F.);
#450=ORIENTED_EDGE('',*,*,#332,.T.);
#451=ORIENTED_EDGE('',*,*,#330,.T.);
#452=ORIENTED_EDGE('',*,*,#319,.F.);
#453=ORIENTED_EDGE('',*,*,#321,.F.);
#454=ORIENTED_EDGE('',*,*,#323,.F.);
#455=ORIENTED_EDGE('',*,*,#325,.T.);
#456=ORIENTED_EDGE('',*,*,#327,.F.);
#457=ORIENTED_EDGE('',*,*,#329,.T.);
#458=ORIENTED_EDGE('',*,*,#331,.F.);
#459=ORIENTED_EDGE('',*,*,#332,.F.);
#460=ORIENTED_EDGE('',*,*,#308,.F.);
#461=ORIENTED_EDGE('',*,*,#311,.F.);
#462=ORIENTED_EDGE('',*,*,#313,.T.);
#463=ORIENTED_EDGE('',*,*,#315,.T.);
#464=ORIENTED_EDGE('',*,*,#317,.T.);
#465=ORIENTED_EDGE('',*,*,#276,.T.);
#466=ORIENTED_EDGE('',*,*,#279,.T.);
#467=ORIENTED_EDGE('',*,*,#282,.T.);
#468=ORIENTED_EDGE('',*,*,#285,.T.);
#469=ORIENTED_EDGE('',*,*,#288,.T.);
#470=ORIENTED_EDGE('',*,*,#291,.T.);
#471=PLANE('',#512);
#472=PLANE('',#513);
#473=PLANE('',#514);
#474=PLANE('',#515);
#475=PLANE('',#516);
#476=PLANE('',#535);
#477=PLANE('',#543);
#478=PLANE('',#546);
#479=PLANE('',#549);
#480=PLANE('',#552);
#481=PLANE('',#555);
#482=PLANE('',#560);
#483=PLANE('',#563);
#484=ADVANCED_FACE('',(#67),#471,.T.);
#485=ADVANCED_FACE('',(#68),#472,.T.);
#486=ADVANCED_FACE('',(#69),#473,.T.);
#487=ADVANCED_FACE('',(#70),#474,.T.);
#488=ADVANCED_FACE('',(#71),#475,.T.);
#489=ADVANCED_FACE('',(#72),#58,.F.);
#490=ADVANCED_FACE('',(#73),#59,.F.);
#491=ADVANCED_FACE('',(#74),#28,.F.);
#492=ADVANCED_FACE('',(#75),#29,.F.);
#493=ADVANCED_FACE('',(#76),#30,.F.);
#494=ADVANCED_FACE('',(#77),#31,.F.);
#495=ADVANCED_FACE('',(#78,#15,#16,#17,#18,#19,#20,#21),#476,.F.);
#496=ADVANCED_FACE('',(#79),#477,.T.);
#497=ADVANCED_FACE('',(#80),#60,.T.);
#498=ADVANCED_FACE('',(#81),#478,.T.);
#499=ADVANCED_FACE('',(#82),#61,.F.);
#500=ADVANCED_FACE('',(#83),#479,.T.);
#501=ADVANCED_FACE('',(#84),#62,.T.);
#502=ADVANCED_FACE('',(#85),#480,.T.);
#503=ADVANCED_FACE('',(#86),#63,.T.);
#504=ADVANCED_FACE('',(#87),#481,.T.);
#505=ADVANCED_FACE('',(#88),#64,.T.);
#506=ADVANCED_FACE('',(#89),#65,.F.);
#507=ADVANCED_FACE('',(#90),#482,.T.);
#508=ADVANCED_FACE('',(#91),#66,.T.);
#509=ADVANCED_FACE('',(#92,#22,#23,#24,#25,#26,#27),#483,.F.);
#510=CLOSED_SHELL('',(#484,#485,#486,#487,#488,#489,#490,#491,#492,#493,
#494,#495,#496,#497,#498,#499,#500,#501,#502,#503,#504,#505,#506,#507,#508,
#509));
#511=AXIS2_PLACEMENT_3D('',#713,#564,#565);
#512=AXIS2_PLACEMENT_3D('',#714,#566,#567);
#513=AXIS2_PLACEMENT_3D('',#723,#572,#573);
#514=AXIS2_PLACEMENT_3D('',#729,#577,#578);
#515=AXIS2_PLACEMENT_3D('',#735,#582,#583);
#516=AXIS2_PLACEMENT_3D('',#738,#586,#587);
#517=AXIS2_PLACEMENT_3D('',#739,#588,#589);
#518=AXIS2_PLACEMENT_3D('',#741,#590,#591);
#519=AXIS2_PLACEMENT_3D('',#744,#593,#594);
#520=AXIS2_PLACEMENT_3D('',#745,#595,#596);
#521=AXIS2_PLACEMENT_3D('',#747,#597,#598);
#522=AXIS2_PLACEMENT_3D('',#750,#600,#601);
#523=AXIS2_PLACEMENT_3D('',#751,#602,#603);
#524=AXIS2_PLACEMENT_3D('',#753,#604,#605);
#525=AXIS2_PLACEMENT_3D('',#756,#607,#608);
#526=AXIS2_PLACEMENT_3D('',#757,#609,#610);
#527=AXIS2_PLACEMENT_3D('',#759,#611,#612);
#528=AXIS2_PLACEMENT_3D('',#762,#614,#615);
#529=AXIS2_PLACEMENT_3D('',#763,#616,#617);
#530=AXIS2_PLACEMENT_3D('',#765,#618,#619);
#531=AXIS2_PLACEMENT_3D('',#768,#621,#622);
#532=AXIS2_PLACEMENT_3D('',#769,#623,#624);
#533=AXIS2_PLACEMENT_3D('',#771,#625,#626);
#534=AXIS2_PLACEMENT_3D('',#774,#628,#629);
#535=AXIS2_PLACEMENT_3D('',#775,#630,#631);
#536=AXIS2_PLACEMENT_3D('',#780,#633,#634);
#537=AXIS2_PLACEMENT_3D('',#784,#636,#637);
#538=AXIS2_PLACEMENT_3D('',#788,#639,#640);
#539=AXIS2_PLACEMENT_3D('',#792,#642,#643);
#540=AXIS2_PLACEMENT_3D('',#796,#645,#646);
#541=AXIS2_PLACEMENT_3D('',#798,#647,#648);
#542=AXIS2_PLACEMENT_3D('',#801,#650,#651);
#543=AXIS2_PLACEMENT_3D('',#802,#652,#653);
#544=AXIS2_PLACEMENT_3D('',#808,#657,#658);
#545=AXIS2_PLACEMENT_3D('',#811,#660,#661);
#546=AXIS2_PLACEMENT_3D('',#812,#662,#663);
#547=AXIS2_PLACEMENT_3D('',#816,#666,#667);
#548=AXIS2_PLACEMENT_3D('',#819,#669,#670);
#549=AXIS2_PLACEMENT_3D('',#820,#671,#672);
#550=AXIS2_PLACEMENT_3D('',#824,#675,#676);
#551=AXIS2_PLACEMENT_3D('',#827,#678,#679);
#552=AXIS2_PLACEMENT_3D('',#828,#680,#681);
#553=AXIS2_PLACEMENT_3D('',#832,#684,#685);
#554=AXIS2_PLACEMENT_3D('',#835,#687,#688);
#555=AXIS2_PLACEMENT_3D('',#836,#689,#690);
#556=AXIS2_PLACEMENT_3D('',#840,#693,#694);
#557=AXIS2_PLACEMENT_3D('',#843,#696,#697);
#558=AXIS2_PLACEMENT_3D('',#844,#698,#699);
#559=AXIS2_PLACEMENT_3D('',#847,#701,#702);
#560=AXIS2_PLACEMENT_3D('',#848,#703,#704);
#561=AXIS2_PLACEMENT_3D('',#852,#707,#708);
#562=AXIS2_PLACEMENT_3D('',#853,#709,#710);
#563=AXIS2_PLACEMENT_3D('',#854,#711,#712);
#564=DIRECTION('axis',(0.,0.,1.));
#565=DIRECTION('refdir',(1.,0.,0.));
#566=DIRECTION('center_axis',(9.94599163430224E-13,-9.94599163430215E-13,
1.));
#567=DIRECTION('ref_axis',(-0.707106781186548,0.707106781186547,1.40657562604795E-12));
#568=DIRECTION('',(0.707106781186548,-0.707106781186547,-1.40657562604795E-12));
#569=DIRECTION('',(-0.707106781186544,-0.707106781186551,0.));
#570=DIRECTION('',(-0.707106781186548,0.707106781186547,1.40657562604795E-12));
#571=DIRECTION('',(-0.707106781186544,-0.707106781186551,0.));
#572=DIRECTION('center_axis',(-0.707106781186551,0.707106781186544,1.03482546103577E-12));
#573=DIRECTION('ref_axis',(-7.31800792387955E-13,7.31663409297819E-13,-1.));
#574=DIRECTION('',(7.31800792387955E-13,-7.31663409297819E-13,1.));
#575=DIRECTION('',(-0.707106781186544,-0.707106781186551,0.));
#576=DIRECTION('',(-7.31800792387955E-13,7.31663409297819E-13,-1.));
#577=DIRECTION('center_axis',(0.707106781186551,-0.707106781186544,-2.77333911991762E-31));
#578=DIRECTION('ref_axis',(6.86915450674121E-17,6.86915450674123E-17,1.));
#579=DIRECTION('',(-6.86915450674121E-17,-6.86915450674124E-17,-1.));
#580=DIRECTION('',(6.86915450674121E-17,6.86915450674123E-17,1.));
#581=DIRECTION('',(-0.707106781186544,-0.707106781186551,0.));
#582=DIRECTION('center_axis',(3.04535755104548E-13,-3.04535755104546E-13,
-1.));
#583=DIRECTION('ref_axis',(0.707106781186548,-0.707106781186547,4.30678595096382E-13));
#584=DIRECTION('',(-0.707106781186548,0.707106781186547,-4.30678595096382E-13));
#585=DIRECTION('',(0.707106781186548,-0.707106781186547,4.30678595096382E-13));
#586=DIRECTION('center_axis',(-0.707106781186544,-0.707106781186551,0.));
#587=DIRECTION('ref_axis',(0.,0.,1.));
#588=DIRECTION('center_axis',(-0.707106781186548,-0.707106781186548,0.));
#589=DIRECTION('ref_axis',(0.707106781186547,-0.707106781186548,1.26341004351803E-31));
#590=DIRECTION('center_axis',(-0.707106781186547,-0.707106781186548,9.7144514654697E-17));
#591=DIRECTION('ref_axis',(0.707106781186547,-0.707106781186548,1.26341004351803E-31));
#592=DIRECTION('',(-0.707106781186548,-0.707106781186548,0.));
#593=DIRECTION('center_axis',(0.707106781186547,0.707106781186548,-9.71445146546971E-17));
#594=DIRECTION('ref_axis',(0.707106781186547,-0.707106781186548,1.26341004351803E-31));
#595=DIRECTION('center_axis',(-0.707106781186548,-0.707106781186548,0.));
#596=DIRECTION('ref_axis',(0.707106781186547,-0.707106781186548,1.26341004351803E-31));
#597=DIRECTION('center_axis',(-0.707106781186547,-0.707106781186548,9.7144514654697E-17));
#598=DIRECTION('ref_axis',(0.707106781186547,-0.707106781186548,1.26341004351803E-31));
#599=DIRECTION('',(-0.707106781186548,-0.707106781186548,0.));
#600=DIRECTION('center_axis',(0.707106781186547,0.707106781186548,-9.71445146546971E-17));
#601=DIRECTION('ref_axis',(0.707106781186547,-0.707106781186548,1.26341004351803E-31));
#602=DIRECTION('center_axis',(0.707106781186547,0.707106781186548,0.));
#603=DIRECTION('ref_axis',(0.707106781186548,-0.707106781186547,1.26341004351803E-31));
#604=DIRECTION('center_axis',(-0.707106781186547,-0.707106781186548,9.7144514654697E-17));
#605=DIRECTION('ref_axis',(0.707106781186548,-0.707106781186547,1.26341004351803E-31));
#606=DIRECTION('',(-0.687201632409781,-0.726466734553849,3.40018530003598E-18));
#607=DIRECTION('center_axis',(0.707106781186547,0.707106781186548,-9.71445146546971E-17));
#608=DIRECTION('ref_axis',(0.707106781186548,-0.707106781186547,1.26341004351803E-31));
#609=DIRECTION('center_axis',(0.707106781186547,0.707106781186548,0.));
#610=DIRECTION('ref_axis',(0.707106781186548,-0.707106781186547,1.26341004351803E-31));
#611=DIRECTION('center_axis',(-0.707106781186547,-0.707106781186548,9.7144514654697E-17));
#612=DIRECTION('ref_axis',(0.707106781186548,-0.707106781186547,1.26341004351803E-31));
#613=DIRECTION('',(-0.687201632409781,-0.726466734553849,3.40018530003598E-18));
#614=DIRECTION('center_axis',(0.707106781186547,0.707106781186548,-9.71445146546971E-17));
#615=DIRECTION('ref_axis',(0.707106781186548,-0.707106781186547,1.26341004351803E-31));
#616=DIRECTION('center_axis',(0.707106781186547,0.707106781186548,0.));
#617=DIRECTION('ref_axis',(0.707106781186548,-0.707106781186547,1.26341004351803E-31));
#618=DIRECTION('center_axis',(-0.707106781186547,-0.707106781186548,9.7144514654697E-17));
#619=DIRECTION('ref_axis',(0.707106781186548,-0.707106781186547,1.26341004351803E-31));
#620=DIRECTION('',(-0.687201632409781,-0.726466734553849,3.40018530003598E-18));
#621=DIRECTION('center_axis',(0.707106781186547,0.707106781186548,-9.71445146546971E-17));
#622=DIRECTION('ref_axis',(0.707106781186548,-0.707106781186547,1.26341004351803E-31));
#623=DIRECTION('center_axis',(0.707106781186547,0.707106781186548,0.));
#624=DIRECTION('ref_axis',(0.707106781186548,-0.707106781186547,1.26341004351803E-31));
#625=DIRECTION('center_axis',(-0.707106781186547,-0.707106781186548,9.7144514654697E-17));
#626=DIRECTION('ref_axis',(0.707106781186548,-0.707106781186547,1.26341004351803E-31));
#627=DIRECTION('',(-0.687201632409781,-0.726466734553849,3.40018530003598E-18));
#628=DIRECTION('center_axis',(0.707106781186547,0.707106781186548,-9.71445146546971E-17));
#629=DIRECTION('ref_axis',(0.707106781186548,-0.707106781186547,1.26341004351803E-31));
#630=DIRECTION('center_axis',(0.707106781186547,0.707106781186548,-9.71445146546971E-17));
#631=DIRECTION('ref_axis',(-1.37383090134825E-16,0.,-1.));
#632=DIRECTION('',(7.29226985914977E-6,-7.29226985901239E-6,0.999999999946823));
#633=DIRECTION('center_axis',(0.707106781186547,0.707106781186548,-9.71445146546971E-17));
#634=DIRECTION('ref_axis',(-0.707106781148945,0.707106781148946,1.03128269368647E-5));
#635=DIRECTION('',(-0.707106781148946,0.707106781148945,1.03128269354812E-5));
#636=DIRECTION('center_axis',(-0.707106781186547,-0.707106781186548,9.71445146546971E-17));
#637=DIRECTION('ref_axis',(0.706336587534402,-0.706336587534403,0.0466610139250273));
#638=DIRECTION('',(-0.707106781186548,0.707106781186547,-5.81327693953873E-13));
#639=DIRECTION('center_axis',(0.707106781186547,0.707106781186548,-9.71445146546971E-17));
#640=DIRECTION('ref_axis',(8.48477966977541E-12,-8.48477966977541E-12,-1.));
#641=DIRECTION('',(9.56321821270863E-14,-9.57695652172211E-14,-1.));
#642=DIRECTION('center_axis',(0.707106781186547,0.707106781186548,-9.71445146546971E-17));
#643=DIRECTION('ref_axis',(0.707106781186547,-0.707106781186548,1.26343524358008E-31));
#644=DIRECTION('',(0.707106781186548,-0.707106781186547,-8.19856986682985E-15));
#645=DIRECTION('center_axis',(-0.707106781186547,-0.707106781186548,9.71445146546971E-17));
#646=DIRECTION('ref_axis',(-0.697755881150093,0.697755881150094,-0.162090902400205));
#647=DIRECTION('center_axis',(0.707106781186547,0.707106781186548,-9.71445146546971E-17));
#648=DIRECTION('ref_axis',(0.697755881150092,-0.697755881150092,0.16209090240022));
#649=DIRECTION('',(0.707106781186548,-0.707106781186547,5.91811379458421E-16));
#650=DIRECTION('center_axis',(0.707106781186547,0.707106781186548,-9.71445146546971E-17));
#651=DIRECTION('ref_axis',(-2.35513868802565E-15,2.35513868802565E-15,1.));
#652=DIRECTION('center_axis',(0.707106781186547,-0.707106781186548,1.35341473478114E-13));
#653=DIRECTION('ref_axis',(-9.56289213660857E-14,9.57728259782217E-14,1.));
#654=DIRECTION('',(-0.707106781186548,-0.707106781186547,0.));
#655=DIRECTION('',(-9.56289213660857E-14,9.57728259782217E-14,1.));
#656=DIRECTION('',(-0.707106781186548,-0.707106781186547,0.));
#657=DIRECTION('center_axis',(-0.707106781186548,-0.707106781186547,0.));
#658=DIRECTION('ref_axis',(8.48477966977541E-12,-8.48477966977541E-12,-1.));
#659=DIRECTION('',(-0.707106781186548,-0.707106781186547,0.));
#660=DIRECTION('center_axis',(-0.707106781186547,-0.707106781186548,9.71575275882555E-17));
#661=DIRECTION('ref_axis',(8.48471096902881E-12,-8.48484837052201E-12,-1.));
#662=DIRECTION('center_axis',(4.11060754486321E-13,-4.11060754486321E-13,
-1.));
#663=DIRECTION('ref_axis',(0.707106781186548,-0.707106781186547,5.81327693953873E-13));
#664=DIRECTION('',(-0.707106781186548,-0.707106781186547,0.));
#665=DIRECTION('',(-0.707106781186548,0.707106781186547,-5.81327693953873E-13));
#666=DIRECTION('center_axis',(-0.707106781186548,-0.707106781186547,0.));
#667=DIRECTION('ref_axis',(0.706336587534402,-0.706336587534403,0.0466610139250273));
#668=DIRECTION('',(-0.707106781186548,-0.707106781186547,0.));
#669=DIRECTION('center_axis',(-0.707106781186547,-0.707106781186548,9.7144514654697E-17));
#670=DIRECTION('ref_axis',(0.706336587534402,-0.706336587534402,0.0466610139250273));
#671=DIRECTION('center_axis',(-7.292269859282E-6,7.29226985928201E-6,-0.999999999946823));
#672=DIRECTION('ref_axis',(0.707106781148946,-0.707106781148945,-1.03128269354812E-5));
#673=DIRECTION('',(-0.707106781186548,-0.707106781186547,0.));
#674=DIRECTION('',(-0.707106781148946,0.707106781148945,1.03128269354812E-5));
#675=DIRECTION('center_axis',(-0.707106781186548,-0.707106781186547,0.));
#676=DIRECTION('ref_axis',(-0.707106781148945,0.707106781148946,1.03128269368647E-5));
#677=DIRECTION('',(-0.707106781186548,-0.707106781186547,0.));
#678=DIRECTION('center_axis',(-0.707106781186547,-0.707106781186548,-6.33070019790697E-17));
#679=DIRECTION('ref_axis',(-0.707106781148946,0.707106781148945,1.03128269368647E-5));
#680=DIRECTION('center_axis',(-0.707106781148945,0.707106781148946,1.0312826935197E-5));
#681=DIRECTION('ref_axis',(-7.29226985917423E-6,7.29226985898793E-6,-0.999999999946823));
#682=DIRECTION('',(-0.707106781186548,-0.707106781186547,0.));
#683=DIRECTION('',(-7.29226985917423E-6,7.29226985898793E-6,-0.999999999946823));
#684=DIRECTION('center_axis',(-0.707106781186548,-0.707106781186547,0.));
#685=DIRECTION('ref_axis',(-2.35513868802565E-15,2.35513868802565E-15,1.));
#686=DIRECTION('',(-0.707106781186548,-0.707106781186547,0.));
#687=DIRECTION('center_axis',(-0.707106781186547,-0.707106781186548,9.67958074687737E-17));
#688=DIRECTION('ref_axis',(-2.28669371617405E-15,2.42358365987725E-15,1.));
#689=DIRECTION('center_axis',(-4.18473839598414E-16,4.18473839598414E-16,
1.));
#690=DIRECTION('ref_axis',(-0.707106781186548,0.707106781186547,-5.91811379458421E-16));
#691=DIRECTION('',(-0.707106781186548,-0.707106781186547,0.));
#692=DIRECTION('',(0.707106781186548,-0.707106781186547,5.91811379458421E-16));
#693=DIRECTION('center_axis',(-0.707106781186548,-0.707106781186547,0.));
#694=DIRECTION('ref_axis',(0.697755881150092,-0.697755881150092,0.16209090240022));
#695=DIRECTION('',(-0.707106781186548,-0.707106781186547,0.));
#696=DIRECTION('center_axis',(-0.707106781186547,-0.707106781186548,9.71496949395689E-17));
#697=DIRECTION('ref_axis',(0.697755881150092,-0.697755881150092,0.16209090240022));
#698=DIRECTION('center_axis',(-0.707106781186548,-0.707106781186547,0.));
#699=DIRECTION('ref_axis',(-0.697755881150093,0.697755881150094,-0.162090902400205));
#700=DIRECTION('',(-0.707106781186548,-0.707106781186547,0.));
#701=DIRECTION('center_axis',(-0.707106781186547,-0.707106781186548,9.7150049751144E-17));
#702=DIRECTION('ref_axis',(-0.697755881150094,0.697755881150093,-0.162090902400205));
#703=DIRECTION('center_axis',(5.79726434886707E-15,-5.79726434886708E-15,
1.));
#704=DIRECTION('ref_axis',(-0.707106781186548,0.707106781186547,8.19856986682985E-15));
#705=DIRECTION('',(-0.707106781186548,-0.707106781186547,0.));
#706=DIRECTION('',(-0.707106781186548,0.707106781186547,8.19856986682985E-15));
#707=DIRECTION('center_axis',(-0.707106781186548,-0.707106781186547,0.));
#708=DIRECTION('ref_axis',(0.707106781186547,-0.707106781186548,1.26343524358008E-31));
#709=DIRECTION('center_axis',(-0.707106781186547,-0.707106781186548,9.71464244576475E-17));
#710=DIRECTION('ref_axis',(0.707106781186548,-0.707106781186547,1.26343524358008E-31));
#711=DIRECTION('center_axis',(-0.707106781186547,-0.707106781186548,9.7144514654697E-17));
#712=DIRECTION('ref_axis',(0.707106781186548,-0.707106781186547,1.26341004351803E-31));
#713=CARTESIAN_POINT('',(0.,0.,0.));
#714=CARTESIAN_POINT('Origin',(-26.7993470069946,-41.0829039869139,42.2499965051794));
#715=CARTESIAN_POINT('',(-41.3657466994568,-27.0821897194009,42.2499965052078));
#716=CARTESIAN_POINT('',(-27.0821897194692,-41.3657466993885,42.2499965051794));
#717=CARTESIAN_POINT('',(-29.574964460503,-38.8729719583547,42.2499965051843));
#718=CARTESIAN_POINT('',(-41.5778787338128,-27.2943217537569,42.2499965052078));
#719=CARTESIAN_POINT('',(-41.0829039869822,-26.7993470069263,42.2499965052078));
#720=CARTESIAN_POINT('',(-27.2943217538252,-41.5778787337444,42.2499965051794));
#721=CARTESIAN_POINT('',(-27.2943217538252,-41.5778787337444,42.2499965051794));
#722=CARTESIAN_POINT('',(-26.7993470069946,-41.0829039869139,42.2499965051794));
#723=CARTESIAN_POINT('Origin',(-41.0829039869822,-26.7993470069263,42.2499965052078));
#724=CARTESIAN_POINT('',(-41.3657466994635,-27.0821897193943,33.149996505744));
#725=CARTESIAN_POINT('',(-41.3657466994584,-27.0821897193993,39.9767866043747));
#726=CARTESIAN_POINT('',(-41.5778787338194,-27.2943217537502,33.149996505744));
#727=CARTESIAN_POINT('',(-41.0829039869888,-26.7993470069196,33.149996505744));
#728=CARTESIAN_POINT('',(-41.5778787338128,-27.2943217537569,42.2499965052078));
#729=CARTESIAN_POINT('Origin',(-26.7993470069946,-41.0829039869139,33.1499965057527));
#730=CARTESIAN_POINT('',(-27.0821897194692,-41.3657466993885,33.1499965057527));
#731=CARTESIAN_POINT('',(-27.0821897194692,-41.3657466993885,35.4267866046403));
#732=CARTESIAN_POINT('',(-27.2943217538252,-41.5778787337444,33.1499965057527));
#733=CARTESIAN_POINT('',(-27.2943217538252,-41.5778787337444,33.1499965057527));
#734=CARTESIAN_POINT('',(-26.7993470069946,-41.0829039869139,33.1499965057527));
#735=CARTESIAN_POINT('Origin',(-41.0829039869888,-26.7993470069196,33.149996505744));
#736=CARTESIAN_POINT('',(-36.7167429505016,-31.7311934683561,33.1499965057468));
#737=CARTESIAN_POINT('',(-41.5778787338194,-27.2943217537502,33.149996505744));
#738=CARTESIAN_POINT('Origin',(-34.4361002438223,-34.4361002437473,37.6999965054759));
#739=CARTESIAN_POINT('Origin',(-30.9712770159708,-36.9109739779377,52.5));
#740=CARTESIAN_POINT('',(-31.589995449509,-36.2922555443995,52.5));
#741=CARTESIAN_POINT('Origin',(-30.9712770159708,-36.9109739779377,52.5));
#742=CARTESIAN_POINT('',(-31.8728381619836,-36.5750982568741,52.5));
#743=CARTESIAN_POINT('',(-31.589995449509,-36.2922555443995,52.5));
#744=CARTESIAN_POINT('Origin',(-31.2541197284454,-37.1938166904123,52.5));
#745=CARTESIAN_POINT('Origin',(-32.3854912854506,-35.4967597084579,52.5));
#746=CARTESIAN_POINT('',(-33.0042097189888,-34.8780412749196,52.5));
#747=CARTESIAN_POINT('Origin',(-32.3854912854506,-35.4967597084579,52.5));
#748=CARTESIAN_POINT('',(-33.2870524314635,-35.1608839873942,52.5));
#749=CARTESIAN_POINT('',(-33.0042097189888,-34.8780412749196,52.5));
#750=CARTESIAN_POINT('Origin',(-32.6683339979252,-35.7796024209325,52.5));
#751=CARTESIAN_POINT('Origin',(-26.6932809897921,-41.1889700041163,52.5));
#752=CARTESIAN_POINT('',(-27.435743110038,-40.4465078838705,52.5));
#753=CARTESIAN_POINT('Origin',(-26.6932809897921,-41.1889700041163,52.5));
#754=CARTESIAN_POINT('',(-27.7107297734876,-40.7372066453701,52.5));
#755=CARTESIAN_POINT('',(-27.435743110038,-40.4465078838705,52.5));
#756=CARTESIAN_POINT('Origin',(-26.9761237022668,-41.4718127165909,52.5));
#757=CARTESIAN_POINT('Origin',(-40.7293505963451,-27.1529003975634,52.5));
#758=CARTESIAN_POINT('',(-41.471812716591,-26.4104382773175,52.5));
#759=CARTESIAN_POINT('Origin',(-40.7293505963451,-27.1529003975634,52.5));
#760=CARTESIAN_POINT('',(-41.7467993800406,-26.7011370388171,52.5));
#761=CARTESIAN_POINT('',(-41.471812716591,-26.4104382773175,52.5));
#762=CARTESIAN_POINT('Origin',(-41.0121933088197,-27.435743110038,52.5));
#763=CARTESIAN_POINT('Origin',(-44.0173971473007,-23.8648538466078,22.7999979687286));
#764=CARTESIAN_POINT('',(-44.7598592675465,-23.122391726362,22.7999979687286));
#765=CARTESIAN_POINT('Origin',(-44.0173971473007,-23.8648538466078,22.7999979687286));
#766=CARTESIAN_POINT('',(-45.0348459309961,-23.4130904878616,22.7999979687286));
#767=CARTESIAN_POINT('',(-44.7598592675465,-23.122391726362,22.7999979687286));
#768=CARTESIAN_POINT('Origin',(-44.3002398597753,-24.1476965590824,22.7999979687286));
#769=CARTESIAN_POINT('Origin',(-19.6222131779266,-48.2600378159818,22.7999999999999));
#770=CARTESIAN_POINT('',(-20.3646752981725,-47.5175756957359,22.7999999999999));
#771=CARTESIAN_POINT('Origin',(-19.6222131779266,-48.2600378159818,22.7999999999999));
#772=CARTESIAN_POINT('',(-20.6396619616221,-47.8082744572356,22.7999999999999));
#773=CARTESIAN_POINT('',(-20.3646752981725,-47.5175756957359,22.7999999999999));
#774=CARTESIAN_POINT('Origin',(-19.9050558904013,-48.5428805284564,22.7999999999999));
#775=CARTESIAN_POINT('Origin',(-32.0677392015412,-36.3801972173165,37.7035767035279));
#776=CARTESIAN_POINT('',(-48.4730631997284,-19.9748732191293,21.2001344403573));
#777=CARTESIAN_POINT('',(-48.4728225034428,-19.9751139154149,54.2071802940643));
#778=CARTESIAN_POINT('',(-48.4728826769359,-19.9750537419218,45.9554981299682));
#779=CARTESIAN_POINT('',(-47.0588642219703,-21.3890721968875,19.2001138148098));
#780=CARTESIAN_POINT('Origin',(-47.0588496374305,-21.3890867814272,21.2001138147034));
#781=CARTESIAN_POINT('',(-38.8257511686124,-29.6221852502453,19.1999937386454));
#782=CARTESIAN_POINT('',(-39.5633691786753,-28.8845672401824,19.2000044964646));
#783=CARTESIAN_POINT('',(-29.6221853416422,-38.8257510772155,19.1999965057215));
#784=CARTESIAN_POINT('Origin',(-34.2239682094289,-34.2239682094288,18.896));
#785=CARTESIAN_POINT('',(-17.0766287709883,-51.3713076478694,19.1999965057318));
#786=CARTESIAN_POINT('',(-30.8449622715879,-37.6029741472698,19.1999965057205));
#787=CARTESIAN_POINT('',(-15.6624152032788,-52.7855212155789,21.1999965003164));
#788=CARTESIAN_POINT('Origin',(-17.0766287710052,-51.3713076478525,21.199996500299));
#789=CARTESIAN_POINT('',(-15.6624152032812,-52.7855212155765,46.4500000768482));
#790=CARTESIAN_POINT('',(-15.6624152032796,-52.7855212155781,29.4517866019238));
#791=CARTESIAN_POINT('',(-17.076628720478,-51.3713076983797,48.45));
#792=CARTESIAN_POINT('Origin',(-17.076628720478,-51.3713076983797,46.4500000768482));
#793=CARTESIAN_POINT('',(-19.3747258045114,-49.0732106143463,48.45));
#794=CARTESIAN_POINT('',(-24.5721839610096,-43.8757524578481,48.4500000000001));
#795=CARTESIAN_POINT('',(-24.4334559428495,-44.0144804760082,54.5248409575985));
#796=CARTESIAN_POINT('Origin',(-19.3747258045114,-49.0732106143463,55.7));
#797=CARTESIAN_POINT('',(-25.8343809092933,-42.6135555095644,56.2071596684105));
#798=CARTESIAN_POINT('Origin',(-25.8343809092933,-42.6135555095644,54.1994016483209));
#799=CARTESIAN_POINT('',(-47.0586089411449,-21.3893274777128,56.2071596684104));
#800=CARTESIAN_POINT('',(-28.9510600554172,-39.4968763634405,56.2071596684104));
#801=CARTESIAN_POINT('Origin',(-47.0586089411449,-21.3893274777128,54.2071596684104));
#802=CARTESIAN_POINT('Origin',(-15.3795724908042,-52.5026785031043,21.1999965003164));
#803=CARTESIAN_POINT('',(-15.3795724908042,-52.5026785031043,21.1999965003164));
#804=CARTESIAN_POINT('',(-15.3795724908042,-52.5026785031043,21.1999965003164));
#805=CARTESIAN_POINT('',(-15.3795724908066,-52.5026785031018,46.4500000768482));
#806=CARTESIAN_POINT('',(-15.3795724908029,-52.5026785031055,7.99999999999988));
#807=CARTESIAN_POINT('',(-15.3795724908066,-52.5026785031018,46.4500000768482));
#808=CARTESIAN_POINT('Origin',(-16.7937860585306,-51.0884649353779,21.199996500299));
#809=CARTESIAN_POINT('',(-16.7937860585136,-51.0884649353948,19.1999965057318));
#810=CARTESIAN_POINT('',(-16.7937860585136,-51.0884649353948,19.1999965057318));
#811=CARTESIAN_POINT('Origin',(-16.7937860585306,-51.0884649353779,21.199996500299));
#812=CARTESIAN_POINT('Origin',(-29.3393426291676,-38.5429083647409,19.1999965057215));
#813=CARTESIAN_POINT('',(-29.3393426291676,-38.5429083647408,19.1999965057215));
#814=CARTESIAN_POINT('',(-29.3393426291676,-38.5429083647408,19.1999965057215));
#815=CARTESIAN_POINT('',(-16.7937860585136,-51.0884649353948,19.1999965057318));
#816=CARTESIAN_POINT('Origin',(-33.9411254969543,-33.9411254969542,18.896));
#817=CARTESIAN_POINT('',(-38.5429084561378,-29.3393425377706,19.1999937386454));
#818=CARTESIAN_POINT('',(-38.5429084561378,-29.3393425377706,19.1999937386454));
#819=CARTESIAN_POINT('Origin',(-33.9411254969543,-33.9411254969542,18.896));
#820=CARTESIAN_POINT('Origin',(-46.7760215094956,-21.1062294844128,19.2001138148098));
#821=CARTESIAN_POINT('',(-46.7760215094956,-21.1062294844128,19.2001138148098));
#822=CARTESIAN_POINT('',(-46.7760215094956,-21.1062294844128,19.2001138148098));
#823=CARTESIAN_POINT('',(-38.5429084561378,-29.3393425377706,19.1999937386454));
#824=CARTESIAN_POINT('Origin',(-46.7760069249559,-21.1062440689525,21.2001138147034));
#825=CARTESIAN_POINT('',(-48.1902204872538,-19.6920305066547,21.2001344403573));
#826=CARTESIAN_POINT('',(-48.1902204872538,-19.6920305066547,21.2001344403573));
#827=CARTESIAN_POINT('Origin',(-46.7760069249559,-21.1062440689525,21.2001138147034));
#828=CARTESIAN_POINT('Origin',(-48.1899797909682,-19.6922712029403,54.2071802940643));
#829=CARTESIAN_POINT('',(-48.1899797909682,-19.6922712029403,54.2071802940643));
#830=CARTESIAN_POINT('',(-48.1899797909682,-19.6922712029403,54.2071802940643));
#831=CARTESIAN_POINT('',(-48.1899797909682,-19.6922712029403,54.2071802940643));
#832=CARTESIAN_POINT('Origin',(-46.7757662286703,-21.1064847652382,54.2071596684104));
#833=CARTESIAN_POINT('',(-46.7757662286703,-21.1064847652382,56.2071596684104));
#834=CARTESIAN_POINT('',(-46.7757662286703,-21.1064847652382,56.2071596684104));
#835=CARTESIAN_POINT('Origin',(-46.7757662286703,-21.1064847652382,54.2071596684104));
#836=CARTESIAN_POINT('Origin',(-25.5515381968186,-42.3307127970898,56.2071596684104));
#837=CARTESIAN_POINT('',(-25.5515381968186,-42.3307127970898,56.2071596684105));
#838=CARTESIAN_POINT('',(-25.5515381968186,-42.3307127970898,56.2071596684105));
#839=CARTESIAN_POINT('',(-46.7757662286703,-21.1064847652382,56.2071596684104));
#840=CARTESIAN_POINT('Origin',(-25.5515381968187,-42.3307127970898,54.1994016483209));
#841=CARTESIAN_POINT('',(-24.1506132303749,-43.7316377635336,54.5248409575985));
#842=CARTESIAN_POINT('',(-24.1506132303749,-43.7316377635336,54.5248409575985));
#843=CARTESIAN_POINT('Origin',(-25.5515381968187,-42.3307127970898,54.1994016483209));
#844=CARTESIAN_POINT('Origin',(-19.0918830920367,-48.7903679018717,55.7));
#845=CARTESIAN_POINT('',(-19.0918830920367,-48.7903679018717,48.45));
#846=CARTESIAN_POINT('',(-19.0918830920367,-48.7903679018717,48.45));
#847=CARTESIAN_POINT('Origin',(-19.0918830920367,-48.7903679018717,55.7));
#848=CARTESIAN_POINT('Origin',(-16.7937860080034,-51.0884649859051,48.45));
#849=CARTESIAN_POINT('',(-16.7937860080034,-51.0884649859051,48.45));
#850=CARTESIAN_POINT('',(-16.7937860080034,-51.0884649859051,48.45));
#851=CARTESIAN_POINT('',(-16.7937860080034,-51.0884649859051,48.45));
#852=CARTESIAN_POINT('Origin',(-16.7937860080034,-51.0884649859051,46.4500000768482));
#853=CARTESIAN_POINT('Origin',(-16.7937860080034,-51.0884649859051,46.4500000768482));
#854=CARTESIAN_POINT('Origin',(-31.7848964890666,-36.0973545048419,37.7035767035279));
#855=UNCERTAINTY_MEASURE_WITH_UNIT(LENGTH_MEASURE(0.01),#859,
'DISTANCE_ACCURACY_VALUE',
'Maximum model space distance between geometric entities at asserted c
onnectivities');
#856=UNCERTAINTY_MEASURE_WITH_UNIT(LENGTH_MEASURE(0.01),#859,
'DISTANCE_ACCURACY_VALUE',
'Maximum model space distance between geometric entities at asserted c
onnectivities');
#857=(
GEOMETRIC_REPRESENTATION_CONTEXT(3)
GLOBAL_UNCERTAINTY_ASSIGNED_CONTEXT((#855))
GLOBAL_UNIT_ASSIGNED_CONTEXT((#859,#860,#861))
REPRESENTATION_CONTEXT('','3D')
);
#858=(
GEOMETRIC_REPRESENTATION_CONTEXT(3)
GLOBAL_UNCERTAINTY_ASSIGNED_CONTEXT((#856))
GLOBAL_UNIT_ASSIGNED_CONTEXT((#859,#860,#861))
REPRESENTATION_CONTEXT('','3D')
);
#859=(
LENGTH_UNIT()
NAMED_UNIT(*)
SI_UNIT(.MILLI.,.METRE.)
);
#860=(
NAMED_UNIT(*)
PLANE_ANGLE_UNIT()
SI_UNIT($,.RADIAN.)
);
#861=(
NAMED_UNIT(*)
SI_UNIT($,.STERADIAN.)
SOLID_ANGLE_UNIT()
);
#862=SHAPE_DEFINITION_REPRESENTATION(#863,#864);
#863=PRODUCT_DEFINITION_SHAPE('',$,#866);
#864=SHAPE_REPRESENTATION('',(#511),#857);
#865=PRODUCT_DEFINITION_CONTEXT('part definition',#870,'design');
#866=PRODUCT_DEFINITION('ESPHome Multi-Sensor-Enclosure',
'ESPHome Multi-Sensor-Enclosure v122',#867,#865);
#867=PRODUCT_DEFINITION_FORMATION('',$,#872);
#868=PRODUCT_RELATED_PRODUCT_CATEGORY(
'ESPHome Multi-Sensor-Enclosure v122',
'ESPHome Multi-Sensor-Enclosure v122',(#872));
#869=APPLICATION_PROTOCOL_DEFINITION('international standard',
'automotive_design',2009,#870);
#870=APPLICATION_CONTEXT(
'Core Data for Automotive Mechanical Design Process');
#871=PRODUCT_CONTEXT('part definition',#870,'mechanical');
#872=PRODUCT('ESPHome Multi-Sensor-Enclosure',
'ESPHome Multi-Sensor-Enclosure v122',$,(#871));
#873=PRESENTATION_STYLE_ASSIGNMENT((#875));
#874=PRESENTATION_STYLE_ASSIGNMENT((#876));
#875=SURFACE_STYLE_USAGE(.BOTH.,#877);
#876=SURFACE_STYLE_USAGE(.BOTH.,#878);
#877=SURFACE_SIDE_STYLE('',(#879));
#878=SURFACE_SIDE_STYLE('',(#880));
#879=SURFACE_STYLE_FILL_AREA(#881);
#880=SURFACE_STYLE_FILL_AREA(#882);
#881=FILL_AREA_STYLE('Steel - Satin',(#883));
#882=FILL_AREA_STYLE('Plastic - Matte (White)',(#884));
#883=FILL_AREA_STYLE_COLOUR('Steel - Satin',#885);
#884=FILL_AREA_STYLE_COLOUR('Plastic - Matte (White)',#886);
#885=COLOUR_RGB('Steel - Satin',0.627450980392157,0.627450980392157,0.627450980392157);
#886=COLOUR_RGB('Plastic - Matte (White)',0.964705882352941,0.964705882352941,
0.952941176470588);
ENDSEC;
END-ISO-10303-21;
