ISO-10303-21;
HEADER;
/* Generated by software containing ST-Developer
 * from STEP Tools, Inc. (www.steptools.com) 
 */

FILE_DESCRIPTION(
/* description */ (''),
/* implementation_level */ '2;1');

FILE_NAME(
/* name */ 'ESPHome-Indoor-Multi-Sensor-Wallplate-Gasket-SEN66.step',
/* time_stamp */ '2025-09-30T09:06:26-05:00',
/* author */ (''),
/* organization */ (''),
/* preprocessor_version */ 'ST-DEVELOPER v20.1',
/* originating_system */ 'Autodesk Translation Framework v14.17.0.0',
/* authorisation */ '');

FILE_SCHEMA (('AUTOMOTIVE_DESIGN { 1 0 10303 214 3 1 1 }'));
ENDSEC;

DATA;
#10=MECHANICAL_DESIGN_GEOMETRIC_PRESENTATION_REPRESENTATION('',(#13),#604);
#11=SHAPE_REPRESENTATION_RELATIONSHIP('SRR','None',#610,#12);
#12=ADVANCED_BREP_SHAPE_REPRESENTATION('',(#14),#603);
#13=STYLED_ITEM('',(#619),#14);
#14=MANIFOLD_SOLID_BREP('Gasket',#336);
#15=FACE_BOUND('',#67,.T.);
#16=FACE_BOUND('',#68,.T.);
#17=FACE_BOUND('',#69,.T.);
#18=FACE_BOUND('',#71,.T.);
#19=FACE_BOUND('',#72,.T.);
#20=FACE_BOUND('',#73,.T.);
#21=B_SPLINE_CURVE_WITH_KNOTS('',3,(#519,#520,#521,#522,#523,#524,#525,
#526,#527,#528,#529,#530,#531,#532,#533,#534),.UNSPECIFIED.,.F.,.F.,(4,
3,3,3,3,4),(-0.699323866994627,-0.55254921068743,-0.417964586910845,-0.32321316899662,
-0.215190511618551,0.),.UNSPECIFIED.);
#22=B_SPLINE_CURVE_WITH_KNOTS('',3,(#535,#536,#537,#538,#539,#540,#541,
#542,#543,#544,#545,#546,#547,#548,#549,#550),.UNSPECIFIED.,.F.,.F.,(4,
3,3,3,3,4),(-0.699323866994627,-0.55254921068743,-0.417964586910845,-0.32321316899662,
-0.215190511618551,0.),.UNSPECIFIED.);
#23=B_SPLINE_SURFACE_WITH_KNOTS('',3,1,((#495,#496),(#497,#498),(#499,#500),
(#501,#502),(#503,#504),(#505,#506),(#507,#508),(#509,#510),(#511,#512),
(#513,#514),(#515,#516),(#517,#518)),.UNSPECIFIED.,.F.,.F.,.F.,(4,2,2,2,
2,4),(2,2),(-0.699323866994627,-0.55254921068743,-0.417964586910845,-0.32321316899662,
-0.215190511618551,0.),(0.,0.1),.UNSPECIFIED.);
#24=PLANE('',#341);
#25=PLANE('',#342);
#26=PLANE('',#343);
#27=PLANE('',#344);
#28=PLANE('',#348);
#29=PLANE('',#352);
#30=PLANE('',#356);
#31=PLANE('',#360);
#32=PLANE('',#364);
#33=PLANE('',#365);
#34=FACE_OUTER_BOUND('',#51,.T.);
#35=FACE_OUTER_BOUND('',#52,.T.);
#36=FACE_OUTER_BOUND('',#53,.T.);
#37=FACE_OUTER_BOUND('',#54,.T.);
#38=FACE_OUTER_BOUND('',#55,.T.);
#39=FACE_OUTER_BOUND('',#56,.T.);
#40=FACE_OUTER_BOUND('',#57,.T.);
#41=FACE_OUTER_BOUND('',#58,.T.);
#42=FACE_OUTER_BOUND('',#59,.T.);
#43=FACE_OUTER_BOUND('',#60,.T.);
#44=FACE_OUTER_BOUND('',#61,.T.);
#45=FACE_OUTER_BOUND('',#62,.T.);
#46=FACE_OUTER_BOUND('',#63,.T.);
#47=FACE_OUTER_BOUND('',#64,.T.);
#48=FACE_OUTER_BOUND('',#65,.T.);
#49=FACE_OUTER_BOUND('',#66,.T.);
#50=FACE_OUTER_BOUND('',#70,.T.);
#51=EDGE_LOOP('',(#223,#224,#225,#226));
#52=EDGE_LOOP('',(#227,#228,#229,#230));
#53=EDGE_LOOP('',(#231,#232,#233,#234));
#54=EDGE_LOOP('',(#235,#236,#237,#238));
#55=EDGE_LOOP('',(#239,#240,#241,#242));
#56=EDGE_LOOP('',(#243,#244,#245,#246));
#57=EDGE_LOOP('',(#247,#248,#249,#250));
#58=EDGE_LOOP('',(#251,#252,#253,#254));
#59=EDGE_LOOP('',(#255,#256,#257,#258));
#60=EDGE_LOOP('',(#259,#260,#261,#262));
#61=EDGE_LOOP('',(#263,#264,#265,#266));
#62=EDGE_LOOP('',(#267,#268,#269,#270));
#63=EDGE_LOOP('',(#271,#272,#273,#274));
#64=EDGE_LOOP('',(#275,#276,#277,#278));
#65=EDGE_LOOP('',(#279,#280,#281,#282));
#66=EDGE_LOOP('',(#283,#284,#285,#286,#287,#288,#289,#290));
#67=EDGE_LOOP('',(#291,#292));
#68=EDGE_LOOP('',(#293,#294,#295,#296));
#69=EDGE_LOOP('',(#297));
#70=EDGE_LOOP('',(#298,#299,#300,#301,#302,#303,#304,#305));
#71=EDGE_LOOP('',(#306,#307));
#72=EDGE_LOOP('',(#308,#309,#310,#311));
#73=EDGE_LOOP('',(#312));
#74=LINE('',#460,#105);
#75=LINE('',#465,#106);
#76=LINE('',#467,#107);
#77=LINE('',#469,#108);
#78=LINE('',#470,#109);
#79=LINE('',#473,#110);
#80=LINE('',#475,#111);
#81=LINE('',#476,#112);
#82=LINE('',#479,#113);
#83=LINE('',#481,#114);
#84=LINE('',#482,#115);
#85=LINE('',#484,#116);
#86=LINE('',#485,#117);
#87=LINE('',#491,#118);
#88=LINE('',#494,#119);
#89=LINE('',#554,#120);
#90=LINE('',#556,#121);
#91=LINE('',#558,#122);
#92=LINE('',#559,#123);
#93=LINE('',#565,#124);
#94=LINE('',#568,#125);
#95=LINE('',#570,#126);
#96=LINE('',#571,#127);
#97=LINE('',#577,#128);
#98=LINE('',#580,#129);
#99=LINE('',#582,#130);
#100=LINE('',#583,#131);
#101=LINE('',#589,#132);
#102=LINE('',#592,#133);
#103=LINE('',#594,#134);
#104=LINE('',#595,#135);
#105=VECTOR('',#372,3.62102224193583);
#106=VECTOR('',#377,10.);
#107=VECTOR('',#378,10.);
#108=VECTOR('',#379,10.);
#109=VECTOR('',#380,10.);
#110=VECTOR('',#383,10.);
#111=VECTOR('',#384,10.);
#112=VECTOR('',#385,10.);
#113=VECTOR('',#388,10.);
#114=VECTOR('',#389,10.);
#115=VECTOR('',#390,10.);
#116=VECTOR('',#393,10.);
#117=VECTOR('',#394,10.);
#118=VECTOR('',#399,10.);
#119=VECTOR('',#402,10.);
#120=VECTOR('',#405,10.);
#121=VECTOR('',#406,10.);
#122=VECTOR('',#407,10.);
#123=VECTOR('',#408,10.);
#124=VECTOR('',#415,10.);
#125=VECTOR('',#418,10.);
#126=VECTOR('',#419,10.);
#127=VECTOR('',#420,10.);
#128=VECTOR('',#427,10.);
#129=VECTOR('',#430,10.);
#130=VECTOR('',#431,10.);
#131=VECTOR('',#432,10.);
#132=VECTOR('',#439,10.);
#133=VECTOR('',#442,10.);
#134=VECTOR('',#443,10.);
#135=VECTOR('',#444,10.);
#136=CIRCLE('',#339,3.62102224193583);
#137=CIRCLE('',#340,3.62102224193583);
#138=CIRCLE('',#346,10.7710222419358);
#139=CIRCLE('',#347,10.7710222419358);
#140=CIRCLE('',#350,2.89999999999992);
#141=CIRCLE('',#351,2.89999999999992);
#142=CIRCLE('',#354,2.8999999999998);
#143=CIRCLE('',#355,2.8999999999998);
#144=CIRCLE('',#358,4.39999999999992);
#145=CIRCLE('',#359,4.39999999999992);
#146=CIRCLE('',#362,4.39999999999979);
#147=CIRCLE('',#363,4.39999999999979);
#148=VERTEX_POINT('',#457);
#149=VERTEX_POINT('',#459);
#150=VERTEX_POINT('',#463);
#151=VERTEX_POINT('',#464);
#152=VERTEX_POINT('',#466);
#153=VERTEX_POINT('',#468);
#154=VERTEX_POINT('',#472);
#155=VERTEX_POINT('',#474);
#156=VERTEX_POINT('',#478);
#157=VERTEX_POINT('',#480);
#158=VERTEX_POINT('',#487);
#159=VERTEX_POINT('',#488);
#160=VERTEX_POINT('',#490);
#161=VERTEX_POINT('',#492);
#162=VERTEX_POINT('',#552);
#163=VERTEX_POINT('',#553);
#164=VERTEX_POINT('',#555);
#165=VERTEX_POINT('',#557);
#166=VERTEX_POINT('',#561);
#167=VERTEX_POINT('',#563);
#168=VERTEX_POINT('',#567);
#169=VERTEX_POINT('',#569);
#170=VERTEX_POINT('',#573);
#171=VERTEX_POINT('',#575);
#172=VERTEX_POINT('',#579);
#173=VERTEX_POINT('',#581);
#174=VERTEX_POINT('',#585);
#175=VERTEX_POINT('',#587);
#176=VERTEX_POINT('',#591);
#177=VERTEX_POINT('',#593);
#178=EDGE_CURVE('',#148,#148,#136,.T.);
#179=EDGE_CURVE('',#148,#149,#74,.T.);
#180=EDGE_CURVE('',#149,#149,#137,.T.);
#181=EDGE_CURVE('',#150,#151,#75,.T.);
#182=EDGE_CURVE('',#151,#152,#76,.T.);
#183=EDGE_CURVE('',#153,#152,#77,.T.);
#184=EDGE_CURVE('',#150,#153,#78,.T.);
#185=EDGE_CURVE('',#154,#150,#79,.T.);
#186=EDGE_CURVE('',#155,#153,#80,.T.);
#187=EDGE_CURVE('',#154,#155,#81,.T.);
#188=EDGE_CURVE('',#156,#154,#82,.T.);
#189=EDGE_CURVE('',#157,#155,#83,.T.);
#190=EDGE_CURVE('',#156,#157,#84,.T.);
#191=EDGE_CURVE('',#151,#156,#85,.T.);
#192=EDGE_CURVE('',#152,#157,#86,.T.);
#193=EDGE_CURVE('',#158,#159,#138,.T.);
#194=EDGE_CURVE('',#159,#160,#87,.T.);
#195=EDGE_CURVE('',#161,#160,#139,.T.);
#196=EDGE_CURVE('',#158,#161,#88,.T.);
#197=EDGE_CURVE('',#159,#158,#21,.T.);
#198=EDGE_CURVE('',#160,#161,#22,.T.);
#199=EDGE_CURVE('',#162,#163,#89,.T.);
#200=EDGE_CURVE('',#163,#164,#90,.T.);
#201=EDGE_CURVE('',#165,#164,#91,.T.);
#202=EDGE_CURVE('',#162,#165,#92,.T.);
#203=EDGE_CURVE('',#166,#162,#140,.T.);
#204=EDGE_CURVE('',#167,#165,#141,.T.);
#205=EDGE_CURVE('',#166,#167,#93,.T.);
#206=EDGE_CURVE('',#168,#166,#94,.T.);
#207=EDGE_CURVE('',#169,#167,#95,.T.);
#208=EDGE_CURVE('',#168,#169,#96,.T.);
#209=EDGE_CURVE('',#170,#168,#142,.T.);
#210=EDGE_CURVE('',#171,#169,#143,.T.);
#211=EDGE_CURVE('',#170,#171,#97,.T.);
#212=EDGE_CURVE('',#172,#170,#98,.T.);
#213=EDGE_CURVE('',#173,#171,#99,.T.);
#214=EDGE_CURVE('',#172,#173,#100,.T.);
#215=EDGE_CURVE('',#174,#172,#144,.T.);
#216=EDGE_CURVE('',#175,#173,#145,.T.);
#217=EDGE_CURVE('',#174,#175,#101,.T.);
#218=EDGE_CURVE('',#176,#174,#102,.T.);
#219=EDGE_CURVE('',#177,#175,#103,.T.);
#220=EDGE_CURVE('',#176,#177,#104,.T.);
#221=EDGE_CURVE('',#163,#176,#146,.T.);
#222=EDGE_CURVE('',#164,#177,#147,.T.);
#223=ORIENTED_EDGE('',*,*,#178,.F.);
#224=ORIENTED_EDGE('',*,*,#179,.T.);
#225=ORIENTED_EDGE('',*,*,#180,.T.);
#226=ORIENTED_EDGE('',*,*,#179,.F.);
#227=ORIENTED_EDGE('',*,*,#181,.T.);
#228=ORIENTED_EDGE('',*,*,#182,.T.);
#229=ORIENTED_EDGE('',*,*,#183,.F.);
#230=ORIENTED_EDGE('',*,*,#184,.F.);
#231=ORIENTED_EDGE('',*,*,#185,.T.);
#232=ORIENTED_EDGE('',*,*,#184,.T.);
#233=ORIENTED_EDGE('',*,*,#186,.F.);
#234=ORIENTED_EDGE('',*,*,#187,.F.);
#235=ORIENTED_EDGE('',*,*,#188,.T.);
#236=ORIENTED_EDGE('',*,*,#187,.T.);
#237=ORIENTED_EDGE('',*,*,#189,.F.);
#238=ORIENTED_EDGE('',*,*,#190,.F.);
#239=ORIENTED_EDGE('',*,*,#191,.T.);
#240=ORIENTED_EDGE('',*,*,#190,.T.);
#241=ORIENTED_EDGE('',*,*,#192,.F.);
#242=ORIENTED_EDGE('',*,*,#182,.F.);
#243=ORIENTED_EDGE('',*,*,#193,.T.);
#244=ORIENTED_EDGE('',*,*,#194,.T.);
#245=ORIENTED_EDGE('',*,*,#195,.F.);
#246=ORIENTED_EDGE('',*,*,#196,.F.);
#247=ORIENTED_EDGE('',*,*,#197,.T.);
#248=ORIENTED_EDGE('',*,*,#196,.T.);
#249=ORIENTED_EDGE('',*,*,#198,.F.);
#250=ORIENTED_EDGE('',*,*,#194,.F.);
#251=ORIENTED_EDGE('',*,*,#199,.T.);
#252=ORIENTED_EDGE('',*,*,#200,.T.);
#253=ORIENTED_EDGE('',*,*,#201,.F.);
#254=ORIENTED_EDGE('',*,*,#202,.F.);
#255=ORIENTED_EDGE('',*,*,#203,.T.);
#256=ORIENTED_EDGE('',*,*,#202,.T.);
#257=ORIENTED_EDGE('',*,*,#204,.F.);
#258=ORIENTED_EDGE('',*,*,#205,.F.);
#259=ORIENTED_EDGE('',*,*,#206,.T.);
#260=ORIENTED_EDGE('',*,*,#205,.T.);
#261=ORIENTED_EDGE('',*,*,#207,.F.);
#262=ORIENTED_EDGE('',*,*,#208,.F.);
#263=ORIENTED_EDGE('',*,*,#209,.T.);
#264=ORIENTED_EDGE('',*,*,#208,.T.);
#265=ORIENTED_EDGE('',*,*,#210,.F.);
#266=ORIENTED_EDGE('',*,*,#211,.F.);
#267=ORIENTED_EDGE('',*,*,#212,.T.);
#268=ORIENTED_EDGE('',*,*,#211,.T.);
#269=ORIENTED_EDGE('',*,*,#213,.F.);
#270=ORIENTED_EDGE('',*,*,#214,.F.);
#271=ORIENTED_EDGE('',*,*,#215,.T.);
#272=ORIENTED_EDGE('',*,*,#214,.T.);
#273=ORIENTED_EDGE('',*,*,#216,.F.);
#274=ORIENTED_EDGE('',*,*,#217,.F.);
#275=ORIENTED_EDGE('',*,*,#218,.T.);
#276=ORIENTED_EDGE('',*,*,#217,.T.);
#277=ORIENTED_EDGE('',*,*,#219,.F.);
#278=ORIENTED_EDGE('',*,*,#220,.F.);
#279=ORIENTED_EDGE('',*,*,#221,.T.);
#280=ORIENTED_EDGE('',*,*,#220,.T.);
#281=ORIENTED_EDGE('',*,*,#222,.F.);
#282=ORIENTED_EDGE('',*,*,#200,.F.);
#283=ORIENTED_EDGE('',*,*,#222,.T.);
#284=ORIENTED_EDGE('',*,*,#219,.T.);
#285=ORIENTED_EDGE('',*,*,#216,.T.);
#286=ORIENTED_EDGE('',*,*,#213,.T.);
#287=ORIENTED_EDGE('',*,*,#210,.T.);
#288=ORIENTED_EDGE('',*,*,#207,.T.);
#289=ORIENTED_EDGE('',*,*,#204,.T.);
#290=ORIENTED_EDGE('',*,*,#201,.T.);
#291=ORIENTED_EDGE('',*,*,#198,.T.);
#292=ORIENTED_EDGE('',*,*,#195,.T.);
#293=ORIENTED_EDGE('',*,*,#192,.T.);
#294=ORIENTED_EDGE('',*,*,#189,.T.);
#295=ORIENTED_EDGE('',*,*,#186,.T.);
#296=ORIENTED_EDGE('',*,*,#183,.T.);
#297=ORIENTED_EDGE('',*,*,#178,.T.);
#298=ORIENTED_EDGE('',*,*,#221,.F.);
#299=ORIENTED_EDGE('',*,*,#199,.F.);
#300=ORIENTED_EDGE('',*,*,#203,.F.);
#301=ORIENTED_EDGE('',*,*,#206,.F.);
#302=ORIENTED_EDGE('',*,*,#209,.F.);
#303=ORIENTED_EDGE('',*,*,#212,.F.);
#304=ORIENTED_EDGE('',*,*,#215,.F.);
#305=ORIENTED_EDGE('',*,*,#218,.F.);
#306=ORIENTED_EDGE('',*,*,#197,.F.);
#307=ORIENTED_EDGE('',*,*,#193,.F.);
#308=ORIENTED_EDGE('',*,*,#191,.F.);
#309=ORIENTED_EDGE('',*,*,#181,.F.);
#310=ORIENTED_EDGE('',*,*,#185,.F.);
#311=ORIENTED_EDGE('',*,*,#188,.F.);
#312=ORIENTED_EDGE('',*,*,#180,.F.);
#313=CYLINDRICAL_SURFACE('',#338,3.62102224193583);
#314=CYLINDRICAL_SURFACE('',#345,10.7710222419358);
#315=CYLINDRICAL_SURFACE('',#349,2.89999999999992);
#316=CYLINDRICAL_SURFACE('',#353,2.8999999999998);
#317=CYLINDRICAL_SURFACE('',#357,4.39999999999992);
#318=CYLINDRICAL_SURFACE('',#361,4.39999999999979);
#319=ADVANCED_FACE('',(#34),#313,.F.);
#320=ADVANCED_FACE('',(#35),#24,.T.);
#321=ADVANCED_FACE('',(#36),#25,.T.);
#322=ADVANCED_FACE('',(#37),#26,.T.);
#323=ADVANCED_FACE('',(#38),#27,.T.);
#324=ADVANCED_FACE('',(#39),#314,.F.);
#325=ADVANCED_FACE('',(#40),#23,.T.);
#326=ADVANCED_FACE('',(#41),#28,.T.);
#327=ADVANCED_FACE('',(#42),#315,.T.);
#328=ADVANCED_FACE('',(#43),#29,.T.);
#329=ADVANCED_FACE('',(#44),#316,.T.);
#330=ADVANCED_FACE('',(#45),#30,.T.);
#331=ADVANCED_FACE('',(#46),#317,.T.);
#332=ADVANCED_FACE('',(#47),#31,.T.);
#333=ADVANCED_FACE('',(#48),#318,.T.);
#334=ADVANCED_FACE('',(#49,#15,#16,#17),#32,.T.);
#335=ADVANCED_FACE('',(#50,#18,#19,#20),#33,.F.);
#336=CLOSED_SHELL('',(#319,#320,#321,#322,#323,#324,#325,#326,#327,#328,
#329,#330,#331,#332,#333,#334,#335));
#337=AXIS2_PLACEMENT_3D('',#455,#366,#367);
#338=AXIS2_PLACEMENT_3D('',#456,#368,#369);
#339=AXIS2_PLACEMENT_3D('',#458,#370,#371);
#340=AXIS2_PLACEMENT_3D('',#461,#373,#374);
#341=AXIS2_PLACEMENT_3D('',#462,#375,#376);
#342=AXIS2_PLACEMENT_3D('',#471,#381,#382);
#343=AXIS2_PLACEMENT_3D('',#477,#386,#387);
#344=AXIS2_PLACEMENT_3D('',#483,#391,#392);
#345=AXIS2_PLACEMENT_3D('',#486,#395,#396);
#346=AXIS2_PLACEMENT_3D('',#489,#397,#398);
#347=AXIS2_PLACEMENT_3D('',#493,#400,#401);
#348=AXIS2_PLACEMENT_3D('',#551,#403,#404);
#349=AXIS2_PLACEMENT_3D('',#560,#409,#410);
#350=AXIS2_PLACEMENT_3D('',#562,#411,#412);
#351=AXIS2_PLACEMENT_3D('',#564,#413,#414);
#352=AXIS2_PLACEMENT_3D('',#566,#416,#417);
#353=AXIS2_PLACEMENT_3D('',#572,#421,#422);
#354=AXIS2_PLACEMENT_3D('',#574,#423,#424);
#355=AXIS2_PLACEMENT_3D('',#576,#425,#426);
#356=AXIS2_PLACEMENT_3D('',#578,#428,#429);
#357=AXIS2_PLACEMENT_3D('',#584,#433,#434);
#358=AXIS2_PLACEMENT_3D('',#586,#435,#436);
#359=AXIS2_PLACEMENT_3D('',#588,#437,#438);
#360=AXIS2_PLACEMENT_3D('',#590,#440,#441);
#361=AXIS2_PLACEMENT_3D('',#596,#445,#446);
#362=AXIS2_PLACEMENT_3D('',#597,#447,#448);
#363=AXIS2_PLACEMENT_3D('',#598,#449,#450);
#364=AXIS2_PLACEMENT_3D('',#599,#451,#452);
#365=AXIS2_PLACEMENT_3D('',#600,#453,#454);
#366=DIRECTION('axis',(0.,0.,1.));
#367=DIRECTION('refdir',(1.,0.,0.));
#368=DIRECTION('center_axis',(-0.707106781186551,0.707106781186544,0.));
#369=DIRECTION('ref_axis',(-0.707106781186544,-0.707106781186551,0.));
#370=DIRECTION('center_axis',(0.707106781186553,-0.707106781186542,1.57772181044202E-30));
#371=DIRECTION('ref_axis',(-0.707106781186542,-0.707106781186553,0.));
#372=DIRECTION('',(0.707106781186551,-0.707106781186544,0.));
#373=DIRECTION('center_axis',(0.707106781186553,-0.707106781186542,1.57772181044202E-30));
#374=DIRECTION('ref_axis',(-0.707106781186542,-0.707106781186553,0.));
#375=DIRECTION('center_axis',(0.,0.,-1.));
#376=DIRECTION('ref_axis',(-0.707106781186542,-0.707106781186553,0.));
#377=DIRECTION('',(-0.707106781186542,-0.707106781186553,0.));
#378=DIRECTION('',(-0.707106781186551,0.707106781186544,0.));
#379=DIRECTION('',(-0.707106781186542,-0.707106781186553,0.));
#380=DIRECTION('',(-0.707106781186551,0.707106781186544,0.));
#381=DIRECTION('center_axis',(-0.707106781186544,-0.707106781186551,-3.64848168664718E-30));
#382=DIRECTION('ref_axis',(-7.41236888089414E-16,7.41236888089402E-16,1.));
#383=DIRECTION('',(-7.41236888089414E-16,7.41236888089402E-16,1.));
#384=DIRECTION('',(-7.41236888089414E-16,7.41236888089402E-16,1.));
#385=DIRECTION('',(-0.707106781186551,0.707106781186544,0.));
#386=DIRECTION('center_axis',(7.80941941732644E-16,7.80941941732652E-16,
1.));
#387=DIRECTION('ref_axis',(0.707106781186542,0.707106781186553,-1.10441868542429E-15));
#388=DIRECTION('',(0.707106781186542,0.707106781186553,-1.10441868542429E-15));
#389=DIRECTION('',(0.707106781186542,0.707106781186553,-1.10441868542429E-15));
#390=DIRECTION('',(-0.707106781186551,0.707106781186544,0.));
#391=DIRECTION('center_axis',(0.707106781186544,0.707106781186551,-1.65662802813643E-15));
#392=DIRECTION('ref_axis',(-7.8033502055162E-16,-1.56249080464631E-15,-1.));
#393=DIRECTION('',(-7.8033502055162E-16,-1.56249080464631E-15,-1.));
#394=DIRECTION('',(-7.8033502055162E-16,-1.56249080464631E-15,-1.));
#395=DIRECTION('center_axis',(-0.707106781186551,0.707106781186544,0.));
#396=DIRECTION('ref_axis',(9.8694304236023E-15,9.89519917144461E-15,1.));
#397=DIRECTION('center_axis',(0.707106781186553,-0.707106781186542,-1.66483234821365E-17));
#398=DIRECTION('ref_axis',(-0.227474496861587,-0.227474496861591,-0.946842493002471));
#399=DIRECTION('',(-0.707106781186551,0.707106781186544,0.));
#400=DIRECTION('center_axis',(0.707106781186553,-0.707106781186542,-1.66483234821365E-17));
#401=DIRECTION('ref_axis',(-0.227474496861587,-0.227474496861591,-0.946842493002471));
#402=DIRECTION('',(-0.707106781186551,0.707106781186544,0.));
#403=DIRECTION('center_axis',(0.707106781186544,0.707106781186551,4.80096443081147E-15));
#404=DIRECTION('ref_axis',(3.3295099955456E-15,3.46007901497882E-15,-1.));
#405=DIRECTION('',(3.3295099955456E-15,3.46007901497882E-15,-1.));
#406=DIRECTION('',(-0.707106781186551,0.707106781186544,0.));
#407=DIRECTION('',(3.3295099955456E-15,3.46007901497882E-15,-1.));
#408=DIRECTION('',(-0.707106781186551,0.707106781186544,0.));
#409=DIRECTION('center_axis',(-0.707106781186551,0.707106781186544,0.));
#410=DIRECTION('ref_axis',(-4.33128954119672E-15,-4.33128954119677E-15,
1.));
#411=DIRECTION('center_axis',(-0.707106781186553,0.707106781186542,-2.29701315439686E-15));
#412=DIRECTION('ref_axis',(-5.95552311914544E-15,-2.70705596324807E-15,
1.));
#413=DIRECTION('center_axis',(-0.707106781186553,0.707106781186542,-2.29701315439686E-15));
#414=DIRECTION('ref_axis',(-5.95552311914544E-15,-2.70705596324807E-15,
1.));
#415=DIRECTION('',(-0.707106781186551,0.707106781186544,0.));
#416=DIRECTION('center_axis',(-5.02429586778804E-15,-5.02429586778809E-15,
1.));
#417=DIRECTION('ref_axis',(0.707106781186542,0.707106781186553,7.10542735760098E-15));
#418=DIRECTION('',(0.707106781186542,0.707106781186553,7.10542735760098E-15));
#419=DIRECTION('',(0.707106781186542,0.707106781186553,7.10542735760098E-15));
#420=DIRECTION('',(-0.707106781186551,0.707106781186544,0.));
#421=DIRECTION('center_axis',(-0.707106781186551,0.707106781186544,0.));
#422=DIRECTION('ref_axis',(-0.707106781186544,-0.707106781186551,-3.06268420586271E-15));
#423=DIRECTION('center_axis',(-0.707106781186554,0.707106781186541,-2.34500863621012E-29));
#424=DIRECTION('ref_axis',(-0.707106781186541,-0.707106781186554,-3.06268420586271E-15));
#425=DIRECTION('center_axis',(-0.707106781186554,0.707106781186541,-2.34500863621012E-29));
#426=DIRECTION('ref_axis',(-0.707106781186541,-0.707106781186554,-3.06268420586271E-15));
#427=DIRECTION('',(-0.707106781186551,0.707106781186544,0.));
#428=DIRECTION('center_axis',(-0.707106781186544,-0.707106781186551,-5.53957434324401E-15));
#429=DIRECTION('ref_axis',(-3.85178607327824E-15,-3.98235509271147E-15,
1.));
#430=DIRECTION('',(-3.85178607327824E-15,-3.98235509271147E-15,1.));
#431=DIRECTION('',(-3.85178607327824E-15,-3.98235509271147E-15,1.));
#432=DIRECTION('',(-0.707106781186551,0.707106781186544,0.));
#433=DIRECTION('center_axis',(-0.707106781186551,0.707106781186544,0.));
#434=DIRECTION('ref_axis',(2.85471356124326E-15,2.85471356124329E-15,-1.));
#435=DIRECTION('center_axis',(-0.707106781186553,0.707106781186542,2.24108211710519E-31));
#436=DIRECTION('ref_axis',(2.85471356124325E-15,2.8547135612433E-15,-1.));
#437=DIRECTION('center_axis',(-0.707106781186553,0.707106781186542,2.24108211710519E-31));
#438=DIRECTION('ref_axis',(2.85471356124325E-15,2.8547135612433E-15,-1.));
#439=DIRECTION('',(-0.707106781186551,0.707106781186544,0.));
#440=DIRECTION('center_axis',(4.80263575597385E-15,4.8026357559739E-15,
-1.));
#441=DIRECTION('ref_axis',(-0.707106781186542,-0.707106781186553,-6.79195262123622E-15));
#442=DIRECTION('',(-0.707106781186542,-0.707106781186553,-6.79195262123622E-15));
#443=DIRECTION('',(-0.707106781186542,-0.707106781186553,-6.79195262123622E-15));
#444=DIRECTION('',(-0.707106781186551,0.707106781186544,0.));
#445=DIRECTION('center_axis',(-0.707106781186551,0.707106781186544,0.));
#446=DIRECTION('ref_axis',(0.707106781186544,0.707106781186551,2.01858731750038E-15));
#447=DIRECTION('center_axis',(-0.707106781186553,0.707106781186542,-1.29378287672493E-58));
#448=DIRECTION('ref_axis',(0.707106781186542,0.707106781186553,2.01858731750038E-15));
#449=DIRECTION('center_axis',(-0.707106781186553,0.707106781186542,-1.29378287672493E-58));
#450=DIRECTION('ref_axis',(0.707106781186542,0.707106781186553,2.01858731750038E-15));
#451=DIRECTION('center_axis',(-0.707106781186553,0.707106781186542,1.97215226305253E-31));
#452=DIRECTION('ref_axis',(-0.707106781186542,-0.707106781186553,0.));
#453=DIRECTION('center_axis',(-0.707106781186553,0.707106781186542,1.97215226305253E-31));
#454=DIRECTION('ref_axis',(-0.707106781186542,-0.707106781186553,0.));
#455=CARTESIAN_POINT('',(0.,0.,0.));
#456=CARTESIAN_POINT('Origin',(-10.2530483272047,-45.8912300990071,51.9999999999998));
#457=CARTESIAN_POINT('',(-8.39970572629116,-42.6236739357203,51.9999999999998));
#458=CARTESIAN_POINT('Origin',(-10.9601551083913,-45.1841233178205,51.9999999999998));
#459=CARTESIAN_POINT('',(-7.69259894510461,-43.3307807169069,51.9999999999998));
#460=CARTESIAN_POINT('',(-7.6925989451046,-43.3307807169069,51.9999999999998));
#461=CARTESIAN_POINT('Origin',(-10.2530483272047,-45.8912300990071,51.9999999999998));
#462=CARTESIAN_POINT('Origin',(0.934103785371261,-34.7040779864309,55.9210222419357));
#463=CARTESIAN_POINT('',(0.934103785371261,-34.7040779864309,55.9210222419357));
#464=CARTESIAN_POINT('',(-4.75248040377824,-40.3906621755805,55.9210222419357));
#465=CARTESIAN_POINT('',(0.934103785371261,-34.7040779864309,55.9210222419357));
#466=CARTESIAN_POINT('',(-5.45958718496479,-39.6835553943939,55.9210222419357));
#467=CARTESIAN_POINT('',(-4.75248040377824,-40.3906621755805,55.9210222419357));
#468=CARTESIAN_POINT('',(0.226997004184709,-33.9969712052443,55.9210222419357));
#469=CARTESIAN_POINT('',(0.226997004184708,-33.9969712052443,55.9210222419357));
#470=CARTESIAN_POINT('',(0.934103785371261,-34.7040779864309,55.9210222419357));
#471=CARTESIAN_POINT('Origin',(0.934103785371265,-34.7040779864309,47.878977758064));
#472=CARTESIAN_POINT('',(0.934103785371265,-34.7040779864309,47.878977758064));
#473=CARTESIAN_POINT('',(0.934103785371265,-34.7040779864309,47.878977758064));
#474=CARTESIAN_POINT('',(0.226997004184715,-33.9969712052443,47.878977758064));
#475=CARTESIAN_POINT('',(0.226997004184712,-33.9969712052443,47.878977758064));
#476=CARTESIAN_POINT('',(0.934103785371265,-34.7040779864309,47.878977758064));
#477=CARTESIAN_POINT('Origin',(-4.75248040377824,-40.3906621755805,47.878977758064));
#478=CARTESIAN_POINT('',(-4.75248040377824,-40.3906621755805,47.878977758064));
#479=CARTESIAN_POINT('',(-4.75248040377824,-40.3906621755805,47.878977758064));
#480=CARTESIAN_POINT('',(-5.45958718496479,-39.6835553943939,47.878977758064));
#481=CARTESIAN_POINT('',(-5.45958718496479,-39.6835553943939,47.878977758064));
#482=CARTESIAN_POINT('',(-4.75248040377824,-40.3906621755805,47.878977758064));
#483=CARTESIAN_POINT('Origin',(-4.75248040377824,-40.3906621755805,55.9210222419357));
#484=CARTESIAN_POINT('',(-4.75248040377824,-40.3906621755805,55.9210222419357));
#485=CARTESIAN_POINT('',(-5.45958718496479,-39.6835553943939,55.9210222419357));
#486=CARTESIAN_POINT('Origin',(-6.4346717087972,-42.0728534805995,16.2999999999997));
#487=CARTESIAN_POINT('',(-3.98453884368716,-39.6227206154891,6.1015384482314));
#488=CARTESIAN_POINT('',(-8.88480457390776,-44.5229863457098,6.10153844823153));
#489=CARTESIAN_POINT('Origin',(-6.4346717087972,-42.0728534805995,16.2999999999997));
#490=CARTESIAN_POINT('',(-9.59191135509432,-43.8158795645232,6.10153844823153));
#491=CARTESIAN_POINT('',(-8.88480457390776,-44.5229863457098,6.10153844823153));
#492=CARTESIAN_POINT('',(-4.69164562487371,-38.9156138343025,6.1015384482314));
#493=CARTESIAN_POINT('Origin',(-7.14177848998375,-41.3657466994129,16.2999999999997));
#494=CARTESIAN_POINT('',(-3.98453884368716,-39.6227206154891,6.1015384482314));
#495=CARTESIAN_POINT('Ctrl Pts',(-8.88480457390776,-44.5229863457098,6.10153844823152));
#496=CARTESIAN_POINT('Ctrl Pts',(-9.59191135509431,-43.8158795645232,6.10153844823152));
#497=CARTESIAN_POINT('Ctrl Pts',(-8.55503173386784,-44.1932135056698,5.94308567193752));
#498=CARTESIAN_POINT('Ctrl Pts',(-9.26213851505439,-43.4861067244833,5.94308567193752));
#499=CARTESIAN_POINT('Ctrl Pts',(-8.21425346058384,-43.8524352323865,5.80383324216371));
#500=CARTESIAN_POINT('Ctrl Pts',(-8.92136024177039,-43.1453284511999,5.80383324216371));
#501=CARTESIAN_POINT('Ctrl Pts',(-7.55973541052579,-43.1979171823284,5.59985495069049));
#502=CARTESIAN_POINT('Ctrl Pts',(-8.26684219171234,-42.4908104011419,5.59985495069049));
#503=CARTESIAN_POINT('Ctrl Pts',(-7.24392481178228,-42.8821065835842,5.52908580975887));
#504=CARTESIAN_POINT('Ctrl Pts',(-7.95103159296883,-42.1749998023977,5.52908580975887));
#505=CARTESIAN_POINT('Ctrl Pts',(-6.6979665449462,-42.3361483167481,5.46735047592541));
#506=CARTESIAN_POINT('Ctrl Pts',(-7.40507332613276,-41.6290415355616,5.46735047592541));
#507=CARTESIAN_POINT('Ctrl Pts',(-6.47358856778822,-42.1117703395902,5.45929704089676));
#508=CARTESIAN_POINT('Ctrl Pts',(-7.18069534897477,-41.4046635584036,5.45929704089676));
#509=CARTESIAN_POINT('Ctrl Pts',(-5.98947212792654,-41.6276538997285,5.48044319791243));
#510=CARTESIAN_POINT('Ctrl Pts',(-6.69657890911309,-40.9205471185419,5.48044319791243));
#511=CARTESIAN_POINT('Ctrl Pts',(-5.73465100007963,-41.3728327718815,5.51480182171823));
#512=CARTESIAN_POINT('Ctrl Pts',(-6.44175778126618,-40.665725990695,5.51480182171823));
#513=CARTESIAN_POINT('Ctrl Pts',(-4.97209153422966,-40.6102733060316,5.67896345396354));
#514=CARTESIAN_POINT('Ctrl Pts',(-5.67919831541622,-39.903166524845,5.67896345396354));
#515=CARTESIAN_POINT('Ctrl Pts',(-4.46478578307692,-40.1029675548788,5.8707842695556));
#516=CARTESIAN_POINT('Ctrl Pts',(-5.17189256426347,-39.3958607736923,5.8707842695556));
#517=CARTESIAN_POINT('Ctrl Pts',(-3.98453884368715,-39.6227206154891,6.10153844823139));
#518=CARTESIAN_POINT('Ctrl Pts',(-4.69164562487371,-38.9156138343025,6.10153844823139));
#519=CARTESIAN_POINT('Ctrl Pts',(-8.88480457390776,-44.5229863457098,6.10153844823152));
#520=CARTESIAN_POINT('Ctrl Pts',(-8.55503173386784,-44.1932135056698,5.94308567193752));
#521=CARTESIAN_POINT('Ctrl Pts',(-8.21425346058384,-43.8524352323865,5.80383324216371));
#522=CARTESIAN_POINT('Ctrl Pts',(-7.87281577345469,-43.5109975452573,5.69742536531602));
#523=CARTESIAN_POINT('Ctrl Pts',(-7.55973541052579,-43.1979171823284,5.59985495069049));
#524=CARTESIAN_POINT('Ctrl Pts',(-7.24392481178228,-42.8821065835842,5.52908580975887));
#525=CARTESIAN_POINT('Ctrl Pts',(-6.92353213648307,-42.561713908285,5.49285676082072));
#526=CARTESIAN_POINT('Ctrl Pts',(-6.6979665449462,-42.3361483167481,5.46735047592541));
#527=CARTESIAN_POINT('Ctrl Pts',(-6.47358856778822,-42.1117703395902,5.45929704089676));
#528=CARTESIAN_POINT('Ctrl Pts',(-6.24737267186385,-41.8855544436658,5.46917812829801));
#529=CARTESIAN_POINT('Ctrl Pts',(-5.98947212792654,-41.6276538997285,5.48044319791243));
#530=CARTESIAN_POINT('Ctrl Pts',(-5.73465100007963,-41.3728327718815,5.51480182171823));
#531=CARTESIAN_POINT('Ctrl Pts',(-5.47979226345812,-41.11797403526,5.56966708543787));
#532=CARTESIAN_POINT('Ctrl Pts',(-4.97209153422966,-40.6102733060316,5.67896345396354));
#533=CARTESIAN_POINT('Ctrl Pts',(-4.46478578307692,-40.1029675548788,5.8707842695556));
#534=CARTESIAN_POINT('Ctrl Pts',(-3.98453884368715,-39.6227206154891,6.10153844823139));
#535=CARTESIAN_POINT('Ctrl Pts',(-9.59191135509431,-43.8158795645232,6.10153844823152));
#536=CARTESIAN_POINT('Ctrl Pts',(-9.26213851505439,-43.4861067244833,5.94308567193752));
#537=CARTESIAN_POINT('Ctrl Pts',(-8.92136024177039,-43.1453284511999,5.80383324216371));
#538=CARTESIAN_POINT('Ctrl Pts',(-8.57992255464125,-42.8038907640708,5.69742536531602));
#539=CARTESIAN_POINT('Ctrl Pts',(-8.26684219171234,-42.4908104011419,5.59985495069049));
#540=CARTESIAN_POINT('Ctrl Pts',(-7.95103159296883,-42.1749998023977,5.52908580975887));
#541=CARTESIAN_POINT('Ctrl Pts',(-7.63063891766962,-41.8546071270985,5.49285676082072));
#542=CARTESIAN_POINT('Ctrl Pts',(-7.40507332613276,-41.6290415355616,5.46735047592541));
#543=CARTESIAN_POINT('Ctrl Pts',(-7.18069534897477,-41.4046635584036,5.45929704089676));
#544=CARTESIAN_POINT('Ctrl Pts',(-6.95447945305041,-41.1784476624793,5.46917812829801));
#545=CARTESIAN_POINT('Ctrl Pts',(-6.69657890911309,-40.9205471185419,5.48044319791243));
#546=CARTESIAN_POINT('Ctrl Pts',(-6.44175778126618,-40.665725990695,5.51480182171823));
#547=CARTESIAN_POINT('Ctrl Pts',(-6.18689904464467,-40.4108672540735,5.56966708543787));
#548=CARTESIAN_POINT('Ctrl Pts',(-5.67919831541622,-39.903166524845,5.67896345396354));
#549=CARTESIAN_POINT('Ctrl Pts',(-5.17189256426347,-39.3958607736923,5.8707842695556));
#550=CARTESIAN_POINT('Ctrl Pts',(-4.69164562487371,-38.9156138343025,6.10153844823139));
#551=CARTESIAN_POINT('Origin',(2.68700576850894,-32.9511760032932,55.8999999999999));
#552=CARTESIAN_POINT('',(2.68700576850894,-32.9511760032932,55.8999999999999));
#553=CARTESIAN_POINT('',(2.6870057685091,-32.951176003293,7.79999999999977));
#554=CARTESIAN_POINT('',(2.68700576850894,-32.9511760032932,55.8999999999999));
#555=CARTESIAN_POINT('',(1.97989898732255,-32.2440692221065,7.79999999999977));
#556=CARTESIAN_POINT('',(2.6870057685091,-32.951176003293,7.79999999999977));
#557=CARTESIAN_POINT('',(1.97989898732239,-32.2440692221066,55.8999999999999));
#558=CARTESIAN_POINT('',(1.97989898732239,-32.2440692221066,55.8999999999999));
#559=CARTESIAN_POINT('',(2.68700576850894,-32.9511760032932,55.8999999999999));
#560=CARTESIAN_POINT('Origin',(0.636396103068044,-35.0017856687341,55.8999999999999));
#561=CARTESIAN_POINT('',(0.636396103068027,-35.0017856687341,58.7999999999998));
#562=CARTESIAN_POINT('Origin',(0.636396103068044,-35.0017856687341,55.8999999999999));
#563=CARTESIAN_POINT('',(-0.0707106781185252,-34.2946788875476,58.7999999999998));
#564=CARTESIAN_POINT('Origin',(-0.0707106781185085,-34.2946788875476,55.8999999999999));
#565=CARTESIAN_POINT('',(0.636396103068027,-35.0017856687341,58.7999999999998));
#566=CARTESIAN_POINT('Origin',(-13.5057395206628,-49.1439212924652,58.7999999999997));
#567=CARTESIAN_POINT('',(-13.5057395206628,-49.1439212924652,58.7999999999997));
#568=CARTESIAN_POINT('',(-13.5057395206628,-49.1439212924652,58.7999999999997));
#569=CARTESIAN_POINT('',(-14.2128463018494,-48.4368145112787,58.7999999999997));
#570=CARTESIAN_POINT('',(-14.2128463018494,-48.4368145112787,58.7999999999997));
#571=CARTESIAN_POINT('',(-13.5057395206628,-49.1439212924652,58.7999999999997));
#572=CARTESIAN_POINT('Origin',(-13.5057395206628,-49.1439212924652,55.8999999999997));
#573=CARTESIAN_POINT('',(-15.5563491861037,-51.1945309579061,55.8999999999997));
#574=CARTESIAN_POINT('Origin',(-13.5057395206628,-49.1439212924652,55.8999999999997));
#575=CARTESIAN_POINT('',(-16.2634559672902,-50.4874241767195,55.8999999999997));
#576=CARTESIAN_POINT('Origin',(-14.2128463018494,-48.4368145112787,55.8999999999997));
#577=CARTESIAN_POINT('',(-15.5563491861037,-51.1945309579061,55.8999999999997));
#578=CARTESIAN_POINT('Origin',(-15.5563491861035,-51.1945309579059,7.7999999999996));
#579=CARTESIAN_POINT('',(-15.5563491861035,-51.1945309579059,7.7999999999996));
#580=CARTESIAN_POINT('',(-15.5563491861035,-51.1945309579059,7.7999999999996));
#581=CARTESIAN_POINT('',(-16.26345596729,-50.4874241767194,7.7999999999996));
#582=CARTESIAN_POINT('',(-16.26345596729,-50.4874241767194,7.7999999999996));
#583=CARTESIAN_POINT('',(-15.5563491861035,-51.1945309579059,7.7999999999996));
#584=CARTESIAN_POINT('Origin',(-12.4450793488828,-48.0832611206852,7.79999999999962));
#585=CARTESIAN_POINT('',(-12.4450793488828,-48.0832611206852,3.3999999999997));
#586=CARTESIAN_POINT('Origin',(-12.4450793488828,-48.0832611206852,7.79999999999962));
#587=CARTESIAN_POINT('',(-13.1521861300693,-47.3761543394986,3.3999999999997));
#588=CARTESIAN_POINT('Origin',(-13.1521861300694,-47.3761543394986,7.79999999999962));
#589=CARTESIAN_POINT('',(-12.4450793488828,-48.0832611206852,3.3999999999997));
#590=CARTESIAN_POINT('Origin',(-0.424264068711515,-36.0624458405137,3.39999999999981));
#591=CARTESIAN_POINT('',(-0.424264068711515,-36.0624458405137,3.39999999999998));
#592=CARTESIAN_POINT('',(-0.424264068711515,-36.0624458405137,3.39999999999981));
#593=CARTESIAN_POINT('',(-1.13137084989807,-35.3553390593271,3.39999999999998));
#594=CARTESIAN_POINT('',(-1.13137084989807,-35.3553390593271,3.39999999999981));
#595=CARTESIAN_POINT('',(-0.424264068711515,-36.0624458405137,3.39999999999998));
#596=CARTESIAN_POINT('Origin',(-0.424264068711531,-36.0624458405137,7.79999999999976));
#597=CARTESIAN_POINT('Origin',(-0.424264068711531,-36.0624458405137,7.79999999999976));
#598=CARTESIAN_POINT('Origin',(-1.13137084989808,-35.3553390593272,7.79999999999976));
#599=CARTESIAN_POINT('Origin',(-7.14177848998384,-41.365746699413,31.0999999999998));
#600=CARTESIAN_POINT('Origin',(-6.43467170879729,-42.0728534805995,31.0999999999998));
#601=UNCERTAINTY_MEASURE_WITH_UNIT(LENGTH_MEASURE(0.01),#605,
'DISTANCE_ACCURACY_VALUE',
'Maximum model space distance between geometric entities at asserted c
onnectivities');
#602=UNCERTAINTY_MEASURE_WITH_UNIT(LENGTH_MEASURE(0.01),#605,
'DISTANCE_ACCURACY_VALUE',
'Maximum model space distance between geometric entities at asserted c
onnectivities');
#603=(
GEOMETRIC_REPRESENTATION_CONTEXT(3)
GLOBAL_UNCERTAINTY_ASSIGNED_CONTEXT((#601))
GLOBAL_UNIT_ASSIGNED_CONTEXT((#605,#606,#607))
REPRESENTATION_CONTEXT('','3D')
);
#604=(
GEOMETRIC_REPRESENTATION_CONTEXT(3)
GLOBAL_UNCERTAINTY_ASSIGNED_CONTEXT((#602))
GLOBAL_UNIT_ASSIGNED_CONTEXT((#605,#606,#607))
REPRESENTATION_CONTEXT('','3D')
);
#605=(
LENGTH_UNIT()
NAMED_UNIT(*)
SI_UNIT(.MILLI.,.METRE.)
);
#606=(
NAMED_UNIT(*)
PLANE_ANGLE_UNIT()
SI_UNIT($,.RADIAN.)
);
#607=(
NAMED_UNIT(*)
SI_UNIT($,.STERADIAN.)
SOLID_ANGLE_UNIT()
);
#608=SHAPE_DEFINITION_REPRESENTATION(#609,#610);
#609=PRODUCT_DEFINITION_SHAPE('',$,#612);
#610=SHAPE_REPRESENTATION('',(#337),#603);
#611=PRODUCT_DEFINITION_CONTEXT('part definition',#616,'design');
#612=PRODUCT_DEFINITION('Enclosure Wallplate with SEN6X',
'Enclosure Wallplate with SEN6X v16',#613,#611);
#613=PRODUCT_DEFINITION_FORMATION('',$,#618);
#614=PRODUCT_RELATED_PRODUCT_CATEGORY(
'Enclosure Wallplate with SEN6X v16',
'Enclosure Wallplate with SEN6X v16',(#618));
#615=APPLICATION_PROTOCOL_DEFINITION('international standard',
'automotive_design',2009,#616);
#616=APPLICATION_CONTEXT(
'Core Data for Automotive Mechanical Design Process');
#617=PRODUCT_CONTEXT('part definition',#616,'mechanical');
#618=PRODUCT('Enclosure Wallplate with SEN6X',
'Enclosure Wallplate with SEN6X v16',$,(#617));
#619=PRESENTATION_STYLE_ASSIGNMENT((#621));
#620=PRESENTATION_STYLE_ASSIGNMENT((#622));
#621=SURFACE_STYLE_USAGE(.BOTH.,#623);
#622=SURFACE_STYLE_USAGE(.BOTH.,#624);
#623=SURFACE_SIDE_STYLE('',(#625));
#624=SURFACE_SIDE_STYLE('',(#626));
#625=SURFACE_STYLE_FILL_AREA(#627);
#626=SURFACE_STYLE_FILL_AREA(#628);
#627=FILL_AREA_STYLE('Steel - Satin',(#629));
#628=FILL_AREA_STYLE('Plastic - Matte (White)',(#630));
#629=FILL_AREA_STYLE_COLOUR('Steel - Satin',#631);
#630=FILL_AREA_STYLE_COLOUR('Plastic - Matte (White)',#632);
#631=COLOUR_RGB('Steel - Satin',0.627450980392157,0.627450980392157,0.627450980392157);
#632=COLOUR_RGB('Plastic - Matte (White)',0.964705882352941,0.964705882352941,
0.952941176470588);
ENDSEC;
END-ISO-10303-21;
