ISO-10303-21;
HEADER;
/* Generated by software containing ST-Developer
 * from STEP Tools, Inc. (www.steptools.com) 
 */

FILE_DESCRIPTION(
/* description */ (''),
/* implementation_level */ '2;1');

FILE_NAME(
/* name */ 'ESPHome-Indoor-Multi-Sensor-Wallplate-Cap-SEN66.step',
/* time_stamp */ '2025-09-30T05:23:13-05:00',
/* author */ (''),
/* organization */ (''),
/* preprocessor_version */ 'ST-DEVELOPER v20.1',
/* originating_system */ 'Autodesk Translation Framework v14.17.0.0',
/* authorisation */ '');

FILE_SCHEMA (('AUTOMOTIVE_DESIGN { 1 0 10303 214 3 1 1 }'));
ENDSEC;

DATA;
#10=MECHANICAL_DESIGN_GEOMETRIC_PRESENTATION_REPRESENTATION('',(#13),#1523);
#11=SHAPE_REPRESENTATION_RELATIONSHIP('SRR','None',#1529,#12);
#12=ADVANCED_BREP_SHAPE_REPRESENTATION('',(#14),#1522);
#13=STYLED_ITEM('',(#1538),#14);
#14=MANIFOLD_SOLID_BREP('SEN66 Cap',#867);
#15=FACE_BOUND('',#135,.T.);
#16=FACE_BOUND('',#136,.T.);
#17=FACE_BOUND('',#146,.T.);
#18=FACE_BOUND('',#154,.T.);
#19=TOROIDAL_SURFACE('',#907,2.5,0.5);
#20=TOROIDAL_SURFACE('',#913,2.5,0.5);
#21=TOROIDAL_SURFACE('',#919,2.50000000000001,0.5);
#22=TOROIDAL_SURFACE('',#925,2.5,0.5);
#23=ELLIPSE('',#904,0.707106781186554,0.5);
#24=ELLIPSE('',#930,0.707106781186545,0.5);
#25=ELLIPSE('',#944,7.09860474945768,3.00000000000001);
#26=ELLIPSE('',#945,3.31013375688747,3.00000000000001);
#27=ELLIPSE('',#949,10.6479071241865,4.50000000000002);
#28=ELLIPSE('',#950,4.96520063533121,4.50000000000002);
#29=(
BOUNDED_SURFACE()
B_SPLINE_SURFACE(2,2,((#1266,#1267,#1268),(#1269,#1270,#1271),(#1272,#1273,
#1274)),.UNSPECIFIED.,.F.,.F.,.F.)
B_SPLINE_SURFACE_WITH_KNOTS((3,3),(3,3),(-1.57079632679491,6.80011602582913E-15),
(-1.5707963267949,1.41065969706524E-15),.UNSPECIFIED.)
GEOMETRIC_REPRESENTATION_ITEM()
RATIONAL_B_SPLINE_SURFACE(((1.,0.707106781186547,1.),(0.707106781186558,
0.500000000000007,0.707106781186558),(1.,0.707106781186547,1.)))
REPRESENTATION_ITEM('')
SURFACE()
);
#30=(
BOUNDED_SURFACE()
B_SPLINE_SURFACE(2,2,((#1286,#1287,#1288),(#1289,#1290,#1291),(#1292,#1293,
#1294)),.UNSPECIFIED.,.F.,.F.,.F.)
B_SPLINE_SURFACE_WITH_KNOTS((3,3),(3,3),(-1.5707963267949,1.71966675750678E-15),
(-3.14159265358979,-1.57079632679488),.UNSPECIFIED.)
GEOMETRIC_REPRESENTATION_ITEM()
RATIONAL_B_SPLINE_SURFACE(((1.,0.70710678118654,1.),(0.707106781186535,
0.499999999999986,0.707106781186535),(1.,0.70710678118654,1.)))
REPRESENTATION_ITEM('')
SURFACE()
);
#31=(
BOUNDED_SURFACE()
B_SPLINE_SURFACE(2,2,((#1409,#1410,#1411),(#1412,#1413,#1414),(#1415,#1416,
#1417)),.UNSPECIFIED.,.F.,.F.,.F.)
B_SPLINE_SURFACE_WITH_KNOTS((3,3),(3,3),(-2.46984057561128E-15,1.5707963267949),
(-3.14159265358979,-1.57079632679489),.UNSPECIFIED.)
GEOMETRIC_REPRESENTATION_ITEM()
RATIONAL_B_SPLINE_SURFACE(((1.,0.707106781186544,1.),(0.707106781186547,
0.499999999999997,0.707106781186547),(1.,0.707106781186544,1.)))
REPRESENTATION_ITEM('')
SURFACE()
);
#32=(
BOUNDED_SURFACE()
B_SPLINE_SURFACE(2,2,((#1425,#1426,#1427),(#1428,#1429,#1430),(#1431,#1432,
#1433)),.UNSPECIFIED.,.F.,.F.,.F.)
B_SPLINE_SURFACE_WITH_KNOTS((3,3),(3,3),(-3.25452583771786E-15,1.5707963267949),
(-1.57079632679492,5.50610397037382E-15),.UNSPECIFIED.)
GEOMETRIC_REPRESENTATION_ITEM()
RATIONAL_B_SPLINE_SURFACE(((1.,0.707106781186539,1.),(0.707106781186544,
0.499999999999992,0.707106781186544),(1.,0.707106781186539,1.)))
REPRESENTATION_ITEM('')
SURFACE()
);
#33=PLANE('',#872);
#34=PLANE('',#888);
#35=PLANE('',#889);
#36=PLANE('',#892);
#37=PLANE('',#895);
#38=PLANE('',#940);
#39=PLANE('',#941);
#40=PLANE('',#942);
#41=PLANE('',#946);
#42=PLANE('',#947);
#43=PLANE('',#951);
#44=PLANE('',#952);
#45=PLANE('',#955);
#46=PLANE('',#956);
#47=PLANE('',#957);
#48=PLANE('',#960);
#49=PLANE('',#963);
#50=PLANE('',#964);
#51=PLANE('',#965);
#52=PLANE('',#966);
#53=FACE_OUTER_BOUND('',#103,.T.);
#54=FACE_OUTER_BOUND('',#104,.T.);
#55=FACE_OUTER_BOUND('',#105,.T.);
#56=FACE_OUTER_BOUND('',#106,.T.);
#57=FACE_OUTER_BOUND('',#107,.T.);
#58=FACE_OUTER_BOUND('',#108,.T.);
#59=FACE_OUTER_BOUND('',#109,.T.);
#60=FACE_OUTER_BOUND('',#110,.T.);
#61=FACE_OUTER_BOUND('',#111,.T.);
#62=FACE_OUTER_BOUND('',#112,.T.);
#63=FACE_OUTER_BOUND('',#113,.T.);
#64=FACE_OUTER_BOUND('',#114,.T.);
#65=FACE_OUTER_BOUND('',#115,.T.);
#66=FACE_OUTER_BOUND('',#116,.T.);
#67=FACE_OUTER_BOUND('',#117,.T.);
#68=FACE_OUTER_BOUND('',#118,.T.);
#69=FACE_OUTER_BOUND('',#119,.T.);
#70=FACE_OUTER_BOUND('',#120,.T.);
#71=FACE_OUTER_BOUND('',#121,.T.);
#72=FACE_OUTER_BOUND('',#122,.T.);
#73=FACE_OUTER_BOUND('',#123,.T.);
#74=FACE_OUTER_BOUND('',#124,.T.);
#75=FACE_OUTER_BOUND('',#125,.T.);
#76=FACE_OUTER_BOUND('',#126,.T.);
#77=FACE_OUTER_BOUND('',#127,.T.);
#78=FACE_OUTER_BOUND('',#128,.T.);
#79=FACE_OUTER_BOUND('',#129,.T.);
#80=FACE_OUTER_BOUND('',#130,.T.);
#81=FACE_OUTER_BOUND('',#131,.T.);
#82=FACE_OUTER_BOUND('',#132,.T.);
#83=FACE_OUTER_BOUND('',#133,.T.);
#84=FACE_OUTER_BOUND('',#134,.T.);
#85=FACE_OUTER_BOUND('',#137,.T.);
#86=FACE_OUTER_BOUND('',#138,.T.);
#87=FACE_OUTER_BOUND('',#139,.T.);
#88=FACE_OUTER_BOUND('',#140,.T.);
#89=FACE_OUTER_BOUND('',#141,.T.);
#90=FACE_OUTER_BOUND('',#142,.T.);
#91=FACE_OUTER_BOUND('',#143,.T.);
#92=FACE_OUTER_BOUND('',#144,.T.);
#93=FACE_OUTER_BOUND('',#145,.T.);
#94=FACE_OUTER_BOUND('',#147,.T.);
#95=FACE_OUTER_BOUND('',#148,.T.);
#96=FACE_OUTER_BOUND('',#149,.T.);
#97=FACE_OUTER_BOUND('',#150,.T.);
#98=FACE_OUTER_BOUND('',#151,.T.);
#99=FACE_OUTER_BOUND('',#152,.T.);
#100=FACE_OUTER_BOUND('',#153,.T.);
#101=FACE_OUTER_BOUND('',#155,.T.);
#102=FACE_OUTER_BOUND('',#156,.T.);
#103=EDGE_LOOP('',(#547,#548,#549,#550));
#104=EDGE_LOOP('',(#551,#552,#553,#554,#555,#556));
#105=EDGE_LOOP('',(#557,#558,#559,#560));
#106=EDGE_LOOP('',(#561,#562,#563,#564));
#107=EDGE_LOOP('',(#565,#566,#567,#568));
#108=EDGE_LOOP('',(#569,#570,#571,#572));
#109=EDGE_LOOP('',(#573,#574,#575,#576));
#110=EDGE_LOOP('',(#577,#578,#579,#580,#581));
#111=EDGE_LOOP('',(#582,#583,#584,#585,#586));
#112=EDGE_LOOP('',(#587,#588,#589,#590));
#113=EDGE_LOOP('',(#591,#592,#593,#594));
#114=EDGE_LOOP('',(#595,#596,#597,#598));
#115=EDGE_LOOP('',(#599,#600,#601,#602,#603));
#116=EDGE_LOOP('',(#604,#605,#606,#607));
#117=EDGE_LOOP('',(#608,#609,#610,#611));
#118=EDGE_LOOP('',(#612,#613,#614,#615));
#119=EDGE_LOOP('',(#616,#617,#618,#619));
#120=EDGE_LOOP('',(#620,#621,#622,#623));
#121=EDGE_LOOP('',(#624,#625,#626,#627));
#122=EDGE_LOOP('',(#628,#629,#630,#631));
#123=EDGE_LOOP('',(#632,#633,#634,#635));
#124=EDGE_LOOP('',(#636,#637,#638,#639));
#125=EDGE_LOOP('',(#640,#641,#642,#643));
#126=EDGE_LOOP('',(#644,#645,#646,#647));
#127=EDGE_LOOP('',(#648,#649,#650,#651));
#128=EDGE_LOOP('',(#652,#653,#654,#655));
#129=EDGE_LOOP('',(#656,#657,#658,#659));
#130=EDGE_LOOP('',(#660,#661,#662,#663));
#131=EDGE_LOOP('',(#664,#665,#666,#667));
#132=EDGE_LOOP('',(#668,#669,#670,#671));
#133=EDGE_LOOP('',(#672,#673,#674,#675));
#134=EDGE_LOOP('',(#676,#677,#678,#679,#680,#681,#682,#683,#684,#685,#686,
#687,#688,#689));
#135=EDGE_LOOP('',(#690));
#136=EDGE_LOOP('',(#691));
#137=EDGE_LOOP('',(#692,#693,#694,#695));
#138=EDGE_LOOP('',(#696,#697,#698,#699,#700));
#139=EDGE_LOOP('',(#701,#702,#703,#704));
#140=EDGE_LOOP('',(#705,#706,#707,#708));
#141=EDGE_LOOP('',(#709,#710,#711,#712,#713));
#142=EDGE_LOOP('',(#714,#715,#716,#717,#718,#719,#720,#721,#722,#723,#724,
#725));
#143=EDGE_LOOP('',(#726,#727,#728,#729));
#144=EDGE_LOOP('',(#730,#731,#732,#733));
#145=EDGE_LOOP('',(#734,#735,#736,#737,#738,#739,#740));
#146=EDGE_LOOP('',(#741));
#147=EDGE_LOOP('',(#742,#743,#744,#745));
#148=EDGE_LOOP('',(#746,#747,#748,#749,#750));
#149=EDGE_LOOP('',(#751,#752,#753,#754));
#150=EDGE_LOOP('',(#755,#756,#757,#758));
#151=EDGE_LOOP('',(#759,#760,#761,#762));
#152=EDGE_LOOP('',(#763,#764,#765,#766));
#153=EDGE_LOOP('',(#767,#768,#769,#770,#771,#772,#773));
#154=EDGE_LOOP('',(#774));
#155=EDGE_LOOP('',(#775,#776,#777,#778));
#156=EDGE_LOOP('',(#779,#780,#781,#782,#783,#784,#785,#786,#787,#788,#789,
#790,#791,#792,#793,#794));
#157=LINE('',#1243,#229);
#158=LINE('',#1246,#230);
#159=LINE('',#1249,#231);
#160=LINE('',#1253,#232);
#161=LINE('',#1256,#233);
#162=LINE('',#1262,#234);
#163=LINE('',#1265,#235);
#164=LINE('',#1284,#236);
#165=LINE('',#1285,#237);
#166=LINE('',#1304,#238);
#167=LINE('',#1305,#239);
#168=LINE('',#1308,#240);
#169=LINE('',#1310,#241);
#170=LINE('',#1312,#242);
#171=LINE('',#1313,#243);
#172=LINE('',#1316,#244);
#173=LINE('',#1318,#245);
#174=LINE('',#1319,#246);
#175=LINE('',#1322,#247);
#176=LINE('',#1326,#248);
#177=LINE('',#1327,#249);
#178=LINE('',#1330,#250);
#179=LINE('',#1334,#251);
#180=LINE('',#1336,#252);
#181=LINE('',#1337,#253);
#182=LINE('',#1342,#254);
#183=LINE('',#1348,#255);
#184=LINE('',#1354,#256);
#185=LINE('',#1358,#257);
#186=LINE('',#1361,#258);
#187=LINE('',#1372,#259);
#188=LINE('',#1373,#260);
#189=LINE('',#1384,#261);
#190=LINE('',#1385,#262);
#191=LINE('',#1396,#263);
#192=LINE('',#1397,#264);
#193=LINE('',#1405,#265);
#194=LINE('',#1407,#266);
#195=LINE('',#1424,#267);
#196=LINE('',#1438,#268);
#197=LINE('',#1441,#269);
#198=LINE('',#1444,#270);
#199=LINE('',#1446,#271);
#200=LINE('',#1450,#272);
#201=LINE('',#1451,#273);
#202=LINE('',#1456,#274);
#203=LINE('',#1460,#275);
#204=LINE('',#1461,#276);
#205=LINE('',#1464,#277);
#206=LINE('',#1465,#278);
#207=LINE('',#1472,#279);
#208=LINE('',#1474,#280);
#209=LINE('',#1476,#281);
#210=LINE('',#1477,#282);
#211=LINE('',#1479,#283);
#212=LINE('',#1481,#284);
#213=LINE('',#1483,#285);
#214=LINE('',#1484,#286);
#215=LINE('',#1487,#287);
#216=LINE('',#1488,#288);
#217=LINE('',#1493,#289);
#218=LINE('',#1494,#290);
#219=LINE('',#1497,#291);
#220=LINE('',#1498,#292);
#221=LINE('',#1500,#293);
#222=LINE('',#1503,#294);
#223=LINE('',#1506,#295);
#224=LINE('',#1508,#296);
#225=LINE('',#1512,#297);
#226=LINE('',#1514,#298);
#227=LINE('',#1516,#299);
#228=LINE('',#1518,#300);
#229=VECTOR('',#973,10.);
#230=VECTOR('',#976,10.);
#231=VECTOR('',#979,10.);
#232=VECTOR('',#982,10.);
#233=VECTOR('',#985,10.);
#234=VECTOR('',#990,10.);
#235=VECTOR('',#993,10.);
#236=VECTOR('',#1004,10.);
#237=VECTOR('',#1005,10.);
#238=VECTOR('',#1016,10.);
#239=VECTOR('',#1017,10.);
#240=VECTOR('',#1020,10.);
#241=VECTOR('',#1021,10.);
#242=VECTOR('',#1022,10.);
#243=VECTOR('',#1023,10.);
#244=VECTOR('',#1026,10.);
#245=VECTOR('',#1027,10.);
#246=VECTOR('',#1028,10.);
#247=VECTOR('',#1031,10.);
#248=VECTOR('',#1036,10.);
#249=VECTOR('',#1037,10.);
#250=VECTOR('',#1040,10.);
#251=VECTOR('',#1045,10.);
#252=VECTOR('',#1046,10.);
#253=VECTOR('',#1047,10.);
#254=VECTOR('',#1052,1.7);
#255=VECTOR('',#1059,1.7);
#256=VECTOR('',#1066,10.);
#257=VECTOR('',#1071,10.);
#258=VECTOR('',#1074,10.);
#259=VECTOR('',#1087,10.);
#260=VECTOR('',#1088,10.);
#261=VECTOR('',#1101,10.);
#262=VECTOR('',#1102,10.);
#263=VECTOR('',#1115,10.);
#264=VECTOR('',#1116,10.);
#265=VECTOR('',#1127,10.);
#266=VECTOR('',#1128,10.);
#267=VECTOR('',#1139,10.);
#268=VECTOR('',#1146,10.);
#269=VECTOR('',#1149,10.);
#270=VECTOR('',#1152,10.);
#271=VECTOR('',#1155,10.);
#272=VECTOR('',#1160,10.);
#273=VECTOR('',#1161,10.);
#274=VECTOR('',#1166,10.);
#275=VECTOR('',#1171,10.);
#276=VECTOR('',#1172,10.);
#277=VECTOR('',#1175,10.);
#278=VECTOR('',#1176,10.);
#279=VECTOR('',#1185,10.);
#280=VECTOR('',#1186,10.);
#281=VECTOR('',#1187,10.);
#282=VECTOR('',#1188,10.);
#283=VECTOR('',#1189,10.);
#284=VECTOR('',#1190,10.);
#285=VECTOR('',#1191,10.);
#286=VECTOR('',#1192,10.);
#287=VECTOR('',#1195,10.);
#288=VECTOR('',#1196,10.);
#289=VECTOR('',#1203,10.);
#290=VECTOR('',#1204,10.);
#291=VECTOR('',#1207,10.);
#292=VECTOR('',#1208,10.);
#293=VECTOR('',#1211,10.);
#294=VECTOR('',#1214,10.);
#295=VECTOR('',#1217,10.);
#296=VECTOR('',#1220,10.);
#297=VECTOR('',#1225,10.);
#298=VECTOR('',#1228,10.);
#299=VECTOR('',#1231,10.);
#300=VECTOR('',#1234,10.);
#301=CIRCLE('',#870,0.5);
#302=CIRCLE('',#871,0.5);
#303=CIRCLE('',#873,4.50000000000002);
#304=CIRCLE('',#874,3.00000000000001);
#305=CIRCLE('',#876,0.5);
#306=CIRCLE('',#877,0.499999999999989);
#307=CIRCLE('',#878,0.499999999999998);
#308=CIRCLE('',#879,0.49999999999999);
#309=CIRCLE('',#880,0.99999999999999);
#310=CIRCLE('',#882,0.500000000000006);
#311=CIRCLE('',#883,0.5);
#312=CIRCLE('',#884,0.499999999999999);
#313=CIRCLE('',#885,0.999999999999999);
#314=CIRCLE('',#887,0.5);
#315=CIRCLE('',#891,0.999999999999999);
#316=CIRCLE('',#894,0.99999999999999);
#317=CIRCLE('',#897,1.7);
#318=CIRCLE('',#898,1.7);
#319=CIRCLE('',#900,1.7);
#320=CIRCLE('',#901,1.7);
#321=CIRCLE('',#903,0.500000000000001);
#322=CIRCLE('',#906,0.5);
#323=CIRCLE('',#908,0.5);
#324=CIRCLE('',#909,3.);
#325=CIRCLE('',#910,2.5);
#326=CIRCLE('',#912,0.500000000000002);
#327=CIRCLE('',#914,0.500000000000002);
#328=CIRCLE('',#915,3.);
#329=CIRCLE('',#916,2.5);
#330=CIRCLE('',#918,0.500000000000002);
#331=CIRCLE('',#920,0.500000000000016);
#332=CIRCLE('',#921,3.00000000000001);
#333=CIRCLE('',#922,2.50000000000001);
#334=CIRCLE('',#924,0.5);
#335=CIRCLE('',#926,0.500000000000014);
#336=CIRCLE('',#927,3.);
#337=CIRCLE('',#928,2.5);
#338=CIRCLE('',#931,0.500000000000005);
#339=CIRCLE('',#932,0.499999999999999);
#340=CIRCLE('',#934,0.499999999999999);
#341=CIRCLE('',#935,0.499999999999989);
#342=CIRCLE('',#936,0.49999999999999);
#343=CIRCLE('',#939,3.);
#344=CIRCLE('',#954,3.00000000000001);
#345=CIRCLE('',#959,3.);
#346=CIRCLE('',#962,3.);
#347=VERTEX_POINT('',#1239);
#348=VERTEX_POINT('',#1240);
#349=VERTEX_POINT('',#1242);
#350=VERTEX_POINT('',#1244);
#351=VERTEX_POINT('',#1248);
#352=VERTEX_POINT('',#1250);
#353=VERTEX_POINT('',#1252);
#354=VERTEX_POINT('',#1254);
#355=VERTEX_POINT('',#1258);
#356=VERTEX_POINT('',#1259);
#357=VERTEX_POINT('',#1261);
#358=VERTEX_POINT('',#1263);
#359=VERTEX_POINT('',#1275);
#360=VERTEX_POINT('',#1276);
#361=VERTEX_POINT('',#1281);
#362=VERTEX_POINT('',#1282);
#363=VERTEX_POINT('',#1295);
#364=VERTEX_POINT('',#1296);
#365=VERTEX_POINT('',#1301);
#366=VERTEX_POINT('',#1302);
#367=VERTEX_POINT('',#1307);
#368=VERTEX_POINT('',#1309);
#369=VERTEX_POINT('',#1311);
#370=VERTEX_POINT('',#1315);
#371=VERTEX_POINT('',#1317);
#372=VERTEX_POINT('',#1321);
#373=VERTEX_POINT('',#1325);
#374=VERTEX_POINT('',#1329);
#375=VERTEX_POINT('',#1333);
#376=VERTEX_POINT('',#1335);
#377=VERTEX_POINT('',#1339);
#378=VERTEX_POINT('',#1341);
#379=VERTEX_POINT('',#1345);
#380=VERTEX_POINT('',#1347);
#381=VERTEX_POINT('',#1351);
#382=VERTEX_POINT('',#1353);
#383=VERTEX_POINT('',#1357);
#384=VERTEX_POINT('',#1359);
#385=VERTEX_POINT('',#1363);
#386=VERTEX_POINT('',#1364);
#387=VERTEX_POINT('',#1369);
#388=VERTEX_POINT('',#1370);
#389=VERTEX_POINT('',#1375);
#390=VERTEX_POINT('',#1376);
#391=VERTEX_POINT('',#1381);
#392=VERTEX_POINT('',#1382);
#393=VERTEX_POINT('',#1387);
#394=VERTEX_POINT('',#1388);
#395=VERTEX_POINT('',#1393);
#396=VERTEX_POINT('',#1394);
#397=VERTEX_POINT('',#1399);
#398=VERTEX_POINT('',#1400);
#399=VERTEX_POINT('',#1406);
#400=VERTEX_POINT('',#1418);
#401=VERTEX_POINT('',#1422);
#402=VERTEX_POINT('',#1434);
#403=VERTEX_POINT('',#1440);
#404=VERTEX_POINT('',#1442);
#405=VERTEX_POINT('',#1449);
#406=VERTEX_POINT('',#1453);
#407=VERTEX_POINT('',#1455);
#408=VERTEX_POINT('',#1459);
#409=VERTEX_POINT('',#1463);
#410=VERTEX_POINT('',#1467);
#411=VERTEX_POINT('',#1471);
#412=VERTEX_POINT('',#1473);
#413=VERTEX_POINT('',#1475);
#414=VERTEX_POINT('',#1478);
#415=VERTEX_POINT('',#1480);
#416=VERTEX_POINT('',#1482);
#417=VERTEX_POINT('',#1486);
#418=VERTEX_POINT('',#1492);
#419=VERTEX_POINT('',#1496);
#420=VERTEX_POINT('',#1502);
#421=VERTEX_POINT('',#1504);
#422=VERTEX_POINT('',#1510);
#423=EDGE_CURVE('',#347,#348,#301,.F.);
#424=EDGE_CURVE('',#348,#349,#157,.T.);
#425=EDGE_CURVE('',#349,#350,#302,.F.);
#426=EDGE_CURVE('',#350,#347,#158,.T.);
#427=EDGE_CURVE('',#351,#348,#159,.T.);
#428=EDGE_CURVE('',#352,#351,#303,.T.);
#429=EDGE_CURVE('',#353,#352,#160,.T.);
#430=EDGE_CURVE('',#354,#353,#304,.T.);
#431=EDGE_CURVE('',#349,#354,#161,.T.);
#432=EDGE_CURVE('',#355,#356,#305,.T.);
#433=EDGE_CURVE('',#356,#357,#162,.T.);
#434=EDGE_CURVE('',#357,#358,#306,.T.);
#435=EDGE_CURVE('',#358,#355,#163,.T.);
#436=EDGE_CURVE('',#359,#360,#307,.T.);
#437=EDGE_CURVE('',#360,#358,#308,.T.);
#438=EDGE_CURVE('',#357,#359,#309,.T.);
#439=EDGE_CURVE('',#361,#362,#310,.T.);
#440=EDGE_CURVE('',#362,#360,#164,.T.);
#441=EDGE_CURVE('',#359,#361,#165,.T.);
#442=EDGE_CURVE('',#363,#364,#311,.T.);
#443=EDGE_CURVE('',#364,#362,#312,.T.);
#444=EDGE_CURVE('',#361,#363,#313,.T.);
#445=EDGE_CURVE('',#365,#366,#314,.T.);
#446=EDGE_CURVE('',#366,#364,#166,.T.);
#447=EDGE_CURVE('',#363,#365,#167,.T.);
#448=EDGE_CURVE('',#365,#367,#168,.T.);
#449=EDGE_CURVE('',#367,#368,#169,.T.);
#450=EDGE_CURVE('',#369,#368,#170,.T.);
#451=EDGE_CURVE('',#369,#366,#171,.T.);
#452=EDGE_CURVE('',#363,#370,#172,.T.);
#453=EDGE_CURVE('',#371,#370,#173,.T.);
#454=EDGE_CURVE('',#367,#371,#174,.T.);
#455=EDGE_CURVE('',#361,#372,#175,.T.);
#456=EDGE_CURVE('',#370,#372,#315,.T.);
#457=EDGE_CURVE('',#359,#373,#176,.T.);
#458=EDGE_CURVE('',#372,#373,#177,.T.);
#459=EDGE_CURVE('',#357,#374,#178,.T.);
#460=EDGE_CURVE('',#373,#374,#316,.T.);
#461=EDGE_CURVE('',#356,#375,#179,.T.);
#462=EDGE_CURVE('',#375,#376,#180,.T.);
#463=EDGE_CURVE('',#374,#376,#181,.T.);
#464=EDGE_CURVE('',#377,#377,#317,.T.);
#465=EDGE_CURVE('',#377,#378,#182,.T.);
#466=EDGE_CURVE('',#378,#378,#318,.T.);
#467=EDGE_CURVE('',#379,#379,#319,.T.);
#468=EDGE_CURVE('',#379,#380,#183,.T.);
#469=EDGE_CURVE('',#380,#380,#320,.T.);
#470=EDGE_CURVE('',#370,#381,#321,.T.);
#471=EDGE_CURVE('',#381,#382,#184,.T.);
#472=EDGE_CURVE('',#382,#371,#23,.T.);
#473=EDGE_CURVE('',#382,#383,#185,.T.);
#474=EDGE_CURVE('',#383,#384,#322,.T.);
#475=EDGE_CURVE('',#384,#371,#186,.T.);
#476=EDGE_CURVE('',#385,#386,#323,.T.);
#477=EDGE_CURVE('',#386,#384,#324,.T.);
#478=EDGE_CURVE('',#383,#385,#325,.T.);
#479=EDGE_CURVE('',#387,#388,#326,.T.);
#480=EDGE_CURVE('',#388,#386,#187,.T.);
#481=EDGE_CURVE('',#385,#387,#188,.T.);
#482=EDGE_CURVE('',#389,#390,#327,.T.);
#483=EDGE_CURVE('',#390,#388,#328,.T.);
#484=EDGE_CURVE('',#387,#389,#329,.T.);
#485=EDGE_CURVE('',#391,#392,#330,.T.);
#486=EDGE_CURVE('',#392,#390,#189,.T.);
#487=EDGE_CURVE('',#389,#391,#190,.T.);
#488=EDGE_CURVE('',#393,#394,#331,.T.);
#489=EDGE_CURVE('',#394,#392,#332,.T.);
#490=EDGE_CURVE('',#391,#393,#333,.T.);
#491=EDGE_CURVE('',#395,#396,#334,.T.);
#492=EDGE_CURVE('',#396,#394,#191,.T.);
#493=EDGE_CURVE('',#393,#395,#192,.T.);
#494=EDGE_CURVE('',#397,#398,#335,.T.);
#495=EDGE_CURVE('',#398,#396,#336,.T.);
#496=EDGE_CURVE('',#395,#397,#337,.T.);
#497=EDGE_CURVE('',#376,#398,#193,.T.);
#498=EDGE_CURVE('',#397,#399,#194,.T.);
#499=EDGE_CURVE('',#399,#376,#24,.T.);
#500=EDGE_CURVE('',#372,#400,#338,.T.);
#501=EDGE_CURVE('',#400,#381,#339,.T.);
#502=EDGE_CURVE('',#373,#401,#340,.T.);
#503=EDGE_CURVE('',#401,#400,#195,.T.);
#504=EDGE_CURVE('',#374,#402,#341,.T.);
#505=EDGE_CURVE('',#402,#401,#342,.T.);
#506=EDGE_CURVE('',#399,#402,#196,.T.);
#507=EDGE_CURVE('',#398,#403,#197,.T.);
#508=EDGE_CURVE('',#404,#403,#343,.T.);
#509=EDGE_CURVE('',#396,#404,#198,.T.);
#510=EDGE_CURVE('',#403,#375,#199,.T.);
#511=EDGE_CURVE('',#350,#405,#200,.T.);
#512=EDGE_CURVE('',#405,#354,#201,.T.);
#513=EDGE_CURVE('',#405,#406,#25,.T.);
#514=EDGE_CURVE('',#407,#353,#202,.T.);
#515=EDGE_CURVE('',#406,#407,#26,.T.);
#516=EDGE_CURVE('',#407,#408,#203,.T.);
#517=EDGE_CURVE('',#408,#352,#204,.T.);
#518=EDGE_CURVE('',#409,#347,#205,.T.);
#519=EDGE_CURVE('',#409,#351,#206,.T.);
#520=EDGE_CURVE('',#410,#409,#27,.T.);
#521=EDGE_CURVE('',#408,#410,#28,.T.);
#522=EDGE_CURVE('',#392,#411,#207,.T.);
#523=EDGE_CURVE('',#412,#411,#208,.T.);
#524=EDGE_CURVE('',#413,#412,#209,.T.);
#525=EDGE_CURVE('',#406,#413,#210,.T.);
#526=EDGE_CURVE('',#414,#410,#211,.T.);
#527=EDGE_CURVE('',#414,#415,#212,.T.);
#528=EDGE_CURVE('',#416,#415,#213,.T.);
#529=EDGE_CURVE('',#390,#416,#214,.T.);
#530=EDGE_CURVE('',#417,#404,#215,.T.);
#531=EDGE_CURVE('',#394,#417,#216,.T.);
#532=EDGE_CURVE('',#411,#417,#344,.T.);
#533=EDGE_CURVE('',#418,#375,#217,.T.);
#534=EDGE_CURVE('',#412,#418,#218,.T.);
#535=EDGE_CURVE('',#419,#418,#219,.T.);
#536=EDGE_CURVE('',#419,#413,#220,.T.);
#537=EDGE_CURVE('',#355,#419,#221,.T.);
#538=EDGE_CURVE('',#386,#420,#222,.T.);
#539=EDGE_CURVE('',#421,#420,#345,.T.);
#540=EDGE_CURVE('',#384,#421,#223,.T.);
#541=EDGE_CURVE('',#367,#421,#224,.T.);
#542=EDGE_CURVE('',#422,#416,#346,.T.);
#543=EDGE_CURVE('',#388,#422,#225,.T.);
#544=EDGE_CURVE('',#420,#422,#226,.T.);
#545=EDGE_CURVE('',#368,#415,#227,.T.);
#546=EDGE_CURVE('',#369,#414,#228,.T.);
#547=ORIENTED_EDGE('',*,*,#423,.T.);
#548=ORIENTED_EDGE('',*,*,#424,.T.);
#549=ORIENTED_EDGE('',*,*,#425,.T.);
#550=ORIENTED_EDGE('',*,*,#426,.T.);
#551=ORIENTED_EDGE('',*,*,#424,.F.);
#552=ORIENTED_EDGE('',*,*,#427,.F.);
#553=ORIENTED_EDGE('',*,*,#428,.F.);
#554=ORIENTED_EDGE('',*,*,#429,.F.);
#555=ORIENTED_EDGE('',*,*,#430,.F.);
#556=ORIENTED_EDGE('',*,*,#431,.F.);
#557=ORIENTED_EDGE('',*,*,#432,.T.);
#558=ORIENTED_EDGE('',*,*,#433,.T.);
#559=ORIENTED_EDGE('',*,*,#434,.T.);
#560=ORIENTED_EDGE('',*,*,#435,.T.);
#561=ORIENTED_EDGE('',*,*,#436,.T.);
#562=ORIENTED_EDGE('',*,*,#437,.T.);
#563=ORIENTED_EDGE('',*,*,#434,.F.);
#564=ORIENTED_EDGE('',*,*,#438,.T.);
#565=ORIENTED_EDGE('',*,*,#439,.T.);
#566=ORIENTED_EDGE('',*,*,#440,.T.);
#567=ORIENTED_EDGE('',*,*,#436,.F.);
#568=ORIENTED_EDGE('',*,*,#441,.T.);
#569=ORIENTED_EDGE('',*,*,#442,.T.);
#570=ORIENTED_EDGE('',*,*,#443,.T.);
#571=ORIENTED_EDGE('',*,*,#439,.F.);
#572=ORIENTED_EDGE('',*,*,#444,.T.);
#573=ORIENTED_EDGE('',*,*,#445,.T.);
#574=ORIENTED_EDGE('',*,*,#446,.T.);
#575=ORIENTED_EDGE('',*,*,#442,.F.);
#576=ORIENTED_EDGE('',*,*,#447,.T.);
#577=ORIENTED_EDGE('',*,*,#445,.F.);
#578=ORIENTED_EDGE('',*,*,#448,.T.);
#579=ORIENTED_EDGE('',*,*,#449,.T.);
#580=ORIENTED_EDGE('',*,*,#450,.F.);
#581=ORIENTED_EDGE('',*,*,#451,.T.);
#582=ORIENTED_EDGE('',*,*,#447,.F.);
#583=ORIENTED_EDGE('',*,*,#452,.T.);
#584=ORIENTED_EDGE('',*,*,#453,.F.);
#585=ORIENTED_EDGE('',*,*,#454,.F.);
#586=ORIENTED_EDGE('',*,*,#448,.F.);
#587=ORIENTED_EDGE('',*,*,#444,.F.);
#588=ORIENTED_EDGE('',*,*,#455,.T.);
#589=ORIENTED_EDGE('',*,*,#456,.F.);
#590=ORIENTED_EDGE('',*,*,#452,.F.);
#591=ORIENTED_EDGE('',*,*,#441,.F.);
#592=ORIENTED_EDGE('',*,*,#457,.T.);
#593=ORIENTED_EDGE('',*,*,#458,.F.);
#594=ORIENTED_EDGE('',*,*,#455,.F.);
#595=ORIENTED_EDGE('',*,*,#438,.F.);
#596=ORIENTED_EDGE('',*,*,#459,.T.);
#597=ORIENTED_EDGE('',*,*,#460,.F.);
#598=ORIENTED_EDGE('',*,*,#457,.F.);
#599=ORIENTED_EDGE('',*,*,#433,.F.);
#600=ORIENTED_EDGE('',*,*,#461,.T.);
#601=ORIENTED_EDGE('',*,*,#462,.T.);
#602=ORIENTED_EDGE('',*,*,#463,.F.);
#603=ORIENTED_EDGE('',*,*,#459,.F.);
#604=ORIENTED_EDGE('',*,*,#464,.F.);
#605=ORIENTED_EDGE('',*,*,#465,.T.);
#606=ORIENTED_EDGE('',*,*,#466,.F.);
#607=ORIENTED_EDGE('',*,*,#465,.F.);
#608=ORIENTED_EDGE('',*,*,#467,.F.);
#609=ORIENTED_EDGE('',*,*,#468,.T.);
#610=ORIENTED_EDGE('',*,*,#469,.F.);
#611=ORIENTED_EDGE('',*,*,#468,.F.);
#612=ORIENTED_EDGE('',*,*,#453,.T.);
#613=ORIENTED_EDGE('',*,*,#470,.T.);
#614=ORIENTED_EDGE('',*,*,#471,.T.);
#615=ORIENTED_EDGE('',*,*,#472,.T.);
#616=ORIENTED_EDGE('',*,*,#473,.T.);
#617=ORIENTED_EDGE('',*,*,#474,.T.);
#618=ORIENTED_EDGE('',*,*,#475,.T.);
#619=ORIENTED_EDGE('',*,*,#472,.F.);
#620=ORIENTED_EDGE('',*,*,#476,.T.);
#621=ORIENTED_EDGE('',*,*,#477,.T.);
#622=ORIENTED_EDGE('',*,*,#474,.F.);
#623=ORIENTED_EDGE('',*,*,#478,.T.);
#624=ORIENTED_EDGE('',*,*,#479,.T.);
#625=ORIENTED_EDGE('',*,*,#480,.T.);
#626=ORIENTED_EDGE('',*,*,#476,.F.);
#627=ORIENTED_EDGE('',*,*,#481,.T.);
#628=ORIENTED_EDGE('',*,*,#482,.T.);
#629=ORIENTED_EDGE('',*,*,#483,.T.);
#630=ORIENTED_EDGE('',*,*,#479,.F.);
#631=ORIENTED_EDGE('',*,*,#484,.T.);
#632=ORIENTED_EDGE('',*,*,#485,.T.);
#633=ORIENTED_EDGE('',*,*,#486,.T.);
#634=ORIENTED_EDGE('',*,*,#482,.F.);
#635=ORIENTED_EDGE('',*,*,#487,.T.);
#636=ORIENTED_EDGE('',*,*,#488,.T.);
#637=ORIENTED_EDGE('',*,*,#489,.T.);
#638=ORIENTED_EDGE('',*,*,#485,.F.);
#639=ORIENTED_EDGE('',*,*,#490,.T.);
#640=ORIENTED_EDGE('',*,*,#491,.T.);
#641=ORIENTED_EDGE('',*,*,#492,.T.);
#642=ORIENTED_EDGE('',*,*,#488,.F.);
#643=ORIENTED_EDGE('',*,*,#493,.T.);
#644=ORIENTED_EDGE('',*,*,#494,.T.);
#645=ORIENTED_EDGE('',*,*,#495,.T.);
#646=ORIENTED_EDGE('',*,*,#491,.F.);
#647=ORIENTED_EDGE('',*,*,#496,.T.);
#648=ORIENTED_EDGE('',*,*,#497,.T.);
#649=ORIENTED_EDGE('',*,*,#494,.F.);
#650=ORIENTED_EDGE('',*,*,#498,.T.);
#651=ORIENTED_EDGE('',*,*,#499,.T.);
#652=ORIENTED_EDGE('',*,*,#500,.T.);
#653=ORIENTED_EDGE('',*,*,#501,.T.);
#654=ORIENTED_EDGE('',*,*,#470,.F.);
#655=ORIENTED_EDGE('',*,*,#456,.T.);
#656=ORIENTED_EDGE('',*,*,#502,.T.);
#657=ORIENTED_EDGE('',*,*,#503,.T.);
#658=ORIENTED_EDGE('',*,*,#500,.F.);
#659=ORIENTED_EDGE('',*,*,#458,.T.);
#660=ORIENTED_EDGE('',*,*,#504,.T.);
#661=ORIENTED_EDGE('',*,*,#505,.T.);
#662=ORIENTED_EDGE('',*,*,#502,.F.);
#663=ORIENTED_EDGE('',*,*,#460,.T.);
#664=ORIENTED_EDGE('',*,*,#506,.T.);
#665=ORIENTED_EDGE('',*,*,#504,.F.);
#666=ORIENTED_EDGE('',*,*,#463,.T.);
#667=ORIENTED_EDGE('',*,*,#499,.F.);
#668=ORIENTED_EDGE('',*,*,#495,.F.);
#669=ORIENTED_EDGE('',*,*,#507,.T.);
#670=ORIENTED_EDGE('',*,*,#508,.F.);
#671=ORIENTED_EDGE('',*,*,#509,.F.);
#672=ORIENTED_EDGE('',*,*,#497,.F.);
#673=ORIENTED_EDGE('',*,*,#462,.F.);
#674=ORIENTED_EDGE('',*,*,#510,.F.);
#675=ORIENTED_EDGE('',*,*,#507,.F.);
#676=ORIENTED_EDGE('',*,*,#471,.F.);
#677=ORIENTED_EDGE('',*,*,#501,.F.);
#678=ORIENTED_EDGE('',*,*,#503,.F.);
#679=ORIENTED_EDGE('',*,*,#505,.F.);
#680=ORIENTED_EDGE('',*,*,#506,.F.);
#681=ORIENTED_EDGE('',*,*,#498,.F.);
#682=ORIENTED_EDGE('',*,*,#496,.F.);
#683=ORIENTED_EDGE('',*,*,#493,.F.);
#684=ORIENTED_EDGE('',*,*,#490,.F.);
#685=ORIENTED_EDGE('',*,*,#487,.F.);
#686=ORIENTED_EDGE('',*,*,#484,.F.);
#687=ORIENTED_EDGE('',*,*,#481,.F.);
#688=ORIENTED_EDGE('',*,*,#478,.F.);
#689=ORIENTED_EDGE('',*,*,#473,.F.);
#690=ORIENTED_EDGE('',*,*,#464,.T.);
#691=ORIENTED_EDGE('',*,*,#467,.T.);
#692=ORIENTED_EDGE('',*,*,#511,.F.);
#693=ORIENTED_EDGE('',*,*,#425,.F.);
#694=ORIENTED_EDGE('',*,*,#431,.T.);
#695=ORIENTED_EDGE('',*,*,#512,.F.);
#696=ORIENTED_EDGE('',*,*,#513,.F.);
#697=ORIENTED_EDGE('',*,*,#512,.T.);
#698=ORIENTED_EDGE('',*,*,#430,.T.);
#699=ORIENTED_EDGE('',*,*,#514,.F.);
#700=ORIENTED_EDGE('',*,*,#515,.F.);
#701=ORIENTED_EDGE('',*,*,#516,.F.);
#702=ORIENTED_EDGE('',*,*,#514,.T.);
#703=ORIENTED_EDGE('',*,*,#429,.T.);
#704=ORIENTED_EDGE('',*,*,#517,.F.);
#705=ORIENTED_EDGE('',*,*,#518,.F.);
#706=ORIENTED_EDGE('',*,*,#519,.T.);
#707=ORIENTED_EDGE('',*,*,#427,.T.);
#708=ORIENTED_EDGE('',*,*,#423,.F.);
#709=ORIENTED_EDGE('',*,*,#520,.F.);
#710=ORIENTED_EDGE('',*,*,#521,.F.);
#711=ORIENTED_EDGE('',*,*,#517,.T.);
#712=ORIENTED_EDGE('',*,*,#428,.T.);
#713=ORIENTED_EDGE('',*,*,#519,.F.);
#714=ORIENTED_EDGE('',*,*,#486,.F.);
#715=ORIENTED_EDGE('',*,*,#522,.T.);
#716=ORIENTED_EDGE('',*,*,#523,.F.);
#717=ORIENTED_EDGE('',*,*,#524,.F.);
#718=ORIENTED_EDGE('',*,*,#525,.F.);
#719=ORIENTED_EDGE('',*,*,#515,.T.);
#720=ORIENTED_EDGE('',*,*,#516,.T.);
#721=ORIENTED_EDGE('',*,*,#521,.T.);
#722=ORIENTED_EDGE('',*,*,#526,.F.);
#723=ORIENTED_EDGE('',*,*,#527,.T.);
#724=ORIENTED_EDGE('',*,*,#528,.F.);
#725=ORIENTED_EDGE('',*,*,#529,.F.);
#726=ORIENTED_EDGE('',*,*,#492,.F.);
#727=ORIENTED_EDGE('',*,*,#509,.T.);
#728=ORIENTED_EDGE('',*,*,#530,.F.);
#729=ORIENTED_EDGE('',*,*,#531,.F.);
#730=ORIENTED_EDGE('',*,*,#489,.F.);
#731=ORIENTED_EDGE('',*,*,#531,.T.);
#732=ORIENTED_EDGE('',*,*,#532,.F.);
#733=ORIENTED_EDGE('',*,*,#522,.F.);
#734=ORIENTED_EDGE('',*,*,#510,.T.);
#735=ORIENTED_EDGE('',*,*,#533,.F.);
#736=ORIENTED_EDGE('',*,*,#534,.F.);
#737=ORIENTED_EDGE('',*,*,#523,.T.);
#738=ORIENTED_EDGE('',*,*,#532,.T.);
#739=ORIENTED_EDGE('',*,*,#530,.T.);
#740=ORIENTED_EDGE('',*,*,#508,.T.);
#741=ORIENTED_EDGE('',*,*,#469,.T.);
#742=ORIENTED_EDGE('',*,*,#534,.T.);
#743=ORIENTED_EDGE('',*,*,#535,.F.);
#744=ORIENTED_EDGE('',*,*,#536,.T.);
#745=ORIENTED_EDGE('',*,*,#524,.T.);
#746=ORIENTED_EDGE('',*,*,#432,.F.);
#747=ORIENTED_EDGE('',*,*,#537,.T.);
#748=ORIENTED_EDGE('',*,*,#535,.T.);
#749=ORIENTED_EDGE('',*,*,#533,.T.);
#750=ORIENTED_EDGE('',*,*,#461,.F.);
#751=ORIENTED_EDGE('',*,*,#477,.F.);
#752=ORIENTED_EDGE('',*,*,#538,.T.);
#753=ORIENTED_EDGE('',*,*,#539,.F.);
#754=ORIENTED_EDGE('',*,*,#540,.F.);
#755=ORIENTED_EDGE('',*,*,#475,.F.);
#756=ORIENTED_EDGE('',*,*,#540,.T.);
#757=ORIENTED_EDGE('',*,*,#541,.F.);
#758=ORIENTED_EDGE('',*,*,#454,.T.);
#759=ORIENTED_EDGE('',*,*,#483,.F.);
#760=ORIENTED_EDGE('',*,*,#529,.T.);
#761=ORIENTED_EDGE('',*,*,#542,.F.);
#762=ORIENTED_EDGE('',*,*,#543,.F.);
#763=ORIENTED_EDGE('',*,*,#480,.F.);
#764=ORIENTED_EDGE('',*,*,#543,.T.);
#765=ORIENTED_EDGE('',*,*,#544,.F.);
#766=ORIENTED_EDGE('',*,*,#538,.F.);
#767=ORIENTED_EDGE('',*,*,#545,.F.);
#768=ORIENTED_EDGE('',*,*,#449,.F.);
#769=ORIENTED_EDGE('',*,*,#541,.T.);
#770=ORIENTED_EDGE('',*,*,#539,.T.);
#771=ORIENTED_EDGE('',*,*,#544,.T.);
#772=ORIENTED_EDGE('',*,*,#542,.T.);
#773=ORIENTED_EDGE('',*,*,#528,.T.);
#774=ORIENTED_EDGE('',*,*,#466,.T.);
#775=ORIENTED_EDGE('',*,*,#545,.T.);
#776=ORIENTED_EDGE('',*,*,#527,.F.);
#777=ORIENTED_EDGE('',*,*,#546,.F.);
#778=ORIENTED_EDGE('',*,*,#450,.T.);
#779=ORIENTED_EDGE('',*,*,#511,.T.);
#780=ORIENTED_EDGE('',*,*,#513,.T.);
#781=ORIENTED_EDGE('',*,*,#525,.T.);
#782=ORIENTED_EDGE('',*,*,#536,.F.);
#783=ORIENTED_EDGE('',*,*,#537,.F.);
#784=ORIENTED_EDGE('',*,*,#435,.F.);
#785=ORIENTED_EDGE('',*,*,#437,.F.);
#786=ORIENTED_EDGE('',*,*,#440,.F.);
#787=ORIENTED_EDGE('',*,*,#443,.F.);
#788=ORIENTED_EDGE('',*,*,#446,.F.);
#789=ORIENTED_EDGE('',*,*,#451,.F.);
#790=ORIENTED_EDGE('',*,*,#546,.T.);
#791=ORIENTED_EDGE('',*,*,#526,.T.);
#792=ORIENTED_EDGE('',*,*,#520,.T.);
#793=ORIENTED_EDGE('',*,*,#518,.T.);
#794=ORIENTED_EDGE('',*,*,#426,.F.);
#795=CYLINDRICAL_SURFACE('',#869,0.5);
#796=CYLINDRICAL_SURFACE('',#875,0.5);
#797=CYLINDRICAL_SURFACE('',#881,0.5);
#798=CYLINDRICAL_SURFACE('',#886,0.5);
#799=CYLINDRICAL_SURFACE('',#890,0.999999999999999);
#800=CYLINDRICAL_SURFACE('',#893,0.99999999999999);
#801=CYLINDRICAL_SURFACE('',#896,1.7);
#802=CYLINDRICAL_SURFACE('',#899,1.7);
#803=CYLINDRICAL_SURFACE('',#902,0.5);
#804=CYLINDRICAL_SURFACE('',#905,0.5);
#805=CYLINDRICAL_SURFACE('',#911,0.5);
#806=CYLINDRICAL_SURFACE('',#917,0.5);
#807=CYLINDRICAL_SURFACE('',#923,0.5);
#808=CYLINDRICAL_SURFACE('',#929,0.5);
#809=CYLINDRICAL_SURFACE('',#933,0.5);
#810=CYLINDRICAL_SURFACE('',#937,0.5);
#811=CYLINDRICAL_SURFACE('',#938,3.);
#812=CYLINDRICAL_SURFACE('',#943,3.00000000000001);
#813=CYLINDRICAL_SURFACE('',#948,4.50000000000002);
#814=CYLINDRICAL_SURFACE('',#953,3.00000000000001);
#815=CYLINDRICAL_SURFACE('',#958,3.);
#816=CYLINDRICAL_SURFACE('',#961,3.);
#817=ADVANCED_FACE('',(#53),#795,.T.);
#818=ADVANCED_FACE('',(#54),#33,.T.);
#819=ADVANCED_FACE('',(#55),#796,.T.);
#820=ADVANCED_FACE('',(#56),#29,.F.);
#821=ADVANCED_FACE('',(#57),#797,.T.);
#822=ADVANCED_FACE('',(#58),#30,.F.);
#823=ADVANCED_FACE('',(#59),#798,.T.);
#824=ADVANCED_FACE('',(#60),#34,.T.);
#825=ADVANCED_FACE('',(#61),#35,.T.);
#826=ADVANCED_FACE('',(#62),#799,.T.);
#827=ADVANCED_FACE('',(#63),#36,.T.);
#828=ADVANCED_FACE('',(#64),#800,.T.);
#829=ADVANCED_FACE('',(#65),#37,.T.);
#830=ADVANCED_FACE('',(#66),#801,.F.);
#831=ADVANCED_FACE('',(#67),#802,.F.);
#832=ADVANCED_FACE('',(#68),#803,.T.);
#833=ADVANCED_FACE('',(#69),#804,.T.);
#834=ADVANCED_FACE('',(#70),#19,.T.);
#835=ADVANCED_FACE('',(#71),#805,.T.);
#836=ADVANCED_FACE('',(#72),#20,.T.);
#837=ADVANCED_FACE('',(#73),#806,.T.);
#838=ADVANCED_FACE('',(#74),#21,.T.);
#839=ADVANCED_FACE('',(#75),#807,.T.);
#840=ADVANCED_FACE('',(#76),#22,.T.);
#841=ADVANCED_FACE('',(#77),#808,.T.);
#842=ADVANCED_FACE('',(#78),#31,.F.);
#843=ADVANCED_FACE('',(#79),#809,.T.);
#844=ADVANCED_FACE('',(#80),#32,.F.);
#845=ADVANCED_FACE('',(#81),#810,.T.);
#846=ADVANCED_FACE('',(#82),#811,.T.);
#847=ADVANCED_FACE('',(#83),#38,.T.);
#848=ADVANCED_FACE('',(#84,#15,#16),#39,.T.);
#849=ADVANCED_FACE('',(#85),#40,.F.);
#850=ADVANCED_FACE('',(#86),#812,.F.);
#851=ADVANCED_FACE('',(#87),#41,.F.);
#852=ADVANCED_FACE('',(#88),#42,.F.);
#853=ADVANCED_FACE('',(#89),#813,.F.);
#854=ADVANCED_FACE('',(#90),#43,.T.);
#855=ADVANCED_FACE('',(#91),#44,.T.);
#856=ADVANCED_FACE('',(#92),#814,.T.);
#857=ADVANCED_FACE('',(#93,#17),#45,.F.);
#858=ADVANCED_FACE('',(#94),#46,.T.);
#859=ADVANCED_FACE('',(#95),#47,.T.);
#860=ADVANCED_FACE('',(#96),#815,.T.);
#861=ADVANCED_FACE('',(#97),#48,.T.);
#862=ADVANCED_FACE('',(#98),#816,.T.);
#863=ADVANCED_FACE('',(#99),#49,.T.);
#864=ADVANCED_FACE('',(#100,#18),#50,.F.);
#865=ADVANCED_FACE('',(#101),#51,.T.);
#866=ADVANCED_FACE('',(#102),#52,.F.);
#867=CLOSED_SHELL('',(#817,#818,#819,#820,#821,#822,#823,#824,#825,#826,
#827,#828,#829,#830,#831,#832,#833,#834,#835,#836,#837,#838,#839,#840,#841,
#842,#843,#844,#845,#846,#847,#848,#849,#850,#851,#852,#853,#854,#855,#856,
#857,#858,#859,#860,#861,#862,#863,#864,#865,#866));
#868=AXIS2_PLACEMENT_3D('',#1237,#967,#968);
#869=AXIS2_PLACEMENT_3D('',#1238,#969,#970);
#870=AXIS2_PLACEMENT_3D('',#1241,#971,#972);
#871=AXIS2_PLACEMENT_3D('',#1245,#974,#975);
#872=AXIS2_PLACEMENT_3D('',#1247,#977,#978);
#873=AXIS2_PLACEMENT_3D('',#1251,#980,#981);
#874=AXIS2_PLACEMENT_3D('',#1255,#983,#984);
#875=AXIS2_PLACEMENT_3D('',#1257,#986,#987);
#876=AXIS2_PLACEMENT_3D('',#1260,#988,#989);
#877=AXIS2_PLACEMENT_3D('',#1264,#991,#992);
#878=AXIS2_PLACEMENT_3D('',#1277,#994,#995);
#879=AXIS2_PLACEMENT_3D('',#1278,#996,#997);
#880=AXIS2_PLACEMENT_3D('',#1279,#998,#999);
#881=AXIS2_PLACEMENT_3D('',#1280,#1000,#1001);
#882=AXIS2_PLACEMENT_3D('',#1283,#1002,#1003);
#883=AXIS2_PLACEMENT_3D('',#1297,#1006,#1007);
#884=AXIS2_PLACEMENT_3D('',#1298,#1008,#1009);
#885=AXIS2_PLACEMENT_3D('',#1299,#1010,#1011);
#886=AXIS2_PLACEMENT_3D('',#1300,#1012,#1013);
#887=AXIS2_PLACEMENT_3D('',#1303,#1014,#1015);
#888=AXIS2_PLACEMENT_3D('',#1306,#1018,#1019);
#889=AXIS2_PLACEMENT_3D('',#1314,#1024,#1025);
#890=AXIS2_PLACEMENT_3D('',#1320,#1029,#1030);
#891=AXIS2_PLACEMENT_3D('',#1323,#1032,#1033);
#892=AXIS2_PLACEMENT_3D('',#1324,#1034,#1035);
#893=AXIS2_PLACEMENT_3D('',#1328,#1038,#1039);
#894=AXIS2_PLACEMENT_3D('',#1331,#1041,#1042);
#895=AXIS2_PLACEMENT_3D('',#1332,#1043,#1044);
#896=AXIS2_PLACEMENT_3D('',#1338,#1048,#1049);
#897=AXIS2_PLACEMENT_3D('',#1340,#1050,#1051);
#898=AXIS2_PLACEMENT_3D('',#1343,#1053,#1054);
#899=AXIS2_PLACEMENT_3D('',#1344,#1055,#1056);
#900=AXIS2_PLACEMENT_3D('',#1346,#1057,#1058);
#901=AXIS2_PLACEMENT_3D('',#1349,#1060,#1061);
#902=AXIS2_PLACEMENT_3D('',#1350,#1062,#1063);
#903=AXIS2_PLACEMENT_3D('',#1352,#1064,#1065);
#904=AXIS2_PLACEMENT_3D('',#1355,#1067,#1068);
#905=AXIS2_PLACEMENT_3D('',#1356,#1069,#1070);
#906=AXIS2_PLACEMENT_3D('',#1360,#1072,#1073);
#907=AXIS2_PLACEMENT_3D('',#1362,#1075,#1076);
#908=AXIS2_PLACEMENT_3D('',#1365,#1077,#1078);
#909=AXIS2_PLACEMENT_3D('',#1366,#1079,#1080);
#910=AXIS2_PLACEMENT_3D('',#1367,#1081,#1082);
#911=AXIS2_PLACEMENT_3D('',#1368,#1083,#1084);
#912=AXIS2_PLACEMENT_3D('',#1371,#1085,#1086);
#913=AXIS2_PLACEMENT_3D('',#1374,#1089,#1090);
#914=AXIS2_PLACEMENT_3D('',#1377,#1091,#1092);
#915=AXIS2_PLACEMENT_3D('',#1378,#1093,#1094);
#916=AXIS2_PLACEMENT_3D('',#1379,#1095,#1096);
#917=AXIS2_PLACEMENT_3D('',#1380,#1097,#1098);
#918=AXIS2_PLACEMENT_3D('',#1383,#1099,#1100);
#919=AXIS2_PLACEMENT_3D('',#1386,#1103,#1104);
#920=AXIS2_PLACEMENT_3D('',#1389,#1105,#1106);
#921=AXIS2_PLACEMENT_3D('',#1390,#1107,#1108);
#922=AXIS2_PLACEMENT_3D('',#1391,#1109,#1110);
#923=AXIS2_PLACEMENT_3D('',#1392,#1111,#1112);
#924=AXIS2_PLACEMENT_3D('',#1395,#1113,#1114);
#925=AXIS2_PLACEMENT_3D('',#1398,#1117,#1118);
#926=AXIS2_PLACEMENT_3D('',#1401,#1119,#1120);
#927=AXIS2_PLACEMENT_3D('',#1402,#1121,#1122);
#928=AXIS2_PLACEMENT_3D('',#1403,#1123,#1124);
#929=AXIS2_PLACEMENT_3D('',#1404,#1125,#1126);
#930=AXIS2_PLACEMENT_3D('',#1408,#1129,#1130);
#931=AXIS2_PLACEMENT_3D('',#1419,#1131,#1132);
#932=AXIS2_PLACEMENT_3D('',#1420,#1133,#1134);
#933=AXIS2_PLACEMENT_3D('',#1421,#1135,#1136);
#934=AXIS2_PLACEMENT_3D('',#1423,#1137,#1138);
#935=AXIS2_PLACEMENT_3D('',#1435,#1140,#1141);
#936=AXIS2_PLACEMENT_3D('',#1436,#1142,#1143);
#937=AXIS2_PLACEMENT_3D('',#1437,#1144,#1145);
#938=AXIS2_PLACEMENT_3D('',#1439,#1147,#1148);
#939=AXIS2_PLACEMENT_3D('',#1443,#1150,#1151);
#940=AXIS2_PLACEMENT_3D('',#1445,#1153,#1154);
#941=AXIS2_PLACEMENT_3D('',#1447,#1156,#1157);
#942=AXIS2_PLACEMENT_3D('',#1448,#1158,#1159);
#943=AXIS2_PLACEMENT_3D('',#1452,#1162,#1163);
#944=AXIS2_PLACEMENT_3D('',#1454,#1164,#1165);
#945=AXIS2_PLACEMENT_3D('',#1457,#1167,#1168);
#946=AXIS2_PLACEMENT_3D('',#1458,#1169,#1170);
#947=AXIS2_PLACEMENT_3D('',#1462,#1173,#1174);
#948=AXIS2_PLACEMENT_3D('',#1466,#1177,#1178);
#949=AXIS2_PLACEMENT_3D('',#1468,#1179,#1180);
#950=AXIS2_PLACEMENT_3D('',#1469,#1181,#1182);
#951=AXIS2_PLACEMENT_3D('',#1470,#1183,#1184);
#952=AXIS2_PLACEMENT_3D('',#1485,#1193,#1194);
#953=AXIS2_PLACEMENT_3D('',#1489,#1197,#1198);
#954=AXIS2_PLACEMENT_3D('',#1490,#1199,#1200);
#955=AXIS2_PLACEMENT_3D('',#1491,#1201,#1202);
#956=AXIS2_PLACEMENT_3D('',#1495,#1205,#1206);
#957=AXIS2_PLACEMENT_3D('',#1499,#1209,#1210);
#958=AXIS2_PLACEMENT_3D('',#1501,#1212,#1213);
#959=AXIS2_PLACEMENT_3D('',#1505,#1215,#1216);
#960=AXIS2_PLACEMENT_3D('',#1507,#1218,#1219);
#961=AXIS2_PLACEMENT_3D('',#1509,#1221,#1222);
#962=AXIS2_PLACEMENT_3D('',#1511,#1223,#1224);
#963=AXIS2_PLACEMENT_3D('',#1513,#1226,#1227);
#964=AXIS2_PLACEMENT_3D('',#1515,#1229,#1230);
#965=AXIS2_PLACEMENT_3D('',#1517,#1232,#1233);
#966=AXIS2_PLACEMENT_3D('',#1519,#1235,#1236);
#967=DIRECTION('axis',(0.,0.,1.));
#968=DIRECTION('refdir',(1.,0.,0.));
#969=DIRECTION('center_axis',(1.14246223076223E-14,-5.2663730616059E-15,
1.));
#970=DIRECTION('ref_axis',(0.216439613938107,-0.976296007119932,0.));
#971=DIRECTION('center_axis',(-3.21009255302595E-15,1.3489981780247E-14,
-1.));
#972=DIRECTION('ref_axis',(0.216439613938107,-0.976296007119932,0.));
#973=DIRECTION('',(1.14246223076223E-14,-5.2663730616059E-15,1.));
#974=DIRECTION('center_axis',(2.52202262260277E-15,-1.41780517106702E-14,
1.));
#975=DIRECTION('ref_axis',(0.216439613938107,-0.976296007119932,0.));
#976=DIRECTION('',(-1.14246223076223E-14,5.2663730616059E-15,-1.));
#977=DIRECTION('center_axis',(0.707106781186555,-0.70710678118654,-1.18023160103345E-14));
#978=DIRECTION('ref_axis',(0.70710678118654,0.707106781186555,9.13023562958038E-15));
#979=DIRECTION('',(-0.70710678118654,-0.707106781186555,-7.26897938241469E-15));
#980=DIRECTION('center_axis',(-0.707106781186555,0.70710678118654,1.27891809211125E-14));
#981=DIRECTION('ref_axis',(-3.9829027686853E-15,1.41037303415953E-14,-1.));
#982=DIRECTION('',(-3.39833438793141E-15,1.317678097655E-14,-1.));
#983=DIRECTION('center_axis',(-0.707106781186556,0.707106781186539,1.18023160103345E-14));
#984=DIRECTION('ref_axis',(0.707106781186539,0.707106781186556,6.16964089724666E-15));
#985=DIRECTION('',(0.70710678118654,0.707106781186555,8.24205720988026E-15));
#986=DIRECTION('center_axis',(-0.939692620785908,0.342020143325669,9.66082197839454E-16));
#987=DIRECTION('ref_axis',(-0.241844762647972,-0.664463024388672,0.707106781186551));
#988=DIRECTION('center_axis',(-0.939692620785908,0.342020143325669,7.71951946809679E-15));
#989=DIRECTION('ref_axis',(-0.241844762647972,-0.664463024388672,0.707106781186551));
#990=DIRECTION('',(-0.939692620785908,0.342020143325669,9.66082197839454E-16));
#991=DIRECTION('center_axis',(0.939692620785906,-0.342020143325674,0.));
#992=DIRECTION('ref_axis',(0.,0.,1.));
#993=DIRECTION('',(0.939692620785908,-0.342020143325669,-9.66082197839454E-16));
#994=DIRECTION('center_axis',(0.,0.,1.));
#995=DIRECTION('ref_axis',(-0.939692620785908,0.342020143325669,0.));
#996=DIRECTION('center_axis',(0.342020143325669,0.939692620785908,1.04132094520216E-15));
#997=DIRECTION('ref_axis',(-0.664463024388676,0.241844762647975,0.707106781186546));
#998=DIRECTION('center_axis',(-0.342020143325669,-0.939692620785908,-1.04132094520216E-15));
#999=DIRECTION('ref_axis',(-0.664463024388676,0.241844762647975,0.707106781186546));
#1000=DIRECTION('center_axis',(4.60132976500835E-16,9.40675896647133E-16,
-1.));
#1001=DIRECTION('ref_axis',(-0.906307787036648,-0.422618261740704,0.));
#1002=DIRECTION('center_axis',(1.30408547958357E-15,-4.7464829750719E-16,
1.));
#1003=DIRECTION('ref_axis',(-0.93969262078591,0.342020143325663,1.38777878078143E-15));
#1004=DIRECTION('',(-4.60132976500835E-16,-9.40675896647133E-16,1.));
#1005=DIRECTION('',(4.60132976500835E-16,9.40675896647133E-16,-1.));
#1006=DIRECTION('center_axis',(-0.939692620785909,0.342020143325666,-3.03774910404601E-15));
#1007=DIRECTION('ref_axis',(0.,-8.88178419700125E-15,-1.));
#1008=DIRECTION('center_axis',(0.342020143325669,0.939692620785908,1.04132094520216E-15));
#1009=DIRECTION('ref_axis',(-0.664463024388675,0.241844762647976,-0.707106781186547));
#1010=DIRECTION('center_axis',(-0.342020143325669,-0.939692620785908,-1.04132094520216E-15));
#1011=DIRECTION('ref_axis',(-0.664463024388675,0.241844762647976,-0.707106781186547));
#1012=DIRECTION('center_axis',(0.939692620785908,-0.342020143325669,2.830443255817E-15));
#1013=DIRECTION('ref_axis',(-0.241844762647973,-0.664463024388674,-0.707106781186549));
#1014=DIRECTION('center_axis',(-0.939692620785908,0.342020143325669,8.67361737988403E-17));
#1015=DIRECTION('ref_axis',(-0.241844762647973,-0.664463024388674,-0.707106781186549));
#1016=DIRECTION('',(-0.939692620785908,0.342020143325669,-2.830443255817E-15));
#1017=DIRECTION('',(0.939692620785908,-0.342020143325669,2.830443255817E-15));
#1018=DIRECTION('center_axis',(0.939692620785908,-0.342020143325669,-8.67361737988403E-17));
#1019=DIRECTION('ref_axis',(2.7464739645209E-16,1.00818712667048E-15,-1.));
#1020=DIRECTION('',(0.342020143325669,0.939692620785908,1.0547118733939E-15));
#1021=DIRECTION('',(-2.74647396452098E-16,-1.0081871266705E-15,1.));
#1022=DIRECTION('',(0.342020143325669,0.939692620785908,1.0547118733939E-15));
#1023=DIRECTION('',(2.7464739645209E-16,1.00818712667048E-15,-1.));
#1024=DIRECTION('center_axis',(3.02047934714994E-15,2.30363564538258E-17,
-1.));
#1025=DIRECTION('ref_axis',(-0.939692620785908,0.342020143325669,-2.830443255817E-15));
#1026=DIRECTION('',(0.342020143325669,0.939692620785908,1.0547118733939E-15));
#1027=DIRECTION('',(-0.939692620785908,0.342020143325669,-2.830443255817E-15));
#1028=DIRECTION('',(0.342020143325669,0.939692620785908,1.0547118733939E-15));
#1029=DIRECTION('center_axis',(0.342020143325669,0.939692620785908,1.0547118733939E-15));
#1030=DIRECTION('ref_axis',(4.53380624077296E-15,-5.27769587539489E-16,
-1.));
#1031=DIRECTION('',(0.342020143325669,0.939692620785908,1.0547118733939E-15));
#1032=DIRECTION('center_axis',(0.342020143325669,0.939692620785908,1.04132094520216E-15));
#1033=DIRECTION('ref_axis',(-0.664463024388679,0.241844762647977,-0.707106781186543));
#1034=DIRECTION('center_axis',(-0.939692620785908,0.342020143325669,-1.10653457603836E-16));
#1035=DIRECTION('ref_axis',(-4.60132976500835E-16,-9.40675896647133E-16,
1.));
#1036=DIRECTION('',(0.342020143325669,0.939692620785908,1.0547118733939E-15));
#1037=DIRECTION('',(-4.60132976500835E-16,-9.40675896647133E-16,1.));
#1038=DIRECTION('center_axis',(0.342020143325669,0.939692620785908,1.0547118733939E-15));
#1039=DIRECTION('ref_axis',(-0.939692620785908,0.342020143325669,-9.01875736728763E-32));
#1040=DIRECTION('',(0.342020143325669,0.939692620785908,1.0547118733939E-15));
#1041=DIRECTION('center_axis',(0.342020143325669,0.939692620785908,1.04132094520216E-15));
#1042=DIRECTION('ref_axis',(-0.664463024388678,0.241844762647976,0.707106781186544));
#1043=DIRECTION('center_axis',(5.47087606276901E-16,-1.32152453625296E-15,
1.));
#1044=DIRECTION('ref_axis',(0.939692620785908,-0.342020143325669,-9.66082197839454E-16));
#1045=DIRECTION('',(0.342020143325669,0.939692620785908,1.0547118733939E-15));
#1046=DIRECTION('',(0.342020143325669,0.939692620785908,1.0547118733939E-15));
#1047=DIRECTION('',(0.939692620785908,-0.342020143325669,-9.66082197839454E-16));
#1048=DIRECTION('center_axis',(-0.342020143325669,-0.939692620785908,0.));
#1049=DIRECTION('ref_axis',(0.,0.,1.));
#1050=DIRECTION('center_axis',(-0.342020143325669,-0.939692620785908,-1.04132094520216E-15));
#1051=DIRECTION('ref_axis',(0.,0.,1.));
#1052=DIRECTION('',(-0.342020143325669,-0.939692620785908,0.));
#1053=DIRECTION('center_axis',(0.342020143325669,0.939692620785908,1.04132094520219E-15));
#1054=DIRECTION('ref_axis',(0.,0.,1.));
#1055=DIRECTION('center_axis',(-0.342020143325669,-0.939692620785908,0.));
#1056=DIRECTION('ref_axis',(0.,0.,1.));
#1057=DIRECTION('center_axis',(-0.342020143325669,-0.939692620785908,-1.04132094520216E-15));
#1058=DIRECTION('ref_axis',(0.,0.,1.));
#1059=DIRECTION('',(-0.342020143325669,-0.939692620785908,0.));
#1060=DIRECTION('center_axis',(0.342020143325669,0.939692620785908,1.04132094520219E-15));
#1061=DIRECTION('ref_axis',(0.,0.,1.));
#1062=DIRECTION('center_axis',(-0.939692620785908,0.342020143325669,-2.830443255817E-15));
#1063=DIRECTION('ref_axis',(0.241844762647975,0.664463024388673,-0.707106781186549));
#1064=DIRECTION('center_axis',(0.939692620785908,-0.342020143325669,4.17307353466748E-15));
#1065=DIRECTION('ref_axis',(4.44089209850062E-15,0.,-1.));
#1066=DIRECTION('',(0.939692620785908,-0.342020143325669,2.830443255817E-15));
#1067=DIRECTION('center_axis',(-0.664463024388675,0.241844762647962,0.707106781186552));
#1068=DIRECTION('ref_axis',(0.664463024388674,-0.241844762647988,0.707106781186543));
#1069=DIRECTION('center_axis',(2.7464739645209E-16,1.00818712667048E-15,
-1.));
#1070=DIRECTION('ref_axis',(-0.422618261740702,0.906307787036649,0.));
#1071=DIRECTION('',(2.7464739645209E-16,1.00818712667048E-15,-1.));
#1072=DIRECTION('center_axis',(7.82451287750156E-16,-2.84788978504315E-16,
1.));
#1073=DIRECTION('ref_axis',(0.342020143325668,0.939692620785909,0.));
#1074=DIRECTION('',(-2.7464739645209E-16,-1.00818712667048E-15,1.));
#1075=DIRECTION('center_axis',(-0.342020143325669,-0.939692620785908,-1.04132094520216E-15));
#1076=DIRECTION('ref_axis',(0.,1.1842378929335E-15,-1.));
#1077=DIRECTION('center_axis',(-0.939692620785909,0.342020143325668,2.08653676733375E-15));
#1078=DIRECTION('ref_axis',(0.342020143325668,0.939692620785909,1.11022302462516E-15));
#1079=DIRECTION('center_axis',(0.342020143325669,0.939692620785908,1.04132094520216E-15));
#1080=DIRECTION('ref_axis',(-0.664463024388674,0.241844762647976,-0.707106781186548));
#1081=DIRECTION('center_axis',(-0.342020143325669,-0.939692620785908,-1.04132094520216E-15));
#1082=DIRECTION('ref_axis',(-0.664463024388675,0.241844762647976,-0.707106781186547));
#1083=DIRECTION('center_axis',(0.939692620785908,-0.342020143325669,-1.85037170770859E-16));
#1084=DIRECTION('ref_axis',(0.241844762647975,0.664463024388672,-0.70710678118655));
#1085=DIRECTION('center_axis',(-0.939692620785909,0.342020143325666,3.32541797293817E-15));
#1086=DIRECTION('ref_axis',(0.342020143325666,0.939692620785909,1.11022302462515E-15));
#1087=DIRECTION('',(-0.939692620785908,0.342020143325669,1.85037170770859E-16));
#1088=DIRECTION('',(0.939692620785908,-0.342020143325669,-1.85037170770859E-16));
#1089=DIRECTION('center_axis',(-0.342020143325669,-0.939692620785908,-1.04132094520216E-15));
#1090=DIRECTION('ref_axis',(0.,1.1842378929335E-15,-1.));
#1091=DIRECTION('center_axis',(-4.02732649744404E-16,1.32805736217118E-15,
-1.));
#1092=DIRECTION('ref_axis',(0.342020143325668,0.939692620785909,1.11022302462515E-15));
#1093=DIRECTION('center_axis',(0.342020143325669,0.939692620785908,1.04132094520216E-15));
#1094=DIRECTION('ref_axis',(0.664463024388675,-0.241844762647975,-0.707106781186547));
#1095=DIRECTION('center_axis',(-0.342020143325669,-0.939692620785908,-1.04132094520216E-15));
#1096=DIRECTION('ref_axis',(0.664463024388675,-0.241844762647975,-0.707106781186547));
#1097=DIRECTION('center_axis',(-3.56152738926064E-16,-9.78521608076278E-16,
1.));
#1098=DIRECTION('ref_axis',(0.906307787036651,0.422618261740697,0.));
#1099=DIRECTION('center_axis',(0.,0.,-1.));
#1100=DIRECTION('ref_axis',(0.342020143325668,0.939692620785909,0.));
#1101=DIRECTION('',(3.56152738926064E-16,9.78521608076278E-16,-1.));
#1102=DIRECTION('',(-3.56152738926064E-16,-9.78521608076278E-16,1.));
#1103=DIRECTION('center_axis',(-0.342020143325669,-0.939692620785908,-1.04132094520216E-15));
#1104=DIRECTION('ref_axis',(0.,1.1842378929335E-15,-1.));
#1105=DIRECTION('center_axis',(0.939692620785909,-0.342020143325668,-2.84213628210849E-15));
#1106=DIRECTION('ref_axis',(0.342020143325668,0.939692620785909,0.));
#1107=DIRECTION('center_axis',(0.342020143325669,0.939692620785908,1.04132094520216E-15));
#1108=DIRECTION('ref_axis',(0.664463024388675,-0.241844762647976,0.707106781186547));
#1109=DIRECTION('center_axis',(-0.342020143325669,-0.939692620785908,-1.04132094520216E-15));
#1110=DIRECTION('ref_axis',(0.664463024388675,-0.241844762647976,0.707106781186547));
#1111=DIRECTION('center_axis',(-0.939692620785908,0.342020143325669,-9.86076131526265E-32));
#1112=DIRECTION('ref_axis',(0.241844762647973,0.664463024388668,0.707106781186554));
#1113=DIRECTION('center_axis',(0.939692620785908,-0.34202014332567,0.));
#1114=DIRECTION('ref_axis',(0.34202014332567,0.939692620785908,0.));
#1115=DIRECTION('',(0.939692620785908,-0.342020143325669,9.86076131526265E-32));
#1116=DIRECTION('',(-0.939692620785908,0.342020143325669,-1.5641253762202E-31));
#1117=DIRECTION('center_axis',(-0.342020143325669,-0.939692620785908,-1.04132094520216E-15));
#1118=DIRECTION('ref_axis',(0.,1.1842378929335E-15,-1.));
#1119=DIRECTION('center_axis',(0.,0.,1.));
#1120=DIRECTION('ref_axis',(0.342020143325671,0.939692620785908,0.));
#1121=DIRECTION('center_axis',(0.342020143325669,0.939692620785908,1.04132094520216E-15));
#1122=DIRECTION('ref_axis',(-0.664463024388675,0.241844762647975,0.707106781186547));
#1123=DIRECTION('center_axis',(-0.342020143325669,-0.939692620785908,-1.04132094520216E-15));
#1124=DIRECTION('ref_axis',(-0.664463024388675,0.241844762647975,0.707106781186547));
#1125=DIRECTION('center_axis',(-6.89782274125764E-15,3.61875276296003E-15,
-1.));
#1126=DIRECTION('ref_axis',(-0.422618261740696,0.906307787036651,0.));
#1127=DIRECTION('',(6.89782274125765E-15,-3.61875276296003E-15,1.));
#1128=DIRECTION('',(-6.89782274125764E-15,3.61875276296003E-15,-1.));
#1129=DIRECTION('center_axis',(0.664463024388682,-0.241844762647965,0.707106781186544));
#1130=DIRECTION('ref_axis',(-0.664463024388676,0.241844762647962,0.707106781186551));
#1131=DIRECTION('center_axis',(-9.00969681499601E-15,4.46073612571861E-15,
-1.));
#1132=DIRECTION('ref_axis',(-0.939692620785908,0.342020143325669,9.99200722162632E-15));
#1133=DIRECTION('center_axis',(-0.342020143325669,-0.939692620785908,-1.04132094520216E-15));
#1134=DIRECTION('ref_axis',(-0.664463024388679,0.241844762647978,-0.707106781186543));
#1135=DIRECTION('center_axis',(-4.60132976500835E-16,-9.40675896647133E-16,
1.));
#1136=DIRECTION('ref_axis',(-0.422618261740699,0.90630778703665,0.));
#1137=DIRECTION('center_axis',(-1.669229413867E-14,6.07549820809208E-15,
-1.));
#1138=DIRECTION('ref_axis',(-0.93969262078591,0.342020143325664,1.77635683940025E-14));
#1139=DIRECTION('',(4.60132976500835E-16,9.40675896647133E-16,-1.));
#1140=DIRECTION('center_axis',(-0.939692620785909,0.342020143325668,-4.17307353466758E-15));
#1141=DIRECTION('ref_axis',(-4.44089209850072E-15,0.,1.));
#1142=DIRECTION('center_axis',(-0.342020143325669,-0.939692620785908,-1.04132094520216E-15));
#1143=DIRECTION('ref_axis',(-0.664463024388678,0.241844762647976,0.707106781186544));
#1144=DIRECTION('center_axis',(0.939692620785908,-0.342020143325669,-9.66082197839454E-16));
#1145=DIRECTION('ref_axis',(0.241844762647973,0.664463024388668,0.707106781186554));
#1146=DIRECTION('',(-0.939692620785908,0.342020143325669,9.66082197839454E-16));
#1147=DIRECTION('center_axis',(-0.342020143325669,-0.939692620785908,-1.46806350363657E-15));
#1148=DIRECTION('ref_axis',(-0.939692620785908,0.342020143325669,5.09093435200559E-32));
#1149=DIRECTION('',(-0.342020143325669,-0.939692620785908,-1.46806350363657E-15));
#1150=DIRECTION('center_axis',(-0.342020143325669,-0.939692620785908,-1.04132094520219E-15));
#1151=DIRECTION('ref_axis',(-0.939692620785908,0.342020143325669,5.09093435200559E-32));
#1152=DIRECTION('',(-0.342020143325669,-0.939692620785908,-1.46806350363657E-15));
#1153=DIRECTION('center_axis',(-0.939692620785908,0.342020143325669,7.71951946809679E-15));
#1154=DIRECTION('ref_axis',(-6.89782274125765E-15,3.61875276296003E-15,
-1.));
#1155=DIRECTION('',(-6.89782274125764E-15,3.61875276296006E-15,-1.));
#1156=DIRECTION('center_axis',(0.342020143325669,0.939692620785908,1.04132094520216E-15));
#1157=DIRECTION('ref_axis',(-0.939692620785908,0.342020143325669,4.11892096434892E-33));
#1158=DIRECTION('center_axis',(2.52202262260277E-15,-1.41780517106702E-14,
1.));
#1159=DIRECTION('ref_axis',(0.70710678118654,0.707106781186555,8.24205720988026E-15));
#1160=DIRECTION('',(0.939692620785908,-0.342020143325669,-7.21910532607713E-15));
#1161=DIRECTION('',(-0.707106781186555,0.70710678118654,1.18087358073767E-14));
#1162=DIRECTION('center_axis',(-0.707106781186555,0.70710678118654,1.18087358073767E-14));
#1163=DIRECTION('ref_axis',(0.70710678118654,0.707106781186555,6.16964089724664E-15));
#1164=DIRECTION('center_axis',(0.342020143325669,0.939692620785908,1.04132094520216E-15));
#1165=DIRECTION('ref_axis',(0.939692620785908,-0.342020143325669,-8.0949463057254E-15));
#1166=DIRECTION('',(-0.707106781186555,0.70710678118654,1.18087358073767E-14));
#1167=DIRECTION('center_axis',(-0.939692620785908,0.342020143325669,0.));
#1168=DIRECTION('ref_axis',(0.342020143325669,0.939692620785908,1.0582180988663E-14));
#1169=DIRECTION('center_axis',(0.70710678118654,0.707106781186555,6.91440589228278E-15));
#1170=DIRECTION('ref_axis',(-3.39833438793141E-15,1.317678097655E-14,-1.));
#1171=DIRECTION('',(2.60934102974309E-15,7.16910555887561E-15,-1.));
#1172=DIRECTION('',(-0.707106781186555,0.70710678118654,1.18087358073767E-14));
#1173=DIRECTION('center_axis',(-3.21009255302595E-15,1.3489981780247E-14,
-1.));
#1174=DIRECTION('ref_axis',(-0.70710678118654,-0.707106781186555,-7.26897938241469E-15));
#1175=DIRECTION('',(-0.939692620785908,0.342020143325669,7.63034578605903E-15));
#1176=DIRECTION('',(-0.707106781186555,0.70710678118654,1.18087358073767E-14));
#1177=DIRECTION('center_axis',(-0.707106781186555,0.70710678118654,1.18087358073767E-14));
#1178=DIRECTION('ref_axis',(-3.2896233801815E-15,1.34104509530915E-14,-1.));
#1179=DIRECTION('center_axis',(0.342020143325669,0.939692620785908,1.04132094520216E-15));
#1180=DIRECTION('ref_axis',(-0.939692620785908,0.342020143325669,7.67787917255955E-15));
#1181=DIRECTION('center_axis',(-0.939692620785908,0.342020143325669,0.));
#1182=DIRECTION('ref_axis',(-0.342020143325669,-0.939692620785908,-1.14765843420543E-14));
#1183=DIRECTION('center_axis',(0.939692620785908,-0.342020143325669,0.));
#1184=DIRECTION('ref_axis',(3.56152738926064E-16,9.78521608076278E-16,-1.));
#1185=DIRECTION('',(-0.342020143325669,-0.939692620785908,-1.46806350363657E-15));
#1186=DIRECTION('',(-3.56152738926072E-16,-9.785216080763E-16,1.));
#1187=DIRECTION('',(0.342020143325669,0.939692620785908,1.0547118733939E-15));
#1188=DIRECTION('',(-3.56152738926064E-16,-9.78521608076278E-16,1.));
#1189=DIRECTION('',(-3.56152738926064E-16,-9.78521608076278E-16,1.));
#1190=DIRECTION('',(0.342020143325669,0.939692620785908,1.0547118733939E-15));
#1191=DIRECTION('',(-3.56152738926072E-16,-9.78521608076301E-16,1.));
#1192=DIRECTION('',(-0.342020143325669,-0.939692620785908,-1.05517064323878E-15));
#1193=DIRECTION('center_axis',(-5.02107289924963E-16,-1.37952844121239E-15,
1.));
#1194=DIRECTION('ref_axis',(-0.939692620785908,0.342020143325669,0.));
#1195=DIRECTION('',(-0.939692620785908,0.342020143325669,0.));
#1196=DIRECTION('',(-0.342020143325669,-0.939692620785908,-1.46806350363657E-15));
#1197=DIRECTION('center_axis',(-0.342020143325669,-0.939692620785908,-1.46806350363657E-15));
#1198=DIRECTION('ref_axis',(-5.02107289924963E-16,-1.37952844121239E-15,
1.));
#1199=DIRECTION('center_axis',(-0.342020143325669,-0.939692620785908,-1.04132094520219E-15));
#1200=DIRECTION('ref_axis',(-5.02107289924963E-16,-1.37952844121239E-15,
1.));
#1201=DIRECTION('center_axis',(0.342020143325669,0.939692620785908,1.04132094520219E-15));
#1202=DIRECTION('ref_axis',(0.,-1.10815060389777E-15,1.));
#1203=DIRECTION('',(6.89782274125764E-15,-3.61875276296006E-15,1.));
#1204=DIRECTION('',(-0.939692620785908,0.342020143325669,-7.40148683083433E-16));
#1205=DIRECTION('center_axis',(-1.05624496188338E-15,-7.37959205813027E-16,
1.));
#1206=DIRECTION('ref_axis',(0.939692620785908,-0.342020143325669,7.40148683083433E-16));
#1207=DIRECTION('',(0.342020143325669,0.939692620785908,1.0547118733939E-15));
#1208=DIRECTION('',(0.939692620785908,-0.342020143325669,7.40148683083433E-16));
#1209=DIRECTION('center_axis',(0.939692620785908,-0.342020143325669,-7.71951946809679E-15));
#1210=DIRECTION('ref_axis',(-6.89782274125765E-15,3.61875276296003E-15,
-1.));
#1211=DIRECTION('',(-6.89782274125765E-15,3.61875276296003E-15,-1.));
#1212=DIRECTION('center_axis',(-0.342020143325669,-0.939692620785908,-1.05517064323878E-15));
#1213=DIRECTION('ref_axis',(2.73950582661328E-16,1.02317928695522E-15,-1.));
#1214=DIRECTION('',(-0.342020143325669,-0.939692620785908,-1.05517064323878E-15));
#1215=DIRECTION('center_axis',(-0.342020143325669,-0.939692620785908,-1.04132094520219E-15));
#1216=DIRECTION('ref_axis',(2.73950582661328E-16,1.02317928695522E-15,-1.));
#1217=DIRECTION('',(-0.342020143325669,-0.939692620785908,-1.05517064323878E-15));
#1218=DIRECTION('center_axis',(-0.939692620785908,0.342020143325669,8.67361737988402E-17));
#1219=DIRECTION('ref_axis',(2.7464739645209E-16,1.00818712667048E-15,-1.));
#1220=DIRECTION('',(2.74647396452098E-16,1.0081871266705E-15,-1.));
#1221=DIRECTION('center_axis',(-0.342020143325669,-0.939692620785908,-1.05517064323878E-15));
#1222=DIRECTION('ref_axis',(0.939692620785908,-0.342020143325669,1.15580137622841E-31));
#1223=DIRECTION('center_axis',(-0.342020143325669,-0.939692620785908,-1.04132094520219E-15));
#1224=DIRECTION('ref_axis',(0.939692620785908,-0.342020143325669,1.15580137622841E-31));
#1225=DIRECTION('',(-0.342020143325669,-0.939692620785908,-1.05517064323878E-15));
#1226=DIRECTION('center_axis',(1.87011550689089E-16,1.05482250678903E-15,
-1.));
#1227=DIRECTION('ref_axis',(0.939692620785908,-0.342020143325669,-1.85037170770859E-16));
#1228=DIRECTION('',(0.939692620785908,-0.342020143325669,-1.85037170770859E-16));
#1229=DIRECTION('center_axis',(0.342020143325669,0.939692620785908,1.04132094520219E-15));
#1230=DIRECTION('ref_axis',(0.,-1.10815060389777E-15,1.));
#1231=DIRECTION('',(0.939692620785908,-0.342020143325669,4.62592926927147E-17));
#1232=DIRECTION('center_axis',(4.04202222091586E-16,9.75283354566621E-16,
-1.));
#1233=DIRECTION('ref_axis',(-0.939692620785908,0.342020143325669,-4.62592926927149E-17));
#1234=DIRECTION('',(0.939692620785908,-0.342020143325669,4.62592926927149E-17));
#1235=DIRECTION('center_axis',(0.342020143325669,0.939692620785908,1.04132094520216E-15));
#1236=DIRECTION('ref_axis',(-0.939692620785908,0.342020143325669,-1.70022357861606E-32));
#1237=CARTESIAN_POINT('',(0.,0.,0.));
#1238=CARTESIAN_POINT('Origin',(-19.2445365403167,-23.0629131587243,31.0999999999999));
#1239=CARTESIAN_POINT('',(-19.4155466119798,-23.5327594691171,3.29999999999967));
#1240=CARTESIAN_POINT('',(-18.8909831497237,-23.4164665493174,3.29999999999967));
#1241=CARTESIAN_POINT('Origin',(-19.244536540317,-23.0629131587242,3.29999999999973));
#1242=CARTESIAN_POINT('',(-18.8909831497231,-23.4164665493177,58.8999999999998));
#1243=CARTESIAN_POINT('',(-18.8909831497234,-23.4164665493176,31.0999999999999));
#1244=CARTESIAN_POINT('',(-19.4155466119792,-23.5327594691174,58.8999999999998));
#1245=CARTESIAN_POINT('Origin',(-19.2445365403164,-23.0629131587245,58.8999999999996));
#1246=CARTESIAN_POINT('',(-19.4155466119795,-23.5327594691173,31.0999999999999));
#1247=CARTESIAN_POINT('Origin',(-21.9910208949014,-26.5165042944957,31.0999999999997));
#1248=CARTESIAN_POINT('',(-15.9806132548159,-20.5060966544095,3.2999999999997));
#1249=CARTESIAN_POINT('',(-15.9806132548159,-20.5060966544095,3.2999999999997));
#1250=CARTESIAN_POINT('',(-12.7986327394764,-17.3241161390701,7.79999999999975));
#1251=CARTESIAN_POINT('Origin',(-15.9806132548159,-20.5060966544096,7.79999999999972));
#1252=CARTESIAN_POINT('',(-12.7986327394763,-17.3241161390707,55.8999999999999));
#1253=CARTESIAN_POINT('',(-12.7986327394763,-17.3241161390707,55.8999999999999));
#1254=CARTESIAN_POINT('',(-14.9199530830359,-19.4454364826305,58.8999999999999));
#1255=CARTESIAN_POINT('Origin',(-14.9199530830359,-19.4454364826304,55.8999999999998));
#1256=CARTESIAN_POINT('',(-29.0620887067667,-33.5875721063616,58.8999999999997));
#1257=CARTESIAN_POINT('Origin',(-15.4585481392996,-24.4409002439717,61.7));
#1258=CARTESIAN_POINT('',(-11.7343364054417,-26.3284913474388,61.7));
#1259=CARTESIAN_POINT('',(-11.5633263337788,-25.8586450370459,62.2));
#1260=CARTESIAN_POINT('Origin',(-11.5633263337788,-25.8586450370459,61.7));
#1261=CARTESIAN_POINT('',(-20.2024950173549,-22.7142447874194,62.2));
#1262=CARTESIAN_POINT('',(-15.4585481392996,-24.4409002439717,62.2));
#1263=CARTESIAN_POINT('',(-20.3735050890178,-23.1840910978124,61.7));
#1264=CARTESIAN_POINT('Origin',(-20.2024950173549,-22.7142447874194,61.7));
#1265=CARTESIAN_POINT('',(-15.6295582109625,-24.9107465543646,61.7));
#1266=CARTESIAN_POINT('Ctrl Pts',(-20.8433513994107,-23.0130810261496,61.2));
#1267=CARTESIAN_POINT('Ctrl Pts',(-20.8433513994107,-23.0130810261496,61.7));
#1268=CARTESIAN_POINT('Ctrl Pts',(-20.3735050890178,-23.1840910978124,61.7));
#1269=CARTESIAN_POINT('Ctrl Pts',(-21.3131977098037,-22.8420709544867,61.2));
#1270=CARTESIAN_POINT('Ctrl Pts',(-21.3131977098037,-22.8420709544867,62.2));
#1271=CARTESIAN_POINT('Ctrl Pts',(-20.3735050890178,-23.1840910978124,62.2));
#1272=CARTESIAN_POINT('Ctrl Pts',(-21.1421876381408,-22.3722246440938,61.2));
#1273=CARTESIAN_POINT('Ctrl Pts',(-21.1421876381408,-22.3722246440938,62.2));
#1274=CARTESIAN_POINT('Ctrl Pts',(-20.2024950173549,-22.7142447874194,62.2));
#1275=CARTESIAN_POINT('',(-21.1421876381408,-22.3722246440938,61.2));
#1276=CARTESIAN_POINT('',(-20.8433513994107,-23.0130810261496,61.2));
#1277=CARTESIAN_POINT('Origin',(-20.6723413277479,-22.5432347157566,61.2));
#1278=CARTESIAN_POINT('Origin',(-20.3735050890178,-23.1840910978124,61.2));
#1279=CARTESIAN_POINT('Origin',(-20.2024950173549,-22.7142447874194,61.2));
#1280=CARTESIAN_POINT('Origin',(-20.6723413277479,-22.5432347157566,16.05));
#1281=CARTESIAN_POINT('',(-21.1421876381408,-22.3722246440937,0.999999999999984));
#1282=CARTESIAN_POINT('',(-20.8433513994107,-23.0130810261495,0.999999999999983));
#1283=CARTESIAN_POINT('Origin',(-20.6723413277478,-22.5432347157566,0.999999999999983));
#1284=CARTESIAN_POINT('',(-20.8433513994107,-23.0130810261495,16.05));
#1285=CARTESIAN_POINT('',(-21.1421876381408,-22.3722246440937,16.05));
#1286=CARTESIAN_POINT('Ctrl Pts',(-20.3735050890177,-23.1840910978124,0.499999999999976));
#1287=CARTESIAN_POINT('Ctrl Pts',(-20.8433513994107,-23.0130810261495,0.499999999999971));
#1288=CARTESIAN_POINT('Ctrl Pts',(-20.8433513994107,-23.0130810261495,0.999999999999973));
#1289=CARTESIAN_POINT('Ctrl Pts',(-20.3735050890177,-23.1840910978124,-2.74780198594726E-14));
#1290=CARTESIAN_POINT('Ctrl Pts',(-21.3131977098036,-22.8420709544867,-3.33066907387547E-14));
#1291=CARTESIAN_POINT('Ctrl Pts',(-21.3131977098036,-22.8420709544867,0.999999999999977));
#1292=CARTESIAN_POINT('Ctrl Pts',(-20.2024950173549,-22.7142447874194,-2.55351295663786E-14));
#1293=CARTESIAN_POINT('Ctrl Pts',(-21.1421876381408,-22.3722246440937,-3.5527136788005E-14));
#1294=CARTESIAN_POINT('Ctrl Pts',(-21.1421876381408,-22.3722246440937,0.999999999999973));
#1295=CARTESIAN_POINT('',(-20.2024950173549,-22.7142447874194,-2.57016630200724E-14));
#1296=CARTESIAN_POINT('',(-20.3735050890177,-23.1840910978123,0.499999999999974));
#1297=CARTESIAN_POINT('Origin',(-20.2024950173549,-22.7142447874194,0.499999999999974));
#1298=CARTESIAN_POINT('Origin',(-20.3735050890177,-23.1840910978124,0.999999999999973));
#1299=CARTESIAN_POINT('Origin',(-20.2024950173549,-22.7142447874194,0.999999999999973));
#1300=CARTESIAN_POINT('Origin',(-11.1389637975115,-26.0131003687848,0.500000000000005));
#1301=CARTESIAN_POINT('',(-11.5633263337788,-25.8586450370458,2.4980018054066E-16));
#1302=CARTESIAN_POINT('',(-11.7343364054416,-26.3284913474388,0.500000000000003));
#1303=CARTESIAN_POINT('Origin',(-11.5633263337788,-25.8586450370458,0.500000000000004));
#1304=CARTESIAN_POINT('',(-11.3099738691744,-26.4829466791778,0.500000000000004));
#1305=CARTESIAN_POINT('',(-11.1389637975115,-26.0131003687848,1.59594559789866E-15));
#1306=CARTESIAN_POINT('Origin',(-11.7343364054416,-26.3284913474388,2.30000000000003));
#1307=CARTESIAN_POINT('',(-10.1952457604761,-22.0998745539022,4.44089209850063E-15));
#1308=CARTESIAN_POINT('',(-11.7343364054416,-26.3284913474388,-2.77555756156289E-16));
#1309=CARTESIAN_POINT('',(-10.1952457604761,-22.0998745539022,2.30000000000003));
#1310=CARTESIAN_POINT('',(-10.1952457604761,-22.0998745539022,16.7));
#1311=CARTESIAN_POINT('',(-11.7343364054416,-26.3284913474388,2.30000000000003));
#1312=CARTESIAN_POINT('',(-11.7343364054416,-26.3284913474388,2.30000000000003));
#1313=CARTESIAN_POINT('',(-11.7343364054416,-26.3284913474388,2.30000000000003));
#1314=CARTESIAN_POINT('Origin',(-11.7343364054416,-26.3284913474388,-2.07023896467146E-16));
#1315=CARTESIAN_POINT('',(-17.1243137274239,-14.2570112003462,-1.62092561595273E-14));
#1316=CARTESIAN_POINT('',(-20.3735050890177,-23.1840910978124,-2.62290189567693E-14));
#1317=CARTESIAN_POINT('',(-8.48514504384778,-17.4014114499726,9.74220704108575E-15));
#1318=CARTESIAN_POINT('',(-8.06078250758051,-17.5558667817116,1.11022302462516E-14));
#1319=CARTESIAN_POINT('',(-11.7343364054416,-26.3284913474388,-2.77555756156289E-16));
#1320=CARTESIAN_POINT('Origin',(-20.3735050890177,-23.1840910978124,0.999999999999973));
#1321=CARTESIAN_POINT('',(-18.0640063482098,-13.9149910570206,0.999999999999993));
#1322=CARTESIAN_POINT('',(-21.3131977098036,-22.8420709544867,0.999999999999983));
#1323=CARTESIAN_POINT('Origin',(-17.1243137274239,-14.2570112003462,0.999999999999983));
#1324=CARTESIAN_POINT('Origin',(-21.3131977098036,-22.8420709544867,0.999999999999988));
#1325=CARTESIAN_POINT('',(-18.0640063482098,-13.9149910570206,61.2));
#1326=CARTESIAN_POINT('',(-21.3131977098037,-22.8420709544867,61.2));
#1327=CARTESIAN_POINT('',(-18.0640063482098,-13.9149910570206,16.05));
#1328=CARTESIAN_POINT('Origin',(-20.3735050890178,-23.1840910978124,61.2));
#1329=CARTESIAN_POINT('',(-17.1243137274239,-14.2570112003463,62.2));
#1330=CARTESIAN_POINT('',(-20.3735050890178,-23.1840910978124,62.2));
#1331=CARTESIAN_POINT('Origin',(-17.1243137274239,-14.2570112003463,61.2));
#1332=CARTESIAN_POINT('Origin',(-20.3735050890178,-23.1840910978124,62.2));
#1333=CARTESIAN_POINT('',(-10.1952457604762,-22.0998745539022,62.2));
#1334=CARTESIAN_POINT('',(-11.7343364054417,-26.3284913474388,62.2));
#1335=CARTESIAN_POINT('',(-8.48514504384782,-17.4014114499727,62.2));
#1336=CARTESIAN_POINT('',(-11.7343364054417,-26.3284913474388,62.2));
#1337=CARTESIAN_POINT('',(-12.3803668493686,-15.9836666568985,62.2));
#1338=CARTESIAN_POINT('Origin',(-3.71059018102965,-21.8262561774111,-0.399999999999945));
#1339=CARTESIAN_POINT('',(-2.67597924746951,-18.9836859995337,-2.09999999999995));
#1340=CARTESIAN_POINT('Origin',(-2.67597924746951,-18.9836859995337,-0.399999999999945));
#1341=CARTESIAN_POINT('',(-4.55709003576068,-24.1519954138562,-2.09999999999995));
#1342=CARTESIAN_POINT('',(-3.71059018102965,-21.8262561774111,-2.09999999999995));
#1343=CARTESIAN_POINT('Origin',(-4.55709003576069,-24.1519954138562,-0.399999999999945));
#1344=CARTESIAN_POINT('Origin',(-3.71059018102967,-21.8262561774111,63.0000000000001));
#1345=CARTESIAN_POINT('',(-2.67597924746951,-18.9836859995337,61.3000000000001));
#1346=CARTESIAN_POINT('Origin',(-2.67597924746951,-18.9836859995337,63.0000000000001));
#1347=CARTESIAN_POINT('',(-4.5570900357607,-24.1519954138563,61.3000000000001));
#1348=CARTESIAN_POINT('',(-3.71059018102967,-21.8262561774111,61.3000000000001));
#1349=CARTESIAN_POINT('Origin',(-4.55709003576069,-24.1519954138562,63.0000000000001));
#1350=CARTESIAN_POINT('Origin',(-8.06078250758051,-17.5558667817116,0.500000000000012));
#1351=CARTESIAN_POINT('',(-16.953303655761,-13.7871648899533,0.499999999999985));
#1352=CARTESIAN_POINT('Origin',(-17.1243137274239,-14.2570112003462,0.499999999999984));
#1353=CARTESIAN_POINT('',(-7.844288661792,-17.1025752112425,0.500000000000012));
#1354=CARTESIAN_POINT('',(-7.88977243591767,-17.0860204713187,0.500000000000012));
#1355=CARTESIAN_POINT('Origin',(-8.01529873345482,-17.5724215216355,0.500000000000012));
#1356=CARTESIAN_POINT('Origin',(-8.01529873345484,-17.5724215216355,16.7));
#1357=CARTESIAN_POINT('',(-7.844288661792,-17.1025752112425,-0.89999999999997));
#1358=CARTESIAN_POINT('',(-7.844288661792,-17.1025752112425,16.7));
#1359=CARTESIAN_POINT('',(-8.48514504384779,-17.4014114499726,-0.899999999999969));
#1360=CARTESIAN_POINT('Origin',(-8.01529873345483,-17.5724215216355,-0.89999999999997));
#1361=CARTESIAN_POINT('',(-8.48514504384779,-17.4014114499727,16.7));
#1362=CARTESIAN_POINT('Origin',(-5.66606718149006,-18.4274718799497,-0.899999999999969));
#1363=CARTESIAN_POINT('',(-5.49505710982723,-17.9576255695567,-3.39999999999997));
#1364=CARTESIAN_POINT('',(-5.66606718149006,-18.4274718799496,-3.89999999999997));
#1365=CARTESIAN_POINT('Origin',(-5.66606718149006,-18.4274718799496,-3.39999999999997));
#1366=CARTESIAN_POINT('Origin',(-5.66606718149006,-18.4274718799497,-0.899999999999969));
#1367=CARTESIAN_POINT('Origin',(-5.49505710982723,-17.9576255695567,-0.899999999999969));
#1368=CARTESIAN_POINT('Origin',(-6.65124357640169,-18.0688969967001,-3.39999999999997));
#1369=CARTESIAN_POINT('',(0.143098614888233,-20.0097464295107,-3.39999999999997));
#1370=CARTESIAN_POINT('',(-0.0279114567746026,-20.4795927399037,-3.89999999999997));
#1371=CARTESIAN_POINT('Origin',(-0.0279114567746008,-20.4795927399037,-3.39999999999997));
#1372=CARTESIAN_POINT('',(-6.65124357640169,-18.0688969967001,-3.89999999999997));
#1373=CARTESIAN_POINT('',(-6.48023350473886,-17.5990506863072,-3.39999999999997));
#1374=CARTESIAN_POINT('Origin',(-0.0279114567746047,-20.4795927399037,-0.899999999999966));
#1375=CARTESIAN_POINT('',(2.492330166853,-20.8647967878249,-0.899999999999965));
#1376=CARTESIAN_POINT('',(2.79116640558312,-21.5056531698807,-0.899999999999966));
#1377=CARTESIAN_POINT('Origin',(2.32132009519017,-21.3346430982178,-0.899999999999965));
#1378=CARTESIAN_POINT('Origin',(-0.0279114567746047,-20.4795927399037,-0.899999999999966));
#1379=CARTESIAN_POINT('Origin',(0.14309861488823,-20.0097464295107,-0.899999999999965));
#1380=CARTESIAN_POINT('Origin',(2.32132009519015,-21.3346430982179,45.5000000000001));
#1381=CARTESIAN_POINT('',(2.49233016685298,-20.864796787825,63.1000000000001));
#1382=CARTESIAN_POINT('',(2.7911664055831,-21.5056531698807,63.1000000000001));
#1383=CARTESIAN_POINT('Origin',(2.32132009519014,-21.3346430982179,63.1000000000001));
#1384=CARTESIAN_POINT('',(2.7911664055831,-21.5056531698807,45.5000000000001));
#1385=CARTESIAN_POINT('',(2.49233016685298,-20.8647967878249,45.5000000000001));
#1386=CARTESIAN_POINT('Origin',(-0.027911456774638,-20.4795927399037,63.1000000000001));
#1387=CARTESIAN_POINT('',(0.1430986148882,-20.0097464295108,65.6000000000001));
#1388=CARTESIAN_POINT('',(-0.0279114567746392,-20.4795927399038,66.1000000000001));
#1389=CARTESIAN_POINT('Origin',(-0.0279114567746391,-20.4795927399037,65.6000000000001));
#1390=CARTESIAN_POINT('Origin',(-0.027911456774638,-20.4795927399037,63.1000000000001));
#1391=CARTESIAN_POINT('Origin',(0.143098614888202,-20.0097464295108,63.1000000000001));
#1392=CARTESIAN_POINT('Origin',(-3.83216571404398,-19.0949574266772,65.6000000000001));
#1393=CARTESIAN_POINT('',(-5.49505710982726,-17.9576255695568,65.6000000000001));
#1394=CARTESIAN_POINT('',(-5.66606718149009,-18.4274718799497,66.1000000000001));
#1395=CARTESIAN_POINT('Origin',(-5.66606718149009,-18.4274718799497,65.6000000000001));
#1396=CARTESIAN_POINT('',(-3.83216571404398,-19.0949574266772,66.1000000000001));
#1397=CARTESIAN_POINT('',(-3.66115564238115,-18.6251111162843,65.6000000000001));
#1398=CARTESIAN_POINT('Origin',(-5.6660671814901,-18.4274718799497,63.1000000000001));
#1399=CARTESIAN_POINT('',(-7.84428866179203,-17.1025752112426,63.1000000000001));
#1400=CARTESIAN_POINT('',(-8.48514504384782,-17.4014114499727,63.1000000000001));
#1401=CARTESIAN_POINT('Origin',(-8.01529873345487,-17.5724215216356,63.1000000000001));
#1402=CARTESIAN_POINT('Origin',(-5.6660671814901,-18.4274718799497,63.1000000000001));
#1403=CARTESIAN_POINT('Origin',(-5.49505710982726,-17.9576255695568,63.1000000000001));
#1404=CARTESIAN_POINT('Origin',(-8.01529873345497,-17.5724215216355,47.1000000000001));
#1405=CARTESIAN_POINT('',(-8.48514504384793,-17.4014114499726,47.1000000000001));
#1406=CARTESIAN_POINT('',(-7.84428866179204,-17.1025752112426,61.7));
#1407=CARTESIAN_POINT('',(-7.84428866179214,-17.1025752112425,47.1000000000001));
#1408=CARTESIAN_POINT('Origin',(-8.01529873345487,-17.5724215216355,61.7));
#1409=CARTESIAN_POINT('Ctrl Pts',(-17.1243137274239,-14.2570112003462,-1.60982338570648E-14));
#1410=CARTESIAN_POINT('Ctrl Pts',(-18.0640063482098,-13.9149910570205,-2.09554595897998E-14));
#1411=CARTESIAN_POINT('Ctrl Pts',(-18.0640063482098,-13.9149910570206,0.999999999999984));
#1412=CARTESIAN_POINT('Ctrl Pts',(-16.953303655761,-13.7871648899533,-1.60982338570648E-14));
#1413=CARTESIAN_POINT('Ctrl Pts',(-17.8929962765469,-13.4451447466276,-2.16493489801906E-14));
#1414=CARTESIAN_POINT('Ctrl Pts',(-17.8929962765469,-13.4451447466276,0.999999999999983));
#1415=CARTESIAN_POINT('Ctrl Pts',(-16.953303655761,-13.7871648899533,0.499999999999985));
#1416=CARTESIAN_POINT('Ctrl Pts',(-17.423149966154,-13.6161548182904,0.499999999999983));
#1417=CARTESIAN_POINT('Ctrl Pts',(-17.423149966154,-13.6161548182904,0.999999999999983));
#1418=CARTESIAN_POINT('',(-17.423149966154,-13.6161548182904,0.999999999999989));
#1419=CARTESIAN_POINT('Origin',(-17.5941600378168,-14.0860011286834,0.999999999999988));
#1420=CARTESIAN_POINT('Origin',(-16.953303655761,-13.7871648899533,0.999999999999983));
#1421=CARTESIAN_POINT('Origin',(-17.5941600378168,-14.0860011286834,16.05));
#1422=CARTESIAN_POINT('',(-17.423149966154,-13.6161548182905,61.2));
#1423=CARTESIAN_POINT('Origin',(-17.5941600378169,-14.0860011286834,61.2));
#1424=CARTESIAN_POINT('',(-17.423149966154,-13.6161548182904,16.05));
#1425=CARTESIAN_POINT('Ctrl Pts',(-18.0640063482098,-13.9149910570206,61.2));
#1426=CARTESIAN_POINT('Ctrl Pts',(-18.0640063482098,-13.9149910570206,62.2));
#1427=CARTESIAN_POINT('Ctrl Pts',(-17.1243137274239,-14.2570112003463,62.2));
#1428=CARTESIAN_POINT('Ctrl Pts',(-17.892996276547,-13.4451447466277,61.2));
#1429=CARTESIAN_POINT('Ctrl Pts',(-17.892996276547,-13.4451447466276,62.2));
#1430=CARTESIAN_POINT('Ctrl Pts',(-16.9533036557611,-13.7871648899533,62.2));
#1431=CARTESIAN_POINT('Ctrl Pts',(-17.423149966154,-13.6161548182905,61.2));
#1432=CARTESIAN_POINT('Ctrl Pts',(-17.423149966154,-13.6161548182905,61.7));
#1433=CARTESIAN_POINT('Ctrl Pts',(-16.9533036557611,-13.7871648899533,61.7));
#1434=CARTESIAN_POINT('',(-16.9533036557611,-13.7871648899533,61.7));
#1435=CARTESIAN_POINT('Origin',(-17.1243137274239,-14.2570112003463,61.7));
#1436=CARTESIAN_POINT('Origin',(-16.9533036557611,-13.7871648899533,61.2));
#1437=CARTESIAN_POINT('Origin',(-12.3803668493686,-15.9836666568985,61.7));
#1438=CARTESIAN_POINT('',(-12.2093567777058,-15.5138203465055,61.7));
#1439=CARTESIAN_POINT('Origin',(-5.49505710982725,-17.9576255695568,63.1000000000001));
#1440=CARTESIAN_POINT('',(-10.1952457604762,-22.0998745539023,63.1000000000001));
#1441=CARTESIAN_POINT('',(-8.31413497218498,-16.9315651395798,63.1000000000001));
#1442=CARTESIAN_POINT('',(-7.37616789811844,-23.1259349838793,66.1000000000001));
#1443=CARTESIAN_POINT('Origin',(-7.37616789811844,-23.1259349838793,63.1000000000001));
#1444=CARTESIAN_POINT('',(-5.49505710982726,-17.9576255695568,66.1000000000001));
#1445=CARTESIAN_POINT('Origin',(-8.31413497218498,-16.9315651395798,63.1000000000001));
#1446=CARTESIAN_POINT('',(-10.1952457604763,-22.0998745539022,47.1000000000001));
#1447=CARTESIAN_POINT('Origin',(-7.46540989965049,-17.2404758030577,31.1000000000001));
#1448=CARTESIAN_POINT('Origin',(-13.5057395206625,-49.1439212924655,58.8999999999994));
#1449=CARTESIAN_POINT('',(-5.92102642151576,-28.4443631441504,58.8999999999997));
#1450=CARTESIAN_POINT('',(-8.4256991066306,-27.532736840189,58.8999999999997));
#1451=CARTESIAN_POINT('',(0.636396103068329,-35.0017856687344,58.8999999999996));
#1452=CARTESIAN_POINT('Origin',(0.636396103068324,-35.0017856687343,55.8999999999996));
#1453=CARTESIAN_POINT('',(-0.458024956010755,-30.4327330673469,57.6214725738729));
#1454=CARTESIAN_POINT('Origin',(-5.9210264215157,-28.4443631441504,55.8999999999997));
#1455=CARTESIAN_POINT('',(-0.25308465648451,-29.8696642220622,55.8999999999997));
#1456=CARTESIAN_POINT('',(2.75771644662795,-32.8804653251746,55.8999999999996));
#1457=CARTESIAN_POINT('Origin',(-1.3852170784423,-32.9801724872237,55.8999999999996));
#1458=CARTESIAN_POINT('Origin',(2.75771644662795,-32.8804653251746,55.8999999999996));
#1459=CARTESIAN_POINT('',(-0.253084656484386,-29.8696642220619,7.79999999999954));
#1460=CARTESIAN_POINT('',(-0.253084656484515,-29.8696642220622,57.8999999999999));
#1461=CARTESIAN_POINT('',(2.75771644662778,-32.880465325174,7.79999999999949));
#1462=CARTESIAN_POINT('Origin',(-0.424264068711671,-36.0624458405134,3.29999999999944));
#1463=CARTESIAN_POINT('',(-9.25627967198556,-27.2304302372397,3.29999999999959));
#1464=CARTESIAN_POINT('',(-4.75223493343534,-28.8697684558753,3.29999999999955));
#1465=CARTESIAN_POINT('',(-0.424264068711671,-36.0624458405134,3.29999999999944));
#1466=CARTESIAN_POINT('Origin',(-0.424264068711653,-36.0624458405135,7.79999999999946));
#1467=CARTESIAN_POINT('',(-0.458024956010737,-30.4327330673468,5.65695047991669));
#1468=CARTESIAN_POINT('Origin',(-9.25627967198562,-27.2304302372397,7.79999999999961));
#1469=CARTESIAN_POINT('Origin',(-1.95128328942106,-34.5354266198041,7.79999999999949));
#1470=CARTESIAN_POINT('Origin',(-0.458024956010756,-30.4327330673469,59.9000000000001));
#1471=CARTESIAN_POINT('',(1.08106568895475,-26.2041162738103,63.1000000000001));
#1472=CARTESIAN_POINT('',(2.96217647724593,-21.0358068594878,63.1000000000001));
#1473=CARTESIAN_POINT('',(1.08106568895479,-26.2041162738103,59.9000000000001));
#1474=CARTESIAN_POINT('',(1.08106568895476,-26.2041162738103,45.5000000000001));
#1475=CARTESIAN_POINT('',(-0.458024956010714,-30.4327330673469,59.9000000000001));
#1476=CARTESIAN_POINT('',(-0.458024956010714,-30.4327330673469,59.9000000000001));
#1477=CARTESIAN_POINT('',(-0.458024956010734,-30.4327330673468,-0.899999999999976));
#1478=CARTESIAN_POINT('',(-0.458024956010737,-30.4327330673468,2.30000000000003));
#1479=CARTESIAN_POINT('',(-0.458024956010734,-30.4327330673468,-0.899999999999976));
#1480=CARTESIAN_POINT('',(1.08106568895477,-26.2041162738102,2.30000000000003));
#1481=CARTESIAN_POINT('',(-0.458024956010737,-30.4327330673468,2.30000000000003));
#1482=CARTESIAN_POINT('',(1.08106568895477,-26.2041162738102,-0.899999999999971));
#1483=CARTESIAN_POINT('',(1.08106568895477,-26.2041162738102,15.1));
#1484=CARTESIAN_POINT('',(2.96217647724596,-21.0358068594877,-0.899999999999965));
#1485=CARTESIAN_POINT('Origin',(0.143098614888202,-20.0097464295108,66.1000000000001));
#1486=CARTESIAN_POINT('',(-1.73801217340298,-25.1780558438333,66.1000000000001));
#1487=CARTESIAN_POINT('',(-3.14755110458184,-24.6650256288448,66.1000000000001));
#1488=CARTESIAN_POINT('',(0.143098614888202,-20.0097464295108,66.1000000000001));
#1489=CARTESIAN_POINT('Origin',(0.143098614888204,-20.0097464295108,63.1000000000001));
#1490=CARTESIAN_POINT('Origin',(-1.73801217340298,-25.1780558438333,63.1000000000001));
#1491=CARTESIAN_POINT('Origin',(-4.55709003576069,-24.1519954138562,31.1000000000001));
#1492=CARTESIAN_POINT('',(-10.1952457604762,-22.0998745539022,59.9000000000001));
#1493=CARTESIAN_POINT('',(-10.1952457604763,-22.0998745539022,46.6500000000001));
#1494=CARTESIAN_POINT('',(-7.37616789811845,-23.1259349838792,59.9000000000001));
#1495=CARTESIAN_POINT('Origin',(-11.7343364054417,-26.3284913474388,59.9000000000001));
#1496=CARTESIAN_POINT('',(-11.7343364054417,-26.3284913474388,59.9000000000001));
#1497=CARTESIAN_POINT('',(-11.7343364054417,-26.3284913474388,59.9000000000001));
#1498=CARTESIAN_POINT('',(-11.7343364054417,-26.3284913474388,59.9000000000001));
#1499=CARTESIAN_POINT('Origin',(-11.7343364054417,-26.3284913474388,62.2));
#1500=CARTESIAN_POINT('',(-11.7343364054417,-26.3284913474388,63.1000000000001));
#1501=CARTESIAN_POINT('Origin',(-5.49505710982723,-17.9576255695567,-0.899999999999969));
#1502=CARTESIAN_POINT('',(-7.37616789811841,-23.1259349838792,-3.89999999999997));
#1503=CARTESIAN_POINT('',(-5.49505710982723,-17.9576255695567,-3.89999999999997));
#1504=CARTESIAN_POINT('',(-10.1952457604761,-22.0998745539022,-0.899999999999975));
#1505=CARTESIAN_POINT('Origin',(-7.37616789811841,-23.1259349838792,-0.899999999999975));
#1506=CARTESIAN_POINT('',(-8.31413497218495,-16.9315651395797,-0.899999999999969));
#1507=CARTESIAN_POINT('Origin',(-8.31413497218495,-16.9315651395797,2.30000000000004));
#1508=CARTESIAN_POINT('',(-10.1952457604761,-22.0998745539022,16.7));
#1509=CARTESIAN_POINT('Origin',(0.14309861488823,-20.0097464295107,-0.899999999999965));
#1510=CARTESIAN_POINT('',(-1.73801217340295,-25.1780558438332,-3.89999999999997));
#1511=CARTESIAN_POINT('Origin',(-1.73801217340295,-25.1780558438332,-0.899999999999971));
#1512=CARTESIAN_POINT('',(0.143098614888232,-20.0097464295107,-3.89999999999997));
#1513=CARTESIAN_POINT('Origin',(-5.49505710982723,-17.9576255695567,-3.89999999999997));
#1514=CARTESIAN_POINT('',(-5.96662896693955,-23.6389651988677,-3.89999999999998));
#1515=CARTESIAN_POINT('Origin',(-4.55709003576069,-24.1519954138562,31.1000000000001));
#1516=CARTESIAN_POINT('',(-1.73801217340295,-25.1780558438332,2.30000000000003));
#1517=CARTESIAN_POINT('Origin',(-0.458024956010736,-30.4327330673468,2.30000000000003));
#1518=CARTESIAN_POINT('',(-11.7343364054416,-26.3284913474388,2.30000000000003));
#1519=CARTESIAN_POINT('Origin',(-10.8856113329072,-26.6374020109168,31.1));
#1520=UNCERTAINTY_MEASURE_WITH_UNIT(LENGTH_MEASURE(0.01),#1524,
'DISTANCE_ACCURACY_VALUE',
'Maximum model space distance between geometric entities at asserted c
onnectivities');
#1521=UNCERTAINTY_MEASURE_WITH_UNIT(LENGTH_MEASURE(0.01),#1524,
'DISTANCE_ACCURACY_VALUE',
'Maximum model space distance between geometric entities at asserted c
onnectivities');
#1522=(
GEOMETRIC_REPRESENTATION_CONTEXT(3)
GLOBAL_UNCERTAINTY_ASSIGNED_CONTEXT((#1520))
GLOBAL_UNIT_ASSIGNED_CONTEXT((#1524,#1525,#1526))
REPRESENTATION_CONTEXT('','3D')
);
#1523=(
GEOMETRIC_REPRESENTATION_CONTEXT(3)
GLOBAL_UNCERTAINTY_ASSIGNED_CONTEXT((#1521))
GLOBAL_UNIT_ASSIGNED_CONTEXT((#1524,#1525,#1526))
REPRESENTATION_CONTEXT('','3D')
);
#1524=(
LENGTH_UNIT()
NAMED_UNIT(*)
SI_UNIT(.MILLI.,.METRE.)
);
#1525=(
NAMED_UNIT(*)
PLANE_ANGLE_UNIT()
SI_UNIT($,.RADIAN.)
);
#1526=(
NAMED_UNIT(*)
SI_UNIT($,.STERADIAN.)
SOLID_ANGLE_UNIT()
);
#1527=SHAPE_DEFINITION_REPRESENTATION(#1528,#1529);
#1528=PRODUCT_DEFINITION_SHAPE('',$,#1531);
#1529=SHAPE_REPRESENTATION('',(#868),#1522);
#1530=PRODUCT_DEFINITION_CONTEXT('part definition',#1535,'design');
#1531=PRODUCT_DEFINITION('Enclosure Wallplate with SEN6X',
'Enclosure Wallplate with SEN6X v14',#1532,#1530);
#1532=PRODUCT_DEFINITION_FORMATION('',$,#1537);
#1533=PRODUCT_RELATED_PRODUCT_CATEGORY(
'Enclosure Wallplate with SEN6X v14',
'Enclosure Wallplate with SEN6X v14',(#1537));
#1534=APPLICATION_PROTOCOL_DEFINITION('international standard',
'automotive_design',2009,#1535);
#1535=APPLICATION_CONTEXT(
'Core Data for Automotive Mechanical Design Process');
#1536=PRODUCT_CONTEXT('part definition',#1535,'mechanical');
#1537=PRODUCT('Enclosure Wallplate with SEN6X',
'Enclosure Wallplate with SEN6X v14',$,(#1536));
#1538=PRESENTATION_STYLE_ASSIGNMENT((#1540));
#1539=PRESENTATION_STYLE_ASSIGNMENT((#1541));
#1540=SURFACE_STYLE_USAGE(.BOTH.,#1542);
#1541=SURFACE_STYLE_USAGE(.BOTH.,#1543);
#1542=SURFACE_SIDE_STYLE('',(#1544));
#1543=SURFACE_SIDE_STYLE('',(#1545));
#1544=SURFACE_STYLE_FILL_AREA(#1546);
#1545=SURFACE_STYLE_FILL_AREA(#1547);
#1546=FILL_AREA_STYLE('Steel - Satin',(#1548));
#1547=FILL_AREA_STYLE('Plastic - Matte (White)',(#1549));
#1548=FILL_AREA_STYLE_COLOUR('Steel - Satin',#1550);
#1549=FILL_AREA_STYLE_COLOUR('Plastic - Matte (White)',#1551);
#1550=COLOUR_RGB('Steel - Satin',0.627450980392157,0.627450980392157,0.627450980392157);
#1551=COLOUR_RGB('Plastic - Matte (White)',0.964705882352941,0.964705882352941,
0.952941176470588);
ENDSEC;
END-ISO-10303-21;
