ISO-10303-21;
HEADER;
/* Generated by software containing ST-Developer
 * from STEP Tools, Inc. (www.steptools.com) 
 */

FILE_DESCRIPTION(
/* description */ (''),
/* implementation_level */ '2;1');

FILE_NAME(
/* name */ 
'ESPHome-Indoor-Multi-Sensor-Wallplate-Speaker-Enclosure-Gasket.step',
/* time_stamp */ '2025-09-30T09:05:58-05:00',
/* author */ (''),
/* organization */ (''),
/* preprocessor_version */ 'ST-DEVELOPER v20.1',
/* originating_system */ 'Autodesk Translation Framework v14.17.0.0',
/* authorisation */ '');

FILE_SCHEMA (('AUTOMOTIVE_DESIGN { 1 0 10303 214 3 1 1 }'));
ENDSEC;

DATA;
#10=MECHANICAL_DESIGN_GEOMETRIC_PRESENTATION_REPRESENTATION('',(#13),#702);
#11=SHAPE_REPRESENTATION_RELATIONSHIP('SRR','None',#708,#12);
#12=ADVANCED_BREP_SHAPE_REPRESENTATION('',(#14),#701);
#13=STYLED_ITEM('',(#717),#14);
#14=MANIFOLD_SOLID_BREP('Speaker Enclosure Gasket',#418);
#15=FACE_BOUND('',#77,.T.);
#16=FACE_BOUND('',#78,.T.);
#17=FACE_BOUND('',#79,.T.);
#18=FACE_BOUND('',#94,.T.);
#19=FACE_BOUND('',#95,.T.);
#20=CIRCLE('',#426,0.875);
#21=CIRCLE('',#427,0.875);
#22=CIRCLE('',#429,0.875);
#23=CIRCLE('',#430,0.875);
#24=CIRCLE('',#432,1.99999999999999);
#25=CIRCLE('',#433,1.99999999999998);
#26=CIRCLE('',#434,6.51500000281105);
#27=CIRCLE('',#435,2.00000315773827);
#28=CIRCLE('',#436,1.99999940215251);
#29=CIRCLE('',#437,7.25);
#30=CIRCLE('',#438,2.0000022795536);
#31=CIRCLE('',#441,6.51500000281105);
#32=CIRCLE('',#444,1.99999999999998);
#33=CIRCLE('',#447,1.99999999999999);
#34=CIRCLE('',#450,2.00000227955361);
#35=CIRCLE('',#452,7.25);
#36=CIRCLE('',#455,1.99999940215251);
#37=CIRCLE('',#458,2.00000315773827);
#38=CYLINDRICAL_SURFACE('',#425,0.875);
#39=CYLINDRICAL_SURFACE('',#428,0.875);
#40=CYLINDRICAL_SURFACE('',#440,6.51500000281105);
#41=CYLINDRICAL_SURFACE('',#443,1.99999999999998);
#42=CYLINDRICAL_SURFACE('',#446,1.99999999999999);
#43=CYLINDRICAL_SURFACE('',#449,2.0000022795536);
#44=CYLINDRICAL_SURFACE('',#451,7.25);
#45=CYLINDRICAL_SURFACE('',#454,1.99999940215251);
#46=CYLINDRICAL_SURFACE('',#457,2.00000315773827);
#47=FACE_OUTER_BOUND('',#69,.T.);
#48=FACE_OUTER_BOUND('',#70,.T.);
#49=FACE_OUTER_BOUND('',#71,.T.);
#50=FACE_OUTER_BOUND('',#72,.T.);
#51=FACE_OUTER_BOUND('',#73,.T.);
#52=FACE_OUTER_BOUND('',#74,.T.);
#53=FACE_OUTER_BOUND('',#75,.T.);
#54=FACE_OUTER_BOUND('',#76,.T.);
#55=FACE_OUTER_BOUND('',#80,.T.);
#56=FACE_OUTER_BOUND('',#81,.T.);
#57=FACE_OUTER_BOUND('',#82,.T.);
#58=FACE_OUTER_BOUND('',#83,.T.);
#59=FACE_OUTER_BOUND('',#84,.T.);
#60=FACE_OUTER_BOUND('',#85,.T.);
#61=FACE_OUTER_BOUND('',#86,.T.);
#62=FACE_OUTER_BOUND('',#87,.T.);
#63=FACE_OUTER_BOUND('',#88,.T.);
#64=FACE_OUTER_BOUND('',#89,.T.);
#65=FACE_OUTER_BOUND('',#90,.T.);
#66=FACE_OUTER_BOUND('',#91,.T.);
#67=FACE_OUTER_BOUND('',#92,.T.);
#68=FACE_OUTER_BOUND('',#93,.T.);
#69=EDGE_LOOP('',(#269,#270,#271,#272));
#70=EDGE_LOOP('',(#273,#274,#275,#276));
#71=EDGE_LOOP('',(#277,#278,#279,#280));
#72=EDGE_LOOP('',(#281,#282,#283,#284));
#73=EDGE_LOOP('',(#285,#286,#287,#288));
#74=EDGE_LOOP('',(#289,#290,#291,#292));
#75=EDGE_LOOP('',(#293,#294,#295,#296));
#76=EDGE_LOOP('',(#297,#298,#299,#300,#301,#302,#303,#304,#305,#306,#307,
#308,#309));
#77=EDGE_LOOP('',(#310,#311,#312,#313));
#78=EDGE_LOOP('',(#314));
#79=EDGE_LOOP('',(#315));
#80=EDGE_LOOP('',(#316,#317,#318,#319));
#81=EDGE_LOOP('',(#320,#321,#322,#323));
#82=EDGE_LOOP('',(#324,#325,#326,#327));
#83=EDGE_LOOP('',(#328,#329,#330,#331));
#84=EDGE_LOOP('',(#332,#333,#334,#335));
#85=EDGE_LOOP('',(#336,#337,#338,#339));
#86=EDGE_LOOP('',(#340,#341,#342,#343));
#87=EDGE_LOOP('',(#344,#345,#346,#347));
#88=EDGE_LOOP('',(#348,#349,#350,#351));
#89=EDGE_LOOP('',(#352,#353,#354,#355));
#90=EDGE_LOOP('',(#356,#357,#358,#359));
#91=EDGE_LOOP('',(#360,#361,#362,#363));
#92=EDGE_LOOP('',(#364,#365,#366,#367));
#93=EDGE_LOOP('',(#368,#369,#370,#371,#372,#373,#374,#375,#376,#377,#378,
#379,#380));
#94=EDGE_LOOP('',(#381));
#95=EDGE_LOOP('',(#382));
#96=LINE('',#585,#135);
#97=LINE('',#587,#136);
#98=LINE('',#589,#137);
#99=LINE('',#590,#138);
#100=LINE('',#593,#139);
#101=LINE('',#595,#140);
#102=LINE('',#596,#141);
#103=LINE('',#599,#142);
#104=LINE('',#601,#143);
#105=LINE('',#602,#144);
#106=LINE('',#604,#145);
#107=LINE('',#605,#146);
#108=LINE('',#611,#147);
#109=LINE('',#617,#148);
#110=LINE('',#622,#149);
#111=LINE('',#626,#150);
#112=LINE('',#630,#151);
#113=LINE('',#634,#152);
#114=LINE('',#638,#153);
#115=LINE('',#642,#154);
#116=LINE('',#648,#155);
#117=LINE('',#650,#156);
#118=LINE('',#651,#157);
#119=LINE('',#654,#158);
#120=LINE('',#658,#159);
#121=LINE('',#659,#160);
#122=LINE('',#662,#161);
#123=LINE('',#666,#162);
#124=LINE('',#667,#163);
#125=LINE('',#670,#164);
#126=LINE('',#674,#165);
#127=LINE('',#675,#166);
#128=LINE('',#678,#167);
#129=LINE('',#682,#168);
#130=LINE('',#686,#169);
#131=LINE('',#687,#170);
#132=LINE('',#690,#171);
#133=LINE('',#694,#172);
#134=LINE('',#695,#173);
#135=VECTOR('',#464,10.);
#136=VECTOR('',#465,10.);
#137=VECTOR('',#466,10.);
#138=VECTOR('',#467,10.);
#139=VECTOR('',#470,10.);
#140=VECTOR('',#471,10.);
#141=VECTOR('',#472,10.);
#142=VECTOR('',#475,10.);
#143=VECTOR('',#476,10.);
#144=VECTOR('',#477,10.);
#145=VECTOR('',#480,10.);
#146=VECTOR('',#481,10.);
#147=VECTOR('',#488,0.875);
#148=VECTOR('',#495,0.875);
#149=VECTOR('',#500,10.);
#150=VECTOR('',#503,10.);
#151=VECTOR('',#506,10.);
#152=VECTOR('',#509,10.);
#153=VECTOR('',#512,10.);
#154=VECTOR('',#515,10.);
#155=VECTOR('',#522,10.);
#156=VECTOR('',#523,10.);
#157=VECTOR('',#524,10.);
#158=VECTOR('',#527,10.);
#159=VECTOR('',#532,10.);
#160=VECTOR('',#533,10.);
#161=VECTOR('',#536,10.);
#162=VECTOR('',#541,10.);
#163=VECTOR('',#542,10.);
#164=VECTOR('',#545,10.);
#165=VECTOR('',#550,10.);
#166=VECTOR('',#551,10.);
#167=VECTOR('',#554,10.);
#168=VECTOR('',#559,10.);
#169=VECTOR('',#564,10.);
#170=VECTOR('',#565,10.);
#171=VECTOR('',#568,10.);
#172=VECTOR('',#573,10.);
#173=VECTOR('',#574,10.);
#174=VERTEX_POINT('',#583);
#175=VERTEX_POINT('',#584);
#176=VERTEX_POINT('',#586);
#177=VERTEX_POINT('',#588);
#178=VERTEX_POINT('',#592);
#179=VERTEX_POINT('',#594);
#180=VERTEX_POINT('',#598);
#181=VERTEX_POINT('',#600);
#182=VERTEX_POINT('',#608);
#183=VERTEX_POINT('',#610);
#184=VERTEX_POINT('',#614);
#185=VERTEX_POINT('',#616);
#186=VERTEX_POINT('',#620);
#187=VERTEX_POINT('',#621);
#188=VERTEX_POINT('',#623);
#189=VERTEX_POINT('',#625);
#190=VERTEX_POINT('',#627);
#191=VERTEX_POINT('',#629);
#192=VERTEX_POINT('',#631);
#193=VERTEX_POINT('',#633);
#194=VERTEX_POINT('',#635);
#195=VERTEX_POINT('',#637);
#196=VERTEX_POINT('',#639);
#197=VERTEX_POINT('',#641);
#198=VERTEX_POINT('',#643);
#199=VERTEX_POINT('',#647);
#200=VERTEX_POINT('',#649);
#201=VERTEX_POINT('',#653);
#202=VERTEX_POINT('',#657);
#203=VERTEX_POINT('',#661);
#204=VERTEX_POINT('',#665);
#205=VERTEX_POINT('',#669);
#206=VERTEX_POINT('',#673);
#207=VERTEX_POINT('',#677);
#208=VERTEX_POINT('',#681);
#209=VERTEX_POINT('',#685);
#210=VERTEX_POINT('',#689);
#211=VERTEX_POINT('',#693);
#212=EDGE_CURVE('',#174,#175,#96,.T.);
#213=EDGE_CURVE('',#174,#176,#97,.T.);
#214=EDGE_CURVE('',#177,#176,#98,.T.);
#215=EDGE_CURVE('',#175,#177,#99,.T.);
#216=EDGE_CURVE('',#178,#174,#100,.T.);
#217=EDGE_CURVE('',#178,#179,#101,.T.);
#218=EDGE_CURVE('',#176,#179,#102,.T.);
#219=EDGE_CURVE('',#175,#180,#103,.T.);
#220=EDGE_CURVE('',#181,#177,#104,.T.);
#221=EDGE_CURVE('',#180,#181,#105,.T.);
#222=EDGE_CURVE('',#180,#178,#106,.T.);
#223=EDGE_CURVE('',#179,#181,#107,.T.);
#224=EDGE_CURVE('',#182,#182,#20,.T.);
#225=EDGE_CURVE('',#182,#183,#108,.T.);
#226=EDGE_CURVE('',#183,#183,#21,.T.);
#227=EDGE_CURVE('',#184,#184,#22,.T.);
#228=EDGE_CURVE('',#184,#185,#109,.T.);
#229=EDGE_CURVE('',#185,#185,#23,.T.);
#230=EDGE_CURVE('',#186,#187,#110,.T.);
#231=EDGE_CURVE('',#188,#186,#24,.T.);
#232=EDGE_CURVE('',#189,#188,#111,.T.);
#233=EDGE_CURVE('',#190,#189,#25,.T.);
#234=EDGE_CURVE('',#191,#190,#112,.T.);
#235=EDGE_CURVE('',#192,#191,#26,.T.);
#236=EDGE_CURVE('',#193,#192,#113,.T.);
#237=EDGE_CURVE('',#194,#193,#27,.T.);
#238=EDGE_CURVE('',#195,#194,#114,.T.);
#239=EDGE_CURVE('',#196,#195,#28,.T.);
#240=EDGE_CURVE('',#197,#196,#115,.T.);
#241=EDGE_CURVE('',#198,#197,#29,.T.);
#242=EDGE_CURVE('',#187,#198,#30,.T.);
#243=EDGE_CURVE('',#199,#192,#116,.T.);
#244=EDGE_CURVE('',#200,#199,#117,.T.);
#245=EDGE_CURVE('',#200,#193,#118,.T.);
#246=EDGE_CURVE('',#201,#191,#119,.T.);
#247=EDGE_CURVE('',#199,#201,#31,.T.);
#248=EDGE_CURVE('',#202,#190,#120,.T.);
#249=EDGE_CURVE('',#201,#202,#121,.T.);
#250=EDGE_CURVE('',#203,#189,#122,.T.);
#251=EDGE_CURVE('',#203,#202,#32,.T.);
#252=EDGE_CURVE('',#204,#188,#123,.T.);
#253=EDGE_CURVE('',#204,#203,#124,.T.);
#254=EDGE_CURVE('',#205,#186,#125,.T.);
#255=EDGE_CURVE('',#205,#204,#33,.T.);
#256=EDGE_CURVE('',#206,#187,#126,.T.);
#257=EDGE_CURVE('',#205,#206,#127,.T.);
#258=EDGE_CURVE('',#207,#198,#128,.T.);
#259=EDGE_CURVE('',#207,#206,#34,.T.);
#260=EDGE_CURVE('',#208,#197,#129,.T.);
#261=EDGE_CURVE('',#207,#208,#35,.T.);
#262=EDGE_CURVE('',#209,#196,#130,.T.);
#263=EDGE_CURVE('',#209,#208,#131,.T.);
#264=EDGE_CURVE('',#210,#195,#132,.T.);
#265=EDGE_CURVE('',#210,#209,#36,.T.);
#266=EDGE_CURVE('',#211,#194,#133,.T.);
#267=EDGE_CURVE('',#211,#210,#134,.T.);
#268=EDGE_CURVE('',#200,#211,#37,.T.);
#269=ORIENTED_EDGE('',*,*,#212,.F.);
#270=ORIENTED_EDGE('',*,*,#213,.T.);
#271=ORIENTED_EDGE('',*,*,#214,.F.);
#272=ORIENTED_EDGE('',*,*,#215,.F.);
#273=ORIENTED_EDGE('',*,*,#216,.F.);
#274=ORIENTED_EDGE('',*,*,#217,.T.);
#275=ORIENTED_EDGE('',*,*,#218,.F.);
#276=ORIENTED_EDGE('',*,*,#213,.F.);
#277=ORIENTED_EDGE('',*,*,#219,.F.);
#278=ORIENTED_EDGE('',*,*,#215,.T.);
#279=ORIENTED_EDGE('',*,*,#220,.F.);
#280=ORIENTED_EDGE('',*,*,#221,.F.);
#281=ORIENTED_EDGE('',*,*,#222,.F.);
#282=ORIENTED_EDGE('',*,*,#221,.T.);
#283=ORIENTED_EDGE('',*,*,#223,.F.);
#284=ORIENTED_EDGE('',*,*,#217,.F.);
#285=ORIENTED_EDGE('',*,*,#223,.T.);
#286=ORIENTED_EDGE('',*,*,#220,.T.);
#287=ORIENTED_EDGE('',*,*,#214,.T.);
#288=ORIENTED_EDGE('',*,*,#218,.T.);
#289=ORIENTED_EDGE('',*,*,#224,.F.);
#290=ORIENTED_EDGE('',*,*,#225,.T.);
#291=ORIENTED_EDGE('',*,*,#226,.F.);
#292=ORIENTED_EDGE('',*,*,#225,.F.);
#293=ORIENTED_EDGE('',*,*,#227,.F.);
#294=ORIENTED_EDGE('',*,*,#228,.T.);
#295=ORIENTED_EDGE('',*,*,#229,.F.);
#296=ORIENTED_EDGE('',*,*,#228,.F.);
#297=ORIENTED_EDGE('',*,*,#230,.F.);
#298=ORIENTED_EDGE('',*,*,#231,.F.);
#299=ORIENTED_EDGE('',*,*,#232,.F.);
#300=ORIENTED_EDGE('',*,*,#233,.F.);
#301=ORIENTED_EDGE('',*,*,#234,.F.);
#302=ORIENTED_EDGE('',*,*,#235,.F.);
#303=ORIENTED_EDGE('',*,*,#236,.F.);
#304=ORIENTED_EDGE('',*,*,#237,.F.);
#305=ORIENTED_EDGE('',*,*,#238,.F.);
#306=ORIENTED_EDGE('',*,*,#239,.F.);
#307=ORIENTED_EDGE('',*,*,#240,.F.);
#308=ORIENTED_EDGE('',*,*,#241,.F.);
#309=ORIENTED_EDGE('',*,*,#242,.F.);
#310=ORIENTED_EDGE('',*,*,#216,.T.);
#311=ORIENTED_EDGE('',*,*,#212,.T.);
#312=ORIENTED_EDGE('',*,*,#219,.T.);
#313=ORIENTED_EDGE('',*,*,#222,.T.);
#314=ORIENTED_EDGE('',*,*,#226,.T.);
#315=ORIENTED_EDGE('',*,*,#229,.T.);
#316=ORIENTED_EDGE('',*,*,#236,.T.);
#317=ORIENTED_EDGE('',*,*,#243,.F.);
#318=ORIENTED_EDGE('',*,*,#244,.F.);
#319=ORIENTED_EDGE('',*,*,#245,.T.);
#320=ORIENTED_EDGE('',*,*,#235,.T.);
#321=ORIENTED_EDGE('',*,*,#246,.F.);
#322=ORIENTED_EDGE('',*,*,#247,.F.);
#323=ORIENTED_EDGE('',*,*,#243,.T.);
#324=ORIENTED_EDGE('',*,*,#234,.T.);
#325=ORIENTED_EDGE('',*,*,#248,.F.);
#326=ORIENTED_EDGE('',*,*,#249,.F.);
#327=ORIENTED_EDGE('',*,*,#246,.T.);
#328=ORIENTED_EDGE('',*,*,#233,.T.);
#329=ORIENTED_EDGE('',*,*,#250,.F.);
#330=ORIENTED_EDGE('',*,*,#251,.T.);
#331=ORIENTED_EDGE('',*,*,#248,.T.);
#332=ORIENTED_EDGE('',*,*,#232,.T.);
#333=ORIENTED_EDGE('',*,*,#252,.F.);
#334=ORIENTED_EDGE('',*,*,#253,.T.);
#335=ORIENTED_EDGE('',*,*,#250,.T.);
#336=ORIENTED_EDGE('',*,*,#231,.T.);
#337=ORIENTED_EDGE('',*,*,#254,.F.);
#338=ORIENTED_EDGE('',*,*,#255,.T.);
#339=ORIENTED_EDGE('',*,*,#252,.T.);
#340=ORIENTED_EDGE('',*,*,#230,.T.);
#341=ORIENTED_EDGE('',*,*,#256,.F.);
#342=ORIENTED_EDGE('',*,*,#257,.F.);
#343=ORIENTED_EDGE('',*,*,#254,.T.);
#344=ORIENTED_EDGE('',*,*,#242,.T.);
#345=ORIENTED_EDGE('',*,*,#258,.F.);
#346=ORIENTED_EDGE('',*,*,#259,.T.);
#347=ORIENTED_EDGE('',*,*,#256,.T.);
#348=ORIENTED_EDGE('',*,*,#241,.T.);
#349=ORIENTED_EDGE('',*,*,#260,.F.);
#350=ORIENTED_EDGE('',*,*,#261,.F.);
#351=ORIENTED_EDGE('',*,*,#258,.T.);
#352=ORIENTED_EDGE('',*,*,#240,.T.);
#353=ORIENTED_EDGE('',*,*,#262,.F.);
#354=ORIENTED_EDGE('',*,*,#263,.T.);
#355=ORIENTED_EDGE('',*,*,#260,.T.);
#356=ORIENTED_EDGE('',*,*,#239,.T.);
#357=ORIENTED_EDGE('',*,*,#264,.F.);
#358=ORIENTED_EDGE('',*,*,#265,.T.);
#359=ORIENTED_EDGE('',*,*,#262,.T.);
#360=ORIENTED_EDGE('',*,*,#238,.T.);
#361=ORIENTED_EDGE('',*,*,#266,.F.);
#362=ORIENTED_EDGE('',*,*,#267,.T.);
#363=ORIENTED_EDGE('',*,*,#264,.T.);
#364=ORIENTED_EDGE('',*,*,#237,.T.);
#365=ORIENTED_EDGE('',*,*,#245,.F.);
#366=ORIENTED_EDGE('',*,*,#268,.T.);
#367=ORIENTED_EDGE('',*,*,#266,.T.);
#368=ORIENTED_EDGE('',*,*,#255,.F.);
#369=ORIENTED_EDGE('',*,*,#257,.T.);
#370=ORIENTED_EDGE('',*,*,#259,.F.);
#371=ORIENTED_EDGE('',*,*,#261,.T.);
#372=ORIENTED_EDGE('',*,*,#263,.F.);
#373=ORIENTED_EDGE('',*,*,#265,.F.);
#374=ORIENTED_EDGE('',*,*,#267,.F.);
#375=ORIENTED_EDGE('',*,*,#268,.F.);
#376=ORIENTED_EDGE('',*,*,#244,.T.);
#377=ORIENTED_EDGE('',*,*,#247,.T.);
#378=ORIENTED_EDGE('',*,*,#249,.T.);
#379=ORIENTED_EDGE('',*,*,#251,.F.);
#380=ORIENTED_EDGE('',*,*,#253,.F.);
#381=ORIENTED_EDGE('',*,*,#224,.T.);
#382=ORIENTED_EDGE('',*,*,#227,.T.);
#383=PLANE('',#420);
#384=PLANE('',#421);
#385=PLANE('',#422);
#386=PLANE('',#423);
#387=PLANE('',#424);
#388=PLANE('',#431);
#389=PLANE('',#439);
#390=PLANE('',#442);
#391=PLANE('',#445);
#392=PLANE('',#448);
#393=PLANE('',#453);
#394=PLANE('',#456);
#395=PLANE('',#459);
#396=ADVANCED_FACE('',(#47),#383,.T.);
#397=ADVANCED_FACE('',(#48),#384,.T.);
#398=ADVANCED_FACE('',(#49),#385,.T.);
#399=ADVANCED_FACE('',(#50),#386,.T.);
#400=ADVANCED_FACE('',(#51),#387,.T.);
#401=ADVANCED_FACE('',(#52),#38,.F.);
#402=ADVANCED_FACE('',(#53),#39,.F.);
#403=ADVANCED_FACE('',(#54,#15,#16,#17),#388,.F.);
#404=ADVANCED_FACE('',(#55),#389,.T.);
#405=ADVANCED_FACE('',(#56),#40,.F.);
#406=ADVANCED_FACE('',(#57),#390,.T.);
#407=ADVANCED_FACE('',(#58),#41,.T.);
#408=ADVANCED_FACE('',(#59),#391,.T.);
#409=ADVANCED_FACE('',(#60),#42,.T.);
#410=ADVANCED_FACE('',(#61),#392,.T.);
#411=ADVANCED_FACE('',(#62),#43,.T.);
#412=ADVANCED_FACE('',(#63),#44,.F.);
#413=ADVANCED_FACE('',(#64),#393,.T.);
#414=ADVANCED_FACE('',(#65),#45,.T.);
#415=ADVANCED_FACE('',(#66),#394,.T.);
#416=ADVANCED_FACE('',(#67),#46,.T.);
#417=ADVANCED_FACE('',(#68,#18,#19),#395,.F.);
#418=CLOSED_SHELL('',(#396,#397,#398,#399,#400,#401,#402,#403,#404,#405,
#406,#407,#408,#409,#410,#411,#412,#413,#414,#415,#416,#417));
#419=AXIS2_PLACEMENT_3D('',#581,#460,#461);
#420=AXIS2_PLACEMENT_3D('',#582,#462,#463);
#421=AXIS2_PLACEMENT_3D('',#591,#468,#469);
#422=AXIS2_PLACEMENT_3D('',#597,#473,#474);
#423=AXIS2_PLACEMENT_3D('',#603,#478,#479);
#424=AXIS2_PLACEMENT_3D('',#606,#482,#483);
#425=AXIS2_PLACEMENT_3D('',#607,#484,#485);
#426=AXIS2_PLACEMENT_3D('',#609,#486,#487);
#427=AXIS2_PLACEMENT_3D('',#612,#489,#490);
#428=AXIS2_PLACEMENT_3D('',#613,#491,#492);
#429=AXIS2_PLACEMENT_3D('',#615,#493,#494);
#430=AXIS2_PLACEMENT_3D('',#618,#496,#497);
#431=AXIS2_PLACEMENT_3D('',#619,#498,#499);
#432=AXIS2_PLACEMENT_3D('',#624,#501,#502);
#433=AXIS2_PLACEMENT_3D('',#628,#504,#505);
#434=AXIS2_PLACEMENT_3D('',#632,#507,#508);
#435=AXIS2_PLACEMENT_3D('',#636,#510,#511);
#436=AXIS2_PLACEMENT_3D('',#640,#513,#514);
#437=AXIS2_PLACEMENT_3D('',#644,#516,#517);
#438=AXIS2_PLACEMENT_3D('',#645,#518,#519);
#439=AXIS2_PLACEMENT_3D('',#646,#520,#521);
#440=AXIS2_PLACEMENT_3D('',#652,#525,#526);
#441=AXIS2_PLACEMENT_3D('',#655,#528,#529);
#442=AXIS2_PLACEMENT_3D('',#656,#530,#531);
#443=AXIS2_PLACEMENT_3D('',#660,#534,#535);
#444=AXIS2_PLACEMENT_3D('',#663,#537,#538);
#445=AXIS2_PLACEMENT_3D('',#664,#539,#540);
#446=AXIS2_PLACEMENT_3D('',#668,#543,#544);
#447=AXIS2_PLACEMENT_3D('',#671,#546,#547);
#448=AXIS2_PLACEMENT_3D('',#672,#548,#549);
#449=AXIS2_PLACEMENT_3D('',#676,#552,#553);
#450=AXIS2_PLACEMENT_3D('',#679,#555,#556);
#451=AXIS2_PLACEMENT_3D('',#680,#557,#558);
#452=AXIS2_PLACEMENT_3D('',#683,#560,#561);
#453=AXIS2_PLACEMENT_3D('',#684,#562,#563);
#454=AXIS2_PLACEMENT_3D('',#688,#566,#567);
#455=AXIS2_PLACEMENT_3D('',#691,#569,#570);
#456=AXIS2_PLACEMENT_3D('',#692,#571,#572);
#457=AXIS2_PLACEMENT_3D('',#696,#575,#576);
#458=AXIS2_PLACEMENT_3D('',#697,#577,#578);
#459=AXIS2_PLACEMENT_3D('',#698,#579,#580);
#460=DIRECTION('axis',(0.,0.,1.));
#461=DIRECTION('refdir',(1.,0.,0.));
#462=DIRECTION('center_axis',(1.29649218865304E-12,-1.29649218865305E-12,
1.));
#463=DIRECTION('ref_axis',(-0.707106781186547,0.707106781186548,1.83351683670392E-12));
#464=DIRECTION('',(0.707106781186547,-0.707106781186548,-1.83351683670392E-12));
#465=DIRECTION('',(-0.707106781186551,-0.707106781186544,0.));
#466=DIRECTION('',(-0.707106781186547,0.707106781186548,1.83351683670392E-12));
#467=DIRECTION('',(-0.707106781186551,-0.707106781186544,0.));
#468=DIRECTION('center_axis',(-0.707106781186544,0.707106781186551,-2.24484259527339E-14));
#469=DIRECTION('ref_axis',(1.55128921016404E-14,-1.6233976334644E-14,-1.));
#470=DIRECTION('',(-1.55128921016404E-14,1.6233976334644E-14,1.));
#471=DIRECTION('',(-0.707106781186551,-0.707106781186544,0.));
#472=DIRECTION('',(1.55128921016404E-14,-1.6233976334644E-14,-1.));
#473=DIRECTION('center_axis',(0.707106781186544,-0.707106781186551,-1.51282870551648E-14));
#474=DIRECTION('ref_axis',(1.10578564809455E-14,-1.03367722479419E-14,1.));
#475=DIRECTION('',(-1.10578564809455E-14,1.03367722479419E-14,-1.));
#476=DIRECTION('',(1.10578564809455E-14,-1.03367722479419E-14,1.));
#477=DIRECTION('',(-0.707106781186551,-0.707106781186544,0.));
#478=DIRECTION('center_axis',(5.03585357893631E-32,-5.03585357893636E-32,
-1.));
#479=DIRECTION('ref_axis',(0.707106781186547,-0.707106781186548,7.12177242945685E-32));
#480=DIRECTION('',(-0.707106781186547,0.707106781186548,-7.12177242945685E-32));
#481=DIRECTION('',(0.707106781186547,-0.707106781186548,7.12177242945685E-32));
#482=DIRECTION('center_axis',(-0.707106781186551,-0.707106781186544,0.));
#483=DIRECTION('ref_axis',(0.,0.,1.));
#484=DIRECTION('center_axis',(-0.707106781186549,-0.707106781186546,0.));
#485=DIRECTION('ref_axis',(0.707106781186546,-0.707106781186549,7.12177242945685E-32));
#486=DIRECTION('center_axis',(-0.707106781186548,-0.707106781186547,5.09883550963504E-16));
#487=DIRECTION('ref_axis',(0.707106781186546,-0.707106781186549,7.12177242945685E-32));
#488=DIRECTION('',(-0.707106781186549,-0.707106781186546,0.));
#489=DIRECTION('center_axis',(0.707106781186548,0.707106781186547,-5.09883550963504E-16));
#490=DIRECTION('ref_axis',(0.707106781186546,-0.707106781186549,7.12177242945685E-32));
#491=DIRECTION('center_axis',(-0.707106781186548,-0.707106781186548,0.));
#492=DIRECTION('ref_axis',(0.707106781186548,-0.707106781186547,7.12177242945685E-32));
#493=DIRECTION('center_axis',(-0.707106781186548,-0.707106781186547,5.09883550963504E-16));
#494=DIRECTION('ref_axis',(0.707106781186548,-0.707106781186547,7.12177242945685E-32));
#495=DIRECTION('',(-0.707106781186548,-0.707106781186548,0.));
#496=DIRECTION('center_axis',(0.707106781186548,0.707106781186547,-5.09883550963504E-16));
#497=DIRECTION('ref_axis',(0.707106781186548,-0.707106781186547,7.12177242945685E-32));
#498=DIRECTION('center_axis',(0.707106781186548,0.707106781186547,-5.09883550963504E-16));
#499=DIRECTION('ref_axis',(-7.21084233003541E-16,0.,-1.));
#500=DIRECTION('',(0.707106781186547,-0.707106781186548,-9.23015971989498E-9));
#501=DIRECTION('center_axis',(0.707106781186548,0.707106781186547,-5.09883550963504E-16));
#502=DIRECTION('ref_axis',(6.52671027608654E-9,-6.52671027608655E-9,1.));
#503=DIRECTION('',(7.29226974751397E-6,-7.29226974679288E-6,0.999999999946823));
#504=DIRECTION('center_axis',(0.707106781186548,0.707106781186547,-5.09883550963504E-16));
#505=DIRECTION('ref_axis',(-0.707106781148945,0.707106781148946,1.03128267769926E-5));
#506=DIRECTION('',(-0.707106781186547,0.707106781186548,1.50490088038131E-31));
#507=DIRECTION('center_axis',(-0.707106781186548,-0.707106781186547,5.09883550963504E-16));
#508=DIRECTION('ref_axis',(0.706336601534568,-0.706336601534569,0.0466605900647676));
#509=DIRECTION('',(-0.707106781186547,0.707106781186548,-7.12243590354485E-32));
#510=DIRECTION('center_axis',(0.707106781186548,0.707106781186547,-5.09883550963504E-16));
#511=DIRECTION('ref_axis',(1.23259321830444E-31,-1.23259321830444E-31,-1.));
#512=DIRECTION('',(-6.5267103526247E-9,6.52670963154047E-9,-1.));
#513=DIRECTION('center_axis',(0.707106781186548,0.707106781186547,-5.09883550963504E-16));
#514=DIRECTION('ref_axis',(0.707106781186547,-0.707106781186548,-9.23016161856681E-9));
#515=DIRECTION('',(0.707106781186547,-0.707106781186548,-3.34113424329923E-9));
#516=DIRECTION('center_axis',(-0.707106781186548,-0.707106781186547,5.09883550963504E-16));
#517=DIRECTION('ref_axis',(-0.697747496886681,0.697747496886682,-0.162163069706823));
#518=DIRECTION('center_axis',(0.707106781186548,0.707106781186547,-5.09883550963504E-16));
#519=DIRECTION('ref_axis',(0.69774749688668,-0.697747496886681,0.162163069706833));
#520=DIRECTION('center_axis',(5.03632272596309E-32,-5.0363227259631E-32,
-1.));
#521=DIRECTION('ref_axis',(0.707106781186547,-0.707106781186548,7.12243590354485E-32));
#522=DIRECTION('',(-0.707106781186548,-0.707106781186547,0.));
#523=DIRECTION('',(-0.707106781186547,0.707106781186548,-7.12243590354485E-32));
#524=DIRECTION('',(-0.707106781186548,-0.707106781186547,0.));
#525=DIRECTION('center_axis',(-0.707106781186548,-0.707106781186547,0.));
#526=DIRECTION('ref_axis',(0.706336601534568,-0.706336601534569,0.0466605900647676));
#527=DIRECTION('',(-0.707106781186548,-0.707106781186547,0.));
#528=DIRECTION('center_axis',(-0.707106781186548,-0.707106781186547,5.09883550963504E-16));
#529=DIRECTION('ref_axis',(0.706336601534568,-0.706336601534569,0.0466605900647676));
#530=DIRECTION('center_axis',(-1.06412561753123E-31,1.06412561753123E-31,
-1.));
#531=DIRECTION('ref_axis',(0.707106781186548,-0.707106781186547,-1.50490088038131E-31));
#532=DIRECTION('',(-0.707106781186548,-0.707106781186547,0.));
#533=DIRECTION('',(-0.707106781186548,0.707106781186547,1.50490088038131E-31));
#534=DIRECTION('center_axis',(-0.707106781186548,-0.707106781186547,0.));
#535=DIRECTION('ref_axis',(-0.707106781148945,0.707106781148946,1.03128267769926E-5));
#536=DIRECTION('',(-0.707106781186548,-0.707106781186547,0.));
#537=DIRECTION('center_axis',(-0.707106781186547,-0.707106781186548,5.09879066735099E-16));
#538=DIRECTION('ref_axis',(-0.707106781148946,0.707106781148946,1.03128267769926E-5));
#539=DIRECTION('center_axis',(-0.707106781148945,0.707106781148946,1.03128267769074E-5));
#540=DIRECTION('ref_axis',(-7.29226974751397E-6,7.29226974679289E-6,-0.999999999946823));
#541=DIRECTION('',(-0.707106781186548,-0.707106781186547,0.));
#542=DIRECTION('',(-7.29226974751397E-6,7.29226974679289E-6,-0.999999999946823));
#543=DIRECTION('center_axis',(-0.707106781186548,-0.707106781186547,0.));
#544=DIRECTION('ref_axis',(6.52671027608654E-9,-6.52671027608655E-9,1.));
#545=DIRECTION('',(-0.707106781186548,-0.707106781186547,0.));
#546=DIRECTION('center_axis',(-0.707106781186548,-0.707106781186547,5.09883550963503E-16));
#547=DIRECTION('ref_axis',(6.52671063662866E-9,-6.52670991554443E-9,1.));
#548=DIRECTION('center_axis',(6.52670852937266E-9,-6.52670852937266E-9,
1.));
#549=DIRECTION('ref_axis',(-0.707106781186547,0.707106781186548,9.23015971989497E-9));
#550=DIRECTION('',(-0.707106781186548,-0.707106781186547,0.));
#551=DIRECTION('',(0.707106781186547,-0.707106781186548,-9.23015971989497E-9));
#552=DIRECTION('center_axis',(-0.707106781186548,-0.707106781186547,0.));
#553=DIRECTION('ref_axis',(0.69774749688668,-0.697747496886681,0.162163069706833));
#554=DIRECTION('',(-0.707106781186548,-0.707106781186547,0.));
#555=DIRECTION('center_axis',(-0.707106781186548,-0.707106781186547,5.09888731536719E-16));
#556=DIRECTION('ref_axis',(0.69774749688668,-0.697747496886681,0.162163069706833));
#557=DIRECTION('center_axis',(-0.707106781186548,-0.707106781186547,0.));
#558=DIRECTION('ref_axis',(-0.697747496886681,0.697747496886682,-0.162163069706823));
#559=DIRECTION('',(-0.707106781186548,-0.707106781186547,0.));
#560=DIRECTION('center_axis',(-0.707106781186548,-0.707106781186547,5.09889085995939E-16));
#561=DIRECTION('ref_axis',(-0.697747496886682,0.697747496886682,-0.162163069706823));
#562=DIRECTION('center_axis',(2.36253868029147E-9,-2.36253868029147E-9,
1.));
#563=DIRECTION('ref_axis',(-0.707106781186547,0.707106781186548,3.34113424329923E-9));
#564=DIRECTION('',(-0.707106781186548,-0.707106781186547,0.));
#565=DIRECTION('',(-0.707106781186547,0.707106781186548,3.34113424329923E-9));
#566=DIRECTION('center_axis',(-0.707106781186548,-0.707106781186547,0.));
#567=DIRECTION('ref_axis',(0.707106781186547,-0.707106781186548,-9.23016161856681E-9));
#568=DIRECTION('',(-0.707106781186548,-0.707106781186547,0.));
#569=DIRECTION('center_axis',(-0.707106781186548,-0.707106781186547,5.09885460766455E-16));
#570=DIRECTION('ref_axis',(0.707106781186547,-0.707106781186548,-9.23016161856681E-9));
#571=DIRECTION('center_axis',(0.707106781186547,-0.707106781186548,-9.23016178847919E-9));
#572=DIRECTION('ref_axis',(6.52671035262605E-9,-6.52670963153912E-9,1.));
#573=DIRECTION('',(-0.707106781186548,-0.707106781186547,0.));
#574=DIRECTION('',(6.52671035262605E-9,-6.52670963153912E-9,1.));
#575=DIRECTION('center_axis',(-0.707106781186548,-0.707106781186547,0.));
#576=DIRECTION('ref_axis',(1.23259321830444E-31,-1.23259321830444E-31,-1.));
#577=DIRECTION('center_axis',(-0.707106781186548,-0.707106781186547,5.09896563875346E-16));
#578=DIRECTION('ref_axis',(-3.60551318019977E-16,-3.60551318019977E-16,
-1.));
#579=DIRECTION('center_axis',(-0.707106781186548,-0.707106781186547,5.09883550963504E-16));
#580=DIRECTION('ref_axis',(0.707106781186547,-0.707106781186548,7.12177242945685E-32));
#581=CARTESIAN_POINT('',(0.,0.,0.));
#582=CARTESIAN_POINT('Origin',(-31.409683220338,-45.6932402002432,42.2500035604933));
#583=CARTESIAN_POINT('',(-45.9760829128102,-31.6925259327202,42.2500035605303));
#584=CARTESIAN_POINT('',(-31.6925259328126,-45.9760829127178,42.2500035604933));
#585=CARTESIAN_POINT('',(-34.1853004922995,-43.4833083532309,42.2500035604998));
#586=CARTESIAN_POINT('',(-46.1882149471662,-31.9046579670762,42.2500035605303));
#587=CARTESIAN_POINT('',(-45.6932402003356,-31.4096832202456,42.2500035605303));
#588=CARTESIAN_POINT('',(-31.9046579671686,-46.1882149470738,42.2500035604933));
#589=CARTESIAN_POINT('',(-31.9046579671686,-46.1882149470738,42.2500035604933));
#590=CARTESIAN_POINT('',(-31.409683220338,-45.6932402002432,42.2500035604933));
#591=CARTESIAN_POINT('Origin',(-45.6932402003356,-31.4096832202456,42.2500035605303));
#592=CARTESIAN_POINT('',(-45.9760829128101,-31.6925259327203,33.1499875076832));
#593=CARTESIAN_POINT('',(-45.9760829128102,-31.6925259327202,39.9749986644224));
#594=CARTESIAN_POINT('',(-46.188214947166,-31.9046579670763,33.1499875076832));
#595=CARTESIAN_POINT('',(-45.6932402003354,-31.4096832202457,33.1499875076832));
#596=CARTESIAN_POINT('',(-46.1882149471662,-31.9046579670762,42.2500035605303));
#597=CARTESIAN_POINT('Origin',(-31.4096832203381,-45.6932402002431,33.1499875076832));
#598=CARTESIAN_POINT('',(-31.6925259328127,-45.9760829127177,33.1499875076832));
#599=CARTESIAN_POINT('',(-31.6925259328127,-45.9760829127177,35.4249906379989));
#600=CARTESIAN_POINT('',(-31.9046579671687,-46.1882149470737,33.1499875076832));
#601=CARTESIAN_POINT('',(-31.9046579671687,-46.1882149470737,33.1499875076832));
#602=CARTESIAN_POINT('',(-31.4096832203381,-45.6932402002431,33.1499875076832));
#603=CARTESIAN_POINT('Origin',(-45.6932402003354,-31.4096832202457,33.1499875076832));
#604=CARTESIAN_POINT('',(-41.3270789823012,-36.3415298632292,33.1499875076832));
#605=CARTESIAN_POINT('',(-46.188214947166,-31.9046579670763,33.1499875076832));
#606=CARTESIAN_POINT('Origin',(-39.0464364571674,-39.046436457075,37.6999955341068));
#607=CARTESIAN_POINT('Origin',(-35.5816132293071,-41.521310191274,52.5));
#608=CARTESIAN_POINT('',(-36.2003316628454,-40.9025917577358,52.5));
#609=CARTESIAN_POINT('Origin',(-35.5816132293071,-41.521310191274,52.5));
#610=CARTESIAN_POINT('',(-36.48317437532,-41.1854344702104,52.5));
#611=CARTESIAN_POINT('',(-36.2003316628454,-40.9025917577358,52.5));
#612=CARTESIAN_POINT('Origin',(-35.8644559417818,-41.8041529037487,52.5));
#613=CARTESIAN_POINT('Origin',(-36.995827498787,-40.1070959217942,52.5));
#614=CARTESIAN_POINT('',(-37.6145459323252,-39.4883774882559,52.5));
#615=CARTESIAN_POINT('Origin',(-36.995827498787,-40.1070959217942,52.5));
#616=CARTESIAN_POINT('',(-37.8973886447998,-39.7712202007306,52.5));
#617=CARTESIAN_POINT('',(-37.6145459323252,-39.4883774882559,52.5));
#618=CARTESIAN_POINT('Origin',(-37.2786702112616,-40.3899386342688,52.5));
#619=CARTESIAN_POINT('Origin',(-36.6780750517923,-40.9905337937381,37.6999937683147));
#620=CARTESIAN_POINT('',(-51.6689451936858,-25.9996636518446,56.1999937922264));
#621=CARTESIAN_POINT('',(-30.4392279415489,-47.2293809039815,56.1999935151061));
#622=CARTESIAN_POINT('',(-33.5586514362986,-44.1099574092318,56.1999935558252));
#623=CARTESIAN_POINT('',(-53.0831587690371,-24.5854500764932,54.20001441788));
#624=CARTESIAN_POINT('Origin',(-51.6689452067393,-25.9996636387911,54.1999937922264));
#625=CARTESIAN_POINT('',(-53.0833994139392,-24.5852094315912,21.2000143700566));
#626=CARTESIAN_POINT('',(-53.0832189294655,-24.5853899160649,45.9501237242705));
#627=CARTESIAN_POINT('',(-51.6691858516413,-25.9994229938891,19.1999937444031));
#628=CARTESIAN_POINT('Origin',(-51.6691858516413,-25.9994229938891,21.1999937444031));
#629=CARTESIAN_POINT('',(-43.4360873837485,-34.2325214617819,19.1999937444031));
#630=CARTESIAN_POINT('',(-44.1736304517168,-33.4949783938136,19.1999937444031));
#631=CARTESIAN_POINT('',(-34.232521461782,-43.4360873837484,19.1999937444031));
#632=CARTESIAN_POINT('Origin',(-38.8343044227653,-38.8343044227651,18.896));
#633=CARTESIAN_POINT('',(-21.686966649601,-55.9816421959295,19.1999937444031));
#634=CARTESIAN_POINT('',(-35.4552982567872,-42.2133105887433,19.1999937444031));
#635=CARTESIAN_POINT('',(-20.2727508543697,-57.3958579911607,21.199996883681));
#636=CARTESIAN_POINT('Origin',(-21.686966649601,-55.9816421959295,21.1999969021413));
#637=CARTESIAN_POINT('',(-20.2727506895703,-57.3958581559601,46.4500005384062));
#638=CARTESIAN_POINT('',(-20.2727508005244,-57.395858045006,29.4499952189251));
#639=CARTESIAN_POINT('',(-21.6869638292013,-55.9816450163291,48.4499999590191));
#640=CARTESIAN_POINT('Origin',(-21.6869638292014,-55.9816450163291,46.4500005568666));
#641=CARTESIAN_POINT('',(-23.9850620178478,-53.6835468276826,48.45));
#642=CARTESIAN_POINT('',(-29.1825194277982,-48.4860894177322,48.4500000245584));
#643=CARTESIAN_POINT('',(-29.0437313702762,-48.6248774752542,54.5243177446255));
#644=CARTESIAN_POINT('Origin',(-23.9850620178478,-53.6835468276827,55.7));
#645=CARTESIAN_POINT('Origin',(-30.4392279546024,-47.229380890928,54.1999912355524));
#646=CARTESIAN_POINT('Origin',(-33.9496787493074,-43.1532446712738,19.1999937444031));
#647=CARTESIAN_POINT('',(-33.9496787493074,-43.1532446712738,19.1999937444031));
#648=CARTESIAN_POINT('',(-33.9496787493074,-43.1532446712738,19.1999937444031));
#649=CARTESIAN_POINT('',(-21.4041239371263,-55.6987994834548,19.1999937444031));
#650=CARTESIAN_POINT('',(-21.4041239371263,-55.6987994834548,19.1999937444031));
#651=CARTESIAN_POINT('',(-21.4041239371263,-55.6987994834548,19.1999937444031));
#652=CARTESIAN_POINT('Origin',(-38.5514617102906,-38.5514617102905,18.896));
#653=CARTESIAN_POINT('',(-43.1532446712739,-33.9496787493073,19.1999937444031));
#654=CARTESIAN_POINT('',(-43.1532446712739,-33.9496787493073,19.1999937444031));
#655=CARTESIAN_POINT('Origin',(-38.5514617102906,-38.5514617102905,18.896));
#656=CARTESIAN_POINT('Origin',(-51.3863431391667,-25.7165802814145,19.1999937444031));
#657=CARTESIAN_POINT('',(-51.3863431391667,-25.7165802814145,19.1999937444031));
#658=CARTESIAN_POINT('',(-51.3863431391667,-25.7165802814145,19.1999937444031));
#659=CARTESIAN_POINT('',(-43.1532446712739,-33.9496787493073,19.1999937444031));
#660=CARTESIAN_POINT('Origin',(-51.3863431391667,-25.7165802814145,21.1999937444031));
#661=CARTESIAN_POINT('',(-52.8005567014645,-24.3023667191166,21.2000143700566));
#662=CARTESIAN_POINT('',(-52.8005567014645,-24.3023667191166,21.2000143700566));
#663=CARTESIAN_POINT('Origin',(-51.3863431391667,-25.7165802814145,21.1999937444031));
#664=CARTESIAN_POINT('Origin',(-52.8003160565625,-24.3026073640186,54.20001441788));
#665=CARTESIAN_POINT('',(-52.8003160565625,-24.3026073640186,54.20001441788));
#666=CARTESIAN_POINT('',(-52.8003160565625,-24.3026073640186,54.20001441788));
#667=CARTESIAN_POINT('',(-52.8003160565625,-24.3026073640186,54.20001441788));
#668=CARTESIAN_POINT('Origin',(-51.3861024942646,-25.7168209263165,54.1999937922264));
#669=CARTESIAN_POINT('',(-51.3861024812112,-25.7168209393699,56.1999937922264));
#670=CARTESIAN_POINT('',(-51.3861024812112,-25.7168209393699,56.1999937922264));
#671=CARTESIAN_POINT('Origin',(-51.3861024942646,-25.7168209263165,54.1999937922264));
#672=CARTESIAN_POINT('Origin',(-30.1563852290743,-46.9465381915068,56.1999935151061));
#673=CARTESIAN_POINT('',(-30.1563852290743,-46.9465381915068,56.1999935151061));
#674=CARTESIAN_POINT('',(-30.1563852290743,-46.9465381915068,56.1999935151061));
#675=CARTESIAN_POINT('',(-51.3861024812112,-25.7168209393699,56.1999937922264));
#676=CARTESIAN_POINT('Origin',(-30.1563852421277,-46.9465381784534,54.1999912355524));
#677=CARTESIAN_POINT('',(-28.7608886578016,-48.3420347627796,54.5243177446255));
#678=CARTESIAN_POINT('',(-28.7608886578016,-48.3420347627796,54.5243177446255));
#679=CARTESIAN_POINT('Origin',(-30.1563852421277,-46.9465381784534,54.1999912355524));
#680=CARTESIAN_POINT('Origin',(-23.7022193053731,-53.400704115208,55.7));
#681=CARTESIAN_POINT('',(-23.7022193053731,-53.400704115208,48.45));
#682=CARTESIAN_POINT('',(-23.7022193053731,-53.400704115208,48.45));
#683=CARTESIAN_POINT('Origin',(-23.7022193053731,-53.400704115208,55.7));
#684=CARTESIAN_POINT('Origin',(-21.4041211167267,-55.6988023038544,48.4499999891413));
#685=CARTESIAN_POINT('',(-21.4041211167267,-55.6988023038544,48.4499999590191));
#686=CARTESIAN_POINT('',(-21.4041211167267,-55.6988023038544,48.4499999590191));
#687=CARTESIAN_POINT('',(-21.4041211167267,-55.6988023038544,48.4499999891413));
#688=CARTESIAN_POINT('Origin',(-21.4041211167267,-55.6988023038544,46.4500005568666));
#689=CARTESIAN_POINT('',(-19.9899079770956,-57.1130154434855,46.4500005384062));
#690=CARTESIAN_POINT('',(-19.9899079770956,-57.1130154434855,46.4500005384062));
#691=CARTESIAN_POINT('Origin',(-21.4041211167267,-55.6988023038544,46.4500005568666));
#692=CARTESIAN_POINT('Origin',(-19.9899081418951,-57.1130152786861,21.199996883681));
#693=CARTESIAN_POINT('',(-19.9899081418951,-57.1130152786861,21.199996883681));
#694=CARTESIAN_POINT('',(-19.9899081418951,-57.1130152786861,21.199996883681));
#695=CARTESIAN_POINT('',(-19.9899081418951,-57.1130152786861,21.199996883681));
#696=CARTESIAN_POINT('Origin',(-21.4041239371263,-55.6987994834548,21.1999969021413));
#697=CARTESIAN_POINT('Origin',(-21.4041239371263,-55.6987994834548,21.1999969021413));
#698=CARTESIAN_POINT('Origin',(-36.3952323393177,-40.7076910812635,37.6999937683147));
#699=UNCERTAINTY_MEASURE_WITH_UNIT(LENGTH_MEASURE(0.01),#703,
'DISTANCE_ACCURACY_VALUE',
'Maximum model space distance between geometric entities at asserted c
onnectivities');
#700=UNCERTAINTY_MEASURE_WITH_UNIT(LENGTH_MEASURE(0.01),#703,
'DISTANCE_ACCURACY_VALUE',
'Maximum model space distance between geometric entities at asserted c
onnectivities');
#701=(
GEOMETRIC_REPRESENTATION_CONTEXT(3)
GLOBAL_UNCERTAINTY_ASSIGNED_CONTEXT((#699))
GLOBAL_UNIT_ASSIGNED_CONTEXT((#703,#704,#705))
REPRESENTATION_CONTEXT('','3D')
);
#702=(
GEOMETRIC_REPRESENTATION_CONTEXT(3)
GLOBAL_UNCERTAINTY_ASSIGNED_CONTEXT((#700))
GLOBAL_UNIT_ASSIGNED_CONTEXT((#703,#704,#705))
REPRESENTATION_CONTEXT('','3D')
);
#703=(
LENGTH_UNIT()
NAMED_UNIT(*)
SI_UNIT(.MILLI.,.METRE.)
);
#704=(
NAMED_UNIT(*)
PLANE_ANGLE_UNIT()
SI_UNIT($,.RADIAN.)
);
#705=(
NAMED_UNIT(*)
SI_UNIT($,.STERADIAN.)
SOLID_ANGLE_UNIT()
);
#706=SHAPE_DEFINITION_REPRESENTATION(#707,#708);
#707=PRODUCT_DEFINITION_SHAPE('',$,#710);
#708=SHAPE_REPRESENTATION('',(#419),#701);
#709=PRODUCT_DEFINITION_CONTEXT('part definition',#714,'design');
#710=PRODUCT_DEFINITION('Enclosure Wallplate with SEN6X',
'Enclosure Wallplate with SEN6X v16',#711,#709);
#711=PRODUCT_DEFINITION_FORMATION('',$,#716);
#712=PRODUCT_RELATED_PRODUCT_CATEGORY(
'Enclosure Wallplate with SEN6X v16',
'Enclosure Wallplate with SEN6X v16',(#716));
#713=APPLICATION_PROTOCOL_DEFINITION('international standard',
'automotive_design',2009,#714);
#714=APPLICATION_CONTEXT(
'Core Data for Automotive Mechanical Design Process');
#715=PRODUCT_CONTEXT('part definition',#714,'mechanical');
#716=PRODUCT('Enclosure Wallplate with SEN6X',
'Enclosure Wallplate with SEN6X v16',$,(#715));
#717=PRESENTATION_STYLE_ASSIGNMENT((#719));
#718=PRESENTATION_STYLE_ASSIGNMENT((#720));
#719=SURFACE_STYLE_USAGE(.BOTH.,#721);
#720=SURFACE_STYLE_USAGE(.BOTH.,#722);
#721=SURFACE_SIDE_STYLE('',(#723));
#722=SURFACE_SIDE_STYLE('',(#724));
#723=SURFACE_STYLE_FILL_AREA(#725);
#724=SURFACE_STYLE_FILL_AREA(#726);
#725=FILL_AREA_STYLE('Steel - Satin',(#727));
#726=FILL_AREA_STYLE('Plastic - Matte (White)',(#728));
#727=FILL_AREA_STYLE_COLOUR('Steel - Satin',#729);
#728=FILL_AREA_STYLE_COLOUR('Plastic - Matte (White)',#730);
#729=COLOUR_RGB('Steel - Satin',0.627450980392157,0.627450980392157,0.627450980392157);
#730=COLOUR_RGB('Plastic - Matte (White)',0.964705882352941,0.964705882352941,
0.952941176470588);
ENDSEC;
END-ISO-10303-21;
