G04 #@! TF.GenerationSoftware,KiCad,Pcbnew,9.0.5-rc1*
G04 #@! TF.CreationDate,2025-09-24T09:07:52-05:00*
G04 #@! TF.ProjectId,stencil,7374656e-6369-46c2-9e6b-696361645f70,B*
G04 #@! TF.SameCoordinates,Original*
G04 #@! TF.FileFunction,Paste,Top*
G04 #@! TF.FilePolarity,Positive*
%FSLAX46Y46*%
G04 Gerber Fmt 4.6, Leading zero omitted, Abs format (unit mm)*
G04 Created by KiCad (PCBNEW 9.0.5-rc1) date 2025-09-24 09:07:52*
%MOMM*%
%LPD*%
G01*
G04 APERTURE LIST*
G04 Aperture macros list*
%AMRoundRect*
0 Rectangle with rounded corners*
0 $1 Rounding radius*
0 $2 $3 $4 $5 $6 $7 $8 $9 X,Y pos of 4 corners*
0 Add a 4 corners polygon primitive as box body*
4,1,4,$2,$3,$4,$5,$6,$7,$8,$9,$2,$3,0*
0 Add four circle primitives for the rounded corners*
1,1,$1+$1,$2,$3*
1,1,$1+$1,$4,$5*
1,1,$1+$1,$6,$7*
1,1,$1+$1,$8,$9*
0 Add four rect primitives between the rounded corners*
20,1,$1+$1,$2,$3,$4,$5,0*
20,1,$1+$1,$4,$5,$6,$7,0*
20,1,$1+$1,$6,$7,$8,$9,0*
20,1,$1+$1,$8,$9,$2,$3,0*%
G04 Aperture macros list end*
%ADD10C,1.000000*%
%ADD11C,0.500000*%
%ADD12C,1.050000*%
%ADD13C,0.010000*%
%ADD14C,0.000000*%
%ADD15R,1.100000X0.250000*%
%ADD16RoundRect,0.075000X0.075000X-0.650000X0.075000X0.650000X-0.075000X0.650000X-0.075000X-0.650000X0*%
%ADD17RoundRect,0.100000X-0.100000X0.337500X-0.100000X-0.337500X0.100000X-0.337500X0.100000X0.337500X0*%
%ADD18RoundRect,0.140000X-0.021213X0.219203X-0.219203X0.021213X0.021213X-0.219203X0.219203X-0.021213X0*%
%ADD19RoundRect,0.250001X-0.714999X0.714999X-0.714999X-0.714999X0.714999X-0.714999X0.714999X0.714999X0*%
%ADD20RoundRect,0.212500X-0.212500X0.737500X-0.212500X-0.737500X0.212500X-0.737500X0.212500X0.737500X0*%
%ADD21RoundRect,0.212500X-0.737500X0.212500X-0.737500X-0.212500X0.737500X-0.212500X0.737500X0.212500X0*%
%ADD22RoundRect,0.075000X0.650000X0.075000X-0.650000X0.075000X-0.650000X-0.075000X0.650000X-0.075000X0*%
%ADD23RoundRect,0.140000X-0.170000X0.140000X-0.170000X-0.140000X0.170000X-0.140000X0.170000X0.140000X0*%
%ADD24RoundRect,0.250000X-0.375000X-0.850000X0.375000X-0.850000X0.375000X0.850000X-0.375000X0.850000X0*%
%ADD25RoundRect,0.135000X0.135000X0.185000X-0.135000X0.185000X-0.135000X-0.185000X0.135000X-0.185000X0*%
%ADD26RoundRect,0.140000X0.140000X0.170000X-0.140000X0.170000X-0.140000X-0.170000X0.140000X-0.170000X0*%
%ADD27RoundRect,0.140000X0.170000X-0.140000X0.170000X0.140000X-0.170000X0.140000X-0.170000X-0.140000X0*%
%ADD28RoundRect,0.052500X0.172500X0.097500X-0.172500X0.097500X-0.172500X-0.097500X0.172500X-0.097500X0*%
%ADD29RoundRect,0.225000X0.250000X-0.225000X0.250000X0.225000X-0.250000X0.225000X-0.250000X-0.225000X0*%
%ADD30R,0.660000X0.310000*%
%ADD31RoundRect,0.135000X0.185000X-0.135000X0.185000X0.135000X-0.185000X0.135000X-0.185000X-0.135000X0*%
%ADD32RoundRect,0.225000X-0.250000X0.225000X-0.250000X-0.225000X0.250000X-0.225000X0.250000X0.225000X0*%
%ADD33RoundRect,0.225000X-0.225000X-0.250000X0.225000X-0.250000X0.225000X0.250000X-0.225000X0.250000X0*%
%ADD34R,0.300000X0.500000*%
%ADD35RoundRect,0.140000X-0.140000X-0.170000X0.140000X-0.170000X0.140000X0.170000X-0.140000X0.170000X0*%
%ADD36RoundRect,0.150000X0.512500X0.150000X-0.512500X0.150000X-0.512500X-0.150000X0.512500X-0.150000X0*%
%ADD37RoundRect,0.200000X-0.200000X-0.275000X0.200000X-0.275000X0.200000X0.275000X-0.200000X0.275000X0*%
%ADD38R,0.550000X0.400000*%
%ADD39RoundRect,0.250000X0.450000X-0.262500X0.450000X0.262500X-0.450000X0.262500X-0.450000X-0.262500X0*%
%ADD40RoundRect,0.135000X-0.135000X-0.185000X0.135000X-0.185000X0.135000X0.185000X-0.135000X0.185000X0*%
%ADD41RoundRect,0.100000X0.100000X-0.712500X0.100000X0.712500X-0.100000X0.712500X-0.100000X-0.712500X0*%
%ADD42R,0.600000X1.450000*%
%ADD43R,0.300000X1.450000*%
%ADD44R,1.700000X0.900000*%
%ADD45RoundRect,0.150000X0.521491X-0.309359X-0.309359X0.521491X-0.521491X0.309359X0.309359X-0.521491X0*%
%ADD46R,0.900000X1.500000*%
%ADD47R,1.500000X0.900000*%
%ADD48R,1.000000X1.000000*%
%ADD49RoundRect,0.150000X-0.700000X0.150000X-0.700000X-0.150000X0.700000X-0.150000X0.700000X0.150000X0*%
%ADD50RoundRect,0.250000X-1.150000X0.250000X-1.150000X-0.250000X1.150000X-0.250000X1.150000X0.250000X0*%
%ADD51RoundRect,0.125000X0.125000X-0.125000X0.125000X0.125000X-0.125000X0.125000X-0.125000X-0.125000X0*%
%ADD52RoundRect,0.062500X0.062500X-0.350000X0.062500X0.350000X-0.062500X0.350000X-0.062500X-0.350000X0*%
%ADD53RoundRect,0.062500X0.350000X-0.062500X0.350000X0.062500X-0.350000X0.062500X-0.350000X-0.062500X0*%
G04 APERTURE END LIST*
D10*
X122250001Y-13899999D02*
G75*
G02*
X121250001Y-13899999I-500000J0D01*
G01*
X121250001Y-13899999D02*
G75*
G02*
X122250001Y-13899999I500000J0D01*
G01*
D11*
X173250001Y-63149999D02*
G75*
G02*
X173750001Y-63649999I-1J-500001D01*
G01*
X173750001Y-37649999D02*
X173750001Y-48649999D01*
X122250001Y-11149999D02*
G75*
G02*
X122750001Y-10650001I499999J-1D01*
G01*
X173750001Y-74649999D02*
G75*
G02*
X173250001Y-75150001I-500001J-1D01*
G01*
X173750001Y-22649999D02*
G75*
G02*
X173250001Y-23150001I-500001J-1D01*
G01*
X70250001Y-101149999D02*
G75*
G02*
X69750001Y-100649999I-1J499999D01*
G01*
D10*
X146625001Y-13899999D02*
G75*
G02*
X145625001Y-13899999I-500000J0D01*
G01*
X145625001Y-13899999D02*
G75*
G02*
X146625001Y-13899999I500000J0D01*
G01*
D11*
X173250001Y-37149999D02*
G75*
G02*
X173750001Y-37649999I-1J-500001D01*
G01*
X173750001Y-48649999D02*
G75*
G02*
X173250001Y-49150001I-500001J-1D01*
G01*
X122750001Y-114649999D02*
X133750001Y-114649999D01*
X173750001Y-24649999D02*
X173750001Y-35649999D01*
D12*
X171025001Y-13899999D02*
G75*
G02*
X169975001Y-13899999I-525000J0D01*
G01*
X169975001Y-13899999D02*
G75*
G02*
X171025001Y-13899999I525000J0D01*
G01*
D11*
X82250001Y-114149999D02*
G75*
G02*
X81750001Y-114650001I-500001J-1D01*
G01*
D10*
X73500001Y-38274999D02*
G75*
G02*
X72500001Y-38274999I-500000J0D01*
G01*
X72500001Y-38274999D02*
G75*
G02*
X73500001Y-38274999I500000J0D01*
G01*
D11*
X173250001Y-24149999D02*
G75*
G02*
X173750001Y-24649999I-1J-500001D01*
G01*
X96750001Y-114649999D02*
X107750001Y-114649999D01*
X173750001Y-63649999D02*
X173750001Y-74649999D01*
X69750001Y-76649999D02*
X69750001Y-87649999D01*
D10*
X73500001Y-87024999D02*
G75*
G02*
X72500001Y-87024999I-500000J0D01*
G01*
X72500001Y-87024999D02*
G75*
G02*
X73500001Y-87024999I500000J0D01*
G01*
D11*
X108250001Y-114149999D02*
G75*
G02*
X107750001Y-114650001I-500001J-1D01*
G01*
X173250001Y-50149999D02*
G75*
G02*
X173750001Y-50649999I-1J-500001D01*
G01*
X148250001Y-11149999D02*
G75*
G02*
X148750001Y-10650001I499999J-1D01*
G01*
X70250001Y-23149999D02*
G75*
G02*
X69750001Y-22649999I-1J499999D01*
G01*
X70250001Y-49149999D02*
G75*
G02*
X69750001Y-48649999I-1J499999D01*
G01*
X70250001Y-75149999D02*
G75*
G02*
X69750001Y-74649999I-1J499999D01*
G01*
X70750001Y-114649999D02*
X81750001Y-114649999D01*
X96750001Y-114649999D02*
G75*
G02*
X96250001Y-114149999I-1J499999D01*
G01*
X146750001Y-10649999D02*
G75*
G02*
X147250001Y-11149999I-1J-500001D01*
G01*
X83750001Y-114649999D02*
X94750001Y-114649999D01*
X109250001Y-11149999D02*
G75*
G02*
X109750001Y-10650001I499999J-1D01*
G01*
X160250001Y-114149999D02*
G75*
G02*
X159750001Y-114650001I-500001J-1D01*
G01*
X173750001Y-102649999D02*
X173750001Y-113649999D01*
X135750001Y-114649999D02*
G75*
G02*
X135250001Y-114149999I-1J499999D01*
G01*
X83250001Y-11149999D02*
G75*
G02*
X83750001Y-10650001I499999J-1D01*
G01*
X70750001Y-10649999D02*
X81750001Y-10649999D01*
X173750001Y-11649999D02*
X173750001Y-22649999D01*
X69750001Y-89649999D02*
X69750001Y-100649999D01*
X173750001Y-89649999D02*
X173750001Y-100649999D01*
X122750001Y-10649999D02*
X133750001Y-10649999D01*
X147250001Y-114149999D02*
G75*
G02*
X146750001Y-114650001I-500001J-1D01*
G01*
X83750001Y-10649999D02*
X94750001Y-10649999D01*
X94750001Y-10649999D02*
G75*
G02*
X95250001Y-11149999I-1J-500001D01*
G01*
X173750001Y-50649999D02*
X173750001Y-61649999D01*
X109750001Y-114649999D02*
X120750001Y-114649999D01*
X173750001Y-87649999D02*
G75*
G02*
X173250001Y-88150001I-500001J-1D01*
G01*
X69750001Y-50649999D02*
X69750001Y-61649999D01*
X109750001Y-10649999D02*
X120750001Y-10649999D01*
X69750001Y-63649999D02*
X69750001Y-74649999D01*
D10*
X171000001Y-62649999D02*
G75*
G02*
X170000001Y-62649999I-500000J0D01*
G01*
X170000001Y-62649999D02*
G75*
G02*
X171000001Y-62649999I500000J0D01*
G01*
D12*
X73525001Y-13899999D02*
G75*
G02*
X72475001Y-13899999I-525000J0D01*
G01*
X72475001Y-13899999D02*
G75*
G02*
X73525001Y-13899999I525000J0D01*
G01*
D11*
X69750001Y-76649999D02*
G75*
G02*
X70250001Y-76150001I499999J-1D01*
G01*
X173750001Y-113649999D02*
G75*
G02*
X172750001Y-114650001I-1000001J-1D01*
G01*
X69750001Y-11649999D02*
G75*
G02*
X70750001Y-10650001I999999J-1D01*
G01*
D10*
X97875001Y-13899999D02*
G75*
G02*
X96875001Y-13899999I-500000J0D01*
G01*
X96875001Y-13899999D02*
G75*
G02*
X97875001Y-13899999I500000J0D01*
G01*
D11*
X81750001Y-10649999D02*
G75*
G02*
X82250001Y-11149999I-1J-500001D01*
G01*
X69750001Y-102649999D02*
X69750001Y-113649999D01*
D10*
X73500001Y-62649999D02*
G75*
G02*
X72500001Y-62649999I-500000J0D01*
G01*
X72500001Y-62649999D02*
G75*
G02*
X73500001Y-62649999I500000J0D01*
G01*
D11*
X173750001Y-100649999D02*
G75*
G02*
X173250001Y-101150001I-500001J-1D01*
G01*
X70250001Y-36149999D02*
G75*
G02*
X69750001Y-35649999I-1J499999D01*
G01*
D12*
X171025001Y-111399999D02*
G75*
G02*
X169975001Y-111399999I-525000J0D01*
G01*
X169975001Y-111399999D02*
G75*
G02*
X171025001Y-111399999I525000J0D01*
G01*
D11*
X148750001Y-10649999D02*
X159750001Y-10649999D01*
X95250001Y-114149999D02*
G75*
G02*
X94750001Y-114650001I-500001J-1D01*
G01*
D10*
X97875001Y-111399999D02*
G75*
G02*
X96875001Y-111399999I-500000J0D01*
G01*
X96875001Y-111399999D02*
G75*
G02*
X97875001Y-111399999I500000J0D01*
G01*
D11*
X121250001Y-114149999D02*
G75*
G02*
X120750001Y-114650001I-500001J-1D01*
G01*
X69750001Y-37649999D02*
X69750001Y-48649999D01*
X109750001Y-114649999D02*
G75*
G02*
X109250001Y-114149999I-1J499999D01*
G01*
X173750001Y-61649999D02*
G75*
G02*
X173250001Y-62150001I-500001J-1D01*
G01*
X69750001Y-89649999D02*
G75*
G02*
X70250001Y-89150001I499999J-1D01*
G01*
X148750001Y-114649999D02*
G75*
G02*
X148250001Y-114149999I-1J499999D01*
G01*
X172750001Y-10649999D02*
G75*
G02*
X173750001Y-11649999I-1J-1000001D01*
G01*
X70250001Y-88149999D02*
G75*
G02*
X69750001Y-87649999I-1J499999D01*
G01*
X159750001Y-10649999D02*
G75*
G02*
X160250001Y-11149999I-1J-500001D01*
G01*
X107750001Y-10649999D02*
G75*
G02*
X108250001Y-11149999I-1J-500001D01*
G01*
X161750001Y-10649999D02*
X172750001Y-10649999D01*
X122750001Y-114649999D02*
G75*
G02*
X122250001Y-114149999I-1J499999D01*
G01*
X133750001Y-10649999D02*
G75*
G02*
X134250001Y-11149999I-1J-500001D01*
G01*
D10*
X171000001Y-87024999D02*
G75*
G02*
X170000001Y-87024999I-500000J0D01*
G01*
X170000001Y-87024999D02*
G75*
G02*
X171000001Y-87024999I500000J0D01*
G01*
X146625001Y-111399999D02*
G75*
G02*
X145625001Y-111399999I-500000J0D01*
G01*
X145625001Y-111399999D02*
G75*
G02*
X146625001Y-111399999I500000J0D01*
G01*
D11*
X96750001Y-10649999D02*
X107750001Y-10649999D01*
X135750001Y-114649999D02*
X146750001Y-114649999D01*
X173750001Y-35649999D02*
G75*
G02*
X173250001Y-36150001I-500001J-1D01*
G01*
X70250001Y-62149999D02*
G75*
G02*
X69750001Y-61649999I-1J499999D01*
G01*
X173250001Y-89149999D02*
G75*
G02*
X173750001Y-89649999I-1J-500001D01*
G01*
X135750001Y-10649999D02*
X146750001Y-10649999D01*
X134250001Y-114149999D02*
G75*
G02*
X133750001Y-114650001I-500001J-1D01*
G01*
X173750001Y-76649999D02*
X173750001Y-87649999D01*
X161750001Y-114649999D02*
G75*
G02*
X161250001Y-114149999I-1J499999D01*
G01*
D10*
X122250001Y-111399999D02*
G75*
G02*
X121250001Y-111399999I-500000J0D01*
G01*
X121250001Y-111399999D02*
G75*
G02*
X122250001Y-111399999I500000J0D01*
G01*
X171000001Y-38274999D02*
G75*
G02*
X170000001Y-38274999I-500000J0D01*
G01*
X170000001Y-38274999D02*
G75*
G02*
X171000001Y-38274999I500000J0D01*
G01*
D11*
X161750001Y-114649999D02*
X172750001Y-114649999D01*
D12*
X73525001Y-111399999D02*
G75*
G02*
X72475001Y-111399999I-525000J0D01*
G01*
X72475001Y-111399999D02*
G75*
G02*
X73525001Y-111399999I525000J0D01*
G01*
D11*
X69750001Y-11649999D02*
X69750001Y-22649999D01*
X120750001Y-10649999D02*
G75*
G02*
X121250001Y-11149999I-1J-500001D01*
G01*
X70750001Y-114649999D02*
G75*
G02*
X69750001Y-113649999I-1J999999D01*
G01*
X161250001Y-11149999D02*
G75*
G02*
X161750001Y-10650001I499999J-1D01*
G01*
X69750001Y-24649999D02*
G75*
G02*
X70250001Y-24150001I499999J-1D01*
G01*
X69750001Y-63649999D02*
G75*
G02*
X70250001Y-63150001I499999J-1D01*
G01*
X96250001Y-11149999D02*
G75*
G02*
X96750001Y-10650001I499999J-1D01*
G01*
X69750001Y-24649999D02*
X69750001Y-35649999D01*
X173250001Y-102149999D02*
G75*
G02*
X173750001Y-102649999I-1J-500001D01*
G01*
X83750001Y-114649999D02*
G75*
G02*
X83250001Y-114149999I-1J499999D01*
G01*
X173250001Y-76149999D02*
G75*
G02*
X173750001Y-76649999I-1J-500001D01*
G01*
X148750001Y-114649999D02*
X159750001Y-114649999D01*
X135250001Y-11149999D02*
G75*
G02*
X135750001Y-10650001I499999J-1D01*
G01*
X69750001Y-102649999D02*
G75*
G02*
X70250001Y-102150001I499999J-1D01*
G01*
X69750001Y-50649999D02*
G75*
G02*
X70250001Y-50150001I499999J-1D01*
G01*
X69750001Y-37649999D02*
G75*
G02*
X70250001Y-37150001I499999J-1D01*
G01*
D13*
G04 #@! TO.C,D2*
X121805000Y-81235000D02*
X121045000Y-81235000D01*
X121045000Y-80715000D01*
X121805000Y-80715000D01*
X121805000Y-81235000D01*
G36*
X121805000Y-81235000D02*
G01*
X121045000Y-81235000D01*
X121045000Y-80715000D01*
X121805000Y-80715000D01*
X121805000Y-81235000D01*
G37*
X121805000Y-82485000D02*
X121045000Y-82485000D01*
X121045000Y-81965000D01*
X121805000Y-81965000D01*
X121805000Y-82485000D01*
G36*
X121805000Y-82485000D02*
G01*
X121045000Y-82485000D01*
X121045000Y-81965000D01*
X121805000Y-81965000D01*
X121805000Y-82485000D01*
G37*
G04 #@! TO.C,D1*
X119205000Y-81235000D02*
X118445000Y-81235000D01*
X118445000Y-80715000D01*
X119205000Y-80715000D01*
X119205000Y-81235000D01*
G36*
X119205000Y-81235000D02*
G01*
X118445000Y-81235000D01*
X118445000Y-80715000D01*
X119205000Y-80715000D01*
X119205000Y-81235000D01*
G37*
X119205000Y-82485000D02*
X118445000Y-82485000D01*
X118445000Y-81965000D01*
X119205000Y-81965000D01*
X119205000Y-82485000D01*
G36*
X119205000Y-82485000D02*
G01*
X118445000Y-82485000D01*
X118445000Y-81965000D01*
X119205000Y-81965000D01*
X119205000Y-82485000D01*
G37*
G04 #@! TO.C,U4*
X108250000Y-46125000D02*
X107250000Y-46125000D01*
X107250000Y-45425000D01*
X108250000Y-45425000D01*
X108250000Y-46125000D01*
G36*
X108250000Y-46125000D02*
G01*
X107250000Y-46125000D01*
X107250000Y-45425000D01*
X108250000Y-45425000D01*
X108250000Y-46125000D01*
G37*
X108250000Y-47025000D02*
X107250000Y-47025000D01*
X107250000Y-46325000D01*
X108250000Y-46325000D01*
X108250000Y-47025000D01*
G36*
X108250000Y-47025000D02*
G01*
X107250000Y-47025000D01*
X107250000Y-46325000D01*
X108250000Y-46325000D01*
X108250000Y-47025000D01*
G37*
D14*
G04 #@! TO.C,MK1*
G36*
X137100000Y-88616999D02*
G01*
X136600000Y-88617000D01*
X136600000Y-88195000D01*
X137100000Y-88195000D01*
X137100000Y-88616999D01*
G37*
G36*
X137100000Y-89439000D02*
G01*
X136600000Y-89439000D01*
X136600000Y-89017000D01*
X137100000Y-89017000D01*
X137100000Y-89439000D01*
G37*
G36*
X138000000Y-88617000D02*
G01*
X137500000Y-88617000D01*
X137500000Y-88195000D01*
X138000000Y-88195000D01*
X138000000Y-88617000D01*
G37*
G36*
X138900000Y-89439000D02*
G01*
X138400000Y-89439000D01*
X138400000Y-89017000D01*
X138900000Y-89017000D01*
X138900000Y-89439000D01*
G37*
G36*
X138900000Y-88617000D02*
G01*
X138400000Y-88616999D01*
X138400000Y-88195000D01*
X138900000Y-88195000D01*
X138900000Y-88617000D01*
G37*
G36*
X137700000Y-89919700D02*
G01*
X137590200Y-89940700D01*
X137486800Y-89982901D01*
X137393700Y-90044700D01*
X137314700Y-90123700D01*
X137252900Y-90216800D01*
X137210700Y-90320200D01*
X137189701Y-90430000D01*
X136939000Y-90430000D01*
X136966600Y-90264500D01*
X137027500Y-90108300D01*
X137119200Y-89967800D01*
X137237800Y-89849200D01*
X137378300Y-89757500D01*
X137534500Y-89696600D01*
X137700000Y-89669000D01*
X137700000Y-89919700D01*
G37*
G36*
X137210700Y-90639800D02*
G01*
X137252900Y-90743200D01*
X137314699Y-90836300D01*
X137393699Y-90915300D01*
X137486800Y-90977100D01*
X137590200Y-91019300D01*
X137700000Y-91040300D01*
X137700000Y-91291000D01*
X137534500Y-91263400D01*
X137378300Y-91202500D01*
X137237800Y-91110800D01*
X137119200Y-90992200D01*
X137027500Y-90851700D01*
X136966600Y-90695500D01*
X136939000Y-90530000D01*
X137189700Y-90530000D01*
X137210700Y-90639800D01*
G37*
G36*
X137965500Y-89696600D02*
G01*
X138121700Y-89757500D01*
X138262200Y-89849200D01*
X138380800Y-89967800D01*
X138472500Y-90108300D01*
X138533400Y-90264500D01*
X138561000Y-90430000D01*
X138310299Y-90430000D01*
X138289300Y-90320200D01*
X138247100Y-90216800D01*
X138185300Y-90123700D01*
X138106300Y-90044700D01*
X138013200Y-89982901D01*
X137909800Y-89940700D01*
X137800000Y-89919700D01*
X137800000Y-89669000D01*
X137965500Y-89696600D01*
G37*
G36*
X138533400Y-90695500D02*
G01*
X138472500Y-90851700D01*
X138380800Y-90992200D01*
X138262200Y-91110800D01*
X138121700Y-91202500D01*
X137965500Y-91263400D01*
X137800000Y-91291000D01*
X137800000Y-91040300D01*
X137909800Y-91019300D01*
X138013200Y-90977100D01*
X138106301Y-90915300D01*
X138185301Y-90836300D01*
X138247100Y-90743200D01*
X138289300Y-90639800D01*
X138310300Y-90530000D01*
X138561000Y-90530000D01*
X138533400Y-90695500D01*
G37*
D13*
G04 #@! TO.C,U9*
X128605000Y-66839999D02*
X128354999Y-67090000D01*
X127555000Y-67090000D01*
X127555000Y-65590000D01*
X128605000Y-65590000D01*
X128605000Y-66839999D01*
G36*
X128605000Y-66839999D02*
G01*
X128354999Y-67090000D01*
X127555000Y-67090000D01*
X127555000Y-65590000D01*
X128605000Y-65590000D01*
X128605000Y-66839999D01*
G37*
G04 #@! TO.C,D3*
X123455000Y-81235000D02*
X122695000Y-81235000D01*
X122695000Y-80715000D01*
X123455000Y-80715000D01*
X123455000Y-81235000D01*
G36*
X123455000Y-81235000D02*
G01*
X122695000Y-81235000D01*
X122695000Y-80715000D01*
X123455000Y-80715000D01*
X123455000Y-81235000D01*
G37*
X123455000Y-82485000D02*
X122695000Y-82485000D01*
X122695000Y-81965000D01*
X123455000Y-81965000D01*
X123455000Y-82485000D01*
G36*
X123455000Y-82485000D02*
G01*
X122695000Y-82485000D01*
X122695000Y-81965000D01*
X123455000Y-81965000D01*
X123455000Y-82485000D01*
G37*
G04 #@! TO.C,U11*
X127420001Y-70960000D02*
X127420000Y-71160000D01*
X127195000Y-71160000D01*
X127195000Y-70959999D01*
X127420001Y-70960000D01*
G36*
X127420001Y-70960000D02*
G01*
X127420000Y-71160000D01*
X127195000Y-71160000D01*
X127195000Y-70959999D01*
X127420001Y-70960000D01*
G37*
X127420000Y-71660000D02*
X127195000Y-71660000D01*
X127195000Y-71460000D01*
X127420000Y-71460000D01*
X127420000Y-71660000D01*
G36*
X127420000Y-71660000D02*
G01*
X127195000Y-71660000D01*
X127195000Y-71460000D01*
X127420000Y-71460000D01*
X127420000Y-71660000D01*
G37*
X127420001Y-72160000D02*
X127195000Y-72160001D01*
X127195000Y-71960000D01*
X127420000Y-71960000D01*
X127420001Y-72160000D01*
G36*
X127420001Y-72160000D02*
G01*
X127195000Y-72160001D01*
X127195000Y-71960000D01*
X127420000Y-71960000D01*
X127420001Y-72160000D01*
G37*
X127920000Y-70685001D02*
X127920000Y-70910001D01*
X127720000Y-70910000D01*
X127720000Y-70685000D01*
X127920000Y-70685001D01*
G36*
X127920000Y-70685001D02*
G01*
X127920000Y-70910001D01*
X127720000Y-70910000D01*
X127720000Y-70685000D01*
X127920000Y-70685001D01*
G37*
X127920000Y-72434999D02*
X127720000Y-72435000D01*
X127720000Y-72210000D01*
X127920000Y-72209999D01*
X127920000Y-72434999D01*
G36*
X127920000Y-72434999D02*
G01*
X127720000Y-72435000D01*
X127720000Y-72210000D01*
X127920000Y-72209999D01*
X127920000Y-72434999D01*
G37*
X128420000Y-70910000D02*
X128220000Y-70910001D01*
X128220000Y-70685001D01*
X128420000Y-70685000D01*
X128420000Y-70910000D01*
G36*
X128420000Y-70910000D02*
G01*
X128220000Y-70910001D01*
X128220000Y-70685001D01*
X128420000Y-70685000D01*
X128420000Y-70910000D01*
G37*
X128420000Y-72210000D02*
X128420000Y-72435000D01*
X128220000Y-72434999D01*
X128220000Y-72209999D01*
X128420000Y-72210000D01*
G36*
X128420000Y-72210000D02*
G01*
X128420000Y-72435000D01*
X128220000Y-72434999D01*
X128220000Y-72209999D01*
X128420000Y-72210000D01*
G37*
X128945000Y-71160000D02*
X128720000Y-71160000D01*
X128719999Y-70960000D01*
X128945000Y-70959999D01*
X128945000Y-71160000D01*
G36*
X128945000Y-71160000D02*
G01*
X128720000Y-71160000D01*
X128719999Y-70960000D01*
X128945000Y-70959999D01*
X128945000Y-71160000D01*
G37*
X128945000Y-71660000D02*
X128720000Y-71660000D01*
X128720000Y-71460000D01*
X128945000Y-71460000D01*
X128945000Y-71660000D01*
G36*
X128945000Y-71660000D02*
G01*
X128720000Y-71660000D01*
X128720000Y-71460000D01*
X128945000Y-71460000D01*
X128945000Y-71660000D01*
G37*
X128945000Y-72160001D02*
X128719999Y-72160000D01*
X128720000Y-71960000D01*
X128945000Y-71960000D01*
X128945000Y-72160001D01*
G36*
X128945000Y-72160001D02*
G01*
X128719999Y-72160000D01*
X128720000Y-71960000D01*
X128945000Y-71960000D01*
X128945000Y-72160001D01*
G37*
G04 #@! TD*
D15*
G04 #@! TO.C,U13*
X110600000Y-81650000D03*
X110600000Y-82150000D03*
X110600000Y-82650000D03*
X110600000Y-83150000D03*
X110600000Y-83650000D03*
X114900000Y-83650000D03*
X114900000Y-83150000D03*
X114900000Y-82650000D03*
X114900000Y-82150000D03*
X114900000Y-81650000D03*
G04 #@! TD*
D16*
G04 #@! TO.C,U18*
X106199479Y-61246876D03*
X106699480Y-61246876D03*
X107199479Y-61246876D03*
X107699478Y-61246876D03*
X108199479Y-61246876D03*
X108199479Y-56846876D03*
X107699478Y-56846876D03*
X107199479Y-56846876D03*
X106699480Y-56846876D03*
X106199479Y-56846876D03*
G04 #@! TD*
D17*
G04 #@! TO.C,U8*
X99500000Y-65086500D03*
X98850000Y-65086500D03*
X98200000Y-65086500D03*
X98200000Y-66361500D03*
X98850000Y-66361500D03*
X99500000Y-66361500D03*
G04 #@! TD*
D18*
G04 #@! TO.C,C5*
X102229822Y-38842178D03*
X101551000Y-39521000D03*
G04 #@! TD*
D19*
G04 #@! TO.C,U10*
X110612500Y-66942500D03*
X108212500Y-66942500D03*
X110612500Y-69342500D03*
X108212500Y-69342500D03*
D20*
X111912500Y-63992500D03*
X110662500Y-63992500D03*
X109412500Y-63992500D03*
X108162500Y-63992500D03*
X106912500Y-63992500D03*
D21*
X105262500Y-65642500D03*
X105262500Y-66892500D03*
X105262500Y-68142500D03*
X105262500Y-69392500D03*
X105262500Y-70642500D03*
D20*
X106912500Y-72292500D03*
X108162500Y-72292500D03*
X109412500Y-72292500D03*
X110662500Y-72292500D03*
X111912500Y-72292500D03*
D21*
X113562500Y-70642500D03*
X113562500Y-69392500D03*
X113562500Y-68142500D03*
X113562500Y-66892500D03*
X113562500Y-65642500D03*
G04 #@! TD*
D22*
G04 #@! TO.C,U7*
X103686365Y-59988786D03*
X103686365Y-59488786D03*
X103686365Y-58988786D03*
X103686365Y-58488786D03*
X103686365Y-57988786D03*
X99286365Y-57988786D03*
X99286365Y-58488786D03*
X99286365Y-58988786D03*
X99286365Y-59488786D03*
X99286365Y-59988786D03*
G04 #@! TD*
D23*
G04 #@! TO.C,C23*
X96887500Y-65244000D03*
X96887500Y-66204000D03*
G04 #@! TD*
D24*
G04 #@! TO.C,L1*
X101425000Y-47800000D03*
X103575000Y-47800000D03*
G04 #@! TD*
D25*
G04 #@! TO.C,R6*
X112850000Y-56949999D03*
X111830002Y-56949999D03*
G04 #@! TD*
D26*
G04 #@! TO.C,C33*
X106775000Y-75800000D03*
X105815000Y-75800000D03*
G04 #@! TD*
D27*
G04 #@! TO.C,C26*
X125930000Y-66420000D03*
X125930000Y-65460000D03*
G04 #@! TD*
D28*
G04 #@! TO.C,U4*
X108725000Y-46875000D03*
X108725000Y-46225000D03*
X108725000Y-45575000D03*
X106775000Y-45575000D03*
X106775000Y-46225000D03*
X106775000Y-46875000D03*
G04 #@! TD*
D23*
G04 #@! TO.C,C34*
X137500000Y-75650000D03*
X137500000Y-76610000D03*
G04 #@! TD*
G04 #@! TO.C,C25*
X115600000Y-65770000D03*
X115600000Y-66730000D03*
G04 #@! TD*
D29*
G04 #@! TO.C,C16*
X98600000Y-53458588D03*
X98600000Y-51908588D03*
G04 #@! TD*
D23*
G04 #@! TO.C,C17*
X102825000Y-52345000D03*
X102825000Y-53305000D03*
G04 #@! TD*
D27*
G04 #@! TO.C,C36*
X137500000Y-81900000D03*
X137500000Y-80940000D03*
G04 #@! TD*
D30*
G04 #@! TO.C,U5*
X100265000Y-52200000D03*
X100265000Y-52700000D03*
X100265000Y-53200000D03*
X101735000Y-53200000D03*
X101735000Y-52700000D03*
X101735000Y-52200000D03*
G04 #@! TD*
D31*
G04 #@! TO.C,R20*
X124375000Y-82110000D03*
X124375000Y-81090000D03*
G04 #@! TD*
D25*
G04 #@! TO.C,R1*
X101309182Y-42249221D03*
X100289184Y-42249221D03*
G04 #@! TD*
D32*
G04 #@! TO.C,C2*
X139976000Y-34775000D03*
X139976000Y-36325000D03*
G04 #@! TD*
D33*
G04 #@! TO.C,C8*
X139375000Y-42950000D03*
X140925000Y-42950000D03*
G04 #@! TD*
D31*
G04 #@! TO.C,R17*
X135150000Y-80419998D03*
X135150000Y-79400000D03*
G04 #@! TD*
D29*
G04 #@! TO.C,C9*
X98600000Y-45708588D03*
X98600000Y-44158588D03*
G04 #@! TD*
D34*
G04 #@! TO.C,U14*
X131900000Y-88950000D03*
X131100000Y-88950000D03*
X131100000Y-90350000D03*
X131900000Y-90350000D03*
G04 #@! TD*
D29*
G04 #@! TO.C,C19*
X105525000Y-53475000D03*
X105525000Y-51925000D03*
G04 #@! TD*
D16*
G04 #@! TO.C,U19*
X109121895Y-54307406D03*
X109621896Y-54307406D03*
X110121895Y-54307406D03*
X110621894Y-54307406D03*
X111121895Y-54307406D03*
X111121895Y-49907406D03*
X110621894Y-49907406D03*
X110121895Y-49907406D03*
X109621896Y-49907406D03*
X109121895Y-49907406D03*
G04 #@! TD*
D23*
G04 #@! TO.C,C10*
X102825000Y-44595000D03*
X102825000Y-45555000D03*
G04 #@! TD*
D25*
G04 #@! TO.C,R4*
X101307500Y-50050000D03*
X100287500Y-50050000D03*
G04 #@! TD*
D35*
G04 #@! TO.C,C31*
X108725000Y-74850000D03*
X109685000Y-74850000D03*
G04 #@! TD*
D29*
G04 #@! TO.C,C11*
X104025000Y-45725000D03*
X104025000Y-44175000D03*
G04 #@! TD*
D35*
G04 #@! TO.C,C32*
X119954000Y-74854000D03*
X120914000Y-74854000D03*
G04 #@! TD*
G04 #@! TO.C,C4*
X116678759Y-37792831D03*
X117638759Y-37792831D03*
G04 #@! TD*
D27*
G04 #@! TO.C,C41*
X112343069Y-50860312D03*
X112343069Y-49900312D03*
G04 #@! TD*
D29*
G04 #@! TO.C,C18*
X104025000Y-53475000D03*
X104025000Y-51925000D03*
G04 #@! TD*
D26*
G04 #@! TO.C,C14*
X111040752Y-46248955D03*
X110080752Y-46248955D03*
G04 #@! TD*
D30*
G04 #@! TO.C,U2*
X100265000Y-44450000D03*
X100265000Y-44950000D03*
X100265000Y-45450000D03*
X101735000Y-45450000D03*
X101735000Y-44950000D03*
X101735000Y-44450000D03*
G04 #@! TD*
D36*
G04 #@! TO.C,U1*
X124550000Y-42050000D03*
X124550000Y-41100000D03*
X124550000Y-40150000D03*
X122275000Y-40150000D03*
X122275000Y-42050000D03*
G04 #@! TD*
D27*
G04 #@! TO.C,C35*
X115950000Y-80380000D03*
X115950000Y-79420000D03*
G04 #@! TD*
D25*
G04 #@! TO.C,R12*
X134659999Y-63780000D03*
X133640001Y-63780000D03*
G04 #@! TD*
D37*
G04 #@! TO.C,R8*
X105625000Y-55100000D03*
X107275000Y-55100000D03*
G04 #@! TD*
D25*
G04 #@! TO.C,R7*
X112850000Y-55850000D03*
X111830002Y-55850000D03*
G04 #@! TD*
D38*
G04 #@! TO.C,U9*
X129230000Y-67140000D03*
X129230000Y-66340000D03*
X129230000Y-65540000D03*
X126930000Y-65540000D03*
X126930000Y-66340000D03*
X126930000Y-67140000D03*
G04 #@! TD*
D31*
G04 #@! TO.C,R18*
X136250000Y-80419998D03*
X136250000Y-79400000D03*
G04 #@! TD*
D27*
G04 #@! TO.C,C7*
X120150000Y-43767500D03*
X120150000Y-42807500D03*
G04 #@! TD*
D39*
G04 #@! TO.C,R9*
X97340254Y-60654657D03*
X97340254Y-58829657D03*
G04 #@! TD*
D24*
G04 #@! TO.C,L2*
X101425000Y-55550000D03*
X103575000Y-55550000D03*
G04 #@! TD*
D26*
G04 #@! TO.C,C38*
X139610000Y-87280000D03*
X138650000Y-87280000D03*
G04 #@! TD*
D33*
G04 #@! TO.C,C15*
X109910752Y-45064978D03*
X111460752Y-45064978D03*
G04 #@! TD*
D40*
G04 #@! TO.C,R5*
X100287500Y-51000000D03*
X101307500Y-51000000D03*
G04 #@! TD*
D41*
G04 #@! TO.C,U12*
X106775000Y-82012500D03*
X107425000Y-82012500D03*
X108075000Y-82012500D03*
X108725000Y-82012500D03*
X108725000Y-77787500D03*
X108075000Y-77787500D03*
X107425000Y-77787500D03*
X106775000Y-77787500D03*
G04 #@! TD*
D42*
G04 #@! TO.C,J2*
X118500000Y-84755000D03*
X119300000Y-84755000D03*
D43*
X120500000Y-84755000D03*
X121500000Y-84755000D03*
X122000000Y-84755000D03*
X123000000Y-84755000D03*
D42*
X124200000Y-84755000D03*
X125000000Y-84755000D03*
X125000000Y-84755000D03*
X124200000Y-84755000D03*
D43*
X123500000Y-84755000D03*
X122500000Y-84755000D03*
X121000000Y-84755000D03*
X120000000Y-84755000D03*
D42*
X119300000Y-84755000D03*
X118500000Y-84755000D03*
G04 #@! TD*
D40*
G04 #@! TO.C,R15*
X106775000Y-74850000D03*
X107795000Y-74850000D03*
G04 #@! TD*
D23*
G04 #@! TO.C,C24*
X103312500Y-65762500D03*
X103312500Y-66722500D03*
G04 #@! TD*
D33*
G04 #@! TO.C,C3*
X116508759Y-36542831D03*
X118058759Y-36542831D03*
G04 #@! TD*
D37*
G04 #@! TO.C,R10*
X108535796Y-48203068D03*
X110185796Y-48203068D03*
G04 #@! TD*
D27*
G04 #@! TO.C,C27*
X130730000Y-67140000D03*
X130730000Y-66180000D03*
G04 #@! TD*
D31*
G04 #@! TO.C,R19*
X120125000Y-82110000D03*
X120125000Y-81090000D03*
G04 #@! TD*
D26*
G04 #@! TO.C,C37*
X107580000Y-84650000D03*
X106620000Y-84650000D03*
G04 #@! TD*
D25*
G04 #@! TO.C,R3*
X120659999Y-48020000D03*
X119640001Y-48020000D03*
G04 #@! TD*
D23*
G04 #@! TO.C,C28*
X129820000Y-71080000D03*
X129820000Y-72040000D03*
G04 #@! TD*
D25*
G04 #@! TO.C,R11*
X118069998Y-48796759D03*
X117050000Y-48796759D03*
G04 #@! TD*
D44*
G04 #@! TO.C,SW2*
X139200000Y-68350001D03*
X139200000Y-64949999D03*
G04 #@! TD*
D33*
G04 #@! TO.C,C30*
X139125000Y-72050000D03*
X140675000Y-72050000D03*
G04 #@! TD*
D25*
G04 #@! TO.C,R21*
X107610000Y-83650000D03*
X106590000Y-83650000D03*
G04 #@! TD*
D45*
G04 #@! TO.C,Q1*
X102403033Y-79772792D03*
X103746536Y-78429289D03*
X101748959Y-77775215D03*
G04 #@! TD*
D40*
G04 #@! TO.C,R16*
X108725000Y-75800000D03*
X109745000Y-75800000D03*
G04 #@! TD*
D44*
G04 #@! TO.C,SW1*
X133150000Y-68350001D03*
X133150000Y-64949999D03*
G04 #@! TD*
D29*
G04 #@! TO.C,C12*
X105525000Y-45725000D03*
X105525000Y-44175000D03*
G04 #@! TD*
D46*
G04 #@! TO.C,U6*
X140400000Y-44700000D03*
X139130000Y-44700000D03*
X137860000Y-44700000D03*
X136590000Y-44700000D03*
X135320000Y-44700000D03*
X134050000Y-44700000D03*
X132780000Y-44700000D03*
X131510000Y-44700000D03*
X130240000Y-44700000D03*
X128970000Y-44700000D03*
X127700000Y-44700000D03*
X126430000Y-44700000D03*
X125160000Y-44700000D03*
X123890000Y-44700000D03*
D47*
X122640000Y-46465000D03*
X122640000Y-47735000D03*
X122640000Y-49005000D03*
X122640000Y-50275000D03*
X122640000Y-51545000D03*
X122640000Y-52815000D03*
X122640000Y-54085000D03*
X122640000Y-55355000D03*
X122640000Y-56625000D03*
X122640000Y-57895000D03*
X122640000Y-59165000D03*
X122640000Y-60435000D03*
D46*
X123890000Y-62200000D03*
X125160000Y-62200000D03*
X126430000Y-62200000D03*
X127700000Y-62200000D03*
X128970000Y-62200000D03*
X130240000Y-62200000D03*
X131510000Y-62200000D03*
X132780000Y-62200000D03*
X134050000Y-62200000D03*
X135320000Y-62200000D03*
X136590000Y-62200000D03*
X137860000Y-62200000D03*
X139130000Y-62200000D03*
X140400000Y-62200000D03*
D48*
X136550000Y-50590000D03*
X135050000Y-50590000D03*
X133550000Y-50590000D03*
X136550000Y-52090000D03*
X135050000Y-52090000D03*
X133550000Y-52090000D03*
X136550000Y-53590000D03*
X135050000Y-53590000D03*
X133550000Y-53590000D03*
G04 #@! TD*
D23*
G04 #@! TO.C,C29*
X130850000Y-71080000D03*
X130850000Y-72040000D03*
G04 #@! TD*
D26*
G04 #@! TO.C,C20*
X102656365Y-61238786D03*
X101696365Y-61238786D03*
G04 #@! TD*
D49*
G04 #@! TO.C,J1*
X139550000Y-75650000D03*
X139550000Y-76900000D03*
X139550000Y-78150000D03*
X139550000Y-79400000D03*
X139550000Y-80650000D03*
X139550000Y-81900000D03*
D50*
X142900000Y-73800000D03*
X142900000Y-83750000D03*
G04 #@! TD*
D51*
G04 #@! TO.C,U3*
X116990000Y-45760000D03*
X117610000Y-45760000D03*
X116990000Y-45140000D03*
X117610000Y-45140000D03*
D52*
X116550000Y-46887500D03*
X117050000Y-46887500D03*
X117550000Y-46887500D03*
X118050000Y-46887500D03*
D53*
X118737500Y-46200000D03*
X118737500Y-45700000D03*
X118737500Y-45200000D03*
X118737500Y-44700000D03*
D52*
X118050000Y-44012500D03*
X117550000Y-44012500D03*
X117050000Y-44012500D03*
X116550000Y-44012500D03*
D53*
X115862500Y-44700000D03*
X115862500Y-45200000D03*
X115862500Y-45700000D03*
X115862500Y-46200000D03*
G04 #@! TD*
D26*
G04 #@! TO.C,C39*
X131960000Y-91310000D03*
X131000000Y-91310000D03*
G04 #@! TD*
D40*
G04 #@! TO.C,R13*
X137690001Y-63780000D03*
X138709999Y-63780000D03*
G04 #@! TD*
D23*
G04 #@! TO.C,C1*
X138750000Y-35195000D03*
X138750000Y-36155000D03*
G04 #@! TD*
D27*
G04 #@! TO.C,C40*
X109500000Y-57806876D03*
X109500000Y-56846876D03*
G04 #@! TD*
D32*
G04 #@! TO.C,C13*
X120150000Y-44925000D03*
X120150000Y-46475000D03*
G04 #@! TD*
D40*
G04 #@! TO.C,R14*
X128210002Y-68290000D03*
X129230000Y-68290000D03*
G04 #@! TD*
D35*
G04 #@! TO.C,C21*
X131670000Y-63780000D03*
X132630000Y-63780000D03*
G04 #@! TD*
G04 #@! TO.C,C22*
X139670000Y-63780000D03*
X140630000Y-63780000D03*
G04 #@! TD*
D40*
G04 #@! TO.C,R2*
X100287500Y-43200000D03*
X101307498Y-43200000D03*
G04 #@! TD*
D26*
G04 #@! TO.C,C6*
X140630000Y-41750000D03*
X139670000Y-41750000D03*
G04 #@! TD*
M02*
