G04 #@! TF.GenerationSoftware,KiCad,Pcbnew,9.0.5-rc1*
G04 #@! TF.CreationDate,2025-09-24T09:07:52-05:00*
G04 #@! TF.ProjectId,stencil,7374656e-6369-46c2-9e6b-696361645f70,B*
G04 #@! TF.SameCoordinates,Original*
G04 #@! TF.FileFunction,Paste,Bot*
G04 #@! TF.FilePolarity,Positive*
%FSLAX46Y46*%
G04 Gerber Fmt 4.6, Leading zero omitted, Abs format (unit mm)*
G04 Created by KiCad (PCBNEW 9.0.5-rc1) date 2025-09-24 09:07:52*
%MOMM*%
%LPD*%
G01*
G04 APERTURE LIST*
%ADD10C,0.500000*%
%ADD11C,1.050000*%
%ADD12C,1.000000*%
%ADD13R,1.000000X2.750000*%
%ADD14R,0.650000X1.800000*%
G04 APERTURE END LIST*
D10*
X70750001Y-114649999D02*
G75*
G02*
X69750001Y-113649999I-1J999999D01*
G01*
X96750001Y-114649999D02*
X107750001Y-114649999D01*
X173250001Y-50149999D02*
G75*
G02*
X173750001Y-50649999I-1J-500001D01*
G01*
X173750001Y-11649999D02*
X173750001Y-22649999D01*
X122750001Y-114649999D02*
G75*
G02*
X122250001Y-114149999I-1J499999D01*
G01*
X148250001Y-11149999D02*
G75*
G02*
X148750001Y-10650001I499999J-1D01*
G01*
X69750001Y-37649999D02*
X69750001Y-48649999D01*
X173750001Y-35649999D02*
G75*
G02*
X173250001Y-36150001I-500001J-1D01*
G01*
X70250001Y-101149999D02*
G75*
G02*
X69750001Y-100649999I-1J499999D01*
G01*
X70750001Y-10649999D02*
X81750001Y-10649999D01*
D11*
X73525001Y-111399999D02*
G75*
G02*
X72475001Y-111399999I-525000J0D01*
G01*
X72475001Y-111399999D02*
G75*
G02*
X73525001Y-111399999I525000J0D01*
G01*
D10*
X173250001Y-76149999D02*
G75*
G02*
X173750001Y-76649999I-1J-500001D01*
G01*
X173750001Y-76649999D02*
X173750001Y-87649999D01*
X82250001Y-114149999D02*
G75*
G02*
X81750001Y-114650001I-500001J-1D01*
G01*
X70750001Y-114649999D02*
X81750001Y-114649999D01*
X69750001Y-102649999D02*
G75*
G02*
X70250001Y-102150001I499999J-1D01*
G01*
X173750001Y-48649999D02*
G75*
G02*
X173250001Y-49150001I-500001J-1D01*
G01*
D12*
X171000001Y-87024999D02*
G75*
G02*
X170000001Y-87024999I-500000J0D01*
G01*
X170000001Y-87024999D02*
G75*
G02*
X171000001Y-87024999I500000J0D01*
G01*
D10*
X161750001Y-114649999D02*
X172750001Y-114649999D01*
X69750001Y-63649999D02*
X69750001Y-74649999D01*
X70250001Y-75149999D02*
G75*
G02*
X69750001Y-74649999I-1J499999D01*
G01*
X148750001Y-114649999D02*
G75*
G02*
X148250001Y-114149999I-1J499999D01*
G01*
X173750001Y-63649999D02*
X173750001Y-74649999D01*
X69750001Y-89649999D02*
X69750001Y-100649999D01*
X133750001Y-10649999D02*
G75*
G02*
X134250001Y-11149999I-1J-500001D01*
G01*
X160250001Y-114149999D02*
G75*
G02*
X159750001Y-114650001I-500001J-1D01*
G01*
X147250001Y-114149999D02*
G75*
G02*
X146750001Y-114650001I-500001J-1D01*
G01*
X159750001Y-10649999D02*
G75*
G02*
X160250001Y-11149999I-1J-500001D01*
G01*
D12*
X171000001Y-38274999D02*
G75*
G02*
X170000001Y-38274999I-500000J0D01*
G01*
X170000001Y-38274999D02*
G75*
G02*
X171000001Y-38274999I500000J0D01*
G01*
X146625001Y-111399999D02*
G75*
G02*
X145625001Y-111399999I-500000J0D01*
G01*
X145625001Y-111399999D02*
G75*
G02*
X146625001Y-111399999I500000J0D01*
G01*
D10*
X107750001Y-10649999D02*
G75*
G02*
X108250001Y-11149999I-1J-500001D01*
G01*
X122750001Y-10649999D02*
X133750001Y-10649999D01*
X81750001Y-10649999D02*
G75*
G02*
X82250001Y-11149999I-1J-500001D01*
G01*
X69750001Y-76649999D02*
X69750001Y-87649999D01*
D12*
X122250001Y-13899999D02*
G75*
G02*
X121250001Y-13899999I-500000J0D01*
G01*
X121250001Y-13899999D02*
G75*
G02*
X122250001Y-13899999I500000J0D01*
G01*
D10*
X146750001Y-10649999D02*
G75*
G02*
X147250001Y-11149999I-1J-500001D01*
G01*
X135750001Y-114649999D02*
X146750001Y-114649999D01*
X69750001Y-37649999D02*
G75*
G02*
X70250001Y-37150001I499999J-1D01*
G01*
X109250001Y-11149999D02*
G75*
G02*
X109750001Y-10650001I499999J-1D01*
G01*
X173750001Y-89649999D02*
X173750001Y-100649999D01*
X109750001Y-114649999D02*
X120750001Y-114649999D01*
D12*
X73500001Y-38274999D02*
G75*
G02*
X72500001Y-38274999I-500000J0D01*
G01*
X72500001Y-38274999D02*
G75*
G02*
X73500001Y-38274999I500000J0D01*
G01*
D10*
X69750001Y-89649999D02*
G75*
G02*
X70250001Y-89150001I499999J-1D01*
G01*
X121250001Y-114149999D02*
G75*
G02*
X120750001Y-114650001I-500001J-1D01*
G01*
X70250001Y-36149999D02*
G75*
G02*
X69750001Y-35649999I-1J499999D01*
G01*
D11*
X171025001Y-13899999D02*
G75*
G02*
X169975001Y-13899999I-525000J0D01*
G01*
X169975001Y-13899999D02*
G75*
G02*
X171025001Y-13899999I525000J0D01*
G01*
D10*
X173250001Y-63149999D02*
G75*
G02*
X173750001Y-63649999I-1J-500001D01*
G01*
X69750001Y-24649999D02*
G75*
G02*
X70250001Y-24150001I499999J-1D01*
G01*
X96750001Y-114649999D02*
G75*
G02*
X96250001Y-114149999I-1J499999D01*
G01*
X135250001Y-11149999D02*
G75*
G02*
X135750001Y-10650001I499999J-1D01*
G01*
D12*
X73500001Y-87024999D02*
G75*
G02*
X72500001Y-87024999I-500000J0D01*
G01*
X72500001Y-87024999D02*
G75*
G02*
X73500001Y-87024999I500000J0D01*
G01*
D10*
X120750001Y-10649999D02*
G75*
G02*
X121250001Y-11149999I-1J-500001D01*
G01*
X83750001Y-114649999D02*
G75*
G02*
X83250001Y-114149999I-1J499999D01*
G01*
X135750001Y-114649999D02*
G75*
G02*
X135250001Y-114149999I-1J499999D01*
G01*
X173250001Y-89149999D02*
G75*
G02*
X173750001Y-89649999I-1J-500001D01*
G01*
X173750001Y-74649999D02*
G75*
G02*
X173250001Y-75150001I-500001J-1D01*
G01*
X173750001Y-37649999D02*
X173750001Y-48649999D01*
X96250001Y-11149999D02*
G75*
G02*
X96750001Y-10650001I499999J-1D01*
G01*
D11*
X73525001Y-13899999D02*
G75*
G02*
X72475001Y-13899999I-525000J0D01*
G01*
X72475001Y-13899999D02*
G75*
G02*
X73525001Y-13899999I525000J0D01*
G01*
D10*
X173250001Y-37149999D02*
G75*
G02*
X173750001Y-37649999I-1J-500001D01*
G01*
D12*
X97875001Y-13899999D02*
G75*
G02*
X96875001Y-13899999I-500000J0D01*
G01*
X96875001Y-13899999D02*
G75*
G02*
X97875001Y-13899999I500000J0D01*
G01*
D10*
X69750001Y-102649999D02*
X69750001Y-113649999D01*
X173750001Y-61649999D02*
G75*
G02*
X173250001Y-62150001I-500001J-1D01*
G01*
X69750001Y-50649999D02*
G75*
G02*
X70250001Y-50150001I499999J-1D01*
G01*
X173750001Y-102649999D02*
X173750001Y-113649999D01*
X83750001Y-114649999D02*
X94750001Y-114649999D01*
X173750001Y-22649999D02*
G75*
G02*
X173250001Y-23150001I-500001J-1D01*
G01*
X148750001Y-114649999D02*
X159750001Y-114649999D01*
X173250001Y-102149999D02*
G75*
G02*
X173750001Y-102649999I-1J-500001D01*
G01*
X173750001Y-50649999D02*
X173750001Y-61649999D01*
X70250001Y-62149999D02*
G75*
G02*
X69750001Y-61649999I-1J499999D01*
G01*
D12*
X97875001Y-111399999D02*
G75*
G02*
X96875001Y-111399999I-500000J0D01*
G01*
X96875001Y-111399999D02*
G75*
G02*
X97875001Y-111399999I500000J0D01*
G01*
D10*
X69750001Y-24649999D02*
X69750001Y-35649999D01*
X69750001Y-11649999D02*
G75*
G02*
X70750001Y-10650001I999999J-1D01*
G01*
X94750001Y-10649999D02*
G75*
G02*
X95250001Y-11149999I-1J-500001D01*
G01*
X83750001Y-10649999D02*
X94750001Y-10649999D01*
X69750001Y-11649999D02*
X69750001Y-22649999D01*
D11*
X171025001Y-111399999D02*
G75*
G02*
X169975001Y-111399999I-525000J0D01*
G01*
X169975001Y-111399999D02*
G75*
G02*
X171025001Y-111399999I525000J0D01*
G01*
D10*
X95250001Y-114149999D02*
G75*
G02*
X94750001Y-114650001I-500001J-1D01*
G01*
X173750001Y-100649999D02*
G75*
G02*
X173250001Y-101150001I-500001J-1D01*
G01*
X161250001Y-11149999D02*
G75*
G02*
X161750001Y-10650001I499999J-1D01*
G01*
X69750001Y-63649999D02*
G75*
G02*
X70250001Y-63150001I499999J-1D01*
G01*
X161750001Y-10649999D02*
X172750001Y-10649999D01*
X83250001Y-11149999D02*
G75*
G02*
X83750001Y-10650001I499999J-1D01*
G01*
X172750001Y-10649999D02*
G75*
G02*
X173750001Y-11649999I-1J-1000001D01*
G01*
X108250001Y-114149999D02*
G75*
G02*
X107750001Y-114650001I-500001J-1D01*
G01*
D12*
X146625001Y-13899999D02*
G75*
G02*
X145625001Y-13899999I-500000J0D01*
G01*
X145625001Y-13899999D02*
G75*
G02*
X146625001Y-13899999I500000J0D01*
G01*
D10*
X134250001Y-114149999D02*
G75*
G02*
X133750001Y-114650001I-500001J-1D01*
G01*
X148750001Y-10649999D02*
X159750001Y-10649999D01*
X70250001Y-23149999D02*
G75*
G02*
X69750001Y-22649999I-1J499999D01*
G01*
X69750001Y-50649999D02*
X69750001Y-61649999D01*
X70250001Y-49149999D02*
G75*
G02*
X69750001Y-48649999I-1J499999D01*
G01*
X135750001Y-10649999D02*
X146750001Y-10649999D01*
X122250001Y-11149999D02*
G75*
G02*
X122750001Y-10650001I499999J-1D01*
G01*
X173250001Y-24149999D02*
G75*
G02*
X173750001Y-24649999I-1J-500001D01*
G01*
X69750001Y-76649999D02*
G75*
G02*
X70250001Y-76150001I499999J-1D01*
G01*
D12*
X171000001Y-62649999D02*
G75*
G02*
X170000001Y-62649999I-500000J0D01*
G01*
X170000001Y-62649999D02*
G75*
G02*
X171000001Y-62649999I500000J0D01*
G01*
D10*
X161750001Y-114649999D02*
G75*
G02*
X161250001Y-114149999I-1J499999D01*
G01*
D12*
X122250001Y-111399999D02*
G75*
G02*
X121250001Y-111399999I-500000J0D01*
G01*
X121250001Y-111399999D02*
G75*
G02*
X122250001Y-111399999I500000J0D01*
G01*
D10*
X96750001Y-10649999D02*
X107750001Y-10649999D01*
X173750001Y-24649999D02*
X173750001Y-35649999D01*
X173750001Y-87649999D02*
G75*
G02*
X173250001Y-88150001I-500001J-1D01*
G01*
X109750001Y-10649999D02*
X120750001Y-10649999D01*
D12*
X73500001Y-62649999D02*
G75*
G02*
X72500001Y-62649999I-500000J0D01*
G01*
X72500001Y-62649999D02*
G75*
G02*
X73500001Y-62649999I500000J0D01*
G01*
D10*
X122750001Y-114649999D02*
X133750001Y-114649999D01*
X70250001Y-88149999D02*
G75*
G02*
X69750001Y-87649999I-1J499999D01*
G01*
X173750001Y-113649999D02*
G75*
G02*
X172750001Y-114650001I-1000001J-1D01*
G01*
X109750001Y-114649999D02*
G75*
G02*
X109250001Y-114149999I-1J499999D01*
G01*
D13*
G04 #@! TO.C,J6*
X138000000Y-82775000D03*
X138000000Y-76525000D03*
X140000000Y-82775000D03*
X140000000Y-76525000D03*
X142000000Y-82775000D03*
X142000000Y-76525000D03*
X144000000Y-82775000D03*
X144000000Y-76525000D03*
G04 #@! TD*
D14*
G04 #@! TO.C,J4*
X133960000Y-36825000D03*
X135230000Y-34125000D03*
X136500000Y-36825000D03*
X137770000Y-34125000D03*
X139040000Y-36825000D03*
G04 #@! TD*
M02*
