G04 #@! TF.GenerationSoftware,KiCad,Pcbnew,9.0.5-rc1*
G04 #@! TF.CreationDate,2025-09-22T17:03:30-05:00*
G04 #@! TF.ProjectId,stencil,7374656e-6369-46c2-9e6b-696361645f70,B*
G04 #@! TF.SameCoordinates,Original*
G04 #@! TF.FileFunction,Paste,Bot*
G04 #@! TF.FilePolarity,Positive*
%FSLAX46Y46*%
G04 Gerber Fmt 4.6, Leading zero omitted, Abs format (unit mm)*
G04 Created by KiCad (PCBNEW 9.0.5-rc1) date 2025-09-22 17:03:30*
%MOMM*%
%LPD*%
G01*
G04 APERTURE LIST*
%ADD10C,0.500000*%
%ADD11C,1.000000*%
%ADD12C,1.050000*%
%ADD13R,1.000000X2.750000*%
%ADD14R,0.650000X1.800000*%
G04 APERTURE END LIST*
D10*
X59750001Y-63649999D02*
G75*
G02*
X60250001Y-63150001I499999J-1D01*
G01*
X135150001Y-649999D02*
X145550001Y-649999D01*
X135150001Y-124649999D02*
X145550001Y-124649999D01*
X147550001Y-649999D02*
X157950001Y-649999D01*
X158450001Y-124149999D02*
G75*
G02*
X157950001Y-124650001I-500001J-1D01*
G01*
X60750001Y-124649999D02*
G75*
G02*
X59750001Y-123649999I-1J999999D01*
G01*
D11*
X122250001Y-121399999D02*
G75*
G02*
X121250001Y-121399999I-500000J0D01*
G01*
X121250001Y-121399999D02*
G75*
G02*
X122250001Y-121399999I500000J0D01*
G01*
D10*
X172350001Y-124649999D02*
X182750001Y-124649999D01*
X183250001Y-63149999D02*
G75*
G02*
X183750001Y-63649999I-1J-500001D01*
G01*
X182750001Y-649999D02*
G75*
G02*
X183750001Y-1649999I-1J-1000001D01*
G01*
X183750001Y-74049999D02*
G75*
G02*
X183250001Y-74550001I-500001J-1D01*
G01*
X84050001Y-124149999D02*
G75*
G02*
X83550001Y-124650001I-500001J-1D01*
G01*
X59750001Y-100849999D02*
X59750001Y-111249999D01*
X60250001Y-37349999D02*
G75*
G02*
X59750001Y-36849999I-1J499999D01*
G01*
X183250001Y-38349999D02*
G75*
G02*
X183750001Y-38849999I-1J-500001D01*
G01*
X183250001Y-75549999D02*
G75*
G02*
X183750001Y-76049999I-1J-500001D01*
G01*
X85550001Y-124649999D02*
X95950001Y-124649999D01*
X183750001Y-51249999D02*
X183750001Y-61649999D01*
X60750001Y-649999D02*
X71150001Y-649999D01*
X183750001Y-38849999D02*
X183750001Y-49249999D01*
D11*
X92875001Y-121399999D02*
G75*
G02*
X91875001Y-121399999I-500000J0D01*
G01*
X91875001Y-121399999D02*
G75*
G02*
X92875001Y-121399999I500000J0D01*
G01*
D10*
X183750001Y-36849999D02*
G75*
G02*
X183250001Y-37350001I-500001J-1D01*
G01*
X73150001Y-124649999D02*
G75*
G02*
X72650001Y-124149999I-1J499999D01*
G01*
X96450001Y-124149999D02*
G75*
G02*
X95950001Y-124650001I-500001J-1D01*
G01*
X183750001Y-111249999D02*
G75*
G02*
X183250001Y-111750001I-500001J-1D01*
G01*
X60250001Y-24949999D02*
G75*
G02*
X59750001Y-24449999I-1J499999D01*
G01*
X85550001Y-124649999D02*
G75*
G02*
X85050001Y-124149999I-1J499999D01*
G01*
X110350001Y-124649999D02*
G75*
G02*
X109850001Y-124149999I-1J499999D01*
G01*
D11*
X63500001Y-92024999D02*
G75*
G02*
X62500001Y-92024999I-500000J0D01*
G01*
X62500001Y-92024999D02*
G75*
G02*
X63500001Y-92024999I500000J0D01*
G01*
D10*
X183750001Y-113249999D02*
X183750001Y-123649999D01*
X59750001Y-26449999D02*
X59750001Y-36849999D01*
X59750001Y-88449999D02*
G75*
G02*
X60250001Y-87950001I499999J-1D01*
G01*
X59750001Y-14049999D02*
X59750001Y-24449999D01*
X71150001Y-649999D02*
G75*
G02*
X71650001Y-1149999I-1J-500001D01*
G01*
X85050001Y-1149999D02*
G75*
G02*
X85550001Y-650001I499999J-1D01*
G01*
D11*
X92875001Y-3899999D02*
G75*
G02*
X91875001Y-3899999I-500000J0D01*
G01*
X91875001Y-3899999D02*
G75*
G02*
X92875001Y-3899999I500000J0D01*
G01*
D10*
X71650001Y-124149999D02*
G75*
G02*
X71150001Y-124650001I-500001J-1D01*
G01*
D11*
X151625001Y-121399999D02*
G75*
G02*
X150625001Y-121399999I-500000J0D01*
G01*
X150625001Y-121399999D02*
G75*
G02*
X151625001Y-121399999I500000J0D01*
G01*
D10*
X147550001Y-124649999D02*
X157950001Y-124649999D01*
X59750001Y-51249999D02*
X59750001Y-61649999D01*
X120750001Y-649999D02*
G75*
G02*
X121250001Y-1149999I-1J-500001D01*
G01*
X183750001Y-100849999D02*
X183750001Y-111249999D01*
X183250001Y-13549999D02*
G75*
G02*
X183750001Y-14049999I-1J-500001D01*
G01*
X183750001Y-24449999D02*
G75*
G02*
X183250001Y-24950001I-500001J-1D01*
G01*
X183750001Y-86449999D02*
G75*
G02*
X183250001Y-86950001I-500001J-1D01*
G01*
X59750001Y-1649999D02*
X59750001Y-12049999D01*
X183250001Y-25949999D02*
G75*
G02*
X183750001Y-26449999I-1J-500001D01*
G01*
X59750001Y-100849999D02*
G75*
G02*
X60250001Y-100350001I499999J-1D01*
G01*
X183250001Y-50749999D02*
G75*
G02*
X183750001Y-51249999I-1J-500001D01*
G01*
X109850001Y-1149999D02*
G75*
G02*
X110350001Y-650001I499999J-1D01*
G01*
X170350001Y-649999D02*
G75*
G02*
X170850001Y-1149999I-1J-500001D01*
G01*
X147550001Y-124649999D02*
G75*
G02*
X147050001Y-124149999I-1J499999D01*
G01*
X159950001Y-124649999D02*
G75*
G02*
X159450001Y-124149999I-1J499999D01*
G01*
D11*
X181000001Y-33274999D02*
G75*
G02*
X180000001Y-33274999I-500000J0D01*
G01*
X180000001Y-33274999D02*
G75*
G02*
X181000001Y-33274999I500000J0D01*
G01*
D10*
X122750001Y-649999D02*
X133150001Y-649999D01*
X73150001Y-649999D02*
X83550001Y-649999D01*
X59750001Y-113249999D02*
X59750001Y-123649999D01*
X83550001Y-649999D02*
G75*
G02*
X84050001Y-1149999I-1J-500001D01*
G01*
X59750001Y-14049999D02*
G75*
G02*
X60250001Y-13550001I499999J-1D01*
G01*
X85550001Y-649999D02*
X95950001Y-649999D01*
X157950001Y-649999D02*
G75*
G02*
X158450001Y-1149999I-1J-500001D01*
G01*
X133650001Y-124149999D02*
G75*
G02*
X133150001Y-124650001I-500001J-1D01*
G01*
X183250001Y-87949999D02*
G75*
G02*
X183750001Y-88449999I-1J-500001D01*
G01*
X133150001Y-649999D02*
G75*
G02*
X133650001Y-1149999I-1J-500001D01*
G01*
X110350001Y-124649999D02*
X120750001Y-124649999D01*
X183750001Y-88449999D02*
X183750001Y-98849999D01*
X145550001Y-649999D02*
G75*
G02*
X146050001Y-1149999I-1J-500001D01*
G01*
X183750001Y-61649999D02*
G75*
G02*
X183250001Y-62150001I-500001J-1D01*
G01*
X183750001Y-1649999D02*
X183750001Y-12049999D01*
X159950001Y-124649999D02*
X170350001Y-124649999D01*
X97950001Y-649999D02*
X108350001Y-649999D01*
X170850001Y-124149999D02*
G75*
G02*
X170350001Y-124650001I-500001J-1D01*
G01*
D12*
X63525001Y-121399999D02*
G75*
G02*
X62475001Y-121399999I-525000J0D01*
G01*
X62475001Y-121399999D02*
G75*
G02*
X63525001Y-121399999I525000J0D01*
G01*
D10*
X60250001Y-86949999D02*
G75*
G02*
X59750001Y-86449999I-1J499999D01*
G01*
X135150001Y-124649999D02*
G75*
G02*
X134650001Y-124149999I-1J499999D01*
G01*
X134650001Y-1149999D02*
G75*
G02*
X135150001Y-650001I499999J-1D01*
G01*
X146050001Y-124149999D02*
G75*
G02*
X145550001Y-124650001I-500001J-1D01*
G01*
X183750001Y-123649999D02*
G75*
G02*
X182750001Y-124650001I-1000001J-1D01*
G01*
X59750001Y-76049999D02*
X59750001Y-86449999D01*
X97450001Y-1149999D02*
G75*
G02*
X97950001Y-650001I499999J-1D01*
G01*
X59750001Y-38849999D02*
G75*
G02*
X60250001Y-38350001I499999J-1D01*
G01*
X183250001Y-112749999D02*
G75*
G02*
X183750001Y-113249999I-1J-500001D01*
G01*
D11*
X63500001Y-33274999D02*
G75*
G02*
X62500001Y-33274999I-500000J0D01*
G01*
X62500001Y-33274999D02*
G75*
G02*
X63500001Y-33274999I500000J0D01*
G01*
D10*
X108850001Y-124149999D02*
G75*
G02*
X108350001Y-124650001I-500001J-1D01*
G01*
X183750001Y-12049999D02*
G75*
G02*
X183250001Y-12550001I-500001J-1D01*
G01*
X72650001Y-1149999D02*
G75*
G02*
X73150001Y-650001I499999J-1D01*
G01*
X59750001Y-51249999D02*
G75*
G02*
X60250001Y-50750001I499999J-1D01*
G01*
D12*
X181025001Y-121399999D02*
G75*
G02*
X179975001Y-121399999I-525000J0D01*
G01*
X179975001Y-121399999D02*
G75*
G02*
X181025001Y-121399999I525000J0D01*
G01*
D10*
X60250001Y-111749999D02*
G75*
G02*
X59750001Y-111249999I-1J499999D01*
G01*
X171850001Y-1149999D02*
G75*
G02*
X172350001Y-650001I499999J-1D01*
G01*
X59750001Y-38849999D02*
X59750001Y-49249999D01*
X60250001Y-62149999D02*
G75*
G02*
X59750001Y-61649999I-1J499999D01*
G01*
X183750001Y-76049999D02*
X183750001Y-86449999D01*
D12*
X181025001Y-3899999D02*
G75*
G02*
X179975001Y-3899999I-525000J0D01*
G01*
X179975001Y-3899999D02*
G75*
G02*
X181025001Y-3899999I525000J0D01*
G01*
X63525001Y-3899999D02*
G75*
G02*
X62475001Y-3899999I-525000J0D01*
G01*
X62475001Y-3899999D02*
G75*
G02*
X63525001Y-3899999I525000J0D01*
G01*
D10*
X122250001Y-1149999D02*
G75*
G02*
X122750001Y-650001I499999J-1D01*
G01*
D11*
X151625001Y-3899999D02*
G75*
G02*
X150625001Y-3899999I-500000J0D01*
G01*
X150625001Y-3899999D02*
G75*
G02*
X151625001Y-3899999I500000J0D01*
G01*
D10*
X110350001Y-649999D02*
X120750001Y-649999D01*
D11*
X181000001Y-92024999D02*
G75*
G02*
X180000001Y-92024999I-500000J0D01*
G01*
X180000001Y-92024999D02*
G75*
G02*
X181000001Y-92024999I500000J0D01*
G01*
D10*
X159450001Y-1149999D02*
G75*
G02*
X159950001Y-650001I499999J-1D01*
G01*
X183750001Y-14049999D02*
X183750001Y-24449999D01*
X147050001Y-1149999D02*
G75*
G02*
X147550001Y-650001I499999J-1D01*
G01*
X159950001Y-649999D02*
X170350001Y-649999D01*
X97950001Y-124649999D02*
X108350001Y-124649999D01*
X60250001Y-74549999D02*
G75*
G02*
X59750001Y-74049999I-1J499999D01*
G01*
X183750001Y-63649999D02*
X183750001Y-74049999D01*
X59750001Y-76049999D02*
G75*
G02*
X60250001Y-75550001I499999J-1D01*
G01*
X172350001Y-649999D02*
X182750001Y-649999D01*
X73150001Y-124649999D02*
X83550001Y-124649999D01*
X121250001Y-124149999D02*
G75*
G02*
X120750001Y-124650001I-500001J-1D01*
G01*
D11*
X122250001Y-3899999D02*
G75*
G02*
X121250001Y-3899999I-500000J0D01*
G01*
X121250001Y-3899999D02*
G75*
G02*
X122250001Y-3899999I500000J0D01*
G01*
D10*
X60750001Y-124649999D02*
X71150001Y-124649999D01*
X59750001Y-63649999D02*
X59750001Y-74049999D01*
X183750001Y-26449999D02*
X183750001Y-36849999D01*
X60250001Y-49749999D02*
G75*
G02*
X59750001Y-49249999I-1J499999D01*
G01*
X59750001Y-26449999D02*
G75*
G02*
X60250001Y-25950001I499999J-1D01*
G01*
D11*
X181000001Y-62649999D02*
G75*
G02*
X180000001Y-62649999I-500000J0D01*
G01*
X180000001Y-62649999D02*
G75*
G02*
X181000001Y-62649999I500000J0D01*
G01*
D10*
X183750001Y-98849999D02*
G75*
G02*
X183250001Y-99350001I-500001J-1D01*
G01*
X183250001Y-100349999D02*
G75*
G02*
X183750001Y-100849999I-1J-500001D01*
G01*
D11*
X63500001Y-62649999D02*
G75*
G02*
X62500001Y-62649999I-500000J0D01*
G01*
X62500001Y-62649999D02*
G75*
G02*
X63500001Y-62649999I500000J0D01*
G01*
D10*
X108350001Y-649999D02*
G75*
G02*
X108850001Y-1149999I-1J-500001D01*
G01*
X97950001Y-124649999D02*
G75*
G02*
X97450001Y-124149999I-1J499999D01*
G01*
X183750001Y-49249999D02*
G75*
G02*
X183250001Y-49750001I-500001J-1D01*
G01*
X122750001Y-124649999D02*
G75*
G02*
X122250001Y-124149999I-1J499999D01*
G01*
X59750001Y-1649999D02*
G75*
G02*
X60750001Y-650001I999999J-1D01*
G01*
X95950001Y-649999D02*
G75*
G02*
X96450001Y-1149999I-1J-500001D01*
G01*
X59750001Y-88449999D02*
X59750001Y-98849999D01*
X122750001Y-124649999D02*
X133150001Y-124649999D01*
X60250001Y-12549999D02*
G75*
G02*
X59750001Y-12049999I-1J499999D01*
G01*
X172350001Y-124649999D02*
G75*
G02*
X171850001Y-124149999I-1J499999D01*
G01*
X60250001Y-99349999D02*
G75*
G02*
X59750001Y-98849999I-1J499999D01*
G01*
X59750001Y-113249999D02*
G75*
G02*
X60250001Y-112750001I499999J-1D01*
G01*
D13*
G04 #@! TO.C,J6*
X138000000Y-82775000D03*
X138000000Y-76525000D03*
X140000000Y-82775000D03*
X140000000Y-76525000D03*
X142000000Y-82775000D03*
X142000000Y-76525000D03*
X144000000Y-82775000D03*
X144000000Y-76525000D03*
G04 #@! TD*
D14*
G04 #@! TO.C,J4*
X133960000Y-36825000D03*
X135230000Y-34125000D03*
X136500000Y-36825000D03*
X137770000Y-34125000D03*
X139040000Y-36825000D03*
G04 #@! TD*
M02*
