ISO-10303-21;
HEADER;
/* Generated by software containing ST-Developer
 * from STEP Tools, Inc. (www.steptools.com) 
 */

FILE_DESCRIPTION(
/* description */ (''),
/* implementation_level */ '2;1');

FILE_NAME(
/* name */ 'Stencil Frame.step',
/* time_stamp */ '2025-10-03T19:33:47-05:00',
/* author */ (''),
/* organization */ (''),
/* preprocessor_version */ 'ST-DEVELOPER v20.1',
/* originating_system */ 'Autodesk Translation Framework v14.17.0.0',
/* authorisation */ '');

FILE_SCHEMA (('AUTOMOTIVE_DESIGN { 1 0 10303 214 3 1 1 }'));
ENDSEC;

DATA;
#10=MECHANICAL_DESIGN_GEOMETRIC_PRESENTATION_REPRESENTATION('',(#17),#851);
#11=ITEM_DEFINED_TRANSFORMATION($,$,#515,#564);
#12=(
REPRESENTATION_RELATIONSHIP($,$,#862,#861)
REPRESENTATION_RELATIONSHIP_WITH_TRANSFORMATION(#11)
SHAPE_REPRESENTATION_RELATIONSHIP()
);
#13=CONTEXT_DEPENDENT_SHAPE_REPRESENTATION(#12,#860);
#14=NEXT_ASSEMBLY_USAGE_OCCURRENCE('stencilFrame:1','stencilFrame:1',
'stencilFrame:1',#864,#865,'stencilFrame:1');
#15=SHAPE_REPRESENTATION_RELATIONSHIP('SRR','None',#862,#16);
#16=ADVANCED_BREP_SHAPE_REPRESENTATION('',(#18),#850);
#17=STYLED_ITEM('',(#876),#18);
#18=MANIFOLD_SOLID_BREP('Body1',#501);
#19=FACE_BOUND('',#96,.T.);
#20=FACE_BOUND('',#97,.T.);
#21=FACE_BOUND('',#98,.T.);
#22=FACE_BOUND('',#99,.T.);
#23=FACE_BOUND('',#100,.T.);
#24=FACE_BOUND('',#101,.T.);
#25=FACE_BOUND('',#102,.T.);
#26=FACE_BOUND('',#103,.T.);
#27=FACE_BOUND('',#104,.T.);
#28=FACE_BOUND('',#106,.T.);
#29=FACE_BOUND('',#107,.T.);
#30=FACE_BOUND('',#108,.T.);
#31=FACE_BOUND('',#109,.T.);
#32=FACE_BOUND('',#110,.T.);
#33=FACE_BOUND('',#111,.T.);
#34=FACE_BOUND('',#112,.T.);
#35=FACE_BOUND('',#113,.T.);
#36=FACE_BOUND('',#114,.T.);
#37=PLANE('',#540);
#38=PLANE('',#541);
#39=PLANE('',#542);
#40=PLANE('',#543);
#41=PLANE('',#547);
#42=PLANE('',#551);
#43=PLANE('',#552);
#44=PLANE('',#556);
#45=PLANE('',#560);
#46=PLANE('',#561);
#47=PLANE('',#562);
#48=PLANE('',#563);
#49=FACE_OUTER_BOUND('',#73,.T.);
#50=FACE_OUTER_BOUND('',#74,.T.);
#51=FACE_OUTER_BOUND('',#75,.T.);
#52=FACE_OUTER_BOUND('',#76,.T.);
#53=FACE_OUTER_BOUND('',#77,.T.);
#54=FACE_OUTER_BOUND('',#78,.T.);
#55=FACE_OUTER_BOUND('',#79,.T.);
#56=FACE_OUTER_BOUND('',#80,.T.);
#57=FACE_OUTER_BOUND('',#81,.T.);
#58=FACE_OUTER_BOUND('',#82,.T.);
#59=FACE_OUTER_BOUND('',#83,.T.);
#60=FACE_OUTER_BOUND('',#84,.T.);
#61=FACE_OUTER_BOUND('',#85,.T.);
#62=FACE_OUTER_BOUND('',#86,.T.);
#63=FACE_OUTER_BOUND('',#87,.T.);
#64=FACE_OUTER_BOUND('',#88,.T.);
#65=FACE_OUTER_BOUND('',#89,.T.);
#66=FACE_OUTER_BOUND('',#90,.T.);
#67=FACE_OUTER_BOUND('',#91,.T.);
#68=FACE_OUTER_BOUND('',#92,.T.);
#69=FACE_OUTER_BOUND('',#93,.T.);
#70=FACE_OUTER_BOUND('',#94,.T.);
#71=FACE_OUTER_BOUND('',#95,.T.);
#72=FACE_OUTER_BOUND('',#105,.T.);
#73=EDGE_LOOP('',(#333,#334,#335,#336));
#74=EDGE_LOOP('',(#337,#338,#339,#340));
#75=EDGE_LOOP('',(#341,#342,#343,#344));
#76=EDGE_LOOP('',(#345,#346,#347,#348));
#77=EDGE_LOOP('',(#349,#350,#351,#352));
#78=EDGE_LOOP('',(#353,#354,#355,#356));
#79=EDGE_LOOP('',(#357,#358,#359,#360));
#80=EDGE_LOOP('',(#361,#362,#363,#364));
#81=EDGE_LOOP('',(#365,#366,#367,#368));
#82=EDGE_LOOP('',(#369,#370,#371,#372));
#83=EDGE_LOOP('',(#373,#374,#375,#376));
#84=EDGE_LOOP('',(#377,#378,#379,#380));
#85=EDGE_LOOP('',(#381,#382,#383,#384));
#86=EDGE_LOOP('',(#385,#386,#387,#388));
#87=EDGE_LOOP('',(#389,#390,#391,#392));
#88=EDGE_LOOP('',(#393,#394,#395,#396));
#89=EDGE_LOOP('',(#397,#398,#399,#400));
#90=EDGE_LOOP('',(#401,#402,#403,#404));
#91=EDGE_LOOP('',(#405,#406,#407,#408));
#92=EDGE_LOOP('',(#409,#410,#411,#412));
#93=EDGE_LOOP('',(#413,#414,#415,#416));
#94=EDGE_LOOP('',(#417,#418,#419,#420));
#95=EDGE_LOOP('',(#421,#422,#423,#424,#425,#426,#427,#428,#429,#430));
#96=EDGE_LOOP('',(#431));
#97=EDGE_LOOP('',(#432));
#98=EDGE_LOOP('',(#433));
#99=EDGE_LOOP('',(#434));
#100=EDGE_LOOP('',(#435));
#101=EDGE_LOOP('',(#436));
#102=EDGE_LOOP('',(#437));
#103=EDGE_LOOP('',(#438));
#104=EDGE_LOOP('',(#439,#440,#441,#442));
#105=EDGE_LOOP('',(#443,#444,#445,#446,#447,#448,#449,#450,#451,#452));
#106=EDGE_LOOP('',(#453));
#107=EDGE_LOOP('',(#454));
#108=EDGE_LOOP('',(#455));
#109=EDGE_LOOP('',(#456));
#110=EDGE_LOOP('',(#457));
#111=EDGE_LOOP('',(#458));
#112=EDGE_LOOP('',(#459));
#113=EDGE_LOOP('',(#460));
#114=EDGE_LOOP('',(#461,#462,#463,#464));
#115=LINE('',#715,#157);
#116=LINE('',#721,#158);
#117=LINE('',#727,#159);
#118=LINE('',#733,#160);
#119=LINE('',#739,#161);
#120=LINE('',#745,#162);
#121=LINE('',#751,#163);
#122=LINE('',#757,#164);
#123=LINE('',#762,#165);
#124=LINE('',#764,#166);
#125=LINE('',#766,#167);
#126=LINE('',#767,#168);
#127=LINE('',#770,#169);
#128=LINE('',#772,#170);
#129=LINE('',#773,#171);
#130=LINE('',#776,#172);
#131=LINE('',#778,#173);
#132=LINE('',#779,#174);
#133=LINE('',#781,#175);
#134=LINE('',#782,#176);
#135=LINE('',#788,#177);
#136=LINE('',#791,#178);
#137=LINE('',#794,#179);
#138=LINE('',#796,#180);
#139=LINE('',#797,#181);
#140=LINE('',#803,#182);
#141=LINE('',#806,#183);
#142=LINE('',#808,#184);
#143=LINE('',#809,#185);
#144=LINE('',#812,#186);
#145=LINE('',#814,#187);
#146=LINE('',#815,#188);
#147=LINE('',#821,#189);
#148=LINE('',#824,#190);
#149=LINE('',#826,#191);
#150=LINE('',#827,#192);
#151=LINE('',#833,#193);
#152=LINE('',#836,#194);
#153=LINE('',#838,#195);
#154=LINE('',#839,#196);
#155=LINE('',#841,#197);
#156=LINE('',#842,#198);
#157=VECTOR('',#573,1.15);
#158=VECTOR('',#580,1.15);
#159=VECTOR('',#587,1.15);
#160=VECTOR('',#594,1.15);
#161=VECTOR('',#601,1.6);
#162=VECTOR('',#608,1.6);
#163=VECTOR('',#615,1.6);
#164=VECTOR('',#622,1.6);
#165=VECTOR('',#627,10.);
#166=VECTOR('',#628,10.);
#167=VECTOR('',#629,10.);
#168=VECTOR('',#630,10.);
#169=VECTOR('',#633,10.);
#170=VECTOR('',#634,10.);
#171=VECTOR('',#635,10.);
#172=VECTOR('',#638,10.);
#173=VECTOR('',#639,10.);
#174=VECTOR('',#640,10.);
#175=VECTOR('',#643,10.);
#176=VECTOR('',#644,10.);
#177=VECTOR('',#649,10.);
#178=VECTOR('',#652,10.);
#179=VECTOR('',#655,10.);
#180=VECTOR('',#656,10.);
#181=VECTOR('',#657,10.);
#182=VECTOR('',#664,10.);
#183=VECTOR('',#667,10.);
#184=VECTOR('',#668,10.);
#185=VECTOR('',#669,10.);
#186=VECTOR('',#672,10.);
#187=VECTOR('',#673,10.);
#188=VECTOR('',#674,10.);
#189=VECTOR('',#681,10.);
#190=VECTOR('',#684,10.);
#191=VECTOR('',#685,10.);
#192=VECTOR('',#686,10.);
#193=VECTOR('',#693,10.);
#194=VECTOR('',#696,10.);
#195=VECTOR('',#697,10.);
#196=VECTOR('',#698,10.);
#197=VECTOR('',#701,10.);
#198=VECTOR('',#702,10.);
#199=CIRCLE('',#517,1.15);
#200=CIRCLE('',#518,1.15);
#201=CIRCLE('',#520,1.15);
#202=CIRCLE('',#521,1.15);
#203=CIRCLE('',#523,1.15);
#204=CIRCLE('',#524,1.15);
#205=CIRCLE('',#526,1.15);
#206=CIRCLE('',#527,1.15);
#207=CIRCLE('',#529,1.6);
#208=CIRCLE('',#530,1.6);
#209=CIRCLE('',#532,1.6);
#210=CIRCLE('',#533,1.6);
#211=CIRCLE('',#535,1.6);
#212=CIRCLE('',#536,1.6);
#213=CIRCLE('',#538,1.6);
#214=CIRCLE('',#539,1.6);
#215=CIRCLE('',#545,3.00000000000001);
#216=CIRCLE('',#546,3.00000000000001);
#217=CIRCLE('',#549,3.);
#218=CIRCLE('',#550,3.);
#219=CIRCLE('',#554,3.00000000000001);
#220=CIRCLE('',#555,3.00000000000001);
#221=CIRCLE('',#558,2.99999999999999);
#222=CIRCLE('',#559,2.99999999999999);
#223=VERTEX_POINT('',#712);
#224=VERTEX_POINT('',#714);
#225=VERTEX_POINT('',#718);
#226=VERTEX_POINT('',#720);
#227=VERTEX_POINT('',#724);
#228=VERTEX_POINT('',#726);
#229=VERTEX_POINT('',#730);
#230=VERTEX_POINT('',#732);
#231=VERTEX_POINT('',#736);
#232=VERTEX_POINT('',#738);
#233=VERTEX_POINT('',#742);
#234=VERTEX_POINT('',#744);
#235=VERTEX_POINT('',#748);
#236=VERTEX_POINT('',#750);
#237=VERTEX_POINT('',#754);
#238=VERTEX_POINT('',#756);
#239=VERTEX_POINT('',#760);
#240=VERTEX_POINT('',#761);
#241=VERTEX_POINT('',#763);
#242=VERTEX_POINT('',#765);
#243=VERTEX_POINT('',#769);
#244=VERTEX_POINT('',#771);
#245=VERTEX_POINT('',#775);
#246=VERTEX_POINT('',#777);
#247=VERTEX_POINT('',#784);
#248=VERTEX_POINT('',#785);
#249=VERTEX_POINT('',#787);
#250=VERTEX_POINT('',#789);
#251=VERTEX_POINT('',#793);
#252=VERTEX_POINT('',#795);
#253=VERTEX_POINT('',#799);
#254=VERTEX_POINT('',#801);
#255=VERTEX_POINT('',#805);
#256=VERTEX_POINT('',#807);
#257=VERTEX_POINT('',#811);
#258=VERTEX_POINT('',#813);
#259=VERTEX_POINT('',#817);
#260=VERTEX_POINT('',#819);
#261=VERTEX_POINT('',#823);
#262=VERTEX_POINT('',#825);
#263=VERTEX_POINT('',#829);
#264=VERTEX_POINT('',#831);
#265=VERTEX_POINT('',#835);
#266=VERTEX_POINT('',#837);
#267=EDGE_CURVE('',#223,#223,#199,.T.);
#268=EDGE_CURVE('',#223,#224,#115,.T.);
#269=EDGE_CURVE('',#224,#224,#200,.T.);
#270=EDGE_CURVE('',#225,#225,#201,.T.);
#271=EDGE_CURVE('',#225,#226,#116,.T.);
#272=EDGE_CURVE('',#226,#226,#202,.T.);
#273=EDGE_CURVE('',#227,#227,#203,.T.);
#274=EDGE_CURVE('',#227,#228,#117,.T.);
#275=EDGE_CURVE('',#228,#228,#204,.T.);
#276=EDGE_CURVE('',#229,#229,#205,.T.);
#277=EDGE_CURVE('',#229,#230,#118,.T.);
#278=EDGE_CURVE('',#230,#230,#206,.T.);
#279=EDGE_CURVE('',#231,#231,#207,.T.);
#280=EDGE_CURVE('',#231,#232,#119,.T.);
#281=EDGE_CURVE('',#232,#232,#208,.T.);
#282=EDGE_CURVE('',#233,#233,#209,.T.);
#283=EDGE_CURVE('',#233,#234,#120,.T.);
#284=EDGE_CURVE('',#234,#234,#210,.T.);
#285=EDGE_CURVE('',#235,#235,#211,.T.);
#286=EDGE_CURVE('',#235,#236,#121,.T.);
#287=EDGE_CURVE('',#236,#236,#212,.T.);
#288=EDGE_CURVE('',#237,#237,#213,.T.);
#289=EDGE_CURVE('',#237,#238,#122,.T.);
#290=EDGE_CURVE('',#238,#238,#214,.T.);
#291=EDGE_CURVE('',#239,#240,#123,.T.);
#292=EDGE_CURVE('',#239,#241,#124,.T.);
#293=EDGE_CURVE('',#242,#241,#125,.T.);
#294=EDGE_CURVE('',#240,#242,#126,.T.);
#295=EDGE_CURVE('',#240,#243,#127,.T.);
#296=EDGE_CURVE('',#244,#242,#128,.T.);
#297=EDGE_CURVE('',#243,#244,#129,.T.);
#298=EDGE_CURVE('',#243,#245,#130,.T.);
#299=EDGE_CURVE('',#246,#244,#131,.T.);
#300=EDGE_CURVE('',#245,#246,#132,.T.);
#301=EDGE_CURVE('',#245,#239,#133,.T.);
#302=EDGE_CURVE('',#241,#246,#134,.T.);
#303=EDGE_CURVE('',#247,#248,#215,.T.);
#304=EDGE_CURVE('',#248,#249,#135,.T.);
#305=EDGE_CURVE('',#250,#249,#216,.T.);
#306=EDGE_CURVE('',#247,#250,#136,.T.);
#307=EDGE_CURVE('',#247,#251,#137,.T.);
#308=EDGE_CURVE('',#252,#250,#138,.T.);
#309=EDGE_CURVE('',#251,#252,#139,.T.);
#310=EDGE_CURVE('',#253,#251,#217,.T.);
#311=EDGE_CURVE('',#254,#252,#218,.T.);
#312=EDGE_CURVE('',#253,#254,#140,.T.);
#313=EDGE_CURVE('',#253,#255,#141,.T.);
#314=EDGE_CURVE('',#256,#254,#142,.T.);
#315=EDGE_CURVE('',#255,#256,#143,.T.);
#316=EDGE_CURVE('',#255,#257,#144,.T.);
#317=EDGE_CURVE('',#258,#256,#145,.T.);
#318=EDGE_CURVE('',#257,#258,#146,.T.);
#319=EDGE_CURVE('',#259,#257,#219,.T.);
#320=EDGE_CURVE('',#260,#258,#220,.T.);
#321=EDGE_CURVE('',#259,#260,#147,.T.);
#322=EDGE_CURVE('',#259,#261,#148,.T.);
#323=EDGE_CURVE('',#262,#260,#149,.T.);
#324=EDGE_CURVE('',#261,#262,#150,.T.);
#325=EDGE_CURVE('',#263,#261,#221,.T.);
#326=EDGE_CURVE('',#264,#262,#222,.T.);
#327=EDGE_CURVE('',#263,#264,#151,.T.);
#328=EDGE_CURVE('',#263,#265,#152,.T.);
#329=EDGE_CURVE('',#266,#264,#153,.T.);
#330=EDGE_CURVE('',#265,#266,#154,.T.);
#331=EDGE_CURVE('',#248,#265,#155,.T.);
#332=EDGE_CURVE('',#249,#266,#156,.T.);
#333=ORIENTED_EDGE('',*,*,#267,.F.);
#334=ORIENTED_EDGE('',*,*,#268,.T.);
#335=ORIENTED_EDGE('',*,*,#269,.F.);
#336=ORIENTED_EDGE('',*,*,#268,.F.);
#337=ORIENTED_EDGE('',*,*,#270,.F.);
#338=ORIENTED_EDGE('',*,*,#271,.T.);
#339=ORIENTED_EDGE('',*,*,#272,.F.);
#340=ORIENTED_EDGE('',*,*,#271,.F.);
#341=ORIENTED_EDGE('',*,*,#273,.F.);
#342=ORIENTED_EDGE('',*,*,#274,.T.);
#343=ORIENTED_EDGE('',*,*,#275,.F.);
#344=ORIENTED_EDGE('',*,*,#274,.F.);
#345=ORIENTED_EDGE('',*,*,#276,.F.);
#346=ORIENTED_EDGE('',*,*,#277,.T.);
#347=ORIENTED_EDGE('',*,*,#278,.F.);
#348=ORIENTED_EDGE('',*,*,#277,.F.);
#349=ORIENTED_EDGE('',*,*,#279,.F.);
#350=ORIENTED_EDGE('',*,*,#280,.T.);
#351=ORIENTED_EDGE('',*,*,#281,.F.);
#352=ORIENTED_EDGE('',*,*,#280,.F.);
#353=ORIENTED_EDGE('',*,*,#282,.F.);
#354=ORIENTED_EDGE('',*,*,#283,.T.);
#355=ORIENTED_EDGE('',*,*,#284,.F.);
#356=ORIENTED_EDGE('',*,*,#283,.F.);
#357=ORIENTED_EDGE('',*,*,#285,.F.);
#358=ORIENTED_EDGE('',*,*,#286,.T.);
#359=ORIENTED_EDGE('',*,*,#287,.F.);
#360=ORIENTED_EDGE('',*,*,#286,.F.);
#361=ORIENTED_EDGE('',*,*,#288,.F.);
#362=ORIENTED_EDGE('',*,*,#289,.T.);
#363=ORIENTED_EDGE('',*,*,#290,.F.);
#364=ORIENTED_EDGE('',*,*,#289,.F.);
#365=ORIENTED_EDGE('',*,*,#291,.F.);
#366=ORIENTED_EDGE('',*,*,#292,.T.);
#367=ORIENTED_EDGE('',*,*,#293,.F.);
#368=ORIENTED_EDGE('',*,*,#294,.F.);
#369=ORIENTED_EDGE('',*,*,#295,.F.);
#370=ORIENTED_EDGE('',*,*,#294,.T.);
#371=ORIENTED_EDGE('',*,*,#296,.F.);
#372=ORIENTED_EDGE('',*,*,#297,.F.);
#373=ORIENTED_EDGE('',*,*,#298,.F.);
#374=ORIENTED_EDGE('',*,*,#297,.T.);
#375=ORIENTED_EDGE('',*,*,#299,.F.);
#376=ORIENTED_EDGE('',*,*,#300,.F.);
#377=ORIENTED_EDGE('',*,*,#301,.F.);
#378=ORIENTED_EDGE('',*,*,#300,.T.);
#379=ORIENTED_EDGE('',*,*,#302,.F.);
#380=ORIENTED_EDGE('',*,*,#292,.F.);
#381=ORIENTED_EDGE('',*,*,#303,.T.);
#382=ORIENTED_EDGE('',*,*,#304,.T.);
#383=ORIENTED_EDGE('',*,*,#305,.F.);
#384=ORIENTED_EDGE('',*,*,#306,.F.);
#385=ORIENTED_EDGE('',*,*,#307,.F.);
#386=ORIENTED_EDGE('',*,*,#306,.T.);
#387=ORIENTED_EDGE('',*,*,#308,.F.);
#388=ORIENTED_EDGE('',*,*,#309,.F.);
#389=ORIENTED_EDGE('',*,*,#310,.T.);
#390=ORIENTED_EDGE('',*,*,#309,.T.);
#391=ORIENTED_EDGE('',*,*,#311,.F.);
#392=ORIENTED_EDGE('',*,*,#312,.F.);
#393=ORIENTED_EDGE('',*,*,#313,.F.);
#394=ORIENTED_EDGE('',*,*,#312,.T.);
#395=ORIENTED_EDGE('',*,*,#314,.F.);
#396=ORIENTED_EDGE('',*,*,#315,.F.);
#397=ORIENTED_EDGE('',*,*,#316,.F.);
#398=ORIENTED_EDGE('',*,*,#315,.T.);
#399=ORIENTED_EDGE('',*,*,#317,.F.);
#400=ORIENTED_EDGE('',*,*,#318,.F.);
#401=ORIENTED_EDGE('',*,*,#319,.T.);
#402=ORIENTED_EDGE('',*,*,#318,.T.);
#403=ORIENTED_EDGE('',*,*,#320,.F.);
#404=ORIENTED_EDGE('',*,*,#321,.F.);
#405=ORIENTED_EDGE('',*,*,#322,.F.);
#406=ORIENTED_EDGE('',*,*,#321,.T.);
#407=ORIENTED_EDGE('',*,*,#323,.F.);
#408=ORIENTED_EDGE('',*,*,#324,.F.);
#409=ORIENTED_EDGE('',*,*,#325,.T.);
#410=ORIENTED_EDGE('',*,*,#324,.T.);
#411=ORIENTED_EDGE('',*,*,#326,.F.);
#412=ORIENTED_EDGE('',*,*,#327,.F.);
#413=ORIENTED_EDGE('',*,*,#328,.F.);
#414=ORIENTED_EDGE('',*,*,#327,.T.);
#415=ORIENTED_EDGE('',*,*,#329,.F.);
#416=ORIENTED_EDGE('',*,*,#330,.F.);
#417=ORIENTED_EDGE('',*,*,#331,.T.);
#418=ORIENTED_EDGE('',*,*,#330,.T.);
#419=ORIENTED_EDGE('',*,*,#332,.F.);
#420=ORIENTED_EDGE('',*,*,#304,.F.);
#421=ORIENTED_EDGE('',*,*,#332,.T.);
#422=ORIENTED_EDGE('',*,*,#329,.T.);
#423=ORIENTED_EDGE('',*,*,#326,.T.);
#424=ORIENTED_EDGE('',*,*,#323,.T.);
#425=ORIENTED_EDGE('',*,*,#320,.T.);
#426=ORIENTED_EDGE('',*,*,#317,.T.);
#427=ORIENTED_EDGE('',*,*,#314,.T.);
#428=ORIENTED_EDGE('',*,*,#311,.T.);
#429=ORIENTED_EDGE('',*,*,#308,.T.);
#430=ORIENTED_EDGE('',*,*,#305,.T.);
#431=ORIENTED_EDGE('',*,*,#267,.T.);
#432=ORIENTED_EDGE('',*,*,#270,.T.);
#433=ORIENTED_EDGE('',*,*,#273,.T.);
#434=ORIENTED_EDGE('',*,*,#276,.T.);
#435=ORIENTED_EDGE('',*,*,#279,.T.);
#436=ORIENTED_EDGE('',*,*,#282,.T.);
#437=ORIENTED_EDGE('',*,*,#285,.T.);
#438=ORIENTED_EDGE('',*,*,#288,.T.);
#439=ORIENTED_EDGE('',*,*,#302,.T.);
#440=ORIENTED_EDGE('',*,*,#299,.T.);
#441=ORIENTED_EDGE('',*,*,#296,.T.);
#442=ORIENTED_EDGE('',*,*,#293,.T.);
#443=ORIENTED_EDGE('',*,*,#331,.F.);
#444=ORIENTED_EDGE('',*,*,#303,.F.);
#445=ORIENTED_EDGE('',*,*,#307,.T.);
#446=ORIENTED_EDGE('',*,*,#310,.F.);
#447=ORIENTED_EDGE('',*,*,#313,.T.);
#448=ORIENTED_EDGE('',*,*,#316,.T.);
#449=ORIENTED_EDGE('',*,*,#319,.F.);
#450=ORIENTED_EDGE('',*,*,#322,.T.);
#451=ORIENTED_EDGE('',*,*,#325,.F.);
#452=ORIENTED_EDGE('',*,*,#328,.T.);
#453=ORIENTED_EDGE('',*,*,#269,.T.);
#454=ORIENTED_EDGE('',*,*,#272,.T.);
#455=ORIENTED_EDGE('',*,*,#275,.T.);
#456=ORIENTED_EDGE('',*,*,#278,.T.);
#457=ORIENTED_EDGE('',*,*,#281,.T.);
#458=ORIENTED_EDGE('',*,*,#284,.T.);
#459=ORIENTED_EDGE('',*,*,#287,.T.);
#460=ORIENTED_EDGE('',*,*,#290,.T.);
#461=ORIENTED_EDGE('',*,*,#301,.T.);
#462=ORIENTED_EDGE('',*,*,#291,.T.);
#463=ORIENTED_EDGE('',*,*,#295,.T.);
#464=ORIENTED_EDGE('',*,*,#298,.T.);
#465=CYLINDRICAL_SURFACE('',#516,1.15);
#466=CYLINDRICAL_SURFACE('',#519,1.15);
#467=CYLINDRICAL_SURFACE('',#522,1.15);
#468=CYLINDRICAL_SURFACE('',#525,1.15);
#469=CYLINDRICAL_SURFACE('',#528,1.6);
#470=CYLINDRICAL_SURFACE('',#531,1.6);
#471=CYLINDRICAL_SURFACE('',#534,1.6);
#472=CYLINDRICAL_SURFACE('',#537,1.6);
#473=CYLINDRICAL_SURFACE('',#544,3.00000000000001);
#474=CYLINDRICAL_SURFACE('',#548,3.);
#475=CYLINDRICAL_SURFACE('',#553,3.00000000000001);
#476=CYLINDRICAL_SURFACE('',#557,2.99999999999999);
#477=ADVANCED_FACE('',(#49),#465,.F.);
#478=ADVANCED_FACE('',(#50),#466,.F.);
#479=ADVANCED_FACE('',(#51),#467,.F.);
#480=ADVANCED_FACE('',(#52),#468,.F.);
#481=ADVANCED_FACE('',(#53),#469,.F.);
#482=ADVANCED_FACE('',(#54),#470,.F.);
#483=ADVANCED_FACE('',(#55),#471,.F.);
#484=ADVANCED_FACE('',(#56),#472,.F.);
#485=ADVANCED_FACE('',(#57),#37,.T.);
#486=ADVANCED_FACE('',(#58),#38,.T.);
#487=ADVANCED_FACE('',(#59),#39,.T.);
#488=ADVANCED_FACE('',(#60),#40,.T.);
#489=ADVANCED_FACE('',(#61),#473,.T.);
#490=ADVANCED_FACE('',(#62),#41,.T.);
#491=ADVANCED_FACE('',(#63),#474,.T.);
#492=ADVANCED_FACE('',(#64),#42,.T.);
#493=ADVANCED_FACE('',(#65),#43,.T.);
#494=ADVANCED_FACE('',(#66),#475,.T.);
#495=ADVANCED_FACE('',(#67),#44,.T.);
#496=ADVANCED_FACE('',(#68),#476,.T.);
#497=ADVANCED_FACE('',(#69),#45,.T.);
#498=ADVANCED_FACE('',(#70),#46,.T.);
#499=ADVANCED_FACE('',(#71,#19,#20,#21,#22,#23,#24,#25,#26,#27),#47,.T.);
#500=ADVANCED_FACE('',(#72,#28,#29,#30,#31,#32,#33,#34,#35,#36),#48,.F.);
#501=CLOSED_SHELL('',(#477,#478,#479,#480,#481,#482,#483,#484,#485,#486,
#487,#488,#489,#490,#491,#492,#493,#494,#495,#496,#497,#498,#499,#500));
#502=DERIVED_UNIT_ELEMENT(#504,1.);
#503=DERIVED_UNIT_ELEMENT(#853,-3.);
#504=(
MASS_UNIT()
NAMED_UNIT(*)
SI_UNIT(.KILO.,.GRAM.)
);
#505=DERIVED_UNIT((#502,#503));
#506=MEASURE_REPRESENTATION_ITEM('density measure',
POSITIVE_RATIO_MEASURE(7850.),#505);
#507=PROPERTY_DEFINITION_REPRESENTATION(#512,#509);
#508=PROPERTY_DEFINITION_REPRESENTATION(#513,#510);
#509=REPRESENTATION('material name',(#511),#850);
#510=REPRESENTATION('density',(#506),#850);
#511=DESCRIPTIVE_REPRESENTATION_ITEM('Steel','Steel');
#512=PROPERTY_DEFINITION('material property','material name',#865);
#513=PROPERTY_DEFINITION('material property','density of part',#865);
#514=AXIS2_PLACEMENT_3D('',#709,#565,#566);
#515=AXIS2_PLACEMENT_3D('',#710,#567,#568);
#516=AXIS2_PLACEMENT_3D('',#711,#569,#570);
#517=AXIS2_PLACEMENT_3D('',#713,#571,#572);
#518=AXIS2_PLACEMENT_3D('',#716,#574,#575);
#519=AXIS2_PLACEMENT_3D('',#717,#576,#577);
#520=AXIS2_PLACEMENT_3D('',#719,#578,#579);
#521=AXIS2_PLACEMENT_3D('',#722,#581,#582);
#522=AXIS2_PLACEMENT_3D('',#723,#583,#584);
#523=AXIS2_PLACEMENT_3D('',#725,#585,#586);
#524=AXIS2_PLACEMENT_3D('',#728,#588,#589);
#525=AXIS2_PLACEMENT_3D('',#729,#590,#591);
#526=AXIS2_PLACEMENT_3D('',#731,#592,#593);
#527=AXIS2_PLACEMENT_3D('',#734,#595,#596);
#528=AXIS2_PLACEMENT_3D('',#735,#597,#598);
#529=AXIS2_PLACEMENT_3D('',#737,#599,#600);
#530=AXIS2_PLACEMENT_3D('',#740,#602,#603);
#531=AXIS2_PLACEMENT_3D('',#741,#604,#605);
#532=AXIS2_PLACEMENT_3D('',#743,#606,#607);
#533=AXIS2_PLACEMENT_3D('',#746,#609,#610);
#534=AXIS2_PLACEMENT_3D('',#747,#611,#612);
#535=AXIS2_PLACEMENT_3D('',#749,#613,#614);
#536=AXIS2_PLACEMENT_3D('',#752,#616,#617);
#537=AXIS2_PLACEMENT_3D('',#753,#618,#619);
#538=AXIS2_PLACEMENT_3D('',#755,#620,#621);
#539=AXIS2_PLACEMENT_3D('',#758,#623,#624);
#540=AXIS2_PLACEMENT_3D('',#759,#625,#626);
#541=AXIS2_PLACEMENT_3D('',#768,#631,#632);
#542=AXIS2_PLACEMENT_3D('',#774,#636,#637);
#543=AXIS2_PLACEMENT_3D('',#780,#641,#642);
#544=AXIS2_PLACEMENT_3D('',#783,#645,#646);
#545=AXIS2_PLACEMENT_3D('',#786,#647,#648);
#546=AXIS2_PLACEMENT_3D('',#790,#650,#651);
#547=AXIS2_PLACEMENT_3D('',#792,#653,#654);
#548=AXIS2_PLACEMENT_3D('',#798,#658,#659);
#549=AXIS2_PLACEMENT_3D('',#800,#660,#661);
#550=AXIS2_PLACEMENT_3D('',#802,#662,#663);
#551=AXIS2_PLACEMENT_3D('',#804,#665,#666);
#552=AXIS2_PLACEMENT_3D('',#810,#670,#671);
#553=AXIS2_PLACEMENT_3D('',#816,#675,#676);
#554=AXIS2_PLACEMENT_3D('',#818,#677,#678);
#555=AXIS2_PLACEMENT_3D('',#820,#679,#680);
#556=AXIS2_PLACEMENT_3D('',#822,#682,#683);
#557=AXIS2_PLACEMENT_3D('',#828,#687,#688);
#558=AXIS2_PLACEMENT_3D('',#830,#689,#690);
#559=AXIS2_PLACEMENT_3D('',#832,#691,#692);
#560=AXIS2_PLACEMENT_3D('',#834,#694,#695);
#561=AXIS2_PLACEMENT_3D('',#840,#699,#700);
#562=AXIS2_PLACEMENT_3D('',#843,#703,#704);
#563=AXIS2_PLACEMENT_3D('',#844,#705,#706);
#564=AXIS2_PLACEMENT_3D('',#845,#707,#708);
#565=DIRECTION('axis',(0.,0.,1.));
#566=DIRECTION('refdir',(1.,0.,0.));
#567=DIRECTION('axis',(0.,0.,1.));
#568=DIRECTION('refdir',(1.,0.,0.));
#569=DIRECTION('center_axis',(0.,0.,-1.));
#570=DIRECTION('ref_axis',(1.,0.,0.));
#571=DIRECTION('center_axis',(0.,0.,-1.));
#572=DIRECTION('ref_axis',(1.,0.,0.));
#573=DIRECTION('',(0.,0.,-1.));
#574=DIRECTION('center_axis',(0.,0.,1.));
#575=DIRECTION('ref_axis',(1.,0.,0.));
#576=DIRECTION('center_axis',(0.,0.,-1.));
#577=DIRECTION('ref_axis',(1.,0.,0.));
#578=DIRECTION('center_axis',(0.,0.,-1.));
#579=DIRECTION('ref_axis',(1.,0.,0.));
#580=DIRECTION('',(0.,0.,-1.));
#581=DIRECTION('center_axis',(0.,0.,1.));
#582=DIRECTION('ref_axis',(1.,0.,0.));
#583=DIRECTION('center_axis',(0.,0.,-1.));
#584=DIRECTION('ref_axis',(1.,0.,0.));
#585=DIRECTION('center_axis',(0.,0.,-1.));
#586=DIRECTION('ref_axis',(1.,0.,0.));
#587=DIRECTION('',(0.,0.,-1.));
#588=DIRECTION('center_axis',(0.,0.,1.));
#589=DIRECTION('ref_axis',(1.,0.,0.));
#590=DIRECTION('center_axis',(0.,0.,-1.));
#591=DIRECTION('ref_axis',(1.,0.,0.));
#592=DIRECTION('center_axis',(0.,0.,-1.));
#593=DIRECTION('ref_axis',(1.,0.,0.));
#594=DIRECTION('',(0.,0.,-1.));
#595=DIRECTION('center_axis',(0.,0.,1.));
#596=DIRECTION('ref_axis',(1.,0.,0.));
#597=DIRECTION('center_axis',(0.,0.,-1.));
#598=DIRECTION('ref_axis',(1.,0.,0.));
#599=DIRECTION('center_axis',(0.,0.,-1.));
#600=DIRECTION('ref_axis',(1.,0.,0.));
#601=DIRECTION('',(0.,0.,-1.));
#602=DIRECTION('center_axis',(0.,0.,1.));
#603=DIRECTION('ref_axis',(1.,0.,0.));
#604=DIRECTION('center_axis',(0.,0.,-1.));
#605=DIRECTION('ref_axis',(1.,0.,0.));
#606=DIRECTION('center_axis',(0.,0.,-1.));
#607=DIRECTION('ref_axis',(1.,0.,0.));
#608=DIRECTION('',(0.,0.,-1.));
#609=DIRECTION('center_axis',(0.,0.,1.));
#610=DIRECTION('ref_axis',(1.,0.,0.));
#611=DIRECTION('center_axis',(0.,0.,-1.));
#612=DIRECTION('ref_axis',(1.,0.,0.));
#613=DIRECTION('center_axis',(0.,0.,-1.));
#614=DIRECTION('ref_axis',(1.,0.,0.));
#615=DIRECTION('',(0.,0.,-1.));
#616=DIRECTION('center_axis',(0.,0.,1.));
#617=DIRECTION('ref_axis',(1.,0.,0.));
#618=DIRECTION('center_axis',(0.,0.,-1.));
#619=DIRECTION('ref_axis',(1.,0.,0.));
#620=DIRECTION('center_axis',(0.,0.,-1.));
#621=DIRECTION('ref_axis',(1.,0.,0.));
#622=DIRECTION('',(0.,0.,-1.));
#623=DIRECTION('center_axis',(0.,0.,1.));
#624=DIRECTION('ref_axis',(1.,0.,0.));
#625=DIRECTION('center_axis',(-1.,9.86864910777917E-17,0.));
#626=DIRECTION('ref_axis',(-9.86864910777917E-17,-1.,0.));
#627=DIRECTION('',(9.86864910777917E-17,1.,0.));
#628=DIRECTION('',(0.,0.,1.));
#629=DIRECTION('',(-9.86864910777917E-17,-1.,0.));
#630=DIRECTION('',(0.,0.,1.));
#631=DIRECTION('center_axis',(0.,-1.,0.));
#632=DIRECTION('ref_axis',(1.,0.,0.));
#633=DIRECTION('',(-1.,0.,0.));
#634=DIRECTION('',(1.,0.,0.));
#635=DIRECTION('',(0.,0.,1.));
#636=DIRECTION('center_axis',(1.,9.86864910777917E-17,0.));
#637=DIRECTION('ref_axis',(-9.86864910777917E-17,1.,0.));
#638=DIRECTION('',(9.86864910777917E-17,-1.,0.));
#639=DIRECTION('',(-9.86864910777917E-17,1.,0.));
#640=DIRECTION('',(0.,0.,1.));
#641=DIRECTION('center_axis',(-9.86864910777917E-17,1.,0.));
#642=DIRECTION('ref_axis',(-1.,-9.86864910777917E-17,0.));
#643=DIRECTION('',(1.,9.86864910777917E-17,0.));
#644=DIRECTION('',(-1.,-9.86864910777917E-17,0.));
#645=DIRECTION('center_axis',(0.,0.,1.));
#646=DIRECTION('ref_axis',(-5.92118946466749E-15,1.,0.));
#647=DIRECTION('center_axis',(0.,0.,1.));
#648=DIRECTION('ref_axis',(-5.92118946466749E-15,1.,0.));
#649=DIRECTION('',(0.,0.,1.));
#650=DIRECTION('center_axis',(0.,0.,1.));
#651=DIRECTION('ref_axis',(-5.92118946466749E-15,1.,0.));
#652=DIRECTION('',(0.,0.,1.));
#653=DIRECTION('center_axis',(1.34572487195307E-15,1.,0.));
#654=DIRECTION('ref_axis',(-1.,1.34572487195307E-15,0.));
#655=DIRECTION('',(1.,-1.34572487195307E-15,0.));
#656=DIRECTION('',(-1.,1.34572487195307E-15,0.));
#657=DIRECTION('',(0.,0.,1.));
#658=DIRECTION('center_axis',(0.,0.,1.));
#659=DIRECTION('ref_axis',(0.999999999999995,-1.04308111777603E-7,0.));
#660=DIRECTION('center_axis',(0.,0.,1.));
#661=DIRECTION('ref_axis',(0.999999999999995,-1.04308111777603E-7,0.));
#662=DIRECTION('center_axis',(0.,0.,1.));
#663=DIRECTION('ref_axis',(0.999999999999995,-1.04308111777603E-7,0.));
#664=DIRECTION('',(0.,0.,1.));
#665=DIRECTION('center_axis',(0.999999999999995,-1.04308114096738E-7,0.));
#666=DIRECTION('ref_axis',(1.04308114096738E-7,0.999999999999994,0.));
#667=DIRECTION('',(-1.04308114096738E-7,-0.999999999999994,0.));
#668=DIRECTION('',(1.04308114096738E-7,0.999999999999994,0.));
#669=DIRECTION('',(0.,0.,1.));
#670=DIRECTION('center_axis',(1.,0.,0.));
#671=DIRECTION('ref_axis',(0.,1.,0.));
#672=DIRECTION('',(0.,-1.,0.));
#673=DIRECTION('',(0.,1.,0.));
#674=DIRECTION('',(0.,0.,1.));
#675=DIRECTION('center_axis',(0.,0.,1.));
#676=DIRECTION('ref_axis',(2.96059473233374E-15,-1.,0.));
#677=DIRECTION('center_axis',(0.,0.,1.));
#678=DIRECTION('ref_axis',(2.96059473233374E-15,-1.,0.));
#679=DIRECTION('center_axis',(0.,0.,1.));
#680=DIRECTION('ref_axis',(2.96059473233374E-15,-1.,0.));
#681=DIRECTION('',(0.,0.,1.));
#682=DIRECTION('center_axis',(-8.97149914635377E-17,-1.,0.));
#683=DIRECTION('ref_axis',(1.,-8.97149914635377E-17,0.));
#684=DIRECTION('',(-1.,8.97149914635377E-17,0.));
#685=DIRECTION('',(1.,-8.97149914635377E-17,0.));
#686=DIRECTION('',(0.,0.,1.));
#687=DIRECTION('center_axis',(0.,0.,1.));
#688=DIRECTION('ref_axis',(-0.999999999999995,1.04308105856414E-7,0.));
#689=DIRECTION('center_axis',(0.,0.,1.));
#690=DIRECTION('ref_axis',(-0.999999999999995,1.04308105856414E-7,0.));
#691=DIRECTION('center_axis',(0.,0.,1.));
#692=DIRECTION('ref_axis',(-0.999999999999995,1.04308105856414E-7,0.));
#693=DIRECTION('',(0.,0.,1.));
#694=DIRECTION('center_axis',(-0.999999999999995,1.04308102254359E-7,0.));
#695=DIRECTION('ref_axis',(-1.04308102254359E-7,-0.999999999999994,0.));
#696=DIRECTION('',(1.04308102254359E-7,0.999999999999994,0.));
#697=DIRECTION('',(-1.04308102254359E-7,-0.999999999999994,0.));
#698=DIRECTION('',(0.,0.,1.));
#699=DIRECTION('center_axis',(-1.,1.1842378929335E-15,0.));
#700=DIRECTION('ref_axis',(-1.1842378929335E-15,-1.,0.));
#701=DIRECTION('',(-1.1842378929335E-15,-1.,0.));
#702=DIRECTION('',(-1.1842378929335E-15,-1.,0.));
#703=DIRECTION('center_axis',(0.,0.,1.));
#704=DIRECTION('ref_axis',(-1.,0.,0.));
#705=DIRECTION('center_axis',(0.,0.,1.));
#706=DIRECTION('ref_axis',(-1.,0.,0.));
#707=DIRECTION('',(0.,0.,1.));
#708=DIRECTION('',(1.,0.,0.));
#709=CARTESIAN_POINT('',(0.,0.,0.));
#710=CARTESIAN_POINT('',(0.,0.,0.));
#711=CARTESIAN_POINT('Origin',(48.75,-48.75,-14.));
#712=CARTESIAN_POINT('',(47.6,-48.75,6.));
#713=CARTESIAN_POINT('Origin',(48.75,-48.75,6.));
#714=CARTESIAN_POINT('',(47.6,-48.75,3.));
#715=CARTESIAN_POINT('',(47.6,-48.75,-14.));
#716=CARTESIAN_POINT('Origin',(48.75,-48.75,3.));
#717=CARTESIAN_POINT('Origin',(-48.75,48.75,-14.));
#718=CARTESIAN_POINT('',(-49.9,48.75,6.));
#719=CARTESIAN_POINT('Origin',(-48.75,48.75,6.));
#720=CARTESIAN_POINT('',(-49.9,48.75,3.));
#721=CARTESIAN_POINT('',(-49.9,48.75,-14.));
#722=CARTESIAN_POINT('Origin',(-48.75,48.75,3.));
#723=CARTESIAN_POINT('Origin',(48.75,48.75,-14.));
#724=CARTESIAN_POINT('',(47.6,48.75,6.));
#725=CARTESIAN_POINT('Origin',(48.75,48.75,6.));
#726=CARTESIAN_POINT('',(47.6,48.75,3.));
#727=CARTESIAN_POINT('',(47.6,48.75,-14.));
#728=CARTESIAN_POINT('Origin',(48.75,48.75,3.));
#729=CARTESIAN_POINT('Origin',(-48.7500000000001,-48.75,-14.));
#730=CARTESIAN_POINT('',(-49.9000000000001,-48.75,6.));
#731=CARTESIAN_POINT('Origin',(-48.7500000000001,-48.75,6.));
#732=CARTESIAN_POINT('',(-49.9000000000001,-48.75,3.));
#733=CARTESIAN_POINT('',(-49.9000000000001,-48.75,-14.));
#734=CARTESIAN_POINT('Origin',(-48.7500000000001,-48.75,3.));
#735=CARTESIAN_POINT('Origin',(-1.77635683940025E-14,-48.75,1.));
#736=CARTESIAN_POINT('',(-1.60000000000002,-48.75,6.));
#737=CARTESIAN_POINT('Origin',(-1.77635683940025E-14,-48.75,6.));
#738=CARTESIAN_POINT('',(-1.60000000000002,-48.75,3.));
#739=CARTESIAN_POINT('',(-1.60000000000002,-48.75,1.));
#740=CARTESIAN_POINT('Origin',(-1.77635683940025E-14,-48.75,3.));
#741=CARTESIAN_POINT('Origin',(1.77635683940025E-14,48.75,1.));
#742=CARTESIAN_POINT('',(-1.59999999999998,48.75,6.));
#743=CARTESIAN_POINT('Origin',(1.77635683940025E-14,48.75,6.));
#744=CARTESIAN_POINT('',(-1.59999999999998,48.75,3.));
#745=CARTESIAN_POINT('',(-1.59999999999998,48.75,1.));
#746=CARTESIAN_POINT('Origin',(1.77635683940025E-14,48.75,3.));
#747=CARTESIAN_POINT('Origin',(48.75,-1.77635683940025E-14,1.));
#748=CARTESIAN_POINT('',(47.15,-1.75676249061389E-14,6.));
#749=CARTESIAN_POINT('Origin',(48.75,-1.77635683940025E-14,6.));
#750=CARTESIAN_POINT('',(47.15,-1.79595118818661E-14,3.));
#751=CARTESIAN_POINT('',(47.15,-1.75676249061389E-14,1.));
#752=CARTESIAN_POINT('Origin',(48.75,-1.77635683940025E-14,3.));
#753=CARTESIAN_POINT('Origin',(-48.75,-1.77635683940025E-14,1.));
#754=CARTESIAN_POINT('',(-50.35,-1.75676249061389E-14,6.));
#755=CARTESIAN_POINT('Origin',(-48.75,-1.77635683940025E-14,6.));
#756=CARTESIAN_POINT('',(-50.35,-1.79595118818661E-14,3.));
#757=CARTESIAN_POINT('',(-50.35,-1.75676249061389E-14,1.));
#758=CARTESIAN_POINT('Origin',(-48.75,-1.77635683940025E-14,3.));
#759=CARTESIAN_POINT('Origin',(45.,45.,3.));
#760=CARTESIAN_POINT('',(45.,-45.,3.));
#761=CARTESIAN_POINT('',(45.,45.,3.));
#762=CARTESIAN_POINT('',(45.,-45.,3.));
#763=CARTESIAN_POINT('',(45.,-45.,6.));
#764=CARTESIAN_POINT('',(45.,-45.,3.));
#765=CARTESIAN_POINT('',(45.,45.,6.));
#766=CARTESIAN_POINT('',(45.,-45.,6.));
#767=CARTESIAN_POINT('',(45.,45.,3.));
#768=CARTESIAN_POINT('Origin',(-45.,45.,3.));
#769=CARTESIAN_POINT('',(-45.,45.,3.));
#770=CARTESIAN_POINT('',(45.,45.,3.));
#771=CARTESIAN_POINT('',(-45.,45.,6.));
#772=CARTESIAN_POINT('',(45.,45.,6.));
#773=CARTESIAN_POINT('',(-45.,45.,3.));
#774=CARTESIAN_POINT('Origin',(-45.,-45.,3.));
#775=CARTESIAN_POINT('',(-45.,-45.,3.));
#776=CARTESIAN_POINT('',(-45.,45.,3.));
#777=CARTESIAN_POINT('',(-45.,-45.,6.));
#778=CARTESIAN_POINT('',(-45.,45.,6.));
#779=CARTESIAN_POINT('',(-45.,-45.,3.));
#780=CARTESIAN_POINT('Origin',(45.,-45.,3.));
#781=CARTESIAN_POINT('',(-45.,-45.,3.));
#782=CARTESIAN_POINT('',(-45.,-45.,6.));
#783=CARTESIAN_POINT('Origin',(-49.5,57.0000008940697,3.));
#784=CARTESIAN_POINT('',(-49.5,60.0000008940697,3.));
#785=CARTESIAN_POINT('',(-52.5,57.0000008940697,3.));
#786=CARTESIAN_POINT('Origin',(-49.5,57.0000008940697,3.));
#787=CARTESIAN_POINT('',(-52.5,57.0000008940697,6.));
#788=CARTESIAN_POINT('',(-52.5,57.0000008940697,3.));
#789=CARTESIAN_POINT('',(-49.5,60.0000008940697,6.));
#790=CARTESIAN_POINT('Origin',(-49.5,57.0000008940697,6.));
#791=CARTESIAN_POINT('',(-49.5,60.0000008940697,3.));
#792=CARTESIAN_POINT('Origin',(49.5000004693866,60.0000008940695,3.));
#793=CARTESIAN_POINT('',(49.5000004693866,60.0000008940695,3.));
#794=CARTESIAN_POINT('',(-49.5,60.0000008940697,3.));
#795=CARTESIAN_POINT('',(49.5000004693866,60.0000008940695,6.));
#796=CARTESIAN_POINT('',(-49.5,60.0000008940697,6.));
#797=CARTESIAN_POINT('',(49.5000004693866,60.0000008940695,3.));
#798=CARTESIAN_POINT('Origin',(49.5000004693866,57.0000008940696,3.));
#799=CARTESIAN_POINT('',(52.5000004693866,57.0000005811452,3.));
#800=CARTESIAN_POINT('Origin',(49.5000004693866,57.0000008940696,3.));
#801=CARTESIAN_POINT('',(52.5000004693866,57.0000005811452,6.));
#802=CARTESIAN_POINT('Origin',(49.5000004693866,57.0000008940696,6.));
#803=CARTESIAN_POINT('',(52.5000004693866,57.0000005811452,3.));
#804=CARTESIAN_POINT('Origin',(52.5,52.5,3.));
#805=CARTESIAN_POINT('',(52.5,52.5,3.));
#806=CARTESIAN_POINT('',(52.5000004693866,57.0000005811452,3.));
#807=CARTESIAN_POINT('',(52.5,52.5,6.));
#808=CARTESIAN_POINT('',(52.5000004693866,57.0000005811452,6.));
#809=CARTESIAN_POINT('',(52.5,52.5,3.));
#810=CARTESIAN_POINT('Origin',(52.5,-57.0000008940697,3.));
#811=CARTESIAN_POINT('',(52.5,-57.0000008940697,3.));
#812=CARTESIAN_POINT('',(52.5,-52.5,3.));
#813=CARTESIAN_POINT('',(52.5,-57.0000008940697,6.));
#814=CARTESIAN_POINT('',(52.5,-52.5,6.));
#815=CARTESIAN_POINT('',(52.5,-57.0000008940697,3.));
#816=CARTESIAN_POINT('Origin',(49.5,-57.0000008940697,3.));
#817=CARTESIAN_POINT('',(49.5,-60.0000008940697,3.));
#818=CARTESIAN_POINT('Origin',(49.5,-57.0000008940697,3.));
#819=CARTESIAN_POINT('',(49.5,-60.0000008940697,6.));
#820=CARTESIAN_POINT('Origin',(49.5,-57.0000008940697,6.));
#821=CARTESIAN_POINT('',(49.5,-60.0000008940697,3.));
#822=CARTESIAN_POINT('Origin',(-49.5000004693866,-60.0000008940697,3.));
#823=CARTESIAN_POINT('',(-49.5000004693866,-60.0000008940697,3.));
#824=CARTESIAN_POINT('',(49.5,-60.0000008940697,3.));
#825=CARTESIAN_POINT('',(-49.5000004693866,-60.0000008940697,6.));
#826=CARTESIAN_POINT('',(49.5,-60.0000008940697,6.));
#827=CARTESIAN_POINT('',(-49.5000004693866,-60.0000008940697,3.));
#828=CARTESIAN_POINT('Origin',(-49.5000004693866,-57.0000008940697,3.));
#829=CARTESIAN_POINT('',(-52.5000004693866,-57.0000005811454,3.));
#830=CARTESIAN_POINT('Origin',(-49.5000004693866,-57.0000008940697,3.));
#831=CARTESIAN_POINT('',(-52.5000004693866,-57.0000005811454,6.));
#832=CARTESIAN_POINT('Origin',(-49.5000004693866,-57.0000008940697,6.));
#833=CARTESIAN_POINT('',(-52.5000004693866,-57.0000005811454,3.));
#834=CARTESIAN_POINT('Origin',(-52.5000000000001,-52.5,3.));
#835=CARTESIAN_POINT('',(-52.5000000000001,-52.5,3.));
#836=CARTESIAN_POINT('',(-52.5000004693866,-57.0000005811454,3.));
#837=CARTESIAN_POINT('',(-52.5000000000001,-52.5,6.));
#838=CARTESIAN_POINT('',(-52.5000004693866,-57.0000005811454,6.));
#839=CARTESIAN_POINT('',(-52.5000000000001,-52.5,3.));
#840=CARTESIAN_POINT('Origin',(-52.5,57.0000008940697,3.));
#841=CARTESIAN_POINT('',(-52.5,52.5,3.));
#842=CARTESIAN_POINT('',(-52.5,52.5,6.));
#843=CARTESIAN_POINT('Origin',(-8.88178419700125E-15,0.,6.));
#844=CARTESIAN_POINT('Origin',(-8.88178419700125E-15,0.,3.));
#845=CARTESIAN_POINT('',(0.,0.,0.));
#846=UNCERTAINTY_MEASURE_WITH_UNIT(LENGTH_MEASURE(0.01),#852,
'DISTANCE_ACCURACY_VALUE',
'Maximum model space distance between geometric entities at asserted c
onnectivities');
#847=UNCERTAINTY_MEASURE_WITH_UNIT(LENGTH_MEASURE(0.01),#852,
'DISTANCE_ACCURACY_VALUE',
'Maximum model space distance between geometric entities at asserted c
onnectivities');
#848=UNCERTAINTY_MEASURE_WITH_UNIT(LENGTH_MEASURE(0.01),#852,
'DISTANCE_ACCURACY_VALUE',
'Maximum model space distance between geometric entities at asserted c
onnectivities');
#849=(
GEOMETRIC_REPRESENTATION_CONTEXT(3)
GLOBAL_UNCERTAINTY_ASSIGNED_CONTEXT((#846))
GLOBAL_UNIT_ASSIGNED_CONTEXT((#852,#854,#855))
REPRESENTATION_CONTEXT('','3D')
);
#850=(
GEOMETRIC_REPRESENTATION_CONTEXT(3)
GLOBAL_UNCERTAINTY_ASSIGNED_CONTEXT((#847))
GLOBAL_UNIT_ASSIGNED_CONTEXT((#852,#854,#855))
REPRESENTATION_CONTEXT('','3D')
);
#851=(
GEOMETRIC_REPRESENTATION_CONTEXT(3)
GLOBAL_UNCERTAINTY_ASSIGNED_CONTEXT((#848))
GLOBAL_UNIT_ASSIGNED_CONTEXT((#852,#854,#855))
REPRESENTATION_CONTEXT('','3D')
);
#852=(
LENGTH_UNIT()
NAMED_UNIT(*)
SI_UNIT(.MILLI.,.METRE.)
);
#853=(
LENGTH_UNIT()
NAMED_UNIT(*)
SI_UNIT($,.METRE.)
);
#854=(
NAMED_UNIT(*)
PLANE_ANGLE_UNIT()
SI_UNIT($,.RADIAN.)
);
#855=(
NAMED_UNIT(*)
SI_UNIT($,.STERADIAN.)
SOLID_ANGLE_UNIT()
);
#856=SHAPE_DEFINITION_REPRESENTATION(#858,#861);
#857=SHAPE_DEFINITION_REPRESENTATION(#859,#862);
#858=PRODUCT_DEFINITION_SHAPE('',$,#864);
#859=PRODUCT_DEFINITION_SHAPE('',$,#865);
#860=PRODUCT_DEFINITION_SHAPE($,$,#14);
#861=SHAPE_REPRESENTATION('',(#514,#564),#849);
#862=SHAPE_REPRESENTATION('',(#515),#850);
#863=PRODUCT_DEFINITION_CONTEXT('part definition',#871,'design');
#864=PRODUCT_DEFINITION('Stencil Holder','Stencil Holder v4',#866,#863);
#865=PRODUCT_DEFINITION('stencilFrame','stencilFrame',#867,#863);
#866=PRODUCT_DEFINITION_FORMATION('',$,#873);
#867=PRODUCT_DEFINITION_FORMATION('',$,#874);
#868=PRODUCT_RELATED_PRODUCT_CATEGORY('Stencil Holder v4',
'Stencil Holder v4',(#873));
#869=PRODUCT_RELATED_PRODUCT_CATEGORY('stencilFrame','stencilFrame',(#874));
#870=APPLICATION_PROTOCOL_DEFINITION('international standard',
'automotive_design',2009,#871);
#871=APPLICATION_CONTEXT(
'Core Data for Automotive Mechanical Design Process');
#872=PRODUCT_CONTEXT('part definition',#871,'mechanical');
#873=PRODUCT('Stencil Holder','Stencil Holder v4',$,(#872));
#874=PRODUCT('stencilFrame','stencilFrame',$,(#872));
#875=PRESENTATION_STYLE_ASSIGNMENT((#877));
#876=PRESENTATION_STYLE_ASSIGNMENT((#878));
#877=SURFACE_STYLE_USAGE(.BOTH.,#879);
#878=SURFACE_STYLE_USAGE(.BOTH.,#880);
#879=SURFACE_SIDE_STYLE('',(#881));
#880=SURFACE_SIDE_STYLE('',(#882));
#881=SURFACE_STYLE_FILL_AREA(#883);
#882=SURFACE_STYLE_FILL_AREA(#884);
#883=FILL_AREA_STYLE('Steel - Satin',(#885));
#884=FILL_AREA_STYLE('ABS (White)',(#886));
#885=FILL_AREA_STYLE_COLOUR('Steel - Satin',#887);
#886=FILL_AREA_STYLE_COLOUR('ABS (White)',#888);
#887=COLOUR_RGB('Steel - Satin',0.627450980392157,0.627450980392157,0.627450980392157);
#888=COLOUR_RGB('ABS (White)',0.964705882352941,0.964705882352941,0.952941176470588);
ENDSEC;
END-ISO-10303-21;
